<?xml version="1.0" standalone="no"?>
<!DOCTYPE svg PUBLIC "-//W3C//DTD SVG 1.1//EN" "http://www.w3.org/Graphics/SVG/1.1/DTD/svg11.dtd" >
<svg xmlns="http://www.w3.org/2000/svg" xmlns:xlink="http://www.w3.org/1999/xlink" version="1.1">
<metadata>
Created by FontForge 20170924 at Sat Jan  6 08:19:29 2018
 By www-data
Copyright (c) 2015 by 29Letters / 29LT. All rights reserved.
</metadata>
<defs>
<font id="29LTRavi-Black" horiz-adv-x="0" >
  <font-face 
    font-family="29LT Ravi Black"
    font-weight="950"
    font-stretch="normal"
    units-per-em="1000"
    panose-1="0 0 5 4 0 0 0 2 0 4"
    ascent="800"
    descent="-200"
    bbox="-2470 -619 2002 1026"
    underline-thickness="50"
    underline-position="-100"
    unicode-range="U+000A-FFFC"
  />
<missing-glyph horiz-adv-x="526" 
d="M486 0h-446v690h446v-690zM144 566v-442h238v442h-238z" />
    <glyph glyph-name="la" unicode="&#xfedf;&#xfe8e;" horiz-adv-x="501" arabic-form="isolated" 
d="M461 288q0 -79 -21.5 -130t-66.5 -84.5t-114.5 -56.5t-164.5 -46l-34 150l71 17q-6 50 -19.5 114.5t-30 131.5t-35 130t-34.5 110l134 44q18 -59 34 -122.5t28.5 -128.5t22 -129t14.5 -123q44 14 63 29t19 46v459l134 11v-422z" />
    <glyph glyph-name="la.fina" unicode="&#xfee0;&#xfe8e;" horiz-adv-x="566" arabic-form="final" 
d="M566 0q-32 0 -60.5 3.5t-52.5 13t-42 26t-28 42.5q-33 -35 -107.5 -61.5t-181.5 -52.5l-34 150l71 17q-6 50 -19.5 114.5t-30 131.5t-35 130t-34.5 110l134 44q18 -59 34 -122.5t28.5 -128.5t22 -129t14.5 -123q44 14 63 29t19 46v459l134 11v-433q0 -36 6 -56.5t19 -30
t33 -11.5t47 -2v-177z" />
    <glyph glyph-name="la.aa" unicode="&#xfedf;&#xfe82;" horiz-adv-x="501" arabic-form="isolated" 
d="M131 138q-6 46 -16.5 99.5t-23.5 109t-28.5 110t-30.5 102.5l134 41q29 -105 49.5 -214.5t29.5 -220.5q44 14 63 29t19 46v459l134 11v-422q0 -79 -21.5 -130t-66.5 -84.5t-114.5 -56.5t-164.5 -46l-34 150zM278 687q-47 -7 -79.5 -9t-50.5 -2q-25 0 -49.5 3t-49.5 13
l-29 -67l-88 41l33 73q17 37 36 46.5t34 9.5q10 0 21 -2t24.5 -5t32.5 -5t46 -2q11 0 35 1t75 6z" />
    <glyph glyph-name="la.aa.fina" unicode="&#xfee0;&#xfe82;" horiz-adv-x="566" arabic-form="final" 
d="M131 138q-6 46 -16.5 99.5t-23.5 109t-28.5 110t-30.5 102.5l134 41q29 -105 49.5 -214.5t29.5 -220.5q44 14 63 29t19 46v459l134 11v-433q0 -36 6 -56.5t19 -30t33 -11.5t47 -2v-177q-32 0 -60.5 3.5t-52.5 13t-42 26t-28 42.5q-33 -35 -107.5 -61.5t-181.5 -52.5
l-34 150zM278 687q-47 -7 -79.5 -9t-50.5 -2q-25 0 -49.5 3t-49.5 13l-29 -67l-88 41l33 73q17 37 36 46.5t34 9.5q10 0 21 -2t24.5 -5t32.5 -5t46 -2q11 0 35 1t75 6z" />
    <glyph glyph-name="la.thmz" unicode="&#xfedf;&#xfe84;" horiz-adv-x="501" arabic-form="isolated" 
d="M131 138q-10 72 -30 162t-46 182l132 38q21 -94 35.5 -180.5t22.5 -174.5q44 14 63 29t19 46v459l134 11v-422q0 -79 -21.5 -130t-66.5 -84.5t-114.5 -56.5t-164.5 -46l-34 150zM-17 694q0 56 34 83.5t84 27.5q11 0 25.5 -2t34.5 -9l-19 -78q-9 3 -18.5 5t-20.5 2
q-31 0 -53 -22q5 -11 17.5 -26t30.5 -26l102 48l32 -70l-261 -122l-33 71l80 37q-14 16 -24.5 35.5t-10.5 45.5z" />
    <glyph glyph-name="la.thmz.fina" unicode="&#xfee0;&#xfe84;" horiz-adv-x="566" arabic-form="final" 
d="M131 138q-10 72 -30 162t-46 182l132 38q21 -94 35.5 -180.5t22.5 -174.5q44 14 63 29t19 46v459l134 11v-433q0 -36 6 -56.5t19 -30t33 -11.5t47 -2v-177q-32 0 -60.5 3.5t-52.5 13t-42 26t-28 42.5q-33 -35 -107.5 -61.5t-181.5 -52.5l-34 150zM-17 694q0 56 34 83.5
t84 27.5q11 0 25.5 -2t34.5 -9l-19 -78q-9 3 -18.5 5t-20.5 2q-31 0 -53 -22q5 -11 17.5 -26t30.5 -26l102 48l32 -70l-261 -122l-33 71l80 37q-14 16 -24.5 35.5t-10.5 45.5z" />
    <glyph glyph-name="la.bhmz" unicode="&#xfedf;&#xfe88;" horiz-adv-x="501" arabic-form="isolated" 
d="M461 288q0 -79 -21.5 -130t-66.5 -84.5t-114.5 -56.5t-164.5 -46l-34 150l71 17q-6 50 -19.5 114.5t-30 131.5t-35 130t-34.5 110l134 44q18 -59 34 -122.5t28.5 -128.5t22 -129t14.5 -123q44 14 63 29t19 46v459l134 11v-422zM83 -210q0 56 34 83.5t84 27.5
q11 0 25.5 -2t34.5 -9l-19 -78q-9 3 -18.5 5t-20.5 2q-31 0 -53 -22q5 -11 17.5 -26t30.5 -26l102 48l32 -70l-261 -122l-33 71l80 37q-14 16 -24.5 35.5t-10.5 45.5z" />
    <glyph glyph-name="la.bhmz.fina" unicode="&#xfee0;&#xfe88;" horiz-adv-x="566" arabic-form="final" 
d="M566 0q-32 0 -60.5 3.5t-52.5 13t-42 26t-28 42.5q-33 -35 -107.5 -61.5t-181.5 -52.5l-34 150l71 17q-6 50 -19.5 114.5t-30 131.5t-35 130t-34.5 110l134 44q18 -59 34 -122.5t28.5 -128.5t22 -129t14.5 -123q44 14 63 29t19 46v459l134 11v-433q0 -36 6 -56.5t19 -30
t33 -11.5t47 -2v-177zM83 -210q0 56 34 83.5t84 27.5q11 0 25.5 -2t34.5 -9l-19 -78q-9 3 -18.5 5t-20.5 2q-31 0 -53 -22q5 -11 17.5 -26t30.5 -26l102 48l32 -70l-261 -122l-33 71l80 37q-14 16 -24.5 35.5t-10.5 45.5z" />
    <glyph glyph-name="la.tvasla" unicode="&#xfedf;&#xfb51;" horiz-adv-x="501" 
d="M131 138q-5 36 -14.5 84t-21.5 100.5t-26 105.5t-27 99l132 38q12 -47 23 -99t20.5 -104t16.5 -102.5t11 -94.5q44 14 63 29t19 46v459l134 11v-422q0 -79 -21.5 -130t-66.5 -84.5t-114.5 -56.5t-164.5 -46l-34 150zM-70 648q15 29 28.5 45.5t24.5 25t20 10.5t15 2
q12 0 21 -5t23 -15q8 16 19.5 33.5t25 32.5t27.5 25t28 10q22 0 42.5 -9.5t36.5 -25t26 -36.5t10 -44q0 -8 -3 -18t-8.5 -20t-13 -18t-15.5 -11q-31 -12 -59.5 -16t-57.5 -4q-22 0 -38.5 7t-28.5 16t-21.5 16t-17.5 7t-15.5 -8t-20.5 -29zM160 737q-12 -7 -26.5 -20
t-25.5 -33q5 -2 11 -2.5t9 -0.5q21 0 46.5 3t44.5 11q-7 17 -22.5 27t-36.5 15z" />
    <glyph glyph-name="la.tvasla.fina" unicode="&#xfee0;&#xfb51;" horiz-adv-x="566" 
d="M131 138q-5 36 -14.5 84t-21.5 100.5t-26 105.5t-27 99l132 38q12 -47 23 -99t20.5 -104t16.5 -102.5t11 -94.5q44 14 63 29t19 46v459l134 11v-433q0 -36 6 -56.5t19 -30t33 -11.5t47 -2v-177q-32 0 -60.5 3.5t-52.5 13t-42 26t-28 42.5q-33 -35 -107.5 -61.5
t-181.5 -52.5l-34 150zM-70 648q15 29 28.5 45.5t24.5 25t20 10.5t15 2q12 0 21 -5t23 -15q8 16 19.5 33.5t25 32.5t27.5 25t28 10q22 0 42.5 -9.5t36.5 -25t26 -36.5t10 -44q0 -8 -3 -18t-8.5 -20t-13 -18t-15.5 -11q-31 -12 -59.5 -16t-57.5 -4q-22 0 -38.5 7t-28.5 16
t-21.5 16t-17.5 7t-15.5 -8t-20.5 -29zM160 737q-12 -7 -26.5 -20t-25.5 -33q5 -2 11 -2.5t9 -0.5q21 0 46.5 3t44.5 11q-7 17 -22.5 27t-36.5 15z" />
    <glyph glyph-name="lellah" unicode="&#xfedf;&#x650;&#xfee0;&#xfeea;" horiz-adv-x="1056" 
d="M972 611q11 -50 20.5 -105.5t17 -110t12 -104.5t4.5 -89q0 -19 -5 -42t-15.5 -45.5t-27 -43.5t-38.5 -36q-18 -12 -50.5 -23.5t-82.5 -11.5q-21 0 -43 3t-43 11t-39.5 21.5t-31.5 34.5q-1 -3 -4.5 -8.5t-7 -12t-7 -11.5t-4.5 -6q-12 -8 -28.5 -14t-33.5 -10t-32 -6
t-25 -2q-21 0 -47.5 1.5t-53 11.5t-51 31t-41.5 60l-21 -46q-44 -14 -74 -17t-56 -3q-16 0 -40 4t-47 17q-13 7 -22 22t-14.5 33t-8 36t-2.5 32q0 88 49 152t127 106l-20 81l136 44l86 -339q7 -26 29.5 -37.5t70.5 -11.5q14 0 37 4.5t40 13.5v85v211h138v-241q0 -25 8 -39.5
t21.5 -22t31.5 -9.5t38 -2q14 0 30 2.5t29 10.5q-1 36 -4.5 82t-10 97t-16.5 105.5t-23 108.5zM245 311q-15 -8 -30 -18t-28 -22.5t-22.5 -26.5t-13.5 -30q-2 -10 -2 -17q8 -2 18 -2h15q20 0 46 4t44 12zM651 1026q12 -32 19.5 -59.5t11.5 -54.5t5.5 -55t1.5 -61h-64
q0 56 -10 104.5t-33 100.5zM787 758q4 -37 5.5 -61.5t1.5 -37.5q0 -30 -7 -48t-18 -32q-14 -17 -28 -23t-22 -6q-14 0 -37 7.5t-43 21.5q-17 -19 -33 -24t-31 -5q-38 0 -64.5 26.5t-26.5 92.5q0 21 2 41.5t6 47.5l71 -7q-5 -29 -6.5 -48.5t-1.5 -35.5q0 -7 4.5 -16.5
t19.5 -9.5q12 0 18.5 8t8.5 17q12 43 23 92l58 -14q-4 -20 -9 -44t-11 -47q1 -2 8.5 -4t16.5 -4.5t17 -4t11 -1.5v9q0 24 -2 50.5t-5 51.5z" />
    <glyph glyph-name="falellah" unicode="&#xfed3;&#x64e;&#xfee0;&#xfee0;&#xfeea;" horiz-adv-x="1626" 
d="M807 0q-21 0 -43 3t-43 11t-39.5 21.5t-31.5 34.5q-1 -3 -4.5 -8.5t-7 -12t-7 -11.5t-4.5 -6q-12 -8 -28.5 -14t-33.5 -10t-32 -6t-25 -2q-21 0 -47.5 1.5t-53 11.5t-51 31t-41.5 60l-21 -46q-44 -14 -74 -17t-56 -3q-16 0 -40 4t-47 17q-13 7 -22 22t-14.5 33t-8 36
t-2.5 32q0 88 49 152t127 106l-20 81l136 44l86 -339q7 -26 29.5 -37.5t70.5 -11.5q14 0 37 4.5t40 13.5v85v211h138v-241q0 -25 8 -39.5t21.5 -22t31.5 -9.5t38 -2q29 0 58.5 6t45.5 15v82v328h138v-358q0 -25 8 -39.5t22 -22t33 -9.5t42 -2q51 0 93 1t77.5 3.5t66 7
t60.5 11.5q2 11 2 22.5v22.5q-32 -5 -58.5 -8t-59.5 -3q-40 0 -66.5 11.5t-42 31t-21.5 45.5t-6 55q0 36 11.5 77t33.5 75t54 56.5t73 22.5q46 0 85 -24t66.5 -68.5t43 -108.5t15.5 -143q0 -6 -1 -18.5t-2.5 -27t-3.5 -28.5t-4 -22q-11 -40 -34 -75.5t-54 -49.5
q-23 -11 -52 -19t-68.5 -13t-90.5 -8t-117 -3q-60 0 -105.5 14t-71.5 56q-2 -3 -5.5 -8.5t-7 -12t-6.5 -11.5t-4 -6q-26 -16 -64 -24t-98 -8zM1379 453q-20 0 -36.5 -20.5t-16.5 -49.5q2 -5 10 -10t34 -5q23 0 45 2.5t40 8.5q-7 35 -27.5 54.5t-48.5 19.5zM245 311
q-15 -8 -30 -18t-28 -22.5t-22.5 -26.5t-13.5 -30q-2 -10 -2 -17q8 -2 18 -2h15q20 0 46 4t44 12zM787 758q4 -37 5.5 -61.5t1.5 -37.5q0 -30 -7 -48t-18 -32q-14 -17 -28 -23t-22 -6q-14 0 -37 7.5t-43 21.5q-17 -19 -33 -24t-31 -5q-38 0 -64.5 26.5t-26.5 92.5
q0 21 2 41.5t6 47.5l71 -7q-5 -29 -6.5 -48.5t-1.5 -35.5q0 -7 4.5 -16.5t19.5 -9.5q12 0 18.5 8t8.5 17q12 43 23 92l58 -14q-4 -20 -9 -44t-11 -47q1 -2 8.5 -4t16.5 -4.5t17 -4t11 -1.5v9q0 24 -2 50.5t-5 51.5zM651 1026q12 -32 19.5 -59.5t11.5 -54.5t5.5 -55t1.5 -61
h-64q0 56 -10 104.5t-33 100.5zM1465 757l-89 -91l-89 90l89 90z" />
    <glyph glyph-name="fi" unicode="&#xfed3;&#xfbfd;" horiz-adv-x="845" arabic-form="isolated" 
d="M306 -259q-123 0 -184.5 63.5t-61.5 173.5q0 76 22.5 156t57.5 178l101 -35q-13 -38 -24.5 -75.5t-20 -71.5t-13.5 -61.5t-5 -46.5q0 -57 43.5 -82.5t110.5 -25.5q39 0 87.5 10.5t93.5 40.5q-23 24 -67 32t-126 8l44 172h53q55 0 93.5 1.5t68.5 4.5t54.5 7t51.5 10
q2 11 2 22.5v22.5q-32 -5 -58.5 -8t-59.5 -3q-40 0 -66 11.5t-41.5 31t-21.5 45.5t-6 55q0 36 11.5 77t33.5 75t53.5 56.5t72.5 22.5q46 0 85 -24t66.5 -68.5t43 -108.5t15.5 -143q0 -62 -13 -105t-37 -72t-59 -46.5t-79 -27.5q3 -15 3 -27q0 -57 -30.5 -102t-77.5 -77
t-104.5 -49t-111.5 -17zM598 453q-20 0 -36.5 -20.5t-16.5 -49.5q2 -5 10 -10t34 -5q20 0 43.5 2.5t41.5 8.5q-7 35 -27.5 54.5t-48.5 19.5zM683 756l-89 -91l-89 90l89 90z" />
    <glyph glyph-name="qi" unicode="&#xfed7;&#xfbfd;" horiz-adv-x="845" arabic-form="isolated" 
d="M306 -259q-123 0 -184.5 63.5t-61.5 173.5q0 76 22.5 156t57.5 178l101 -35q-13 -38 -24.5 -75.5t-20 -71.5t-13.5 -61.5t-5 -46.5q0 -57 43.5 -82.5t110.5 -25.5q39 0 87.5 10.5t93.5 40.5q-23 24 -67 32t-126 8l44 172h53q55 0 93.5 1.5t68.5 4.5t54.5 7t51.5 10
q2 11 2 22.5v22.5q-32 -5 -58.5 -8t-59.5 -3q-40 0 -66 11.5t-41.5 31t-21.5 45.5t-6 55q0 36 11.5 77t33.5 75t53.5 56.5t72.5 22.5q46 0 85 -24t66.5 -68.5t43 -108.5t15.5 -143q0 -62 -13 -105t-37 -72t-59 -46.5t-79 -27.5q3 -15 3 -27q0 -57 -30.5 -102t-77.5 -77
t-104.5 -49t-111.5 -17zM598 453q-20 0 -36.5 -20.5t-16.5 -49.5q2 -5 10 -10t34 -5q20 0 43.5 2.5t41.5 8.5q-7 35 -27.5 54.5t-48.5 19.5zM604 774l70 71l89 -89l-89 -91l-70 71l-70 -71l-89 90l89 90z" />
    <glyph glyph-name="vi" unicode="&#xfb6c;&#xfbfd;" horiz-adv-x="845" 
d="M306 -259q-123 0 -184.5 63.5t-61.5 173.5q0 76 22.5 156t57.5 178l101 -35q-13 -38 -24.5 -75.5t-20 -71.5t-13.5 -61.5t-5 -46.5q0 -57 43.5 -82.5t110.5 -25.5q39 0 87.5 10.5t93.5 40.5q-23 24 -67 32t-126 8l44 172h53q55 0 93.5 1.5t68.5 4.5t54.5 7t51.5 10
q2 11 2 22.5v22.5q-32 -5 -58.5 -8t-59.5 -3q-40 0 -66 11.5t-41.5 31t-21.5 45.5t-6 55q0 36 11.5 77t33.5 75t53.5 56.5t72.5 22.5q46 0 85 -24t66.5 -68.5t43 -108.5t15.5 -143q0 -62 -13 -105t-37 -72t-59 -46.5t-79 -27.5q3 -15 3 -27q0 -57 -30.5 -102t-77.5 -77
t-104.5 -49t-111.5 -17zM598 453q-20 0 -36.5 -20.5t-16.5 -49.5q2 -5 10 -10t34 -5q20 0 43.5 2.5t41.5 8.5q-7 35 -27.5 54.5t-48.5 19.5zM604 774l70 71l89 -89l-89 -91l-70 71l-70 -71l-89 90l89 90zM693 910l-89 -91l-89 90l89 90z" />
    <glyph glyph-name="fi.arab" unicode="&#xfed3;&#xfef2;" horiz-adv-x="845" arabic-form="isolated" 
d="M306 -259q-123 0 -184.5 63.5t-61.5 173.5q0 76 22.5 156t57.5 178l101 -35q-13 -38 -24.5 -75.5t-20 -71.5t-13.5 -61.5t-5 -46.5q0 -57 43.5 -82.5t110.5 -25.5q39 0 87.5 10.5t93.5 40.5q-23 24 -67 32t-126 8l44 172h53q55 0 93.5 1.5t68.5 4.5t54.5 7t51.5 10
q2 11 2 22.5v22.5q-32 -5 -58.5 -8t-59.5 -3q-40 0 -66 11.5t-41.5 31t-21.5 45.5t-6 55q0 36 11.5 77t33.5 75t53.5 56.5t72.5 22.5q46 0 85 -24t66.5 -68.5t43 -108.5t15.5 -143q0 -62 -13 -105t-37 -72t-59 -46.5t-79 -27.5q3 -15 3 -27q0 -57 -30.5 -102t-77.5 -77
t-104.5 -49t-111.5 -17zM598 453q-20 0 -36.5 -20.5t-16.5 -49.5q2 -5 10 -10t34 -5q20 0 43.5 2.5t41.5 8.5q-7 35 -27.5 54.5t-48.5 19.5zM265 -354l70 70l89 -89l-89 -91l-70 71l-70 -71l-89 90l89 90zM683 756l-89 -91l-89 90l89 90z" />
    <glyph glyph-name="qi.arab" unicode="&#xfed7;&#xfef2;" horiz-adv-x="845" arabic-form="isolated" 
d="M306 -259q-123 0 -184.5 63.5t-61.5 173.5q0 76 22.5 156t57.5 178l101 -35q-13 -38 -24.5 -75.5t-20 -71.5t-13.5 -61.5t-5 -46.5q0 -57 43.5 -82.5t110.5 -25.5q39 0 87.5 10.5t93.5 40.5q-23 24 -67 32t-126 8l44 172h53q55 0 93.5 1.5t68.5 4.5t54.5 7t51.5 10
q2 11 2 22.5v22.5q-32 -5 -58.5 -8t-59.5 -3q-40 0 -66 11.5t-41.5 31t-21.5 45.5t-6 55q0 36 11.5 77t33.5 75t53.5 56.5t72.5 22.5q46 0 85 -24t66.5 -68.5t43 -108.5t15.5 -143q0 -62 -13 -105t-37 -72t-59 -46.5t-79 -27.5q3 -15 3 -27q0 -57 -30.5 -102t-77.5 -77
t-104.5 -49t-111.5 -17zM598 453q-20 0 -36.5 -20.5t-16.5 -49.5q2 -5 10 -10t34 -5q20 0 43.5 2.5t41.5 8.5q-7 35 -27.5 54.5t-48.5 19.5zM604 774l70 71l89 -89l-89 -91l-70 71l-70 -71l-89 90l89 90zM265 -354l70 70l89 -89l-89 -91l-70 71l-70 -71l-89 90l89 90z" />
    <glyph glyph-name="vi.arab" unicode="&#xfb6c;&#xfef2;" horiz-adv-x="845" 
d="M306 -259q-123 0 -184.5 63.5t-61.5 173.5q0 76 22.5 156t57.5 178l101 -35q-13 -38 -24.5 -75.5t-20 -71.5t-13.5 -61.5t-5 -46.5q0 -57 43.5 -82.5t110.5 -25.5q39 0 87.5 10.5t93.5 40.5q-23 24 -67 32t-126 8l44 172h53q55 0 93.5 1.5t68.5 4.5t54.5 7t51.5 10
q2 11 2 22.5v22.5q-32 -5 -58.5 -8t-59.5 -3q-40 0 -66 11.5t-41.5 31t-21.5 45.5t-6 55q0 36 11.5 77t33.5 75t53.5 56.5t72.5 22.5q46 0 85 -24t66.5 -68.5t43 -108.5t15.5 -143q0 -62 -13 -105t-37 -72t-59 -46.5t-79 -27.5q3 -15 3 -27q0 -57 -30.5 -102t-77.5 -77
t-104.5 -49t-111.5 -17zM598 453q-20 0 -36.5 -20.5t-16.5 -49.5q2 -5 10 -10t34 -5q20 0 43.5 2.5t41.5 8.5q-7 35 -27.5 54.5t-48.5 19.5zM265 -354l70 70l89 -89l-89 -91l-70 71l-70 -71l-89 90l89 90zM604 774l70 71l89 -89l-89 -91l-70 71l-70 -71l-89 90l89 90z
M693 910l-89 -91l-89 90l89 90z" />
    <glyph glyph-name="fi.thmz" unicode="&#xfed3;&#xfe8a;" horiz-adv-x="845" 
d="M306 -259q-123 0 -184.5 63.5t-61.5 173.5q0 76 22.5 156t57.5 178l101 -35q-13 -38 -24.5 -75.5t-20 -71.5t-13.5 -61.5t-5 -46.5q0 -57 43.5 -82.5t110.5 -25.5q39 0 87.5 10.5t93.5 40.5q-23 24 -67 32t-126 8l44 172h53q55 0 93.5 1.5t68.5 4.5t54.5 7t51.5 10
q2 11 2 22.5v22.5q-32 -5 -58.5 -8t-59.5 -3q-40 0 -66 11.5t-41.5 31t-21.5 45.5t-6 55q0 36 11.5 77t33.5 75t53.5 56.5t72.5 22.5q46 0 85 -24t66.5 -68.5t43 -108.5t15.5 -143q0 -62 -13 -105t-37 -72t-59 -46.5t-79 -27.5q3 -15 3 -27q0 -57 -30.5 -102t-77.5 -77
t-104.5 -49t-111.5 -17zM598 453q-20 0 -36.5 -20.5t-16.5 -49.5q2 -5 10 -10t34 -5q20 0 43.5 2.5t41.5 8.5q-7 35 -27.5 54.5t-48.5 19.5zM148 544q0 56 34 83.5t84 27.5q11 0 25.5 -2t34.5 -9l-19 -78q-9 3 -18.5 5t-20.5 2q-31 0 -53 -22q5 -11 17.5 -26t30.5 -26
l102 48l32 -70l-261 -122l-33 71l80 37q-14 16 -24.5 35.5t-10.5 45.5zM683 756l-89 -91l-89 90l89 90z" />
    <glyph glyph-name="qi.thmz" unicode="&#xfed7;&#xfe8a;" horiz-adv-x="845" 
d="M306 -259q-123 0 -184.5 63.5t-61.5 173.5q0 76 22.5 156t57.5 178l101 -35q-13 -38 -24.5 -75.5t-20 -71.5t-13.5 -61.5t-5 -46.5q0 -57 43.5 -82.5t110.5 -25.5q39 0 87.5 10.5t93.5 40.5q-23 24 -67 32t-126 8l44 172h53q55 0 93.5 1.5t68.5 4.5t54.5 7t51.5 10
q2 11 2 22.5v22.5q-32 -5 -58.5 -8t-59.5 -3q-40 0 -66 11.5t-41.5 31t-21.5 45.5t-6 55q0 36 11.5 77t33.5 75t53.5 56.5t72.5 22.5q46 0 85 -24t66.5 -68.5t43 -108.5t15.5 -143q0 -62 -13 -105t-37 -72t-59 -46.5t-79 -27.5q3 -15 3 -27q0 -57 -30.5 -102t-77.5 -77
t-104.5 -49t-111.5 -17zM598 453q-20 0 -36.5 -20.5t-16.5 -49.5q2 -5 10 -10t34 -5q20 0 43.5 2.5t41.5 8.5q-7 35 -27.5 54.5t-48.5 19.5zM604 774l70 71l89 -89l-89 -91l-70 71l-70 -71l-89 90l89 90zM148 544q0 56 34 83.5t84 27.5q11 0 25.5 -2t34.5 -9l-19 -78
q-9 3 -18.5 5t-20.5 2q-31 0 -53 -22q5 -11 17.5 -26t30.5 -26l102 48l32 -70l-261 -122l-33 71l80 37q-14 16 -24.5 35.5t-10.5 45.5z" />
    <glyph glyph-name="vi.thmz" unicode="&#xfb6c;&#xfe8a;" horiz-adv-x="845" 
d="M306 -259q-123 0 -184.5 63.5t-61.5 173.5q0 76 22.5 156t57.5 178l101 -35q-13 -38 -24.5 -75.5t-20 -71.5t-13.5 -61.5t-5 -46.5q0 -57 43.5 -82.5t110.5 -25.5q39 0 87.5 10.5t93.5 40.5q-23 24 -67 32t-126 8l44 172h53q55 0 93.5 1.5t68.5 4.5t54.5 7t51.5 10
q2 11 2 22.5v22.5q-32 -5 -58.5 -8t-59.5 -3q-40 0 -66 11.5t-41.5 31t-21.5 45.5t-6 55q0 36 11.5 77t33.5 75t53.5 56.5t72.5 22.5q46 0 85 -24t66.5 -68.5t43 -108.5t15.5 -143q0 -62 -13 -105t-37 -72t-59 -46.5t-79 -27.5q3 -15 3 -27q0 -57 -30.5 -102t-77.5 -77
t-104.5 -49t-111.5 -17zM598 453q-20 0 -36.5 -20.5t-16.5 -49.5q2 -5 10 -10t34 -5q20 0 43.5 2.5t41.5 8.5q-7 35 -27.5 54.5t-48.5 19.5zM148 544q0 56 34 83.5t84 27.5q11 0 25.5 -2t34.5 -9l-19 -78q-9 3 -18.5 5t-20.5 2q-31 0 -53 -22q5 -11 17.5 -26t30.5 -26
l102 48l32 -70l-261 -122l-33 71l80 37q-14 16 -24.5 35.5t-10.5 45.5zM604 774l70 71l89 -89l-89 -91l-70 71l-70 -71l-89 90l89 90zM693 910l-89 -91l-89 90l89 90z" />
    <glyph glyph-name="la.arab" unicode="&#xfedf;&#xfe8e;" horiz-adv-x="526" 
d="M476 584q0 -89 -11 -155t-34 -114q24 -38 39.5 -79.5t15.5 -85.5q0 -31 -8 -58.5t-26.5 -47.5t-48 -32t-72.5 -12h-261v158q32 18 62 37.5t56.5 39t48 37.5t36.5 33q-24 25 -58.5 55.5t-73 62t-78.5 62t-74 55.5l86 118q79 -62 143 -119t114 -117q4 29 5.5 73t1.5 89v115
l137 11v-126zM373 154q0 3 -0.5 6t-1.5 7q-3 14 -10 27.5t-13 21.5q-8 -6 -21 -15.5t-29 -19.5t-33 -19.5t-31 -15.5h100q25 0 39 8z" />
    <glyph glyph-name="la.arab.aa" unicode="&#xfedf;&#xfe82;" horiz-adv-x="526" 
d="M476 584q0 -89 -11 -155t-34 -114q24 -38 39.5 -79.5t15.5 -85.5q0 -31 -8 -58.5t-26.5 -47.5t-48 -32t-72.5 -12h-261v158q32 18 62 37.5t56.5 39t48 37.5t36.5 33q-21 21 -47.5 45.5t-57.5 50t-64 51.5t-66 51l88 114q28 -23 58 -49t57 -52t50.5 -50.5t40.5 -43.5
q4 29 5.5 73t1.5 89v115l137 11v-126zM373 154q0 3 -0.5 6t-1.5 7q-3 14 -10 27.5t-13 21.5q-8 -6 -21 -15.5t-29 -19.5t-33 -19.5t-31 -15.5h100q25 0 39 8zM292 689q-47 -7 -79.5 -9t-50.5 -2q-25 0 -49.5 3t-49.5 13l-29 -67l-88 41l33 73q17 37 36 46.5t34 9.5
q10 0 21 -2t24.5 -5t32.5 -5t46 -2q11 0 35 1t75 6z" />
    <glyph glyph-name="la.arab.thmz" unicode="&#xfedf;&#xfe84;" horiz-adv-x="526" 
d="M476 584q0 -89 -11 -155t-34 -114q24 -38 39.5 -79.5t15.5 -85.5q0 -31 -8 -58.5t-26.5 -47.5t-48 -32t-72.5 -12h-261v158q32 18 62 37.5t56.5 39t48 37.5t36.5 33q-18 16 -41 33.5t-49.5 35.5t-55 34.5t-56.5 31.5l71 113q48 -27 95 -59t95 -72q4 29 6 73t1 89v115
l137 11v-126zM373 154q0 3 -0.5 6t-1.5 7q-3 14 -10 27.5t-13 21.5q-8 -6 -21 -15.5t-29 -19.5t-33 -19.5t-31 -15.5h100q25 0 39 8zM2 694q0 56 34 83.5t84 27.5q11 0 25.5 -2t34.5 -9l-19 -78q-9 3 -18.5 5t-20.5 2q-31 0 -53 -22q5 -11 17.5 -26t30.5 -26l102 48l32 -70
l-261 -122l-33 71l80 37q-14 16 -24.5 35.5t-10.5 45.5z" />
    <glyph glyph-name="la.arab.bhmz" unicode="&#xfedf;&#xfe88;" horiz-adv-x="526" 
d="M476 584q0 -89 -11 -155t-34 -114q24 -38 39.5 -79.5t15.5 -85.5q0 -31 -8 -58.5t-26.5 -47.5t-48 -32t-72.5 -12h-261v158q32 18 62 37.5t56.5 39t48 37.5t36.5 33q-24 25 -58.5 55.5t-73 62t-78.5 62t-74 55.5l86 118q79 -62 143 -119t114 -117q4 29 5.5 73t1.5 89v115
l137 11v-126zM373 154q0 3 -0.5 6t-1.5 7q-3 14 -10 27.5t-13 21.5q-8 -6 -21 -15.5t-29 -19.5t-33 -19.5t-31 -15.5h100q25 0 39 8zM83 -210q0 56 34 83.5t84 27.5q11 0 25.5 -2t34.5 -9l-19 -78q-9 3 -18.5 5t-20.5 2q-31 0 -53 -22q5 -11 17.5 -26t30.5 -26l102 48
l32 -70l-261 -122l-33 71l80 37q-14 16 -24.5 35.5t-10.5 45.5z" />
    <glyph glyph-name="la.arab.tvasla" unicode="&#xfedf;&#xfb51;" horiz-adv-x="526" 
d="M373 154q0 3 -0.5 6t-1.5 7q-3 14 -10 27.5t-13 21.5q-8 -6 -21 -15.5t-29 -19.5t-33 -19.5t-31 -15.5h100q25 0 39 8zM476 584q0 -89 -11 -155t-34 -114q24 -38 39.5 -79.5t15.5 -85.5q0 -31 -8 -58.5t-26.5 -47.5t-48 -32t-72.5 -12h-261v158q32 18 62 37.5t56.5 39
t48 37.5t36.5 33q-18 18 -41 39.5t-50 44t-56 44.5t-59 42l80 108q25 -17 50.5 -37t49.5 -41t45.5 -42t39.5 -41q4 29 5.5 73t1.5 89v115l137 11v-126zM-61 651q15 29 28.5 45.5t24.5 25t20 10.5t15 2q12 0 21 -5t23 -15q8 16 19.5 33.5t25 32.5t27.5 25t28 10
q22 0 42.5 -9.5t36.5 -25t26 -36.5t10 -44q0 -8 -3 -18t-8.5 -20t-13 -18t-15.5 -11q-31 -12 -59.5 -16t-57.5 -4q-22 0 -38.5 7t-28.5 16t-21.5 16t-17.5 7t-15.5 -8t-20.5 -29zM169 740q-12 -7 -26.5 -20t-25.5 -33q5 -2 11 -2.5t9 -0.5q21 0 46.5 3t44.5 11
q-7 17 -22.5 27t-36.5 15z" />
    <glyph glyph-name="alef" unicode="&#x627;" horiz-adv-x="219" arabic-form="isolated" 
d="M139 723q14 -54 22 -98.5t12 -84t5 -76t1 -74.5v-390h-134v390q0 64 -8 136t-33 159l135 38v0z" />
    <glyph glyph-name="alef.fina" unicode="&#x627;" horiz-adv-x="256" arabic-form="final" 
d="M256 0q-57 0 -98 12t-67 41t-38.5 77t-12.5 120v449l134 11v-460q0 -23 5.5 -37.5t16 -22.5t25.5 -10.5t35 -2.5v-177z" />
    <glyph glyph-name="alef.aa" unicode="&#x622;" horiz-adv-x="219" arabic-form="isolated" 
d="M139 600q14 -54 22 -98.5t12 -84t5 -76t1 -74.5v-267h-134v267q0 64 -8 136t-33 159zM263 687q-47 -7 -79.5 -9t-50.5 -2q-25 0 -49.5 3t-49.5 13l-29 -67l-88 41l33 73q17 37 36 46.5t34 9.5q10 0 21 -2t24.5 -5t32.5 -5t46 -2q11 0 35 1t75 6z" />
    <glyph glyph-name="alef.aa.fina" unicode="&#x622;" horiz-adv-x="266" arabic-form="final" 
d="M266 0q-60 0 -103 12t-70.5 41t-40 77t-12.5 120v329l134 11v-340q0 -23 5 -37.5t16 -22.5t28.5 -10.5t42.5 -2.5v-177zM288 687q-47 -7 -79.5 -9t-50.5 -2q-25 0 -49.5 3t-49.5 13l-29 -67l-88 41l33 73q17 37 36 46.5t34 9.5q10 0 21 -2t24.5 -5t32.5 -5t46 -2
q11 0 35 1t75 6z" />
    <glyph glyph-name="alef.thmz" unicode="&#x623;" horiz-adv-x="219" arabic-form="isolated" 
d="M139 510q14 -54 22 -98.5t12 -84t5 -76t1 -74.5v-177h-134v177q0 64 -8 136t-33 159zM-37 694q0 56 34 83.5t84 27.5q11 0 25.5 -2t34.5 -9l-19 -78q-9 3 -18.5 5t-20.5 2q-31 0 -53 -22q5 -11 17.5 -26t30.5 -26l102 48l32 -70l-261 -122l-33 71l80 37
q-14 16 -24.5 35.5t-10.5 45.5z" />
    <glyph glyph-name="alef.thmz.fina" unicode="&#x623;" horiz-adv-x="266" arabic-form="final" 
d="M174 250q0 -23 5 -37.5t16 -22.5t28.5 -10.5t42.5 -2.5v-177q-60 0 -103 12t-70.5 41t-40 77t-12.5 120v239l134 11v-250zM8 694q0 56 34 83.5t84 27.5q11 0 25.5 -2t34.5 -9l-19 -78q-9 3 -18.5 5t-20.5 2q-31 0 -53 -22q5 -11 17.5 -26t30.5 -26l102 48l32 -70
l-261 -122l-33 71l80 37q-14 16 -24.5 35.5t-10.5 45.5z" />
    <glyph glyph-name="alef.bhmz" unicode="&#x625;" horiz-adv-x="219" arabic-form="isolated" 
d="M139 723q14 -54 22 -98.5t12 -84t5 -76t1 -74.5v-390h-134v390q0 64 -8 136t-33 159l135 38v0zM18 -210q0 56 34 83.5t84 27.5q11 0 25.5 -2t34.5 -9l-19 -78q-9 3 -18.5 5t-20.5 2q-31 0 -53 -22q5 -11 17.5 -26t30.5 -26l102 48l32 -70l-261 -122l-33 71l80 37
q-14 16 -24.5 35.5t-10.5 45.5z" />
    <glyph glyph-name="alef.bhmz.fina" unicode="&#x625;" horiz-adv-x="256" arabic-form="final" 
d="M256 0q-57 0 -98 12t-67 41t-38.5 77t-12.5 120v449l134 11v-460q0 -23 5.5 -37.5t16 -22.5t25.5 -10.5t35 -2.5v-177zM53 -210q0 56 34 83.5t84 27.5q11 0 25.5 -2t34.5 -9l-19 -78q-9 3 -18.5 5t-20.5 2q-31 0 -53 -22q5 -11 17.5 -26t30.5 -26l102 48l32 -70
l-261 -122l-33 71l80 37q-14 16 -24.5 35.5t-10.5 45.5z" />
    <glyph glyph-name="alef.vasla" unicode="&#x671;" horiz-adv-x="219" arabic-form="isolated" 
d="M139 565q14 -54 22 -98.5t12 -84t5 -76t1 -74.5v-232h-134v232q0 64 -8 136t-33 159zM-110 653q15 29 28.5 45.5t24.5 25t20 10.5t15 2q12 0 21 -5t23 -15q8 16 19.5 33.5t25 32.5t27.5 25t28 10q22 0 42.5 -9.5t36.5 -25t26 -36.5t10 -44q0 -8 -3 -18t-8.5 -20t-13 -18
t-15.5 -11q-31 -12 -59.5 -16t-57.5 -4q-22 0 -38.5 7t-28.5 16t-21.5 16t-17.5 7t-15.5 -8t-20.5 -29zM120 742q-12 -7 -26.5 -20t-25.5 -33q5 -2 11 -2.5t9 -0.5q21 0 46.5 3t44.5 11q-7 17 -22.5 27t-36.5 15z" />
    <glyph glyph-name="alef.vasla.fina" unicode="&#x671;" horiz-adv-x="266" arabic-form="final" 
d="M266 0q-60 0 -103 12t-70.5 41t-40 77t-12.5 120v294l134 11v-305q0 -23 5 -37.5t16 -22.5t28.5 -10.5t42.5 -2.5v-177zM-65 653q15 29 28.5 45.5t24.5 25t20 10.5t15 2q12 0 21 -5t23 -15q8 16 19.5 33.5t25 32.5t27.5 25t28 10q22 0 42.5 -9.5t36.5 -25t26 -36.5
t10 -44q0 -8 -3 -18t-8.5 -20t-13 -18t-15.5 -11q-31 -12 -59.5 -16t-57.5 -4q-22 0 -38.5 7t-28.5 16t-21.5 16t-17.5 7t-15.5 -8t-20.5 -29zM165 742q-12 -7 -26.5 -20t-25.5 -33q5 -2 11 -2.5t9 -0.5q21 0 46.5 3t44.5 11q-7 17 -22.5 27t-36.5 15z" />
    <glyph glyph-name="be" unicode="&#x628;" horiz-adv-x="848" arabic-form="isolated" 
d="M339 -23q-90 0 -150 18t-95 48.5t-49.5 71.5t-14.5 88q0 54 18 112t52 125l95 -44q-26 -57 -34.5 -92.5t-8.5 -58.5q0 -49 50 -70t163 -21q87 0 167.5 11.5t139.5 31.5q-2 61 -8.5 114t-16.5 106l146 28q11 -60 18 -120t7 -113v-16.5t-1 -15.5q-2 -18 -11.5 -40.5
t-23 -43.5t-29.5 -37t-31 -22q-23 -9 -57 -19.5t-81 -19.5t-107.5 -15t-137.5 -6zM449 -158l-89 -91l-89 90l89 90z" />
    <glyph glyph-name="be.fina" unicode="&#x628;" horiz-adv-x="876" arabic-form="final" 
d="M339 -23q-90 0 -150 18t-95 48.5t-49.5 71.5t-14.5 88q0 54 18 112t52 125l95 -44q-26 -57 -34.5 -92.5t-8.5 -58.5q0 -49 50 -70t163 -21q69 0 132 4.5t105 21.5q14 6 26.5 16t23 32t19 59.5t15.5 97.5l118 -18q-4 -40 -11 -86.5t-13 -77.5q12 -18 33 -22t63 -4v-177
q-51 0 -93 18.5t-74 51.5q-45 -47 -134 -70t-236 -23zM449 -158l-89 -91l-89 90l89 90z" />
    <glyph glyph-name="be.medi" unicode="&#x628;" horiz-adv-x="351" arabic-form="medial" 
d="M0 177q38 0 64.5 5.5t44.5 26.5t30 62.5t22 113.5l118 -18q-4 -40 -11 -86.5t-13 -77.5q12 -18 33 -22t63 -4v-177q-51 0 -93 18.5t-74 51.5q-31 -35 -74 -52.5t-110 -17.5q-30 0 -30 88q0 89 30 89zM249 -158l-89 -91l-89 90l89 90z" />
    <glyph glyph-name="be.init" unicode="&#x628;" horiz-adv-x="308" arabic-form="initial" 
d="M0 177q38 0 75 4t57 12q0 50 -7 108t-18 116l146 28q11 -60 18 -125t7 -118q0 -23 -6 -48.5t-17.5 -49t-29 -43t-39.5 -31.5q-26 -14 -70.5 -22t-115.5 -8q-30 0 -30 88q0 89 30 89zM209 -158l-89 -91l-89 90l89 90z" />
    <glyph glyph-name="pe" unicode="&#x67e;" horiz-adv-x="848" arabic-form="isolated" 
d="M339 -23q-90 0 -150 18t-95 48.5t-49.5 71.5t-14.5 88q0 54 18 112t52 125l95 -44q-26 -57 -34.5 -92.5t-8.5 -58.5q0 -49 50 -70t163 -21q87 0 167.5 11.5t139.5 31.5q-2 61 -8.5 114t-16.5 106l146 28q11 -60 18 -120t7 -113v-16.5t-1 -15.5q-2 -18 -11.5 -40.5
t-23 -43.5t-29.5 -37t-31 -22q-23 -9 -57 -19.5t-81 -19.5t-107.5 -15t-137.5 -6zM381 -139l70 70l89 -89l-89 -91l-70 71l-70 -71l-89 90l89 90zM470 -313l-89 -91l-89 90l89 90z" />
    <glyph glyph-name="pe.fina" unicode="&#x67e;" horiz-adv-x="876" arabic-form="final" 
d="M339 -23q-90 0 -150 18t-95 48.5t-49.5 71.5t-14.5 88q0 54 18 112t52 125l95 -44q-26 -57 -34.5 -92.5t-8.5 -58.5q0 -49 50 -70t163 -21q69 0 132 4.5t105 21.5q14 6 26.5 16t23 32t19 59.5t15.5 97.5l118 -18q-4 -40 -11 -86.5t-13 -77.5q12 -18 33 -22t63 -4v-177
q-51 0 -93 18.5t-74 51.5q-45 -47 -134 -70t-236 -23zM371 -139l70 70l89 -89l-89 -91l-70 71l-70 -71l-89 90l89 90zM460 -313l-89 -91l-89 90l89 90z" />
    <glyph glyph-name="pe.medi" unicode="&#x67e;" horiz-adv-x="351" arabic-form="medial" 
d="M0 177q38 0 64.5 5.5t44.5 26.5t30 62.5t22 113.5l118 -18q-4 -40 -11 -86.5t-13 -77.5q12 -18 33 -22t63 -4v-177q-51 0 -93 18.5t-74 51.5q-31 -35 -74 -52.5t-110 -17.5q-30 0 -30 88q0 89 30 89zM170 -139l70 70l89 -89l-89 -91l-70 71l-70 -71l-89 90l89 90z
M259 -313l-89 -91l-89 90l89 90z" />
    <glyph glyph-name="pe.init" unicode="&#x67e;" horiz-adv-x="308" arabic-form="initial" 
d="M0 177q38 0 75 4t57 12q0 50 -7 108t-18 116l146 28q11 -60 18 -125t7 -118q0 -23 -6 -48.5t-17.5 -49t-29 -43t-39.5 -31.5q-26 -14 -70.5 -22t-115.5 -8q-30 0 -30 88q0 89 30 89zM135 -139l70 70l89 -89l-89 -91l-70 71l-70 -71l-89 90l89 90zM224 -313l-89 -91
l-89 90l89 90z" />
    <glyph glyph-name="te" unicode="&#x62a;" horiz-adv-x="848" arabic-form="isolated" 
d="M339 -23q-90 0 -150 18t-95 48.5t-49.5 71.5t-14.5 88q0 54 18 112t52 125l95 -44q-26 -57 -34.5 -92.5t-8.5 -58.5q0 -49 50 -70t163 -21q87 0 167.5 11.5t139.5 31.5q-2 61 -8.5 114t-16.5 106l146 28q11 -60 18 -120t7 -113v-16.5t-1 -15.5q-2 -18 -11.5 -40.5
t-23 -43.5t-29.5 -37t-31 -22q-23 -9 -57 -19.5t-81 -19.5t-107.5 -15t-137.5 -6zM425 504l70 71l89 -89l-89 -91l-70 71l-70 -71l-89 90l89 90z" />
    <glyph glyph-name="te.fina" unicode="&#x62a;" horiz-adv-x="876" arabic-form="final" 
d="M339 -23q-90 0 -150 18t-95 48.5t-49.5 71.5t-14.5 88q0 54 18 112t52 125l95 -44q-26 -57 -34.5 -92.5t-8.5 -58.5q0 -49 50 -70t163 -21q69 0 132 4.5t105 21.5q14 6 26.5 16t23 32t19 59.5t15.5 97.5l118 -18q-4 -40 -11 -86.5t-13 -77.5q12 -18 33 -22t63 -4v-177
q-51 0 -93 18.5t-74 51.5q-45 -47 -134 -70t-236 -23zM435 504l70 71l89 -89l-89 -91l-70 71l-70 -71l-89 90l89 90z" />
    <glyph glyph-name="te.medi" unicode="&#x62a;" horiz-adv-x="351" arabic-form="medial" 
d="M0 177q38 0 64.5 5.5t44.5 26.5t30 62.5t22 113.5l118 -18q-4 -40 -11 -86.5t-13 -77.5q12 -18 33 -22t63 -4v-177q-51 0 -93 18.5t-74 51.5q-31 -35 -74 -52.5t-110 -17.5q-30 0 -30 88q0 89 30 89zM175 554l70 71l89 -89l-89 -91l-70 71l-70 -71l-89 90l89 90z" />
    <glyph glyph-name="te.init" unicode="&#x62a;" horiz-adv-x="308" arabic-form="initial" 
d="M0 177q38 0 75 4t57 12q0 50 -7 108t-18 116l146 28q11 -60 18 -125t7 -118q0 -23 -6 -48.5t-17.5 -49t-29 -43t-39.5 -31.5q-26 -14 -70.5 -22t-115.5 -8q-30 0 -30 88q0 89 30 89zM165 619l70 71l89 -89l-89 -91l-70 71l-70 -71l-89 90l89 90z" />
    <glyph glyph-name="the" unicode="&#x62b;" horiz-adv-x="848" arabic-form="isolated" 
d="M339 -23q-90 0 -150 18t-95 48.5t-49.5 71.5t-14.5 88q0 54 18 112t52 125l95 -44q-26 -57 -34.5 -92.5t-8.5 -58.5q0 -49 50 -70t163 -21q87 0 167.5 11.5t139.5 31.5q-2 61 -8.5 114t-16.5 106l146 28q11 -60 18 -120t7 -113v-16.5t-1 -15.5q-2 -18 -11.5 -40.5
t-23 -43.5t-29.5 -37t-31 -22q-23 -9 -57 -19.5t-81 -19.5t-107.5 -15t-137.5 -6zM425 504l70 71l89 -89l-89 -91l-70 71l-70 -71l-89 90l89 90zM514 640l-89 -91l-89 90l89 90z" />
    <glyph glyph-name="the.fina" unicode="&#x62b;" horiz-adv-x="876" arabic-form="final" 
d="M339 -23q-90 0 -150 18t-95 48.5t-49.5 71.5t-14.5 88q0 54 18 112t52 125l95 -44q-26 -57 -34.5 -92.5t-8.5 -58.5q0 -49 50 -70t163 -21q69 0 132 4.5t105 21.5q14 6 26.5 16t23 32t19 59.5t15.5 97.5l118 -18q-4 -40 -11 -86.5t-13 -77.5q12 -18 33 -22t63 -4v-177
q-51 0 -93 18.5t-74 51.5q-45 -47 -134 -70t-236 -23zM435 504l70 71l89 -89l-89 -91l-70 71l-70 -71l-89 90l89 90zM524 640l-89 -91l-89 90l89 90z" />
    <glyph glyph-name="the.medi" unicode="&#x62b;" horiz-adv-x="351" arabic-form="medial" 
d="M0 177q38 0 64.5 5.5t44.5 26.5t30 62.5t22 113.5l118 -18q-4 -40 -11 -86.5t-13 -77.5q12 -18 33 -22t63 -4v-177q-51 0 -93 18.5t-74 51.5q-31 -35 -74 -52.5t-110 -17.5q-30 0 -30 88q0 89 30 89zM175 554l70 71l89 -89l-89 -91l-70 71l-70 -71l-89 90l89 90zM264 690
l-89 -91l-89 90l89 90z" />
    <glyph glyph-name="the.init" unicode="&#x62b;" horiz-adv-x="308" arabic-form="initial" 
d="M0 177q38 0 75 4t57 12q0 50 -7 108t-18 116l146 28q11 -60 18 -125t7 -118q0 -23 -6 -48.5t-17.5 -49t-29 -43t-39.5 -31.5q-26 -14 -70.5 -22t-115.5 -8q-30 0 -30 88q0 89 30 89zM165 619l70 71l89 -89l-89 -91l-70 71l-70 -71l-89 90l89 90zM254 755l-89 -91l-89 90
l89 90z" />
    <glyph glyph-name="tteh.fina" unicode="&#x679;" horiz-adv-x="876" arabic-form="final" 
d="M339 -23q-90 0 -150 18t-95 48.5t-49.5 71.5t-14.5 88q0 54 18 112t52 125l95 -44q-26 -57 -34.5 -92.5t-8.5 -58.5q0 -49 50 -70t163 -21q69 0 132 4.5t105 21.5q14 6 26.5 16t23 32t19 59.5t15.5 97.5l118 -18q-4 -40 -11 -86.5t-13 -77.5q12 -18 33 -22t63 -4v-177
q-51 0 -93 18.5t-74 51.5q-45 -47 -134 -70t-236 -23zM362 485q3 8 4 23.5t1 53.5v125l67 4v-75q0 -16 -3 -38q12 13 25 21t25 8q20 0 39.5 -10t35.5 -26.5t25.5 -37.5t9.5 -42q0 -18 -12 -40t-27 -31q-13 -8 -30 -12t-35 -5.5t-36 -2t-32 -0.5h-105v85h48zM438 485
q23 0 49 1.5t37 7.5q-8 12 -21 22.5t-28 13.5q-14 -6 -25 -18t-22 -27h10z" />
    <glyph glyph-name="tteh.medi" unicode="&#x679;" horiz-adv-x="351" arabic-form="medial" 
d="M0 177q38 0 64.5 5.5t44.5 26.5t30 62.5t22 113.5l118 -18q-4 -40 -11 -86.5t-13 -77.5q12 -18 33 -22t63 -4v-177q-51 0 -93 18.5t-74 51.5q-31 -35 -74 -52.5t-110 -17.5q-30 0 -30 88q0 89 30 89zM97 535q3 8 4 23.5t1 53.5v125l67 4v-75q0 -16 -3 -38q12 13 25 21
t25 8q20 0 39.5 -10t35.5 -26.5t25.5 -37.5t9.5 -42q0 -18 -12 -40t-27 -31q-13 -8 -30 -12t-35 -5.5t-36 -2t-32 -0.5h-105v85h48zM173 535q23 0 49 1.5t37 7.5q-8 12 -21 22.5t-28 13.5q-14 -6 -25 -18t-22 -27h10z" />
    <glyph glyph-name="tteh.init" unicode="&#x679;" horiz-adv-x="308" arabic-form="initial" 
d="M0 177q38 0 75 4t57 12q0 50 -7 108t-18 116l146 28q11 -60 18 -125t7 -118q0 -23 -6 -48.5t-17.5 -49t-29 -43t-39.5 -31.5q-26 -14 -70.5 -22t-115.5 -8q-30 0 -30 88q0 89 30 89zM67 605q3 8 4 23.5t1 53.5v125l67 4v-75q0 -16 -3 -38q12 13 25 21t25 8q20 0 39.5 -10
t35.5 -26.5t25.5 -37.5t9.5 -42q0 -18 -12 -40t-27 -31q-13 -8 -30 -12t-35 -5.5t-36 -2t-32 -0.5h-105v85h48zM143 605q23 0 49 1.5t37 7.5q-8 12 -21 22.5t-28 13.5q-14 -6 -25 -18t-22 -27h10z" />
    <glyph glyph-name="jim" unicode="&#x62c;" horiz-adv-x="640" arabic-form="isolated" 
d="M212 311q-4 0 -12 -3t-19.5 -13.5t-26.5 -30.5t-33 -54l-89 53q22 43 46.5 81.5t49 67.5t48.5 46t47 17t57.5 -15.5t80.5 -38t104.5 -47.5t129.5 -44l-30 -146q-23 2 -35 2.5t-28 0.5q-56 0 -118.5 -24t-114.5 -67.5t-86 -104t-34 -134.5v-14q22 -30 70 -40.5t106 -10.5
q47 0 113.5 6.5t133.5 17.5l13 -163q-76 -11 -142 -18t-131 -7q-48 0 -97 9.5t-88.5 35t-64.5 69.5t-25 113q0 73 23.5 139t65 119.5t97.5 93.5t122 63q-21 6 -41.5 13t-38.5 13t-32 10.5t-21 4.5zM464 -39l-89 -91l-89 90l89 90z" />
    <glyph glyph-name="jim.fina" unicode="&#x62c;" horiz-adv-x="647" arabic-form="final" 
d="M206 311q-5 0 -13 -3t-18.5 -13.5t-24 -31t-30.5 -54.5l-90 48q22 46 45 86t46 69t46 46t46 17q26 0 59 -10.5t78 -26t104.5 -33t140.5 -30.5l-30 -145q-16 -1 -32 -2.5t-34 -4.5q5 -17 10.5 -26.5t15.5 -14t26 -5t41 -0.5h55v-177h-55q-44 0 -73.5 6.5t-51 26.5
t-37.5 56.5t-31 96.5q-60 -23 -107 -58t-78.5 -78t-48 -92t-16.5 -101v-14q22 -30 70 -40.5t106 -10.5q47 0 113.5 6.5t133.5 17.5l13 -163q-76 -11 -142 -18t-131 -7q-48 0 -97 9.5t-88.5 35t-64.5 69.5t-25 113q0 73 23.5 139t65 121t97.5 98t122 71q-49 8 -87 17.5
t-52 9.5zM409 -59l-89 -91l-89 90l89 90z" />
    <glyph glyph-name="jim.medi" unicode="&#x62c;" horiz-adv-x="654" arabic-form="medial" 
d="M76 177q40 0 73.5 6t65 18.5t64 31.5t71.5 44q-21 5 -42.5 11t-40.5 11t-34 8.5t-21 3.5q-5 0 -13 -3t-18.5 -13.5t-24 -31t-30.5 -54.5l-90 48q22 46 45 86t46 69t46 46t46 17q26 0 59 -10.5t78 -26t104.5 -33t140.5 -30.5l-30 -145h-15.5t-16.5 -2q-24 -2 -45.5 -7.5
t-35.5 -13.5q4 -11 8.5 -17t15 -9t30.5 -3.5t54 -0.5h87v-177h-115q-39 0 -65.5 6.5t-44.5 21.5t-31 40t-26 61q-34 -28 -66.5 -51.5t-65.5 -41t-67.5 -27t-72.5 -9.5h-99q-30 0 -30 88q0 89 30 89h76zM309 -158l-89 -91l-89 90l89 90z" />
    <glyph glyph-name="jim.init" unicode="&#x62c;" horiz-adv-x="629" arabic-form="initial" 
d="M77 177q46 0 84.5 9t71 22t60.5 28t52 27q-21 8 -41 16.5t-37.5 15.5t-31.5 11.5t-23 4.5q-4 0 -12 -3t-19.5 -13.5t-26.5 -30.5t-33 -54l-89 53q22 43 46.5 81.5t49 67.5t48.5 46t47 17t57.5 -15.5t80.5 -38t104.5 -47.5t129.5 -44l-30 -146q-11 1 -22 1.5t-20 0.5
q-36 0 -68.5 -14t-64.5 -34.5t-64 -44.5t-67 -44.5t-74.5 -34.5t-85.5 -14h-99q-30 0 -30 88q0 89 30 89h77zM309 -158l-89 -91l-89 90l89 90z" />
    <glyph glyph-name="che" unicode="&#x686;" horiz-adv-x="640" arabic-form="isolated" 
d="M212 311q-4 0 -12 -3t-19.5 -13.5t-26.5 -30.5t-33 -54l-89 53q22 43 46.5 81.5t49 67.5t48.5 46t47 17t57.5 -15.5t80.5 -38t104.5 -47.5t129.5 -44l-30 -146q-23 2 -35 2.5t-28 0.5q-56 0 -118.5 -24t-114.5 -67.5t-86 -104t-34 -134.5v-14q22 -30 70 -40.5t106 -10.5
q47 0 113.5 6.5t133.5 17.5l13 -163q-76 -11 -142 -18t-131 -7q-48 0 -97 9.5t-88.5 35t-64.5 69.5t-25 113q0 73 23.5 139t65 119.5t97.5 93.5t122 63q-21 6 -41.5 13t-38.5 13t-32 10.5t-21 4.5zM390 25.999l49.001 49.001l62.3008 -62.3008l-62.3008 -63.7012
l-49.001 49.7002l-49.001 -49.7002l-62.3008 63.001l62.3008 63.001zM452.301 -95.8027l-62.3008 -63.7012l-62.3008 63.001l62.3008 63.001z" />
    <glyph glyph-name="che.fina" unicode="&#x686;" horiz-adv-x="647" arabic-form="final" 
d="M206 311q-5 0 -13 -3t-18.5 -13.5t-24 -31t-30.5 -54.5l-90 48q22 46 45 86t46 69t46 46t46 17q26 0 59 -10.5t78 -26t104.5 -33t140.5 -30.5l-30 -145q-16 -1 -32 -2.5t-34 -4.5q5 -17 10.5 -26.5t15.5 -14t26 -5t41 -0.5h55v-177h-55q-44 0 -73.5 6.5t-51 26.5
t-37.5 56.5t-31 96.5q-60 -23 -107 -58t-78.5 -78t-48 -92t-16.5 -101v-14q22 -30 70 -40.5t106 -10.5q47 0 113.5 6.5t133.5 17.5l13 -163q-76 -11 -142 -18t-131 -7q-48 0 -97 9.5t-88.5 35t-64.5 69.5t-25 113q0 73 23.5 139t65 121t97.5 98t122 71q-49 8 -87 17.5
t-52 9.5zM330 -0.501953l45.502 45.502l57.8516 -57.8525l-57.8516 -59.1514l-45.502 46.1514l-45.502 -46.1514l-57.8516 58.502l57.8516 58.502zM387.853 -113.605l-57.8525 -59.1523l-57.8525 58.502l57.8525 58.502z" />
    <glyph glyph-name="che.medi" unicode="&#x686;" horiz-adv-x="654" arabic-form="medial" 
d="M76 177q40 0 73.5 6t65 18.5t64 31.5t71.5 44q-21 5 -42.5 11t-40.5 11t-34 8.5t-21 3.5q-5 0 -13 -3t-18.5 -13.5t-24 -31t-30.5 -54.5l-90 48q22 46 45 86t46 69t46 46t46 17q26 0 59 -10.5t78 -26t104.5 -33t140.5 -30.5l-30 -145h-15.5t-16.5 -2q-24 -2 -45.5 -7.5
t-35.5 -13.5q4 -11 8.5 -17t15 -9t30.5 -3.5t54 -0.5h87v-177h-115q-39 0 -65.5 6.5t-44.5 21.5t-31 40t-26 61q-34 -28 -66.5 -51.5t-65.5 -41t-67.5 -27t-72.5 -9.5h-99q-30 0 -30 88q0 89 30 89h76zM215 -129l70 70l89 -89l-89 -91l-70 71l-70 -71l-89 90l89 90z
M304 -303l-89 -91l-89 90l89 90z" />
    <glyph glyph-name="che.init" unicode="&#x686;" horiz-adv-x="629" arabic-form="initial" 
d="M77 177q46 0 84.5 9t71 22t60.5 28t52 27q-21 8 -41 16.5t-37.5 15.5t-31.5 11.5t-23 4.5q-4 0 -12 -3t-19.5 -13.5t-26.5 -30.5t-33 -54l-89 53q22 43 46.5 81.5t49 67.5t48.5 46t47 17t57.5 -15.5t80.5 -38t104.5 -47.5t129.5 -44l-30 -146q-11 1 -22 1.5t-20 0.5
q-36 0 -68.5 -14t-64.5 -34.5t-64 -44.5t-67 -44.5t-74.5 -34.5t-85.5 -14h-99q-30 0 -30 88q0 89 30 89h77zM215 -129l70 70l89 -89l-89 -91l-70 71l-70 -71l-89 90l89 90zM304 -303l-89 -91l-89 90l89 90z" />
    <glyph glyph-name="him" unicode="&#x62d;" horiz-adv-x="640" arabic-form="isolated" 
d="M212 311q-4 0 -12 -3t-19.5 -13.5t-26.5 -30.5t-33 -54l-89 53q22 43 46.5 81.5t49 67.5t48.5 46t47 17t57.5 -15.5t80.5 -38t104.5 -47.5t129.5 -44l-30 -146q-23 2 -35 2.5t-28 0.5q-56 0 -118.5 -24t-114.5 -67.5t-86 -104t-34 -134.5v-14q22 -30 70 -40.5t106 -10.5
q47 0 113.5 6.5t133.5 17.5l13 -163q-76 -11 -142 -18t-131 -7q-48 0 -97 9.5t-88.5 35t-64.5 69.5t-25 113q0 73 23.5 139t65 119.5t97.5 93.5t122 63q-21 6 -41.5 13t-38.5 13t-32 10.5t-21 4.5z" />
    <glyph glyph-name="him.fina" unicode="&#x62d;" horiz-adv-x="647" arabic-form="final" 
d="M206 311q-5 0 -13 -3t-18.5 -13.5t-24 -31t-30.5 -54.5l-90 48q22 46 45 86t46 69t46 46t46 17q26 0 59 -10.5t78 -26t104.5 -33t140.5 -30.5l-30 -145q-16 -1 -32 -2.5t-34 -4.5q5 -17 10.5 -26.5t15.5 -14t26 -5t41 -0.5h55v-177h-55q-44 0 -73.5 6.5t-51 26.5
t-37.5 56.5t-31 96.5q-60 -23 -107 -58t-78.5 -78t-48 -92t-16.5 -101v-14q22 -30 70 -40.5t106 -10.5q47 0 113.5 6.5t133.5 17.5l13 -163q-76 -11 -142 -18t-131 -7q-48 0 -97 9.5t-88.5 35t-64.5 69.5t-25 113q0 73 23.5 139t65 121t97.5 98t122 71q-49 8 -87 17.5
t-52 9.5z" />
    <glyph glyph-name="him.medi" unicode="&#x62d;" horiz-adv-x="653" arabic-form="medial" 
d="M76 177q40 0 73.5 6t65 18.5t64 31.5t71.5 44q-21 5 -42.5 11t-40.5 11t-34 8.5t-21 3.5q-5 0 -13 -3t-18.5 -13.5t-24 -31t-30.5 -54.5l-90 48q22 46 45 86t46 69t46 46t46 17q26 0 59 -10.5t78 -26t104.5 -33t140.5 -30.5l-30 -145h-15.5t-16.5 -2q-24 -2 -45.5 -7.5
t-35.5 -13.5q4 -11 8.5 -17t15 -9t30.5 -3.5t54 -0.5h87v-177h-115q-39 0 -65.5 6.5t-44.5 21.5t-31 40t-26 61q-34 -28 -66.5 -51.5t-65.5 -41t-67.5 -27t-72.5 -9.5h-99q-30 0 -30 88q0 89 30 89h76z" />
    <glyph glyph-name="him.init" unicode="&#x62d;" horiz-adv-x="629" arabic-form="initial" 
d="M77 177q46 0 84.5 9t71 22t60.5 28t52 27q-21 8 -41 16.5t-37.5 15.5t-31.5 11.5t-23 4.5q-4 0 -12 -3t-19.5 -13.5t-26.5 -30.5t-33 -54l-89 53q22 43 46.5 81.5t49 67.5t48.5 46t47 17t57.5 -15.5t80.5 -38t104.5 -47.5t129.5 -44l-30 -146q-11 1 -22 1.5t-20 0.5
q-36 0 -68.5 -14t-64.5 -34.5t-64 -44.5t-67 -44.5t-74.5 -34.5t-85.5 -14h-99q-30 0 -30 88q0 89 30 89h77z" />
    <glyph glyph-name="khe" unicode="&#x62e;" horiz-adv-x="640" arabic-form="isolated" 
d="M212 311q-4 0 -12 -3t-19.5 -13.5t-26.5 -30.5t-33 -54l-89 53q22 43 46.5 81.5t49 67.5t48.5 46t47 17t57.5 -15.5t80.5 -38t104.5 -47.5t129.5 -44l-30 -146q-23 2 -35 2.5t-28 0.5q-56 0 -118.5 -24t-114.5 -67.5t-86 -104t-34 -134.5v-14q22 -30 70 -40.5t106 -10.5
q47 0 113.5 6.5t133.5 17.5l13 -163q-76 -11 -142 -18t-131 -7q-48 0 -97 9.5t-88.5 35t-64.5 69.5t-25 113q0 73 23.5 139t65 119.5t97.5 93.5t122 63q-21 6 -41.5 13t-38.5 13t-32 10.5t-21 4.5zM309 656l-89 -91l-89 90l89 90z" />
    <glyph glyph-name="khe.fina" unicode="&#x62e;" horiz-adv-x="647" arabic-form="final" 
d="M206 311q-5 0 -13 -3t-18.5 -13.5t-24 -31t-30.5 -54.5l-90 48q22 46 45 86t46 69t46 46t46 17q26 0 59 -10.5t78 -26t104.5 -33t140.5 -30.5l-30 -145q-16 -1 -32 -2.5t-34 -4.5q5 -17 10.5 -26.5t15.5 -14t26 -5t41 -0.5h55v-177h-55q-44 0 -73.5 6.5t-51 26.5
t-37.5 56.5t-31 96.5q-60 -23 -107 -58t-78.5 -78t-48 -92t-16.5 -101v-14q22 -30 70 -40.5t106 -10.5q47 0 113.5 6.5t133.5 17.5l13 -163q-76 -11 -142 -18t-131 -7q-48 0 -97 9.5t-88.5 35t-64.5 69.5t-25 113q0 73 23.5 139t65 121t97.5 98t122 71q-49 8 -87 17.5
t-52 9.5zM309 656l-89 -91l-89 90l89 90z" />
    <glyph glyph-name="khe.medi" unicode="&#x62e;" horiz-adv-x="654" arabic-form="medial" 
d="M76 177q40 0 73.5 6t65 18.5t64 31.5t71.5 44q-21 5 -42.5 11t-40.5 11t-34 8.5t-21 3.5q-5 0 -13 -3t-18.5 -13.5t-24 -31t-30.5 -54.5l-90 48q22 46 45 86t46 69t46 46t46 17q26 0 59 -10.5t78 -26t104.5 -33t140.5 -30.5l-30 -145h-15.5t-16.5 -2q-24 -2 -45.5 -7.5
t-35.5 -13.5q4 -11 8.5 -17t15 -9t30.5 -3.5t54 -0.5h87v-177h-115q-39 0 -65.5 6.5t-44.5 21.5t-31 40t-26 61q-34 -28 -66.5 -51.5t-65.5 -41t-67.5 -27t-72.5 -9.5h-99q-30 0 -30 88q0 89 30 89h76zM309 656l-89 -91l-89 90l89 90z" />
    <glyph glyph-name="khe.init" unicode="&#x62e;" horiz-adv-x="629" arabic-form="initial" 
d="M77 177q46 0 84.5 9t71 22t60.5 28t52 27q-21 8 -41 16.5t-37.5 15.5t-31.5 11.5t-23 4.5q-4 0 -12 -3t-19.5 -13.5t-26.5 -30.5t-33 -54l-89 53q22 43 46.5 81.5t49 67.5t48.5 46t47 17t57.5 -15.5t80.5 -38t104.5 -47.5t129.5 -44l-30 -146q-11 1 -22 1.5t-20 0.5
q-36 0 -68.5 -14t-64.5 -34.5t-64 -44.5t-67 -44.5t-74.5 -34.5t-85.5 -14h-99q-30 0 -30 88q0 89 30 89h77zM309 656l-89 -91l-89 90l89 90z" />
    <glyph glyph-name="dal" unicode="&#x62f;" horiz-adv-x="500" arabic-form="isolated" 
d="M237 524q57 -26 101 -65.5t73 -87t44 -100.5t15 -107q0 -16 -8 -37.5t-20 -42t-27 -36.5t-29 -22q-34 -14 -86.5 -24.5t-123.5 -10.5q-55 0 -85.5 15t-45 40.5t-17.5 57.5t-3 67v84h102v-55q0 -22 11.5 -31t41.5 -9q60 0 97 5t69 15q-7 26 -22 54.5t-38.5 55.5
t-54.5 50.5t-70 41.5l76 142v0z" />
    <glyph glyph-name="dal.fina" unicode="&#x62f;" horiz-adv-x="545" arabic-form="final" 
d="M545 0q-19 0 -43 1.5t-49 8.5t-48.5 22t-40.5 41l-25 -45q-27 -12 -70.5 -24.5t-93.5 -12.5q-54 0 -84.5 15.5t-45 41t-17.5 58t-3 65.5v84h102v-55q0 -22 11.5 -31t41.5 -9q35 0 69.5 7t63.5 18l-80 298l140 44l72 -302q7 -29 29 -38.5t71 -9.5v-177z" />
    <glyph glyph-name="zal" unicode="&#x630;" horiz-adv-x="500" arabic-form="isolated" 
d="M237 524q57 -26 101 -65.5t73 -87t44 -100.5t15 -107q0 -16 -8 -37.5t-20 -42t-27 -36.5t-29 -22q-34 -14 -86.5 -24.5t-123.5 -10.5q-55 0 -85.5 15t-45 40.5t-17.5 57.5t-3 67v84h102v-55q0 -22 11.5 -31t41.5 -9q60 0 97 5t69 15q-7 26 -22 54.5t-38.5 55.5
t-54.5 50.5t-70 41.5l76 142v0zM314 691l-89 -91l-89 90l89 90z" />
    <glyph glyph-name="zal.fina" unicode="&#x630;" horiz-adv-x="545" arabic-form="final" 
d="M545 0q-19 0 -43 1.5t-49 8.5t-48.5 22t-40.5 41l-25 -45q-27 -12 -70.5 -24.5t-93.5 -12.5q-54 0 -84.5 15.5t-45 41t-17.5 58t-3 65.5v84h102v-55q0 -22 11.5 -31t41.5 -9q35 0 69.5 7t63.5 18l-80 298l140 44l72 -302q7 -29 29 -38.5t71 -9.5v-177zM394 691l-89 -91
l-89 90l89 90z" />
    <glyph glyph-name="ddal.fina" unicode="&#x688;" horiz-adv-x="545" arabic-form="final" 
d="M545 0q-19 0 -43 1.5t-49 8.5t-48.5 22t-40.5 41l-25 -45q-27 -12 -70.5 -24.5t-93.5 -12.5q-54 0 -84.5 15.5t-45 41t-17.5 58t-3 65.5v84h102v-55q0 -22 11.5 -31t41.5 -9q35 0 69.5 7t63.5 18l-80 298l140 44l72 -302q7 -29 29 -38.5t71 -9.5v-177zM197 665
q3 8 4 23.5t1 53.5v125l67 4v-75q0 -16 -3 -38q12 13 25 21t25 8q20 0 39.5 -10t35.5 -26.5t25.5 -37.5t9.5 -42q0 -18 -12 -40t-27 -31q-13 -8 -30 -12t-35 -5.5t-36 -2t-32 -0.5h-105v85h48zM273 665q23 0 49 1.5t37 7.5q-8 12 -21 22.5t-28 13.5q-14 -6 -25 -18t-22 -27
h10z" />
    <glyph glyph-name="re" unicode="&#x631;" horiz-adv-x="302" arabic-form="isolated" 
d="M227 390q8 -36 16 -76t14.5 -81.5t10.5 -83.5t4 -82q0 -58 -23 -111.5t-56 -94.5t-70.5 -65.5t-66.5 -24.5q-12 0 -30 4.5t-38.5 11.5t-41.5 16t-39 17l36 102q31 -7 64 -7q16 0 38.5 13t42 33.5t33.5 46t14 51.5q0 22 -4.5 56t-11.5 74t-16 83.5t-18 84.5l142 33v0z" />
    <glyph glyph-name="re.fina" unicode="&#x631;" horiz-adv-x="349" arabic-form="final" 
d="M349 0q-26 0 -48.5 7.5t-37.5 27.5v-8.5t-1 -8.5q-4 -47 -27 -91.5t-54.5 -79t-65.5 -55.5t-59 -21q-12 0 -30 4.5t-38.5 11.5t-41.5 16t-39 17l36 102q31 -7 64 -7q16 0 38 13t42 33.5t34 46t14 51.5q0 69 -15 145.5t-31 145.5l136 27l24 -135q6 -32 29.5 -48.5
t70.5 -16.5v-177z" />
    <glyph glyph-name="ze" unicode="&#x632;" horiz-adv-x="302" arabic-form="isolated" 
d="M227 390q8 -36 16 -76t14.5 -81.5t10.5 -83.5t4 -82q0 -58 -23 -111.5t-56 -94.5t-70.5 -65.5t-66.5 -24.5q-12 0 -30 4.5t-38.5 11.5t-41.5 16t-39 17l36 102q31 -7 64 -7q16 0 38.5 13t42 33.5t33.5 46t14 51.5q0 22 -4.5 56t-11.5 74t-16 83.5t-18 84.5l142 33v0z
M236 571l-89 -91l-89 90l89 90z" />
    <glyph glyph-name="ze.fina" unicode="&#x632;" horiz-adv-x="349" arabic-form="final" 
d="M349 0q-26 0 -48.5 7.5t-37.5 27.5v-8.5t-1 -8.5q-4 -47 -27 -91.5t-54.5 -79t-65.5 -55.5t-59 -21q-12 0 -30 4.5t-38.5 11.5t-41.5 16t-39 17l36 102q31 -7 64 -7q16 0 38 13t42 33.5t34 46t14 51.5q0 69 -15 145.5t-31 145.5l136 27l24 -135q6 -32 29.5 -48.5
t70.5 -16.5v-177zM235 571l-89 -91l-89 90l89 90z" />
    <glyph glyph-name="je" unicode="&#x698;" horiz-adv-x="302" arabic-form="isolated" 
d="M227 390q8 -36 16 -76t14.5 -81.5t10.5 -83.5t4 -82q0 -58 -23 -111.5t-56 -94.5t-70.5 -65.5t-66.5 -24.5q-12 0 -30 4.5t-38.5 11.5t-41.5 16t-39 17l36 102q31 -7 64 -7q16 0 38.5 13t42 33.5t33.5 46t14 51.5q0 22 -4.5 56t-11.5 74t-16 83.5t-18 84.5l142 33v0z
M147 589l70 71l89 -89l-89 -91l-70 71l-70 -71l-89 90l89 90zM236 725l-89 -91l-89 90l89 90z" />
    <glyph glyph-name="je.fina" unicode="&#x698;" horiz-adv-x="349" arabic-form="final" 
d="M349 0q-26 0 -48.5 7.5t-37.5 27.5v-8.5t-1 -8.5q-4 -47 -27 -91.5t-54.5 -79t-65.5 -55.5t-59 -21q-12 0 -30 4.5t-38.5 11.5t-41.5 16t-39 17l36 102q31 -7 64 -7q16 0 38 13t42 33.5t34 46t14 51.5q0 69 -15 145.5t-31 145.5l136 27l24 -135q6 -32 29.5 -48.5
t70.5 -16.5v-177zM161 589l70 71l89 -89l-89 -91l-70 71l-70 -71l-89 90l89 90zM250 725l-89 -91l-89 90l89 90z" />
    <glyph glyph-name="rreh.fina" unicode="&#x691;" horiz-adv-x="349" arabic-form="final" 
d="M349 0q-26 0 -48.5 7.5t-37.5 27.5v-8.5t-1 -8.5q-4 -47 -27 -91.5t-54.5 -79t-65.5 -55.5t-59 -21q-12 0 -30 4.5t-38.5 11.5t-41.5 16t-39 17l36 102q31 -7 64 -7q16 0 38 13t42 33.5t34 46t14 51.5q0 69 -15 145.5t-31 145.5l136 27l24 -135q6 -32 29.5 -48.5
t70.5 -16.5v-177zM78 555q3 8 4 23.5t1 53.5v125l67 4v-75q0 -16 -3 -38q12 13 25 21t25 8q20 0 39.5 -10t35.5 -26.5t25.5 -37.5t9.5 -42q0 -18 -12 -40t-27 -31q-13 -8 -30 -12t-35 -5.5t-36 -2t-32 -0.5h-105v85h48zM154 555q23 0 49 1.5t37 7.5q-8 12 -21 22.5t-28 13.5
q-14 -6 -25 -18t-22 -27h10z" />
    <glyph glyph-name="sin" unicode="&#x633;" horiz-adv-x="1181" arabic-form="isolated" 
d="M1116 445q6 -30 10.5 -63t7.5 -65.5t5 -62.5t2 -53q0 -17 -2.5 -40.5t-7.5 -39.5q-6 -22 -23 -45t-37.5 -42t-42 -31.5t-37.5 -12.5q-97 0 -182 65q-29 -37 -60 -51.5t-69 -14.5q-55 0 -80 32q0 -17 -1 -39t-3 -36q-2 -18 -9.5 -38.5t-17 -39t-21 -33.5t-22.5 -22
q-47 -32 -112.5 -52t-137.5 -20q-123 0 -184.5 63.5t-61.5 173.5q0 76 22.5 156t57.5 178l101 -35q-13 -38 -24.5 -75.5t-20 -71.5t-13.5 -61.5t-5 -46.5q0 -57 43.5 -82.5t110.5 -25.5q18 0 40 3t44.5 8.5t44 13.5t38.5 19q2 9 2 17.5v14.5q0 39 -5.5 87.5t-13 98t-17 95.5
t-16.5 80l136 26l22 -130q7 -39 26.5 -59.5t61.5 -20.5q30 0 48 10t28.5 33t16.5 61.5t12 94.5l119 -12q-2 -35 -6.5 -77.5t-11.5 -78.5q23 -18 50 -26.5t51 -8.5q5 0 10.5 0.5t10.5 3.5q0 69 -6 131t-17 119l146 28v0z" />
    <glyph glyph-name="sin.fina" unicode="&#x633;" horiz-adv-x="1200" arabic-form="final" 
d="M600 21q0 -17 -1 -39t-3 -36q-2 -18 -9.5 -38.5t-17 -39t-21 -33.5t-22.5 -22q-47 -32 -112.5 -52t-137.5 -20q-123 0 -184.5 63.5t-61.5 173.5q0 76 22.5 156t57.5 178l101 -35q-13 -38 -24.5 -75.5t-20 -71.5t-13.5 -61.5t-5 -46.5q0 -57 43.5 -82.5t110.5 -25.5
q18 0 40 3t44.5 8.5t44 13.5t38.5 19q2 9 2 17.5v14.5q0 39 -5.5 87.5t-13 98t-17 95.5t-16.5 80l136 26l22 -130q7 -39 26.5 -59.5t61.5 -20.5q30 0 48 10t28.5 33t16.5 61.5t12 94.5l119 -12q-2 -35 -6.5 -77.5t-11.5 -78.5q23 -18 51 -27t47 -9q4 0 11.5 7t13.5 16
q2 2 2.5 6t0.5 19v185h123v-168q0 -20 18 -35t62 -15v-177q-39 0 -77.5 9.5t-67.5 39.5q-20 -25 -42 -42.5t-48 -17.5q-27 0 -70.5 16t-85.5 50q-29 -37 -60 -51.5t-69 -14.5q-55 0 -80 32z" />
    <glyph glyph-name="sin.medi" unicode="&#x633;" horiz-adv-x="913" arabic-form="medial" 
d="M0 177q59 0 95.5 6.5t56.5 21.5q9 8 15 16t11 24t9.5 44.5t9.5 76.5l119 -12q-3 -40 -7.5 -80.5t-10.5 -76.5q17 -18 37 -24t40 -6q31 0 49.5 10t30 33t17 61.5t11.5 94.5l119 -12q-2 -35 -6.5 -77.5t-11.5 -78.5q23 -18 51 -27t47 -9q4 0 11.5 7t13.5 16q2 2 2.5 6
t0.5 19v185h123v-168q0 -20 18 -35t62 -15v-177q-39 0 -77.5 9.5t-67.5 39.5q-20 -25 -42 -42.5t-48 -17.5q-27 0 -70.5 16t-85.5 50q-26 -32 -66 -49t-81 -17q-35 0 -75.5 15.5t-81.5 53.5q-34 -29 -85 -43.5t-133 -14.5q-30 0 -30 88q0 89 30 89z" />
    <glyph glyph-name="sin.init" unicode="&#x633;" horiz-adv-x="884" arabic-form="initial" 
d="M0 0q-30 0 -30 88q0 89 30 89q59 0 95.5 6.5t56.5 21.5q9 8 15 16t11 24t9.5 44.5t9.5 76.5l119 -12q-3 -40 -7.5 -80.5t-10.5 -76.5q17 -18 37 -24t40 -6q31 0 49.5 10t30 33t17 61.5t11.5 94.5l119 -12q-2 -35 -6.5 -77.5t-11.5 -78.5q23 -18 50 -26.5t51 -8.5
q5 0 10.5 0.5t10.5 3.5q0 69 -6 131t-17 119l146 28q6 -30 10.5 -63t7.5 -65.5t5 -62.5t2 -53q0 -17 -2.5 -40.5t-7.5 -39.5q-6 -22 -23 -45t-37.5 -42t-42 -31.5t-37.5 -12.5q-97 0 -182 65q-26 -32 -66 -49t-81 -17q-35 0 -75.5 15.5t-81.5 53.5q-34 -29 -85 -43.5
t-133 -14.5z" />
    <glyph glyph-name="shin" unicode="&#x634;" horiz-adv-x="1181" arabic-form="isolated" 
d="M1116 445q6 -30 10.5 -63t7.5 -65.5t5 -62.5t2 -53q0 -17 -2.5 -40.5t-7.5 -39.5q-6 -22 -23 -45t-37.5 -42t-42 -31.5t-37.5 -12.5q-97 0 -182 65q-29 -37 -60 -51.5t-69 -14.5q-55 0 -80 32q0 -17 -1 -39t-3 -36q-2 -18 -9.5 -38.5t-17 -39t-21 -33.5t-22.5 -22
q-47 -32 -112.5 -52t-137.5 -20q-123 0 -184.5 63.5t-61.5 173.5q0 76 22.5 156t57.5 178l101 -35q-13 -38 -24.5 -75.5t-20 -71.5t-13.5 -61.5t-5 -46.5q0 -57 43.5 -82.5t110.5 -25.5q18 0 40 3t44.5 8.5t44 13.5t38.5 19q2 9 2 17.5v14.5q0 39 -5.5 87.5t-13 98t-17 95.5
t-16.5 80l136 26l22 -130q7 -39 26.5 -59.5t61.5 -20.5q30 0 48 10t28.5 33t16.5 61.5t12 94.5l119 -12q-2 -35 -6.5 -77.5t-11.5 -78.5q23 -18 50 -26.5t51 -8.5q5 0 10.5 0.5t10.5 3.5q0 69 -6 131t-17 119l146 28v0zM795 589l70 71l89 -89l-89 -91l-70 71l-70 -71l-89 90
l89 90zM884 725l-89 -91l-89 90l89 90z" />
    <glyph glyph-name="shin.fina" unicode="&#x634;" horiz-adv-x="1200" arabic-form="final" 
d="M600 21q0 -17 -1 -39t-3 -36q-2 -18 -9.5 -38.5t-17 -39t-21 -33.5t-22.5 -22q-47 -32 -112.5 -52t-137.5 -20q-123 0 -184.5 63.5t-61.5 173.5q0 76 22.5 156t57.5 178l101 -35q-13 -38 -24.5 -75.5t-20 -71.5t-13.5 -61.5t-5 -46.5q0 -57 43.5 -82.5t110.5 -25.5
q18 0 40 3t44.5 8.5t44 13.5t38.5 19q2 9 2 17.5v14.5q0 39 -5.5 87.5t-13 98t-17 95.5t-16.5 80l136 26l22 -130q7 -39 26.5 -59.5t61.5 -20.5q30 0 48 10t28.5 33t16.5 61.5t12 94.5l119 -12q-2 -35 -6.5 -77.5t-11.5 -78.5q23 -18 51 -27t47 -9q4 0 11.5 7t13.5 16
q2 2 2.5 6t0.5 19v185h123v-168q0 -20 18 -35t62 -15v-177q-39 0 -77.5 9.5t-67.5 39.5q-20 -25 -42 -42.5t-48 -17.5q-27 0 -70.5 16t-85.5 50q-29 -37 -60 -51.5t-69 -14.5q-55 0 -80 32zM820 589l70 71l89 -89l-89 -91l-70 71l-70 -71l-89 90l89 90zM909 725l-89 -91
l-89 90l89 90z" />
    <glyph glyph-name="shin.medi" unicode="&#x634;" horiz-adv-x="913" arabic-form="medial" 
d="M0 177q59 0 95.5 6.5t56.5 21.5q9 8 15 16t11 24t9.5 44.5t9.5 76.5l119 -12q-3 -40 -7.5 -80.5t-10.5 -76.5q17 -18 37 -24t40 -6q31 0 49.5 10t30 33t17 61.5t11.5 94.5l119 -12q-2 -35 -6.5 -77.5t-11.5 -78.5q23 -18 51 -27t47 -9q4 0 11.5 7t13.5 16q2 2 2.5 6
t0.5 19v185h123v-168q0 -20 18 -35t62 -15v-177q-39 0 -77.5 9.5t-67.5 39.5q-20 -25 -42 -42.5t-48 -17.5q-27 0 -70.5 16t-85.5 50q-26 -32 -66 -49t-81 -17q-35 0 -75.5 15.5t-81.5 53.5q-34 -29 -85 -43.5t-133 -14.5q-30 0 -30 88q0 89 30 89zM530 589l70 71l89 -89
l-89 -91l-70 71l-70 -71l-89 90l89 90zM619 725l-89 -91l-89 90l89 90z" />
    <glyph glyph-name="shin.init" unicode="&#x634;" horiz-adv-x="884" arabic-form="initial" 
d="M0 0q-30 0 -30 88q0 89 30 89q59 0 95.5 6.5t56.5 21.5q9 8 15 16t11 24t9.5 44.5t9.5 76.5l119 -12q-3 -40 -7.5 -80.5t-10.5 -76.5q17 -18 37 -24t40 -6q31 0 49.5 10t30 33t17 61.5t11.5 94.5l119 -12q-2 -35 -6.5 -77.5t-11.5 -78.5q23 -18 50 -26.5t51 -8.5
q5 0 10.5 0.5t10.5 3.5q0 69 -6 131t-17 119l146 28q6 -30 10.5 -63t7.5 -65.5t5 -62.5t2 -53q0 -17 -2.5 -40.5t-7.5 -39.5q-6 -22 -23 -45t-37.5 -42t-42 -31.5t-37.5 -12.5q-97 0 -182 65q-26 -32 -66 -49t-81 -17q-35 0 -75.5 15.5t-81.5 53.5q-34 -29 -85 -43.5
t-133 -14.5zM505 589l70 71l89 -89l-89 -91l-70 71l-70 -71l-89 90l89 90zM594 725l-89 -91l-89 90l89 90z" />
    <glyph glyph-name="sad" unicode="&#x635;" horiz-adv-x="1151" arabic-form="isolated" 
d="M865 292q-32 -13 -68.5 -47t-65.5 -78h30.5t33.5 1q60 3 113.5 11t80.5 19q-8 17 -21 32.5t-29.5 28.5t-35.5 21.5t-38 11.5zM600 25q0 -20 -1 -42.5t-3 -36.5q-2 -18 -9.5 -38.5t-17 -39t-21 -33.5t-22.5 -22q-47 -32 -112.5 -52t-137.5 -20q-123 0 -184.5 63.5
t-61.5 173.5q0 76 22.5 156t57.5 178l101 -35q-13 -38 -24.5 -75.5t-20 -71.5t-13.5 -61.5t-5 -46.5q0 -57 43.5 -82.5t110.5 -25.5q18 0 40 3t44.5 8.5t44 13.5t38.5 19q2 9 2 17.5v14.5q0 39 -5.5 87.5t-13 98t-17 95.5t-16.5 80l136 26l22 -130q4 -20 13 -40t25 -30
q30 56 65 105.5t70.5 86t71 57.5t67.5 21q46 0 88 -25.5t74 -63.5t51 -83t19 -85q0 -16 -4.5 -36.5t-12.5 -40t-19.5 -36.5t-26.5 -26q-28 -17 -68.5 -29t-85 -19.5t-88.5 -10.5t-79 -3q-39 0 -75 7.5t-62 28.5z" />
    <glyph glyph-name="sad.fina" unicode="&#x635;" horiz-adv-x="1185" arabic-form="final" 
d="M737 -11q-39 0 -75 7.5t-62 28.5q0 -20 -1 -42.5t-3 -36.5q-2 -18 -9.5 -38.5t-17 -39t-21 -33.5t-22.5 -22q-47 -32 -112.5 -52t-137.5 -20q-123 0 -184.5 63.5t-61.5 173.5q0 76 22.5 156t57.5 178l101 -35q-13 -38 -24.5 -75.5t-20 -71.5t-13.5 -61.5t-5 -46.5
q0 -57 43.5 -82.5t110.5 -25.5q18 0 40 3t44.5 8.5t44 13.5t38.5 19q2 9 2 17.5v14.5q0 39 -5.5 87.5t-13 98t-17 95.5t-16.5 80l136 26l22 -130q4 -20 13 -40t25 -30q30 56 65 105.5t70.5 86t71 57.5t67.5 21q46 0 88 -25.5t74 -63.5t51 -83t19 -85q0 -8 -1 -12
q14 -1 31 -1h34v-176q-17 0 -33.5 1.5t-33 6t-33.5 13.5t-34 25q-29 -16 -69 -27t-83 -18t-85.5 -10t-76.5 -3zM865 292q-32 -13 -68.5 -47t-65.5 -78h30.5t33.5 1q60 3 113.5 11t80.5 19q-8 17 -21 32.5t-29.5 28.5t-35.5 21.5t-38 11.5z" />
    <glyph glyph-name="sad.medi" unicode="&#x635;" horiz-adv-x="924" arabic-form="medial" 
d="M0 177q59 0 96 6t56 22q9 7 15.5 15t11 24.5t9 45t9.5 76.5l119 -12q-3 -40 -7.5 -81t-10.5 -77q9 -10 24 -16.5t31 -9.5q30 59 65 110t71 88t71.5 58t67.5 21q46 0 88 -25.5t74 -63.5t51 -83t19 -85q0 -8 -1 -12q14 -1 31 -1h34v-176q-17 0 -33.5 1.5t-33 6t-33.5 13.5
t-34 25q-29 -16 -69 -27t-83 -18t-85.5 -10t-76.5 -3q-49 0 -86.5 3t-67.5 11.5t-53.5 22.5t-44.5 35q-37 -32 -89.5 -46.5t-134.5 -14.5q-30 0 -30 88q0 89 30 89zM604 292q-32 -13 -68.5 -47t-65.5 -78h30.5t33.5 1q60 2 113.5 10.5t80.5 19.5q-8 17 -21 32.5t-29.5 28.5
t-35.5 21.5t-38 11.5z" />
    <glyph glyph-name="sad.init" unicode="&#x635;" horiz-adv-x="890" arabic-form="initial" 
d="M0 177q59 0 95.5 6.5t56.5 21.5q9 8 15 16t11 24t9.5 44.5t9.5 76.5l119 -12q-3 -40 -7.5 -81t-10.5 -77q9 -10 24 -16.5t31 -9.5q30 59 65 110t71 88t71.5 58t67.5 21q46 0 88 -25.5t74 -63.5t51 -83t19 -85q0 -16 -4.5 -36.5t-12.5 -40t-19.5 -36.5t-26.5 -26
q-28 -17 -69 -29t-85.5 -19.5t-88.5 -10.5t-78 -3q-49 0 -86.5 3t-67.5 11.5t-53.5 22.5t-44.5 35q-37 -32 -89.5 -46.5t-134.5 -14.5q-30 0 -30 88q0 89 30 89zM604 292q-32 -13 -68.5 -47t-65.5 -78h30.5t33.5 1q60 2 113.5 10.5t80.5 19.5q-8 17 -21 32.5t-29.5 28.5
t-35.5 21.5t-38 11.5z" />
    <glyph glyph-name="zad" unicode="&#x636;" horiz-adv-x="1151" arabic-form="isolated" 
d="M865 292q-32 -13 -68.5 -47t-65.5 -78h30.5t33.5 1q60 3 113.5 11t80.5 19q-8 17 -21 32.5t-29.5 28.5t-35.5 21.5t-38 11.5zM600 25q0 -20 -1 -42.5t-3 -36.5q-2 -18 -9.5 -38.5t-17 -39t-21 -33.5t-22.5 -22q-47 -32 -112.5 -52t-137.5 -20q-123 0 -184.5 63.5
t-61.5 173.5q0 76 22.5 156t57.5 178l101 -35q-13 -38 -24.5 -75.5t-20 -71.5t-13.5 -61.5t-5 -46.5q0 -57 43.5 -82.5t110.5 -25.5q18 0 40 3t44.5 8.5t44 13.5t38.5 19q2 9 2 17.5v14.5q0 39 -5.5 87.5t-13 98t-17 95.5t-16.5 80l136 26l22 -130q4 -20 13 -40t25 -30
q30 56 65 105.5t70.5 86t71 57.5t67.5 21q46 0 88 -25.5t74 -63.5t51 -83t19 -85q0 -16 -4.5 -36.5t-12.5 -40t-19.5 -36.5t-26.5 -26q-28 -17 -68.5 -29t-85 -19.5t-88.5 -10.5t-79 -3q-39 0 -75 7.5t-62 28.5zM944 631l-89 -91l-89 90l89 90z" />
    <glyph glyph-name="zad.fina" unicode="&#x636;" horiz-adv-x="1185" arabic-form="final" 
d="M737 -11q-39 0 -75 7.5t-62 28.5q0 -20 -1 -42.5t-3 -36.5q-2 -18 -9.5 -38.5t-17 -39t-21 -33.5t-22.5 -22q-47 -32 -112.5 -52t-137.5 -20q-123 0 -184.5 63.5t-61.5 173.5q0 76 22.5 156t57.5 178l101 -35q-13 -38 -24.5 -75.5t-20 -71.5t-13.5 -61.5t-5 -46.5
q0 -57 43.5 -82.5t110.5 -25.5q18 0 40 3t44.5 8.5t44 13.5t38.5 19q2 9 2 17.5v14.5q0 39 -5.5 87.5t-13 98t-17 95.5t-16.5 80l136 26l22 -130q4 -20 13 -40t25 -30q30 56 65 105.5t70.5 86t71 57.5t67.5 21q46 0 88 -25.5t74 -63.5t51 -83t19 -85q0 -8 -1 -12
q14 -1 31 -1h34v-176q-17 0 -33.5 1.5t-33 6t-33.5 13.5t-34 25q-29 -16 -69 -27t-83 -18t-85.5 -10t-76.5 -3zM865 292q-32 -13 -68.5 -47t-65.5 -78h30.5t33.5 1q60 3 113.5 11t80.5 19q-8 17 -21 32.5t-29.5 28.5t-35.5 21.5t-38 11.5zM944 631l-89 -91l-89 90l89 90z
" />
    <glyph glyph-name="zad.medi" unicode="&#x636;" horiz-adv-x="924" arabic-form="medial" 
d="M0 177q59 0 96 6t56 22q9 7 15.5 15t11 24.5t9 45t9.5 76.5l119 -12q-3 -40 -7.5 -81t-10.5 -77q9 -10 24 -16.5t31 -9.5q30 59 65 110t71 88t71.5 58t67.5 21q46 0 88 -25.5t74 -63.5t51 -83t19 -85q0 -8 -1 -12q14 -1 31 -1h34v-176q-17 0 -33.5 1.5t-33 6t-33.5 13.5
t-34 25q-29 -16 -69 -27t-83 -18t-85.5 -10t-76.5 -3q-49 0 -86.5 3t-67.5 11.5t-53.5 22.5t-44.5 35q-37 -32 -89.5 -46.5t-134.5 -14.5q-30 0 -30 88q0 89 30 89zM604 292q-32 -13 -68.5 -47t-65.5 -78h30.5t33.5 1q60 2 113.5 10.5t80.5 19.5q-8 17 -21 32.5t-29.5 28.5
t-35.5 21.5t-38 11.5zM684 631l-89 -91l-89 90l89 90z" />
    <glyph glyph-name="zad.init" unicode="&#x636;" horiz-adv-x="890" arabic-form="initial" 
d="M0 177q59 0 95.5 6.5t56.5 21.5q9 8 15 16t11 24t9.5 44.5t9.5 76.5l119 -12q-3 -40 -7.5 -81t-10.5 -77q9 -10 24 -16.5t31 -9.5q30 59 65 110t71 88t71.5 58t67.5 21q46 0 88 -25.5t74 -63.5t51 -83t19 -85q0 -16 -4.5 -36.5t-12.5 -40t-19.5 -36.5t-26.5 -26
q-28 -17 -69 -29t-85.5 -19.5t-88.5 -10.5t-78 -3q-49 0 -86.5 3t-67.5 11.5t-53.5 22.5t-44.5 35q-37 -32 -89.5 -46.5t-134.5 -14.5q-30 0 -30 88q0 89 30 89zM604 292q-32 -13 -68.5 -47t-65.5 -78h30.5t33.5 1q60 2 113.5 10.5t80.5 19.5q-8 17 -21 32.5t-29.5 28.5
t-35.5 21.5t-38 11.5zM684 631l-89 -91l-89 90l89 90z" />
    <glyph glyph-name="ta" unicode="&#x637;" horiz-adv-x="682" arabic-form="isolated" 
d="M153 177q3 9 4.5 24.5t2.5 45t1 77.5v122v253l135 11v-243q0 -24 -3.5 -51t-12.5 -61q34 48 71.5 70t68.5 22q46 0 88 -25.5t74 -63.5t51 -83t19 -85q0 -16 -4 -36.5t-12.5 -40t-20 -36.5t-26.5 -26q-28 -17 -72 -27.5t-99.5 -15.5t-119 -6.5t-130.5 -1.5h-138v177h123z
M396 292q-42 -18 -74.5 -48.5t-59.5 -70.5q22 0 56 1t70.5 4t71.5 7.5t60 12.5q-8 17 -21 32.5t-29.5 28.5t-35.5 21.5t-38 11.5z" />
    <glyph glyph-name="ta.fina" unicode="&#x637;" horiz-adv-x="716" arabic-form="final" 
d="M296 467q0 -24 -3.5 -51t-12.5 -61q34 48 71.5 70t68.5 22q46 0 88 -25.5t74 -63.5t51 -83t19 -85q0 -8 -1 -12q14 -1 31 -1h34v-176q-17 0 -33.5 1.5t-33 6t-33.5 13.5t-34 25q-33 -16 -78 -25.5t-93 -14t-93.5 -6t-79.5 -1.5h-208v177h123q3 9 4.5 24.5t2.5 45t1 77.5
v122v253l135 11v-243zM396 292q-42 -18 -74.5 -48.5t-59.5 -70.5q22 0 56 1t70.5 4t71.5 7.5t60 12.5q-8 17 -21 32.5t-29.5 28.5t-35.5 21.5t-38 11.5z" />
    <glyph glyph-name="ta.medi" unicode="&#x637;" horiz-adv-x="643" arabic-form="medial" 
d="M80 177q3 9 4.5 24.5t2.5 45t1 77.5v122v253l135 11v-243q0 -24 -3.5 -51t-12.5 -61q34 48 71.5 70t68.5 22q46 0 88 -25.5t74 -63.5t51 -83t19 -85q0 -8 -1 -12q14 -1 31 -1h34v-176q-17 0 -33.5 1.5t-33 6t-33.5 13.5t-34 25q-33 -16 -78 -25.5t-93 -14t-93.5 -6
t-79.5 -1.5h-165q-30 0 -30 88q0 89 30 89h80zM323 292q-42 -18 -74.5 -48.5t-59.5 -70.5q22 0 56 1t70.5 4t71.5 7.5t60 12.5q-8 17 -21 32.5t-29.5 28.5t-35.5 21.5t-38 11.5z" />
    <glyph glyph-name="ta.init" unicode="&#x637;" horiz-adv-x="609" arabic-form="initial" 
d="M80 177q3 9 4.5 24.5t2.5 45t1 77.5v122v253l135 11v-243q0 -24 -3.5 -51t-12.5 -61q34 48 71.5 70t68.5 22q46 0 88 -25.5t74 -63.5t51 -83t19 -85q0 -16 -4.5 -36.5t-12.5 -40t-19.5 -36.5t-26.5 -26q-28 -17 -72 -27.5t-99.5 -15.5t-119 -6.5t-130.5 -1.5h-95
q-30 0 -30 88q0 89 30 89h80zM323 292q-42 -18 -74.5 -48.5t-59.5 -70.5q22 0 56 1t70.5 4t71.5 7.5t60 12.5q-8 17 -21 32.5t-29.5 28.5t-35.5 21.5t-38 11.5z" />
    <glyph glyph-name="za" unicode="&#x638;" horiz-adv-x="682" arabic-form="isolated" 
d="M153 177q3 9 4.5 24.5t2.5 45t1 77.5v122v253l135 11v-243q0 -24 -3.5 -51t-12.5 -61q34 48 71.5 70t68.5 22q46 0 88 -25.5t74 -63.5t51 -83t19 -85q0 -16 -4 -36.5t-12.5 -40t-20 -36.5t-26.5 -26q-28 -17 -72 -27.5t-99.5 -15.5t-119 -6.5t-130.5 -1.5h-138v177h123z
M396 292q-42 -18 -74.5 -48.5t-59.5 -70.5q22 0 56 1t70.5 4t71.5 7.5t60 12.5q-8 17 -21 32.5t-29.5 28.5t-35.5 21.5t-38 11.5zM544 631l-89 -91l-89 90l89 90z" />
    <glyph glyph-name="za.fina" unicode="&#x638;" horiz-adv-x="716" arabic-form="final" 
d="M296 467q0 -24 -3.5 -51t-12.5 -61q34 48 71.5 70t68.5 22q46 0 88 -25.5t74 -63.5t51 -83t19 -85q0 -8 -1 -12q14 -1 31 -1h34v-176q-17 0 -33.5 1.5t-33 6t-33.5 13.5t-34 25q-33 -16 -78 -25.5t-93 -14t-93.5 -6t-79.5 -1.5h-208v177h123q3 9 4.5 24.5t2.5 45t1 77.5
v122v253l135 11v-243zM396 292q-42 -18 -74.5 -48.5t-59.5 -70.5q22 0 56 1t70.5 4t71.5 7.5t60 12.5q-8 17 -21 32.5t-29.5 28.5t-35.5 21.5t-38 11.5zM544 631l-89 -91l-89 90l89 90z" />
    <glyph glyph-name="za.medi" unicode="&#x638;" horiz-adv-x="643" arabic-form="medial" 
d="M80 177q3 9 4.5 24.5t2.5 45t1 77.5v122v253l135 11v-243q0 -24 -3.5 -51t-12.5 -61q34 48 71.5 70t68.5 22q46 0 88 -25.5t74 -63.5t51 -83t19 -85q0 -8 -1 -12q14 -1 31 -1h34v-176q-17 0 -33.5 1.5t-33 6t-33.5 13.5t-34 25q-33 -16 -78 -25.5t-93 -14t-93.5 -6
t-79.5 -1.5h-165q-30 0 -30 88q0 89 30 89h80zM323 292q-42 -18 -74.5 -48.5t-59.5 -70.5q22 0 56 1t70.5 4t71.5 7.5t60 12.5q-8 17 -21 32.5t-29.5 28.5t-35.5 21.5t-38 11.5zM469 631l-89 -91l-89 90l89 90z" />
    <glyph glyph-name="za.init" unicode="&#x638;" horiz-adv-x="609" arabic-form="initial" 
d="M80 177q3 9 4.5 24.5t2.5 45t1 77.5v122v253l135 11v-243q0 -24 -3.5 -51t-12.5 -61q34 48 71.5 70t68.5 22q46 0 88 -25.5t74 -63.5t51 -83t19 -85q0 -16 -4.5 -36.5t-12.5 -40t-19.5 -36.5t-26.5 -26q-28 -17 -72 -27.5t-99.5 -15.5t-119 -6.5t-130.5 -1.5h-95
q-30 0 -30 88q0 89 30 89h80zM323 292q-42 -18 -74.5 -48.5t-59.5 -70.5q22 0 56 1t70.5 4t71.5 7.5t60 12.5q-8 17 -21 32.5t-29.5 28.5t-35.5 21.5t-38 11.5zM469 631l-89 -91l-89 90l89 90z" />
    <glyph glyph-name="ein" unicode="&#x639;" horiz-adv-x="535" arabic-form="isolated" 
d="M455 80q-68 -19 -123 -39t-95 -45.5t-61.5 -59t-21.5 -79.5v-14q21 -30 70 -40.5t107 -10.5q37 0 89.5 5t101.5 13l13 -165q-49 -8 -108.5 -12.5t-109.5 -4.5q-49 0 -98 9.5t-88.5 35t-64 69.5t-24.5 113q0 31 3 58.5t11 53t22 52t37 56.5q-49 49 -67 99t-18 92
q0 27 8.5 59.5t28.5 58.5q14 18 33 33t40.5 25.5t43 16.5t39.5 6q69 0 158 -65l-58 -104q-43 22 -77 22q-18 0 -36.5 -6.5t-35.5 -20.5q-4 -4 -5.5 -13.5t-1.5 -17.5q0 -13 6.5 -29t16 -29.5t20.5 -22.5t20 -9q11 0 61.5 18t132.5 42z" />
    <glyph glyph-name="ein.fina" unicode="&#x639;" horiz-adv-x="550" arabic-form="final" 
d="M408 175q36 1 68 1.5t74 0.5v-177q-56 0 -95.5 2.5t-69.5 8.5t-55 17.5t-52 29.5q-59 -51 -93.5 -105t-34.5 -96v-14q21 -30 70 -40.5t107 -10.5q18 0 42.5 1.5t51.5 4t55 6t52 7.5l13 -165q-24 -4 -53.5 -7t-60 -5.5t-60 -4t-54.5 -1.5q-49 0 -98 9.5t-88.5 35t-64 69.5
t-24.5 113q0 78 32 146.5t103 138.5q-20 21 -41.5 43.5t-41 44t-35.5 41.5t-25 35q1 8 4.5 23.5t9 32.5t11 33.5t10.5 26.5q21 9 51 19t63 18t66 13t59 5q56 0 94.5 -14t62.5 -35t35 -46t11 -48q0 -5 -1.5 -23.5t-5.5 -33.5q-8 -15 -34 -42.5t-58 -57.5zM281 220
q26 23 51 49t33 41q-24 24 -75 24q-23 0 -49.5 -5.5t-45.5 -13.5q8 -11 20 -25t24.5 -28t23.5 -25.5t18 -16.5z" />
    <glyph glyph-name="ein.medi" unicode="&#x639;" horiz-adv-x="565" arabic-form="medial" 
d="M0 177h37.5h43.5t41.5 -0.5t32.5 -1.5q-6 6 -20 21t-31 34t-33.5 39t-25.5 35q1 8 4.5 23.5t9 32.5t11 33.5t10.5 26.5q21 9 51 19t63 18t66 13t59 5q56 0 94.5 -14t62.5 -35t35 -46t11 -48q0 -5 -1.5 -23.5t-5.5 -33.5q-8 -15 -34 -42.5t-57 -57.5q22 1 60.5 1.5
t80.5 0.5v-177q-56 0 -96 3t-71 10.5t-56.5 20t-51.5 31.5q-39 -21 -73 -33.5t-67.5 -19.5t-69.5 -9.5t-80 -2.5q-30 0 -30 88q0 89 30 89zM296 220q26 23 51 49t33 41q-24 24 -75 24q-23 0 -49.5 -5.5t-45.5 -13.5q8 -11 20 -25t24.5 -28t23.5 -25.5t18 -16.5z" />
    <glyph glyph-name="ein.init" unicode="&#x639;" horiz-adv-x="517" arabic-form="initial" 
d="M85 177q-15 25 -19.5 49t-4.5 44q0 39 17 74.5t44 62.5t61.5 42.5t70.5 15.5q69 0 158 -65l-58 -104q-43 22 -77 22q-11 0 -24.5 -2.5t-25.5 -8.5t-20.5 -17.5t-8.5 -29.5q0 -11 3.5 -23.5t9.5 -23t13.5 -17t15.5 -6.5q26 0 81 10t134 30l32 -159q-73 -21 -133.5 -34.5
t-117 -22t-113.5 -11.5t-123 -3q-30 0 -30 88q0 89 30 89h85z" />
    <glyph glyph-name="qein" unicode="&#x63a;" horiz-adv-x="535" arabic-form="isolated" 
d="M455 80q-68 -19 -123 -39t-95 -45.5t-61.5 -59t-21.5 -79.5v-14q21 -30 70 -40.5t107 -10.5q37 0 89.5 5t101.5 13l13 -165q-49 -8 -108.5 -12.5t-109.5 -4.5q-49 0 -98 9.5t-88.5 35t-64 69.5t-24.5 113q0 31 3 58.5t11 53t22 52t37 56.5q-49 49 -67 99t-18 92
q0 27 8.5 59.5t28.5 58.5q14 18 33 33t40.5 25.5t43 16.5t39.5 6q69 0 158 -65l-58 -104q-43 22 -77 22q-18 0 -36.5 -6.5t-35.5 -20.5q-4 -4 -5.5 -13.5t-1.5 -17.5q0 -13 6.5 -29t16 -29.5t20.5 -22.5t20 -9q11 0 61.5 18t132.5 42zM292 621l-89 -91l-89 90l89 90z" />
    <glyph glyph-name="qein.fina" unicode="&#x63a;" horiz-adv-x="550" arabic-form="final" 
d="M408 175q36 1 68 1.5t74 0.5v-177q-56 0 -95.5 2.5t-69.5 8.5t-55 17.5t-52 29.5q-59 -51 -93.5 -105t-34.5 -96v-14q21 -30 70 -40.5t107 -10.5q18 0 42.5 1.5t51.5 4t55 6t52 7.5l13 -165q-24 -4 -53.5 -7t-60 -5.5t-60 -4t-54.5 -1.5q-49 0 -98 9.5t-88.5 35t-64 69.5
t-24.5 113q0 78 32 146.5t103 138.5q-20 21 -41.5 43.5t-41 44t-35.5 41.5t-25 35q1 8 4.5 23.5t9 32.5t11 33.5t10.5 26.5q21 9 51 19t63 18t66 13t59 5q56 0 94.5 -14t62.5 -35t35 -46t11 -48q0 -5 -1.5 -23.5t-5.5 -33.5q-8 -15 -34 -42.5t-58 -57.5zM281 220
q26 23 51 49t33 41q-24 24 -75 24q-23 0 -49.5 -5.5t-45.5 -13.5q8 -11 20 -25t24.5 -28t23.5 -25.5t18 -16.5zM374 621l-89 -91l-89 90l89 90z" />
    <glyph glyph-name="qein.medi" unicode="&#x63a;" horiz-adv-x="565" arabic-form="medial" 
d="M0 177h37.5h43.5t41.5 -0.5t32.5 -1.5q-6 6 -20 21t-31 34t-33.5 39t-25.5 35q1 8 4.5 23.5t9 32.5t11 33.5t10.5 26.5q21 9 51 19t63 18t66 13t59 5q56 0 94.5 -14t62.5 -35t35 -46t11 -48q0 -5 -1.5 -23.5t-5.5 -33.5q-8 -15 -34 -42.5t-57 -57.5q22 1 60.5 1.5
t80.5 0.5v-177q-56 0 -96 3t-71 10.5t-56.5 20t-51.5 31.5q-39 -21 -73 -33.5t-67.5 -19.5t-69.5 -9.5t-80 -2.5q-30 0 -30 88q0 89 30 89zM296 220q26 23 51 49t33 41q-24 24 -75 24q-23 0 -49.5 -5.5t-45.5 -13.5q8 -11 20 -25t24.5 -28t23.5 -25.5t18 -16.5zM384 621
l-89 -91l-89 90l89 90z" />
    <glyph glyph-name="qein.init" unicode="&#x63a;" horiz-adv-x="517" arabic-form="initial" 
d="M85 177q-15 25 -19.5 49t-4.5 44q0 39 17 74.5t44 62.5t61.5 42.5t70.5 15.5q69 0 158 -65l-58 -104q-43 22 -77 22q-11 0 -24.5 -2.5t-25.5 -8.5t-20.5 -17.5t-8.5 -29.5q0 -11 3.5 -23.5t9.5 -23t13.5 -17t15.5 -6.5q26 0 81 10t134 30l32 -159q-73 -21 -133.5 -34.5
t-117 -22t-113.5 -11.5t-123 -3q-30 0 -30 88q0 89 30 89h85zM324 621l-89 -91l-89 90l89 90z" />
    <glyph glyph-name="fe" unicode="&#x641;" horiz-adv-x="815" arabic-form="isolated" 
d="M568 435q-20 0 -36.5 -20.5t-16.5 -49.5q2 -5 10 -10t34 -5q23 0 45 2.5t40 8.5q-7 35 -27.5 54.5t-48.5 19.5zM365 154q38 0 78.5 1.5t78.5 4.5t72.5 8.5t60.5 13.5q2 11 2 22.5v22.5q-32 -5 -58.5 -8.5t-59.5 -3.5q-40 0 -66 11.5t-41.5 31.5t-21.5 46t-6 55
q0 36 11.5 76.5t33.5 74.5t53.5 56.5t72.5 22.5q46 0 85 -24t66.5 -68t43 -108t15.5 -143q0 -6 -1 -18.5t-2.5 -27t-3.5 -28.5t-4 -22q-6 -20 -15 -39.5t-20 -36.5t-24.5 -30t-28.5 -19q-45 -18 -134.5 -33t-212.5 -15q-90 0 -150 18t-95 48.5t-49.5 71.5t-14.5 88
q0 54 18 112t52 125l95 -44q-26 -57 -34.5 -92.5t-8.5 -58.5q0 -49 50 -70t163 -21zM653 756l-89 -91l-89 90l89 90z" />
    <glyph glyph-name="fe.fina" unicode="&#x641;" horiz-adv-x="871" arabic-form="final" 
d="M871 0h-13q-36 0 -66 1.5t-57 6.5t-53.5 14.5t-54.5 26.5q-35 -22 -73 -36t-75.5 -22t-73 -11t-65.5 -3q-90 0 -150 17t-95.5 46.5t-50 70t-14.5 87.5q0 70 20.5 129t55.5 122l93 -54q-9 -16 -18.5 -36.5t-16.5 -41.5t-11.5 -41.5t-4.5 -36.5q0 -22 10.5 -38t36 -26.5
t67.5 -15.5t106 -5q22 0 49.5 0.5t52.5 3.5q-14 20 -19.5 42t-5.5 43q0 62 25 108.5t59 77t69 46t56 15.5q26 0 56.5 -18.5t56 -50.5t42.5 -75t17 -92q0 -14 -5 -37t-20 -40h70v-177zM634 188q20 10 38 23.5t29 28.5q-2 27 -17.5 50.5t-41.5 37.5q-32 -11 -54 -34.5
t-22 -44.5q0 -17 18 -34.5t50 -26.5zM739 676l-89 -91l-89 90l89 90z" />
    <glyph glyph-name="fe.medi" unicode="&#x641;" horiz-adv-x="488" arabic-form="medial" 
d="M0 0q-30 0 -30 88q0 89 30 89h77q-15 33 -15 66q0 62 25 108.5t59 77t69 46t56 15.5q26 0 56.5 -18.5t56 -50.5t42.5 -75t17 -92q0 -14 -5 -37t-20 -40h70v-177h-13q-39 0 -71 2.5t-60.5 8.5t-55 17t-54.5 28q-24 -15 -49 -26t-53 -17.5t-60.5 -9.5t-71.5 -3zM251 188
q20 10 38 23.5t29 28.5q-2 27 -17.5 50.5t-41.5 37.5q-32 -11 -54 -34.5t-22 -44.5q0 -17 18 -34.5t50 -26.5zM354 676l-89 -91l-89 90l89 90z" />
    <glyph glyph-name="fe.init" unicode="&#x641;" horiz-adv-x="481" arabic-form="initial" 
d="M0 177q71 0 119 1t83 3.5t62 7t57 11.5q2 11 2 22.5v22.5q-32 -5 -58.5 -8t-59.5 -3q-40 0 -66 11.5t-41.5 31t-21.5 45.5t-6 55q0 36 11.5 77t33.5 75t53.5 56.5t72.5 22.5q46 0 85 -24t66.5 -68.5t43 -108.5t15.5 -143q0 -6 -1 -18.5t-2.5 -27t-3.5 -28.5t-4 -22
q-6 -20 -15 -39.5t-20 -36.5t-24.5 -30t-28.5 -19q-22 -9 -46 -17t-62 -13.5t-96 -9t-148 -3.5q-30 0 -30 88q0 89 30 89zM234 453q-20 0 -36.5 -20.5t-16.5 -49.5q2 -5 10 -10t34 -5q23 0 45 2.5t40 8.5q-7 35 -27.5 54.5t-48.5 19.5zM319 756l-89 -91l-89 90l89 90z" />
    <glyph glyph-name="veh.fina" unicode="&#x6a4;" horiz-adv-x="871" arabic-form="final" 
d="M871 0h-13q-36 0 -66 1.5t-57 6.5t-53.5 14.5t-54.5 26.5q-35 -22 -73 -36t-75.5 -22t-73 -11t-65.5 -3q-90 0 -150 17t-95.5 46.5t-50 70t-14.5 87.5q0 70 20.5 129t55.5 122l93 -54q-9 -16 -18.5 -36.5t-16.5 -41.5t-11.5 -41.5t-4.5 -36.5q0 -22 10.5 -38t36 -26.5
t67.5 -15.5t106 -5q22 0 49.5 0.5t52.5 3.5q-14 20 -19.5 42t-5.5 43q0 62 25 108.5t59 77t69 46t56 15.5q26 0 56.5 -18.5t56 -50.5t42.5 -75t17 -92q0 -14 -5 -37t-20 -40h70v-177zM634 188q20 10 38 23.5t29 28.5q-2 27 -17.5 50.5t-41.5 37.5q-32 -11 -54 -34.5
t-22 -44.5q0 -17 18 -34.5t50 -26.5zM645 689l70 71l89 -89l-89 -91l-70 71l-70 -71l-89 90l89 90zM734 825l-89 -91l-89 90l89 90z" />
    <glyph glyph-name="veh.medi" unicode="&#x6a4;" horiz-adv-x="488" arabic-form="medial" 
d="M0 0q-30 0 -30 88q0 89 30 89h77q-15 33 -15 66q0 62 25 108.5t59 77t69 46t56 15.5q26 0 56.5 -18.5t56 -50.5t42.5 -75t17 -92q0 -14 -5 -37t-20 -40h70v-177h-13q-39 0 -71 2.5t-60.5 8.5t-55 17t-54.5 28q-24 -15 -49 -26t-53 -17.5t-60.5 -9.5t-71.5 -3zM251 188
q20 10 38 23.5t29 28.5q-2 27 -17.5 50.5t-41.5 37.5q-32 -11 -54 -34.5t-22 -44.5q0 -17 18 -34.5t50 -26.5zM270 694l70 71l89 -89l-89 -91l-70 71l-70 -71l-89 90l89 90zM359 830l-89 -91l-89 90l89 90z" />
    <glyph glyph-name="veh.init" unicode="&#x6a4;" horiz-adv-x="481" arabic-form="initial" 
d="M0 177q71 0 119 1t83 3.5t62 7t57 11.5q2 11 2 22.5v22.5q-32 -5 -58.5 -8t-59.5 -3q-40 0 -66 11.5t-41.5 31t-21.5 45.5t-6 55q0 36 11.5 77t33.5 75t53.5 56.5t72.5 22.5q46 0 85 -24t66.5 -68.5t43 -108.5t15.5 -143q0 -6 -1 -18.5t-2.5 -27t-3.5 -28.5t-4 -22
q-6 -20 -15 -39.5t-20 -36.5t-24.5 -30t-28.5 -19q-22 -9 -46 -17t-62 -13.5t-96 -9t-148 -3.5q-30 0 -30 88q0 89 30 89zM234 453q-20 0 -36.5 -20.5t-16.5 -49.5q2 -5 10 -10t34 -5q23 0 45 2.5t40 8.5q-7 35 -27.5 54.5t-48.5 19.5zM240 774l70 71l89 -89l-89 -91l-70 71
l-70 -71l-89 90l89 90zM329 910l-89 -91l-89 90l89 90z" />
    <glyph glyph-name="qaf" unicode="&#x642;" horiz-adv-x="704" arabic-form="isolated" 
d="M282 -209q-128 0 -190 63.5t-62 173.5q0 76 22.5 156t57.5 178l101 -35q-13 -38 -24.5 -75.5t-20 -71.5t-13.5 -61.5t-5 -46.5q0 -57 44 -82.5t116 -25.5q65 0 127 9.5t109 34.5v54q-25 -7 -58 -9.5t-56 -2.5q-27 0 -55 6.5t-50.5 24t-36.5 48.5t-14 81q0 52 16 97.5
t42 79.5t58.5 53.5t64.5 19.5q36 0 75 -19.5t71 -64.5t52.5 -118t20.5 -179q0 -9 -0.5 -22.5t-1.5 -27t-2.5 -25t-2.5 -18.5q-5 -20 -15 -40t-22.5 -38t-26 -32t-26.5 -21q-50 -29 -123.5 -46.5t-171.5 -17.5zM437 207q32 0 56 3t38 6q-7 38 -29.5 60t-50.5 22
q-11 0 -22 -6.5t-19.5 -16.5t-13.5 -22.5t-5 -24.5q2 -8 12 -14.5t34 -6.5zM455 649l70 71l89 -89l-89 -91l-70 71l-70 -71l-89 90l89 90z" />
    <glyph glyph-name="qaf.fina" unicode="&#x642;" horiz-adv-x="718" arabic-form="final" 
d="M437 157q32 0 56 3t38 6q-7 38 -29.5 60t-50.5 22q-11 0 -22 -6.5t-19.5 -16.5t-13.5 -22.5t-5 -24.5q2 -8 12 -14.5t34 -6.5zM308 -86q65 0 127 9.5t109 34.5v54q-25 -7 -58 -9.5t-56 -2.5q-27 0 -55 6.5t-50.5 24t-36.5 48.5t-14 81q0 52 16 97.5t42 79.5t58.5 53.5
t64.5 19.5q29 0 60 -12.5t59 -40.5t50.5 -72t35.5 -108h58v-177h-45q-1 -18 -2.5 -36t-3.5 -28q-5 -20 -15 -40t-22.5 -38t-26 -32t-26.5 -21q-50 -29 -123.5 -46t-171.5 -17q-128 0 -190 63t-62 173q0 76 22.5 156t57.5 178l101 -35q-13 -38 -24.5 -75.5t-20 -71.5
t-13.5 -61.5t-5 -46.5q0 -57 44 -82.5t116 -25.5zM455 599l70 71l89 -89l-89 -91l-70 71l-70 -71l-89 90l89 90z" />
    <glyph glyph-name="qaf.medi" unicode="&#x642;" horiz-adv-x="488" arabic-form="medial" 
d="M0 0q-30 0 -30 88q0 89 30 89h77q-15 33 -15 66q0 62 25 108.5t59 77t69 46t56 15.5q26 0 56.5 -18.5t56 -50.5t42.5 -75t17 -92q0 -14 -5 -37t-20 -40h70v-177h-13q-39 0 -71 2.5t-60.5 8.5t-55 17t-54.5 28q-24 -15 -49 -26t-53 -17.5t-60.5 -9.5t-71.5 -3zM251 188
q20 10 38 23.5t29 28.5q-2 27 -17.5 50.5t-41.5 37.5q-32 -11 -54 -34.5t-22 -44.5q0 -17 18 -34.5t50 -26.5zM260 694l70 71l89 -89l-89 -91l-70 71l-70 -71l-89 90l89 90z" />
    <glyph glyph-name="qaf.init" unicode="&#x642;" horiz-adv-x="481" arabic-form="initial" 
d="M0 177q71 0 119 1t83 3.5t62 7t57 11.5q2 11 2 22.5v22.5q-32 -5 -58.5 -8t-59.5 -3q-40 0 -66 11.5t-41.5 31t-21.5 45.5t-6 55q0 36 11.5 77t33.5 75t53.5 56.5t72.5 22.5q46 0 85 -24t66.5 -68.5t43 -108.5t15.5 -143q0 -6 -1 -18.5t-2.5 -27t-3.5 -28.5t-4 -22
q-6 -20 -15 -39.5t-20 -36.5t-24.5 -30t-28.5 -19q-22 -9 -46 -17t-62 -13.5t-96 -9t-148 -3.5q-30 0 -30 88q0 89 30 89zM234 453q-20 0 -36.5 -20.5t-16.5 -49.5q2 -5 10 -10t34 -5q23 0 45 2.5t40 8.5q-7 35 -27.5 54.5t-48.5 19.5zM240 774l70 71l89 -89l-89 -91l-70 71
l-70 -71l-89 90l89 90z" />
    <glyph glyph-name="kaf" unicode="&#x6a9;" horiz-adv-x="818" arabic-form="isolated" 
d="M365 154q27 0 61.5 2t70.5 8t70 16.5t59 26.5q-18 24 -46.5 46.5t-61.5 43.5t-68.5 39.5t-67.5 33.5l24 151q92 71 190.5 113t198.5 68l37 -152q-68 -17 -141 -41.5t-136 -56.5q42 -27 80 -55.5t66 -60t44.5 -66.5t16.5 -75q0 -22 -6.5 -46t-17 -45.5t-24 -38.5
t-27.5 -25q-46 -26 -137 -44.5t-211 -18.5q-90 0 -150 18t-95 48.5t-49.5 71.5t-14.5 88q0 54 18 112t52 125l95 -44q-26 -57 -34.5 -92.5t-8.5 -58.5q0 -49 50 -70t163 -21z" />
    <glyph glyph-name="kaf.fina" unicode="&#x6a9;" horiz-adv-x="906" arabic-form="final" 
d="M627 202q-19 26 -39.5 49t-45.5 43.5t-55.5 39t-69.5 36.5l24 151q92 71 190.5 113t198.5 68l37 -152q-68 -17 -141 -41.5t-136 -56.5q37 -31 65.5 -60.5t52 -59.5t43 -60t39.5 -61q7 -12 13.5 -18.5t17.5 -10t30.5 -4.5t54.5 -1v-177q-41 0 -71.5 2t-55 11.5t-44 29.5
t-38.5 56l-23 -46q-39 -24 -81.5 -39t-86 -23t-86 -11t-81.5 -3q-90 0 -150 18t-95 48.5t-49.5 71.5t-14.5 88q0 54 18 112t52 125l95 -44q-26 -57 -34.5 -92.5t-8.5 -58.5q0 -49 50 -70t163 -21q16 0 46 1t66 5.5t75.5 14t74.5 27.5z" />
    <glyph glyph-name="kaf.medi" unicode="&#x6a9;" horiz-adv-x="503" arabic-form="medial" 
d="M187 452q37 -31 65.5 -60.5t52 -59.5t43 -60t39.5 -61q7 -12 13.5 -18.5t17.5 -10t30.5 -4.5t54.5 -1v-177q-41 0 -71.5 2t-55 11.5t-44 29.5t-38.5 56l-23 -46q-29 -17 -58.5 -27t-62 -16t-69.5 -8t-81 -2q-30 0 -30 88q0 89 30 89q37 0 67 0.5t55.5 3.5t49 10t48.5 19
q-18 23 -37.5 44t-44 41t-55 38.5t-69.5 36.5l24 151q92 71 190.5 113t198.5 68l37 -152q-68 -17 -141 -41.5t-136 -56.5z" />
    <glyph glyph-name="kaf.init" unicode="&#x6a9;" horiz-adv-x="449" arabic-form="initial" 
d="M0 177q72 0 138.5 5.5t119.5 24.5q-18 24 -46.5 46.5t-61.5 43.5t-68.5 39.5t-67.5 33.5l24 151q92 71 190.5 113t198.5 68l37 -152q-68 -17 -141 -41.5t-136 -56.5q42 -27 80 -55.5t66 -60t44.5 -66.5t16.5 -75q0 -22 -6 -44.5t-16 -42.5t-23 -35.5t-27 -22.5
q-20 -11 -47.5 -20t-66 -15.5t-90 -10.5t-118.5 -4q-30 0 -30 88q0 89 30 89z" />
    <glyph glyph-name="kaf.arab" unicode="&#x643;" horiz-adv-x="769" arabic-form="isolated" 
d="M339 -23q-90 0 -150 18t-95 48.5t-49.5 71.5t-14.5 88q0 54 18 112t52 125l95 -44q-26 -57 -34.5 -92.5t-8.5 -58.5q0 -49 50 -70t163 -21q27 0 57 2t60 6.5t57.5 11t50.5 16.5q2 17 3.5 40t1.5 44v425l134 11v-474q0 -27 -5.5 -55.5t-17.5 -56t-31.5 -51.5t-46.5 -40
q-42 -26 -116.5 -41t-172.5 -15zM456 475q-19 11 -29 16t-15 5q-14 0 -27.5 -10.5t-15.5 -21.5q2 -2 9 -4l45 -12q31 -9 44.5 -26t13.5 -38q0 -36 -15 -60t-40.5 -40.5t-58.5 -28t-70 -22.5l-27 82q37 11 69.5 22t47.5 21q-13 5 -31.5 9.5t-35.5 9.5q-26 8 -33 24.5t-7 33.5
q0 19 9.5 46t26.5 52t40.5 42.5t52.5 17.5q22 0 45.5 -11t49.5 -28z" />
    <glyph glyph-name="kaf.arab.fina" unicode="&#x643;" horiz-adv-x="831" arabic-form="final" 
d="M456 475q-19 11 -29 16t-15 5q-14 0 -27.5 -10.5t-15.5 -21.5q2 -2 9 -4l45 -12q31 -9 44.5 -26t13.5 -38q0 -36 -15 -60t-40.5 -40.5t-58.5 -28t-70 -22.5l-27 82q37 11 69.5 22t47.5 21q-13 5 -31.5 9.5t-35.5 9.5q-26 8 -33 24.5t-7 33.5q0 19 9.5 46t26.5 52
t40.5 42.5t52.5 17.5q22 0 45.5 -11t49.5 -28zM339 -23q-90 0 -150 18t-95 48.5t-49.5 71.5t-14.5 88q0 54 18 112t52 125l95 -44q-26 -57 -34.5 -92.5t-8.5 -58.5q0 -49 50 -70t163 -21q27 0 57 2t60 6.5t57.5 11t50.5 16.5q2 17 3.5 40t1.5 44v425l133 11v-460
q0 -25 7.5 -39.5t21.5 -22t32.5 -9.5t41.5 -2v-177q-29 0 -55.5 3t-49.5 11.5t-42.5 23t-32.5 37.5l-22 -42q-42 -23 -117.5 -39.5t-172.5 -16.5z" />
    <glyph glyph-name="gaf" unicode="&#x6af;" horiz-adv-x="818" arabic-form="isolated" 
d="M425 689q23 19 58.5 39.5t75 40t79 35t70.5 24.5l22 -88q-26 -8 -63 -22t-75.5 -31t-73.5 -34.5t-57 -32.5zM365 154q27 0 61.5 2t70.5 8t70 16.5t59 26.5q-18 24 -46.5 46.5t-61.5 43.5t-68.5 39.5t-67.5 33.5l24 151q92 71 190.5 113t198.5 68l37 -152
q-68 -17 -141 -41.5t-136 -56.5q42 -27 80 -55.5t66 -60t44.5 -66.5t16.5 -75q0 -22 -6.5 -46t-17 -45.5t-24 -38.5t-27.5 -25q-46 -26 -137 -44.5t-211 -18.5q-90 0 -150 18t-95 48.5t-49.5 71.5t-14.5 88q0 54 18 112t52 125l95 -44q-26 -57 -34.5 -92.5t-8.5 -58.5
q0 -49 50 -70t163 -21z" />
    <glyph glyph-name="gaf.fina" unicode="&#x6af;" horiz-adv-x="906" arabic-form="final" 
d="M460 689q23 19 58.5 39.5t75 40t79 35t70.5 24.5l22 -88q-26 -8 -63 -22t-75.5 -31t-73.5 -34.5t-57 -32.5zM627 202q-19 26 -39.5 49t-45.5 43.5t-55.5 39t-69.5 36.5l24 151q92 71 190.5 113t198.5 68l37 -152q-68 -17 -141 -41.5t-136 -56.5q37 -31 65.5 -60.5
t52 -59.5t43 -60t39.5 -61q7 -12 13.5 -18.5t17.5 -10t30.5 -4.5t54.5 -1v-177q-41 0 -71.5 2t-55 11.5t-44 29.5t-38.5 56l-23 -46q-39 -24 -81.5 -39t-86 -23t-86 -11t-81.5 -3q-90 0 -150 18t-95 48.5t-49.5 71.5t-14.5 88q0 54 18 112t52 125l95 -44
q-26 -57 -34.5 -92.5t-8.5 -58.5q0 -49 50 -70t163 -21q16 0 46 1t66 5.5t75.5 14t74.5 27.5z" />
    <glyph glyph-name="gaf.medi" unicode="&#x6af;" horiz-adv-x="493" arabic-form="medial" 
d="M57 689q23 19 58.5 39.5t75 40t79 35t70.5 24.5l22 -88q-26 -8 -63 -22t-75.5 -31t-73.5 -34.5t-57 -32.5zM187 452q37 -31 65.5 -60.5t52 -59.5t43 -60t39.5 -61q7 -12 13.5 -18.5t17.5 -10t30.5 -4.5t54.5 -1v-177q-41 0 -71.5 2t-55 11.5t-44 29.5t-38.5 56l-23 -46
q-29 -17 -58.5 -27t-62 -16t-69.5 -8t-81 -2q-30 0 -30 88q0 89 30 89q37 0 67 0.5t55.5 3.5t49 10t48.5 19q-18 23 -37.5 44t-44 41t-55 38.5t-69.5 36.5l24 151q92 71 190.5 113t198.5 68l37 -152q-68 -17 -141 -41.5t-136 -56.5z" />
    <glyph glyph-name="gaf.init" unicode="&#x6af;" horiz-adv-x="439" arabic-form="initial" 
d="M57 689q23 19 58.5 39.5t75 40t79 35t70.5 24.5l22 -88q-26 -8 -63 -22t-75.5 -31t-73.5 -34.5t-57 -32.5zM0 177q72 0 138.5 5.5t119.5 24.5q-18 24 -46.5 46.5t-61.5 43.5t-68.5 39.5t-67.5 33.5l24 151q92 71 190.5 113t198.5 68l37 -152q-68 -17 -141 -41.5
t-136 -56.5q42 -27 80 -55.5t66 -60t44.5 -66.5t16.5 -75q0 -22 -6 -44.5t-16 -42.5t-23 -35.5t-27 -22.5q-20 -11 -47.5 -20t-66 -15.5t-90 -10.5t-118.5 -4q-30 0 -30 88q0 89 30 89z" />
    <glyph glyph-name="lam" unicode="&#x644;" horiz-adv-x="604" arabic-form="isolated" 
d="M286 -37q41 0 75 8.5t65 27.5q2 11 3 24.5t1 24.5v651l134 11v-638q0 -28 -3.5 -57t-13 -57.5t-26 -54t-42.5 -46.5q-85 -67 -219 -67q-110 0 -170 63.5t-60 173.5q0 76 26.5 162.5t64.5 184.5l100 -39q-15 -37 -28 -76.5t-23 -75.5t-16 -65.5t-6 -46.5q0 -29 11.5 -49
t30.5 -33.5t44 -19.5t52 -6z" />
    <glyph glyph-name="lam.fina" unicode="&#x644;" horiz-adv-x="669" arabic-form="final" 
d="M148 22q0 -29 11.5 -49t30.5 -33.5t44 -19.5t52 -6q41 0 75 8.5t65 27.5q2 11 3 24.5t1 24.5v700l135 11v-464q0 -42 26 -55.5t78 -13.5v-177q-29 0 -57.5 5.5t-49.5 30.5q0 -36 -3.5 -68.5t-12.5 -61t-25 -53t-42 -45.5q-85 -67 -219 -67q-110 0 -170 63.5t-60 173.5
q0 76 22.5 156t57.5 178l101 -35q-13 -38 -24.5 -75.5t-20 -71.5t-13.5 -61.5t-5 -46.5z" />
    <glyph glyph-name="lam.medi" unicode="&#x644;" horiz-adv-x="339" arabic-form="medial" 
d="M0 0q-30 0 -30 88q0 89 30 89q26 0 53 4.5t44 13.5q2 26 3 52.5t1 52.5v399l134 11v-460q0 -25 8 -39.5t21.5 -22t32.5 -9.5t42 -2v-177q-59 0 -104.5 14t-72.5 56q-1 -3 -4.5 -8.5t-7.5 -12t-7 -11.5t-4 -6q-25 -16 -63 -24t-76 -8z" />
    <glyph glyph-name="lam.init" unicode="&#x644;" horiz-adv-x="275" arabic-form="initial" 
d="M0 0q-30 0 -30 88q0 89 30 89q26 0 53 4.5t44 13.5q2 26 3 52.5t1 52.5v399l134 11v-507q0 -25 -6 -50t-16.5 -47.5t-26.5 -40.5t-35 -30q-28 -17 -68 -26t-83 -9z" />
    <glyph glyph-name="mim" unicode="&#x645;" horiz-adv-x="542" arabic-form="isolated" 
d="M320 244q-21 0 -40 -16t-36 -41q15 -8 33.5 -15.5t38 -15t38.5 -13.5t35 -10q1 8 1 15.5v10.5q0 43 -23 64t-47 21zM46 -330q-7 102 -11.5 181.5t-4.5 121.5q0 65 10.5 116t36.5 86q21 27 53 35q12 28 31 61.5t44.5 62t56 48t65.5 19.5q42 0 76.5 -18.5t58.5 -49.5
t37 -72t13 -86q0 -32 -4 -64.5t-15 -55.5q-3 -7 -12.5 -20.5t-22.5 -27t-28 -24t-29 -10.5q-16 0 -44 7.5t-60.5 19.5t-66 25.5t-61.5 25.5q-5 -11 -5.5 -37t-0.5 -51q0 -18 1 -47.5t3.5 -66.5t5.5 -79t6 -86z" />
    <glyph glyph-name="mim.fina" unicode="&#x645;" horiz-adv-x="677" arabic-form="final" 
d="M677 0q-22 0 -46.5 2.5t-48.5 10.5t-47 23t-42 40q-6 -15 -15 -32.5t-20.5 -33.5t-26 -26.5t-30.5 -10.5t-44 7.5t-60.5 19.5t-66 25.5t-61.5 25.5q-5 -11 -5.5 -37t-0.5 -51q0 -18 1 -47.5t3.5 -66.5t5.5 -79t6 -86l-133 -14q-7 102 -11.5 181.5t-4.5 121.5
q0 65 10.5 116t36.5 86q21 27 53 35q12 28 31 61.5t44.5 62t56 48t65.5 19.5q59 0 96.5 -32t69.5 -86q16 -28 32.5 -48t37.5 -33t48.5 -19t65.5 -6v-177zM320 244q-21 0 -40 -16t-36 -41q15 -8 33.5 -15.5t38 -15t38.5 -13.5t35 -10q1 8 1 15.5v10.5q0 43 -23 64t-47 21z
" />
    <glyph glyph-name="mim.medi" unicode="&#x645;" horiz-adv-x="692" arabic-form="medial" 
d="M0 0q-30 0 -30 88q0 89 30 89q42 0 74.5 16.5t59 41.5t49.5 54t47 54t50.5 41.5t61.5 16.5q59 0 96.5 -32t69.5 -86q16 -28 33 -48t38 -33t48 -19t65 -6v-177q-22 0 -46.5 2.5t-48.5 10.5t-47 23t-42 40q-6 -15 -15 -32.5t-20.5 -33.5t-26 -26.5t-30.5 -10.5
q-24 0 -55.5 7.5t-65.5 21t-68 32t-62 41.5q-37 -42 -76 -58.5t-89 -16.5zM335 244q-21 0 -40 -16t-36 -41q12 -8 28.5 -15.5t36 -14.5t40 -13t40.5 -9q1 8 1 14.5v9.5q0 43 -23 64t-47 21z" />
    <glyph glyph-name="mim.init" unicode="&#x645;" horiz-adv-x="557" arabic-form="initial" 
d="M0 177q42 0 74.5 16.5t59 41.5t49.5 54t47 54t50.5 41.5t61.5 16.5q42 0 76.5 -18.5t58.5 -49.5t37 -72t13 -86q0 -32 -4 -64.5t-15 -55.5q-3 -7 -12.5 -20.5t-22.5 -27t-28 -24t-29 -10.5q-24 0 -55.5 7.5t-65.5 21t-68 32t-62 41.5q-37 -42 -76 -58.5t-89 -16.5
q-30 0 -30 88q0 89 30 89zM335 244q-21 0 -40 -16t-36 -41q12 -8 28.5 -15.5t36 -14.5t40 -13t40.5 -9q1 8 1 14.5v9.5q0 43 -23 64t-47 21z" />
    <glyph glyph-name="nun" unicode="&#x646;" horiz-adv-x="639" arabic-form="isolated" 
d="M609 60q0 -60 -20 -114t-63 -83q-47 -32 -112.5 -52t-137.5 -20q-123 0 -184.5 63.5t-61.5 173.5q0 76 22.5 156t57.5 178l101 -35q-13 -38 -24.5 -75.5t-20 -71.5t-13.5 -61.5t-5 -46.5q0 -57 43.5 -82.5t110.5 -25.5q18 0 40 3t44.5 8.5t44 13.5t38.5 19q2 9 2 17.5
v14.5q0 35 -6 83.5t-14.5 99.5t-18.5 99t-18 83l145 35q9 -40 17.5 -87t16 -96.5t12 -100t4.5 -96.5zM383 537l-89 -91l-89 90l89 90z" />
    <glyph glyph-name="nun.fina" unicode="&#x646;" horiz-adv-x="680" arabic-form="final" 
d="M680 0q-55 0 -80 32q0 -9 -0.5 -21l-1 -24t-1 -23t-1.5 -18q-2 -18 -9.5 -38.5t-17 -39t-21 -33.5t-22.5 -22q-47 -32 -112.5 -52t-137.5 -20q-123 0 -184.5 63.5t-61.5 173.5q0 76 22.5 156t57.5 178l101 -35q-13 -38 -24.5 -75.5t-20 -71.5t-13.5 -61.5t-5 -46.5
q0 -57 43.5 -82.5t110.5 -25.5q18 0 40 3t44.5 8.5t44 13.5t38.5 19q2 9 2 17.5v14.5q0 39 -5.5 87.5t-13 98t-17 95.5t-16.5 80l136 26l22 -130q7 -39 33 -54t70 -15v-178zM387 482l-89 -91l-89 90l89 90z" />
    <glyph glyph-name="nun.medi" unicode="&#x646;" horiz-adv-x="351" arabic-form="medial" 
d="M0 177q38 0 64.5 5.5t44.5 26.5t30 62.5t22 113.5l118 -18q-4 -40 -11 -86.5t-13 -77.5q12 -18 33 -22t63 -4v-177q-51 0 -93 18.5t-74 51.5q-31 -35 -74 -52.5t-110 -17.5q-30 0 -30 88q0 89 30 89zM299 556l-89 -91l-89 90l89 90z" />
    <glyph glyph-name="nun.init" unicode="&#x646;" horiz-adv-x="308" arabic-form="initial" 
d="M0 177q38 0 75 4t57 12q0 50 -7 108t-18 116l146 28q11 -60 18 -125t7 -118q0 -23 -6 -48.5t-17.5 -49t-29 -43t-39.5 -31.5q-26 -14 -70.5 -22t-115.5 -8q-30 0 -30 88q0 89 30 89zM249 601l-89 -91l-89 90l89 90z" />
    <glyph glyph-name="vav" unicode="&#x648;" horiz-adv-x="475" arabic-form="isolated" 
d="M218 157q32 0 56 3t38 6q-7 38 -29.5 60t-50.5 22q-11 0 -22 -6.5t-19.5 -16.5t-13.5 -22.5t-5 -24.5q2 -8 12 -14.5t34 -6.5zM44 -69q34 -11 58 -13.5t44 -2.5q42 0 85 19.5t81 57.5q1 5 1 12v9q-28 -7 -54.5 -10t-45.5 -3q-27 0 -55 6.5t-50.5 24t-36.5 48.5t-14 81
q0 52 16 97.5t42 79.5t58.5 53.5t64.5 19.5q48 0 86.5 -24t65.5 -67t41 -103t14 -132q0 -83 -28 -142t-67.5 -97t-82.5 -56t-73 -18q-15 0 -37.5 6t-48 15.5t-52.5 21t-51 23.5z" />
    <glyph glyph-name="vav.fina" unicode="&#x648;" horiz-adv-x="503" arabic-form="final" 
d="M44 -69q34 -11 58 -13.5t44 -2.5q42 0 85 19.5t81 57.5q1 5 1 12v9q-28 -7 -54.5 -10t-45.5 -3q-27 0 -55 6.5t-50.5 24t-36.5 48.5t-14 81q0 52 16 97.5t42 79.5t58.5 53.5t64.5 19.5q81 0 132.5 -63.5t67.5 -169.5h65v-177h-67q-14 -60 -44 -103.5t-65 -71t-71 -41
t-62 -13.5q-15 0 -37.5 6t-48 15.5t-52.5 21t-51 23.5zM218 157q32 0 56 3t38 6q-7 38 -29.5 60t-50.5 22q-11 0 -22 -6.5t-19.5 -16.5t-13.5 -22.5t-5 -24.5q2 -8 12 -14.5t34 -6.5z" />
    <glyph glyph-name="vav.thmz" unicode="&#x624;" horiz-adv-x="475" arabic-form="isolated" 
d="M218 157q32 0 56 3t38 6q-7 38 -29.5 60t-50.5 22q-11 0 -22 -6.5t-19.5 -16.5t-13.5 -22.5t-5 -24.5q2 -8 12 -14.5t34 -6.5zM44 -69q34 -11 58 -13.5t44 -2.5q42 0 85 19.5t81 57.5q1 5 1 12v9q-28 -7 -54.5 -10t-45.5 -3q-27 0 -55 6.5t-50.5 24t-36.5 48.5t-14 81
q0 52 16 97.5t42 79.5t58.5 53.5t64.5 19.5q48 0 86.5 -24t65.5 -67t41 -103t14 -132q0 -83 -28 -142t-67.5 -97t-82.5 -56t-73 -18q-15 0 -37.5 6t-48 15.5t-52.5 21t-51 23.5zM118 604q0 56 34 83.5t84 27.5q11 0 25.5 -2t34.5 -9l-19 -78q-9 3 -18.5 5t-20.5 2
q-31 0 -53 -22q5 -11 17.5 -26t30.5 -26l102 48l32 -70l-261 -122l-33 71l80 37q-14 16 -24.5 35.5t-10.5 45.5z" />
    <glyph glyph-name="vav.thmz.fina" unicode="&#x624;" horiz-adv-x="503" arabic-form="final" 
d="M44 -69q34 -11 58 -13.5t44 -2.5q42 0 85 19.5t81 57.5q1 5 1 12v9q-28 -7 -54.5 -10t-45.5 -3q-27 0 -55 6.5t-50.5 24t-36.5 48.5t-14 81q0 52 16 97.5t42 79.5t58.5 53.5t64.5 19.5q81 0 132.5 -63.5t67.5 -169.5h65v-177h-67q-14 -60 -44 -103.5t-65 -71t-71 -41
t-62 -13.5q-15 0 -37.5 6t-48 15.5t-52.5 21t-51 23.5zM218 157q32 0 56 3t38 6q-7 38 -29.5 60t-50.5 22q-11 0 -22 -6.5t-19.5 -16.5t-13.5 -22.5t-5 -24.5q2 -8 12 -14.5t34 -6.5zM118 604q0 56 34 83.5t84 27.5q11 0 25.5 -2t34.5 -9l-19 -78q-9 3 -18.5 5t-20.5 2
q-31 0 -53 -22q5 -11 17.5 -26t30.5 -26l102 48l32 -70l-261 -122l-33 71l80 37q-14 16 -24.5 35.5t-10.5 45.5z" />
    <glyph glyph-name="he.fina" unicode="&#x647;" horiz-adv-x="498" arabic-form="final" 
d="M498 0q-21 0 -47.5 1.5t-53 11.5t-51 31t-41.5 60l-21 -46q-38 -13 -67.5 -16.5t-55.5 -3.5q-14 0 -38 5t-44 16q-13 7 -21.5 22t-14 33t-7.5 36t-2 32q0 81 43.5 143t121.5 104l-23 92l136 44l86 -339q7 -26 29.5 -37.5t70.5 -11.5v-177zM151 198q7 -2 15 -2.5t13 -0.5
q18 0 41.5 4t41.5 12l-24 91q-16 -7 -31 -17t-27 -23t-20 -29t-9 -35z" />
    <glyph glyph-name="he.medi" unicode="&#x647;" horiz-adv-x="460" arabic-form="medial" 
d="M58 177q15 69 45 127t61.5 100t58.5 65.5t38 23.5q12 0 29.5 -25.5t34 -65.5t28 -87.5t11.5 -91.5q0 -10 -6 -20t-20 -32q10 2 25.5 3t33 2t34.5 1h29v-177q-11 0 -28.5 1t-31.5 5q14 -17 17 -34.5t3 -28.5q0 -17 -4.5 -37.5t-12 -40t-16 -37.5t-16.5 -30q-5 -8 -16 -13
t-25 -8t-28.5 -4t-25.5 -1q-40 0 -76.5 14.5t-66 43t-50 71t-28.5 99.5h-55q-30 0 -30 88q0 89 30 89h58zM163 10q5 -18 13.5 -34t23 -29t34.5 -20.5t47 -7.5h11.5t15.5 1q0 7 -1 18t-2 16q-4 23 -18.5 39.5t-37.5 16.5h-86zM155 155q26 4 55.5 18t44.5 37q0 14 -3 30t-7 31
t-8.5 27.5t-7.5 20.5q-10 -12 -21.5 -30t-21.5 -40t-18.5 -46t-12.5 -48z" />
    <glyph glyph-name="he.init" unicode="&#x647;" horiz-adv-x="656" arabic-form="initial" 
d="M0 0q-30 0 -30 88q0 89 30 89h95q-8 18 -10 33.5t-2 24.5q0 37 18.5 82t63.5 83l-67 32l63 125q107 -55 183 -98t127.5 -78.5t82 -64.5t46.5 -57t21 -56t5 -61q0 -20 -6.5 -46t-19.5 -50t-32 -40.5t-43 -16.5q-14 0 -41 3.5t-64 11.5t-82 19.5t-94 28.5
q-30 -20 -59.5 -30.5t-60 -15t-61.5 -5.5t-63 -1zM187 248q2 -6 8.5 -14t15.5 -16.5t19.5 -16t21.5 -11.5q21 8 43 27t30 36q-2 9 -8 21t-14.5 24t-18.5 22t-19 16q-9 -5 -21 -14t-23.5 -21t-20.5 -26t-13 -27zM385 155q26 -8 60 -16t61 -12q2 8 2 18q0 30 -18 55t-70 55
q0 -16 -5 -38q-8 -35 -30 -62z" />
    <glyph glyph-name="he.arab" unicode="&#x647;" horiz-adv-x="659" arabic-form="isolated" 
d="M25 66q34 8 68 22.5t51 26.5q-17 13 -28.5 28.5t-18 31t-9.5 30.5t-3 27q0 39 19 84.5t64 83.5l-67 32l63 125q107 -55 183 -98t127.5 -78.5t82 -64.5t46.5 -57t21 -56t5 -61q0 -20 -6.5 -46t-19.5 -50t-32 -40.5t-43 -16.5q-26 0 -94 12.5t-156 39.5q-25 -17 -54 -31
t-58.5 -24t-59 -16t-54.5 -7zM190 248q2 -6 8.5 -14t16 -17t22 -17.5t25.5 -13.5q16 11 37 30.5t29 36.5q-2 9 -8 21t-14.5 24t-18.5 22t-19 16q-9 -5 -21 -14t-23.5 -21t-20.5 -26t-13 -27zM388 155q26 -8 60 -16t61 -12q2 8 2 18q0 30 -18 55t-70 55q0 -16 -5 -38
q-8 -35 -30 -62z" />
    <glyph glyph-name="he.thmz.goal.fina" unicode="&#x6c2;" horiz-adv-x="498" 
d="M498 0q-21 0 -47.5 1.5t-53 11.5t-51 31t-41.5 60l-21 -46q-38 -13 -67.5 -16.5t-55.5 -3.5q-14 0 -38 5t-44 16q-13 7 -21.5 22t-14 33t-7.5 36t-2 32q0 81 43.5 143t121.5 104l-23 92l136 44l86 -339q7 -26 29.5 -37.5t70.5 -11.5v-177zM151 198q7 -2 15 -2.5t13 -0.5
q18 0 41.5 4t41.5 12l-24 91q-16 -7 -31 -17t-27 -23t-20 -29t-9 -35zM133 724q0 56 34 83.5t84 27.5q11 0 25.5 -2t34.5 -9l-19 -78q-9 3 -18.5 5t-20.5 2q-31 0 -53 -22q5 -11 17.5 -26t30.5 -26l102 48l32 -70l-261 -122l-33 71l80 37q-14 16 -24.5 35.5t-10.5 45.5z" />
    <glyph glyph-name="te.marbuta" unicode="&#x629;" horiz-adv-x="442" arabic-form="isolated" 
d="M118 505q85 -41 140.5 -80.5t88 -80t45.5 -83t13 -88.5q0 -14 -4.5 -34t-13 -41t-21.5 -39.5t-29 -28.5q-32 -19 -75 -26.5t-80 -7.5q-42 0 -71 11t-47 30.5t-26 46t-8 56.5q0 22 5.5 48t14.5 52.5t20 52t22 46.5l-43 25zM185 163q25 0 51 3.5t47 11.5q-11 32 -37 61
t-64 48q-6 -10 -12.5 -24t-12 -28.5t-9.5 -27.5t-4 -19q0 -10 7.5 -17.5t33.5 -7.5zM205 674l70 71l89 -89l-89 -91l-70 71l-70 -71l-89 90l89 90z" />
    <glyph glyph-name="te.marbuta.fina" unicode="&#x629;" horiz-adv-x="498" arabic-form="final" 
d="M498 0q-21 0 -47.5 1.5t-53 11.5t-51 31t-41.5 60l-21 -46q-38 -13 -67.5 -16.5t-55.5 -3.5q-14 0 -38 5t-44 16q-13 7 -21.5 22t-14 33t-7.5 36t-2 32q0 81 43.5 143t121.5 104l-23 92l136 44l86 -339q7 -26 29.5 -37.5t70.5 -11.5v-177zM151 198q7 -2 15 -2.5t13 -0.5
q18 0 41.5 4t41.5 12l-24 91q-16 -7 -31 -17t-27 -23t-20 -29t-9 -35zM250 719l70 71l89 -89l-89 -91l-70 71l-70 -71l-89 90l89 90z" />
    <glyph glyph-name="he.thmz" unicode="&#x6c0;" horiz-adv-x="442" arabic-form="isolated" 
d="M256 785q-19 11 -29 16t-15 5q-14 0 -27.5 -10.5t-15.5 -21.5q2 -2 9 -4l45 -12q31 -9 44.5 -26t13.5 -38q0 -36 -15 -60t-40.5 -40.5t-58.5 -28t-70 -22.5l-27 82q37 11 69.5 22t47.5 21q-13 5 -31.5 9.5t-35.5 9.5q-26 8 -33 24.5t-7 33.5q0 19 9.5 46t26.5 52
t40.5 42.5t52.5 17.5q22 0 45.5 -11t49.5 -28zM118 505q85 -41 140.5 -80.5t88 -80t45.5 -83t13 -88.5q0 -14 -4.5 -34t-13 -41t-21.5 -39.5t-29 -28.5q-32 -19 -75 -26.5t-80 -7.5q-42 0 -71 11t-47 30.5t-26 46t-8 56.5q0 22 5.5 48t14.5 52.5t20 52t22 46.5l-43 25z
M185 163q25 0 51 3.5t47 11.5q-11 32 -37 61t-64 48q-6 -10 -12.5 -24t-12 -28.5t-9.5 -27.5t-4 -19q0 -10 7.5 -17.5t33.5 -7.5z" />
    <glyph glyph-name="he.thmz.fina" unicode="&#x6c0;" horiz-adv-x="498" arabic-form="final" 
d="M301 808q-19 11 -29 16t-15 5q-14 0 -27.5 -10.5t-15.5 -21.5q2 -2 9 -4l45 -12q31 -9 44.5 -26t13.5 -38q0 -36 -15 -60t-40.5 -40.5t-58.5 -28t-70 -22.5l-27 82q37 11 69.5 22t47.5 21q-13 5 -31.5 9.5t-35.5 9.5q-26 8 -33 24.5t-7 33.5q0 19 9.5 46t26.5 52
t40.5 42.5t52.5 17.5q22 0 45.5 -11t49.5 -28zM498 0q-21 0 -47.5 1.5t-53 11.5t-51 31t-41.5 60l-21 -46q-38 -13 -67.5 -16.5t-55.5 -3.5q-14 0 -38 5t-44 16q-13 7 -21.5 22t-14 33t-7.5 36t-2 32q0 81 43.5 143t121.5 104l-23 92l136 44l86 -339q7 -26 29.5 -37.5
t70.5 -11.5v-177zM151 198q7 -2 15 -2.5t13 -0.5q18 0 41.5 4t41.5 12l-24 91q-16 -7 -31 -17t-27 -23t-20 -29t-9 -35z" />
    <glyph glyph-name="he.goal.fina" unicode="&#x6c1;" horiz-adv-x="526" arabic-form="final" 
d="M30 147q12 26 24 47t28.5 39.5t39.5 36t56.5 36t80 40.5t109.5 50l41 -161q8 -33 33 -45.5t84 -12.5v-177q-27 0 -58 2t-61 14t-55.5 38t-41.5 74l-26 79q-40 -21 -66 -35t-43.5 -26.5t-29.5 -25t-24 -30.5z" />
    <glyph glyph-name="he.goal.medi" unicode="&#x6c1;" horiz-adv-x="551" arabic-form="medial" 
d="M69 177q20 0 39 4t39 17t41 37.5t45 64.5l100 -62q-23 -41 -43.5 -74t-40.5 -59q1 -35 4.5 -62t11 -49t19.5 -39.5t31 -34.5q-4 14 -5 30t-1 27q0 40 8.5 76.5t28 64t52.5 43.5t83 16h70v-177h-77q-31 0 -43 -16.5t-12 -49.5q0 -28 8 -74l-72 -118q-52 25 -90 51.5
t-63 59t-38.5 73.5t-17.5 95q-20 -12 -39.5 -16.5t-41.5 -4.5h-65q-30 0 -30 88q0 89 30 89h69z" />
    <glyph glyph-name="he.goal.init" unicode="&#x6c1;" horiz-adv-x="308" arabic-form="initial" 
d="M0 177q38 0 75 4t57 12q0 50 -7 108t-18 116l146 28q11 -60 18 -125t7 -118q0 -23 -6 -48.5t-17.5 -49t-29 -43t-39.5 -31.5q-26 -14 -70.5 -22t-115.5 -8q-30 0 -30 88q0 89 30 89zM119 -448q-46 43 -69.5 79.5t-23.5 79.5q0 57 29 109t89 112l81 -80
q-25 -24 -38.5 -41.5t-20 -30t-7.5 -20t-1 -11.5q0 -3 2 -8t9.5 -14.5t22 -24.5t39.5 -37z" />
    <glyph glyph-name="he.dochashmi.fina" unicode="&#x6be;" horiz-adv-x="556" arabic-form="final" 
d="M516 -57q0 -17 -4.5 -37.5t-12 -40t-16 -37.5t-16.5 -30q-5 -8 -16 -13t-25 -8t-28.5 -4t-25.5 -1q-32 0 -64 11t-60.5 34t-51.5 58.5t-36 84.5q-34 -8 -62.5 -13t-47.5 -7l-25 116q34 7 64 15.5t57 18.5q0 58 13.5 110t35 97t46.5 81t48.5 61.5t42 39.5t25.5 14
q12 0 29.5 -25.5t34 -65.5t28 -87.5t11.5 -91.5q0 -5 -1 -17.5t-8 -32.5q24 2 54.5 3t50.5 1v-177q-11 0 -28.5 1t-31.5 5q14 -17 17 -34.5t3 -28.5zM401 -46q-5 23 -19.5 39.5t-52.5 33.5q-21 -13 -36 -20.5t-29 -12.5q12 -31 38 -53t75 -22h11.5t15.5 1q0 7 -1 18t-2 16z
M325 319q-9 -11 -21 -29.5t-22.5 -42t-18.5 -51.5t-10 -58q41 23 65.5 43t32.5 32q0 13 -3 28.5t-7 30t-8.5 27t-7.5 20.5z" />
    <glyph glyph-name="he.dochashmi.medi" unicode="&#x6be;" horiz-adv-x="460" arabic-form="medial" 
d="M58 177q15 69 45 127t61.5 100t58.5 65.5t38 23.5q12 0 29.5 -25.5t34 -65.5t28 -87.5t11.5 -91.5q0 -10 -6 -20t-20 -32q10 2 25.5 3t33 2t34.5 1h29v-177q-11 0 -28.5 1t-31.5 5q14 -17 17 -34.5t3 -28.5q0 -17 -4.5 -37.5t-12 -40t-16 -37.5t-16.5 -30q-5 -8 -16 -13
t-25 -8t-28.5 -4t-25.5 -1q-40 0 -76.5 14.5t-66 43t-50 71t-28.5 99.5h-55q-30 0 -30 88q0 89 30 89h58zM163 10q5 -18 13.5 -34t23 -29t34.5 -20.5t47 -7.5h11.5t15.5 1q0 7 -1 18t-2 16q-4 23 -18.5 39.5t-37.5 16.5h-86zM155 155q26 4 55.5 18t44.5 37q0 14 -3 30t-7 31
t-8.5 27.5t-7.5 20.5q-10 -12 -21.5 -30t-21.5 -40t-18.5 -46t-12.5 -48z" />
    <glyph glyph-name="he.dochashmi.init" unicode="&#x6be;" horiz-adv-x="656" arabic-form="initial" 
d="M0 0q-30 0 -30 88q0 89 30 89h95q-8 18 -10 33.5t-2 24.5q0 37 18.5 82t63.5 83l-67 32l63 125q107 -55 183 -98t127.5 -78.5t82 -64.5t46.5 -57t21 -56t5 -61q0 -20 -6.5 -46t-19.5 -50t-32 -40.5t-43 -16.5q-14 0 -41 3.5t-64 11.5t-82 19.5t-94 28.5
q-30 -20 -59.5 -30.5t-60 -15t-61.5 -5.5t-63 -1zM187 248q2 -6 8.5 -14t15.5 -16.5t19.5 -16t21.5 -11.5q21 8 43 27t30 36q-2 9 -8 21t-14.5 24t-18.5 22t-19 16q-9 -5 -21 -14t-23.5 -21t-20.5 -26t-13 -27zM385 155q26 -8 60 -16t61 -12q2 8 2 18q0 30 -18 55t-70 55
q0 -16 -5 -38q-8 -35 -30 -62z" />
    <glyph glyph-name="te.marbuta.goal.fina" unicode="&#x6c3;" horiz-adv-x="526" 
d="M30 147q12 26 24 47t28.5 39.5t39.5 36t56.5 36t80 40.5t109.5 50l41 -161q8 -33 33 -45.5t84 -12.5v-177q-27 0 -58 2t-61 14t-55.5 38t-41.5 74l-26 79q-40 -21 -66 -35t-43.5 -26.5t-29.5 -25t-24 -30.5zM273 569l70 71l89 -89l-89 -91l-70 71l-70 -71l-89 90l89 90z
" />
    <glyph glyph-name="ye" unicode="&#x6cc;" horiz-adv-x="672" arabic-form="isolated" 
d="M276 -209q-123 0 -184.5 63.5t-61.5 173.5q0 76 22.5 156t57.5 178l101 -35q-13 -38 -24.5 -75.5t-20 -71.5t-13.5 -61.5t-5 -46.5q0 -57 43.5 -82.5t110.5 -25.5q18 0 40.5 2.5t46.5 8t47.5 14.5t44.5 23q-5 2 -12 3.5t-15 3.5l-102 19q-26 5 -41.5 15t-23.5 23.5
t-11 29t-3 30.5q0 20 7.5 49t21 61.5t33 64.5t43 57.5t51.5 41.5t59 16q29 0 65.5 -18t88.5 -57l-58 -96q-6 5 -16.5 11.5t-22.5 12t-23.5 9.5t-20.5 4q-23 0 -51.5 -30.5t-53.5 -76.5q4 -4 13 -6t17 -4l104 -22q21 -5 36 -15.5t24 -24.5t13 -30t4 -32q0 -36 -15 -72
t-35 -61q-24 -29 -55.5 -52.5t-67.5 -40t-76 -25.5t-82 -9z" />
    <glyph glyph-name="ye.fina" unicode="&#x6cc;" horiz-adv-x="643" arabic-form="final" 
d="M276 -259q-123 0 -184.5 63.5t-61.5 173.5q0 76 22.5 156t57.5 178l101 -35q-13 -38 -24.5 -75.5t-20 -71.5t-13.5 -61.5t-5 -46.5q0 -57 43.5 -82.5t110.5 -25.5q39 0 87.5 10.5t93.5 40.5q-23 24 -67 32t-126 8l44 172h309v-177h-43q0 -36 -11 -73.5t-32 -61.5
q-24 -27 -55.5 -50t-67.5 -39.5t-76 -25.5t-82 -9z" />
    <glyph glyph-name="ye.medi" unicode="&#x6cc;" horiz-adv-x="351" arabic-form="medial" 
d="M0 177q38 0 64.5 5.5t44.5 26.5t30 62.5t22 113.5l118 -18q-4 -40 -11 -86.5t-13 -77.5q12 -18 33 -22t63 -4v-177q-51 0 -93 18.5t-74 51.5q-31 -35 -74 -52.5t-110 -17.5q-30 0 -30 88q0 89 30 89zM170 -139l70 70l89 -89l-89 -91l-70 71l-70 -71l-89 90l89 90z" />
    <glyph glyph-name="ye.init" unicode="&#x6cc;" horiz-adv-x="308" arabic-form="initial" 
d="M0 177q38 0 75 4t57 12q0 50 -7 108t-18 116l146 28q11 -60 18 -125t7 -118q0 -23 -6 -48.5t-17.5 -49t-29 -43t-39.5 -31.5q-26 -14 -70.5 -22t-115.5 -8q-30 0 -30 88q0 89 30 89zM135 -139l70 70l89 -89l-89 -91l-70 71l-70 -71l-89 90l89 90z" />
    <glyph glyph-name="ye.arab" unicode="&#x64a;" horiz-adv-x="672" arabic-form="isolated" 
d="M276 -209q-123 0 -184.5 63.5t-61.5 173.5q0 76 22.5 156t57.5 178l101 -35q-13 -38 -24.5 -75.5t-20 -71.5t-13.5 -61.5t-5 -46.5q0 -57 43.5 -82.5t110.5 -25.5q18 0 40.5 2.5t46.5 8t47.5 14.5t44.5 23q-5 2 -12 3.5t-15 3.5l-102 19q-26 5 -41.5 15t-23.5 23.5
t-11 29t-3 30.5q0 20 7.5 49t21 61.5t33 64.5t43 57.5t51.5 41.5t59 16q29 0 65.5 -18t88.5 -57l-58 -96q-6 5 -16.5 11.5t-22.5 12t-23.5 9.5t-20.5 4q-23 0 -51.5 -30.5t-53.5 -76.5q4 -4 13 -6t17 -4l104 -22q21 -5 36 -15.5t24 -24.5t13 -30t4 -32q0 -36 -15 -72
t-35 -61q-24 -29 -55.5 -52.5t-67.5 -40t-76 -25.5t-82 -9zM265 -304l70 70l89 -89l-89 -91l-70 71l-70 -71l-89 90l89 90z" />
    <glyph glyph-name="ye.arab.fina" unicode="&#x64a;" horiz-adv-x="643" arabic-form="final" 
d="M276 -259q-123 0 -184.5 63.5t-61.5 173.5q0 76 22.5 156t57.5 178l101 -35q-13 -38 -24.5 -75.5t-20 -71.5t-13.5 -61.5t-5 -46.5q0 -57 43.5 -82.5t110.5 -25.5q39 0 87.5 10.5t93.5 40.5q-23 24 -67 32t-126 8l44 172h309v-177h-43q0 -36 -11 -73.5t-32 -61.5
q-24 -27 -55.5 -50t-67.5 -39.5t-76 -25.5t-82 -9zM265 -354l70 70l89 -89l-89 -91l-70 71l-70 -71l-89 90l89 90z" />
    <glyph glyph-name="ye.thmz" unicode="&#x626;" horiz-adv-x="672" arabic-form="isolated" 
d="M276 -209q-123 0 -184.5 63.5t-61.5 173.5q0 76 22.5 156t57.5 178l101 -35q-13 -38 -24.5 -75.5t-20 -71.5t-13.5 -61.5t-5 -46.5q0 -57 43.5 -82.5t110.5 -25.5q18 0 40.5 2.5t46.5 8t47.5 14.5t44.5 23q-5 2 -12 3.5t-15 3.5l-102 19q-26 5 -41.5 15t-23.5 23.5
t-11 29t-3 30.5q0 20 7.5 49t21 61.5t33 64.5t43 57.5t51.5 41.5t59 16q29 0 65.5 -18t88.5 -57l-58 -96q-6 5 -16.5 11.5t-22.5 12t-23.5 9.5t-20.5 4q-23 0 -51.5 -30.5t-53.5 -76.5q4 -4 13 -6t17 -4l104 -22q21 -5 36 -15.5t24 -24.5t13 -30t4 -32q0 -36 -15 -72
t-35 -61q-24 -29 -55.5 -52.5t-67.5 -40t-76 -25.5t-82 -9zM223 589q0 56 34 83.5t84 27.5q11 0 25.5 -2t34.5 -9l-19 -78q-9 3 -18.5 5t-20.5 2q-31 0 -53 -22q5 -11 17.5 -26t30.5 -26l102 48l32 -70l-261 -122l-33 71l80 37q-14 16 -24.5 35.5t-10.5 45.5z" />
    <glyph glyph-name="ye.thmz.fina" unicode="&#x626;" horiz-adv-x="643" arabic-form="final" 
d="M276 -259q-123 0 -184.5 63.5t-61.5 173.5q0 76 22.5 156t57.5 178l101 -35q-13 -38 -24.5 -75.5t-20 -71.5t-13.5 -61.5t-5 -46.5q0 -57 43.5 -82.5t110.5 -25.5q39 0 87.5 10.5t93.5 40.5q-23 24 -67 32t-126 8l44 172h309v-177h-43q0 -36 -11 -73.5t-32 -61.5
q-24 -27 -55.5 -50t-67.5 -39.5t-76 -25.5t-82 -9zM318 429q0 56 34 83.5t84 27.5q11 0 25.5 -2t34.5 -9l-19 -78q-9 3 -18.5 5t-20.5 2q-31 0 -53 -22q5 -11 17.5 -26t30.5 -26l102 48l32 -70l-261 -122l-33 71l80 37q-14 16 -24.5 35.5t-10.5 45.5z" />
    </font>
</defs>
</svg>
