<?xml version="1.0" encoding="utf-8"?>
<!-- Generator: Adobe Illustrator 22.0.1, SVG Export Plug-In . SVG Version: 6.00 Build 0)  -->
<svg version="1.1" id="Layer_1" xmlns="http://www.w3.org/2000/svg" xmlns:xlink="http://www.w3.org/1999/xlink" x="0px" y="0px"
	 viewBox="0 0 1080 1080" style="enable-background:new 0 0 1080 1080;" xml:space="preserve">
<style type="text/css">
	.st0{fill:#231F20;}
</style>
<path class="st0" d="M30.8,380.9c7.6-16.6,20.7-22.7,38.6-21.3c9.4,0.7,21.4,2.9,27.8-1.7c6.4-4.7,7.3-16.9,10.3-26
	c13.6-40.5,26.9-81.1,40.5-121.6c6.5-19.5,23.4-27.9,40.3-20.4c9.6,4.3,13.9,12.5,17,21.9c18.3,55.4,36.9,110.7,55.3,166.1
	c10.8,32.3,21.5,64.7,32.9,98.8c1.8-3.9,3-6.2,3.9-8.6c26.9-67.2,53.8-134.4,80.7-201.6c7.3-18.3,22.9-26.7,38.4-19.3
	c6.6,3.2,13,9.6,16.4,16.2c15.5,29.3,30.1,59.1,44.7,88.9c2.7,5.6,5.8,8.1,12.3,7.7c10.5-0.6,21.1-0.3,31.6-0.1
	c17.8,0.2,30.5,12.4,30.4,28.9c-0.1,16-12.7,28.3-29.8,28.5c-18.8,0.2-37.7,0-56.5,0.1c-13.1,0-22.5-6-28.3-17.6
	c-8.1-16.3-16.3-32.5-24.4-48.8c-1-2-2.2-3.8-3.9-6.5c-15.8,39.6-31.3,78.3-46.8,117.1c-14,34.9-28,69.9-42,104.8
	c-6.7,16.6-16.1,24-30,23.5c-13.6-0.5-22.3-8.2-27.8-24.8c-27.4-82-54.7-163.9-82.1-245.9c-1-2.9-2.1-5.7-4.1-11
	c-2.8,8.1-4.9,13.9-6.9,19.8c-7.4,22.1-14.6,44.2-22,66.3c-5.6,16.6-14.7,23.2-32,23.2c-15.3,0.1-30.7-0.7-46,0.2
	c-17.8,1.1-31-4.7-38.6-21.3L30.8,380.9L30.8,380.9z"/>
<path class="st0" d="M782.5,871v116.5h64.3c6.7,0,13.4-0.1,20.1,0c17.2,0.3,29.9,12.1,30.1,28.2c0.3,16.4-12.5,29.2-30.1,29.2
	c-66.4,0.1-132.9,0.1-199.3,0.1c-9.3,0-18.5,0.1-27.8,0c-17.6-0.3-30.4-12.8-30.2-29.2c0.2-16,12.9-28.2,30.1-28.3
	c27.8-0.2,55.6,0,84.1,0V872.8c-21.4-6-43.4-10.5-64-18.3c-98.1-37.1-164.1-132.6-165.1-237.7c-0.4-38.7-0.2-77.3-0.1-116
	c0.1-17.9,12-30.7,28.4-30.9c16.8-0.2,29,12.8,29,31.2c0.1,36.1,0,72.2,0,108.3c0.1,102.6,67.6,184,168.3,202.7
	C829.8,832.5,942,749.9,952.2,639c4-44.1,1.7-88.7,2.4-133.1c0.1-5.1,0.1-10.3,1.4-15.1c3.6-13.4,16.1-22,29.5-20.9
	c13.7,1.1,26.3,12.1,26.2,26c-0.6,53.6,2.2,107.7-4.3,160.6c-12.8,105.8-104.4,195.4-210,212C792.7,869.3,787.9,870.1,782.5,871"/>
<path class="st0" d="M609.6,503.7c0-38-0.1-76,0-114c0.3-75.9,55.8-137,131.1-144.5c71.6-7.1,137.9,42.3,153.3,114.7
	c2,9.3,2.9,19,2.9,28.5c0.2,76.6,0.3,153.2,0.1,229.9c-0.3,81.5-65.9,145.4-147.3,144c-75.4-1.3-138.9-64.4-140-139.8
	C609.2,582.9,609.7,543.3,609.6,503.7L609.6,503.7z M839.6,503.3L839.6,503.3c0-38.3,0.3-76.6,0-115c-0.5-48-38.6-85.9-85.9-86.1
	c-47.7-0.1-86.2,38-86.4,86.5c-0.3,76.6-0.4,153.3,0.3,229.9c0.1,12.1,3.1,24.9,8,36c16.3,37.1,56.3,56.3,96.6,48.1
	c37.9-7.8,66.9-42.8,67.4-82.5C839.9,581.2,839.6,542.3,839.6,503.3"/>
</svg>
