<?xml version="1.0" encoding="utf-8"?>
<!-- Generator: Adobe Illustrator 22.0.1, SVG Export Plug-In . SVG Version: 6.00 Build 0)  -->
<svg version="1.1" id="Layer_1" xmlns="http://www.w3.org/2000/svg" xmlns:xlink="http://www.w3.org/1999/xlink" x="0px" y="0px"
	 viewBox="0 0 500 500" style="enable-background:new 0 0 500 500;" xml:space="preserve">
<style type="text/css">
	.st0{fill:#231F20;}
	.st1{fill:#FFFFFF;}
</style>
<g>
	<path class="st0" d="M315.1,354.1H191.3c-4.8,0-8.6-3.9-8.6-8.6s3.9-8.6,8.6-8.6h123.8c4.8,0,8.6,3.9,8.6,8.6
		S319.8,354.1,315.1,354.1z"/>
</g>
<g>
	<path class="st0" d="M316.2,179H192.4c-4.8,0-8.6-3.9-8.6-8.6s3.9-8.6,8.6-8.6h123.8c4.8,0,8.6,3.9,8.6,8.6S321,179,316.2,179z"/>
</g>
<g>
	<path class="st0" d="M318.6,222.4H194.8c-4.8,0-8.6-3.9-8.6-8.6c0-4.8,3.9-8.6,8.6-8.6h123.8c4.8,0,8.6,3.9,8.6,8.6
		C327.2,218.5,323.4,222.4,318.6,222.4z"/>
</g>
<g>
	<path class="st0" d="M312.4,268.4H188.6c-4.8,0-8.6-3.9-8.6-8.6c0-4.8,3.9-8.6,8.6-8.6h123.8c4.8,0,8.6,3.9,8.6,8.6
		C321.1,264.5,317.2,268.4,312.4,268.4z"/>
</g>
<g>
	<path class="st0" d="M312.7,310.8H188.9c-4.8,0-8.6-3.9-8.6-8.6s3.9-8.6,8.6-8.6h123.8c4.8,0,8.6,3.9,8.6,8.6
		S317.4,310.8,312.7,310.8z"/>
</g>
<g>
	<line class="st1" x1="90.9" y1="224.6" x2="90.9" y2="351.9"/>
	<rect x="78.6" y="224.6" class="st0" width="24.7" height="127.3"/>
</g>
<g>
	<path class="st1" d="M72.2,367.6c1.3,0,18.1-4,18.6-19"/>
	<path class="st0" d="M72.2,379.9v-24.7c-1,0-1.7,0.1-1.7,0.1c0.1,0,7.8-1.8,8-7.2l24.7,0.7C102.4,370.7,80.7,379.9,72.2,379.9z"/>
</g>
<g>
	<g>
		<path class="st0" d="M342.5,463.7H164.8c-17.4,0-31.6-14.2-31.6-31.6v-52H75.6c-37.4,0-67.7-30.4-67.7-67.8v-68.6
			c0-17.4,14.2-31.6,31.6-31.6h39.2V57.7c0-17.4,14.2-31.6,31.6-31.6h177.7c1.7,0,3.4,0.1,5.2,0.4h49.4c17.4,0,31.6,14.2,31.6,31.6
			v374C374.1,449.6,359.9,463.7,342.5,463.7z M39.4,236.9c-3.8,0-6.9,3.1-6.9,6.9v68.6c0,23.8,19.3,43.1,43.1,43.1h82.3v76.7
			c0,3.8,3.1,6.9,6.9,6.9h177.7c3.8,0,6.9-3.1,6.9-6.9v-374c0-3.8-3.1-6.9-6.9-6.9h-51.9l-1.3-0.3c-0.5-0.1-1-0.2-1.5-0.2H110.2
			c-3.8,0-6.9,3.1-6.9,6.9v179.2H39.4z"/>
	</g>
	<g>
		<path class="st0" d="M158.1,182.2h-24.7l0-118c0-4.6-1.7-12.8-13.9-13.8l2.1-24.6c27.6,2.3,36.9,24.5,36.5,39V182.2z"/>
	</g>
	<g>
		<rect x="133.3" y="74.3" class="st0" width="24.7" height="303.7"/>
	</g>
	<g>
		<rect x="78.6" y="224.6" class="st0" width="24.7" height="127.3"/>
	</g>
	<g>
		<path class="st0" d="M72.2,379.9v-24.7c-1,0-1.7,0.1-1.7,0.1c0.1,0,7.8-1.8,8-7.2l24.7,0.7C102.4,370.7,80.7,379.9,72.2,379.9z"/>
	</g>
</g>
<g>
	<path class="st0" d="M496.8,314.3v3.8c-1.5,4-4.6,6.1-8.6,7.2c-3.6,1-7.1,2.5-10.7,3.6c-1.5,0.5-1.9,1.2-1.9,2.7
		c0.1,7.3,0,14.6,0.1,21.9c0,1.1,0.8,2.1,1.1,3.2c0.7,2.1,2,4.3,2.1,6.4c0.3,6.7,0.1,13.4,0.1,20.2c0,5.6-3.6,9.4-8.7,9.5
		c-5.2,0.1-9-3.8-9-9.4c0-6.7-0.1-13.5,0.1-20.2c0-1.8,0.4-4.1,1.5-5.4c1.8-2.1,1.8-4.3,1.8-6.6c0-1.8,0-3.5,0-5.3v-12.5
		c-5.5,1.9-10.7,3.8-16,5.4c-1.9,0.6-2.4,1.4-2.4,3.3c0.1,14.6,0,29.1,0.1,43.7c0,2.7-0.6,5.1-2.5,7c-14.1,14.7-31,24.2-51.1,28.1
		c-4.7,0.9-9.5,1.3-14.2,2h-8.6c-0.7-0.1-1.4-0.4-2.1-0.4c-24.9-1.9-46-12-63.3-29.9c-2.3-2.4-3.4-5-3.4-8.4
		c0.1-14.2,0-28.3,0.1-42.5c0-1.7-0.5-2.5-2.2-3c-13.3-4.4-26.4-9-39.7-13.4c-3.9-1.3-7.1-3.2-8.6-7.2v-3.8c1.2-3.5,3.4-5.8,7-7
		c29-9.8,57.9-19.7,86.8-29.6c9.3-3.2,18.5-6.4,27.8-9.6h2.9c0.6,0.3,1.3,0.6,1.9,0.8c37.1,12.6,74.2,25.3,111.3,37.9
		C492.4,308.2,495.5,310.1,496.8,314.3 M460.3,316c-0.7-0.3-1-0.5-1.4-0.6c-27.8-9.5-55.7-19-83.5-28.4c-1-0.4-2.4-0.3-3.4,0.1
		c-15.9,5.4-31.8,10.8-47.7,16.2c-12.3,4.2-24.5,8.4-37.1,12.7c1.1,0.5,1.9,0.8,2.7,1.1c27,9.2,54,18.3,81,27.6
		c2,0.7,3.7,0.9,5.7,0.2c27.1-9.3,54.3-18.6,81.4-27.9C458.8,316.7,459.4,316.4,460.3,316 M319.1,345.6c-0.1,0.6-0.2,0.8-0.2,1
		c0,11.4,0,22.7,0,34.1c0,0.9,0.7,1.9,1.3,2.6c29.3,28.5,76.8,29.1,106.9,1.3c1.2-1.1,1.6-2.1,1.6-3.7c-0.1-10.9,0-21.8,0-32.7v-2.5
		c-1.1,0.3-1.8,0.5-2.5,0.8c-16,5.5-32.1,10.9-48.1,16.4c-2.8,1-5.4,1-8.2,0.1c-10.1-3.5-20.3-6.9-30.4-10.3
		C332.8,350.3,326.1,348,319.1,345.6"/>
	<path class="st0" d="M369.9,424.1c-0.5-0.1-0.7-0.1-1-0.2c-0.4-0.1-0.8-0.2-1.2-0.2c-25-1.9-46.5-12.1-64.1-30.3
		c-2.6-2.6-3.7-5.6-3.7-9.2c0.1-7.5,0.1-15,0.1-22.5c0-6.7,0-13.3,0-20c0-1.2-0.2-1.5-1.3-1.9c-5.8-1.9-11.5-3.9-17.3-5.8
		c-7.5-2.5-14.9-5.1-22.4-7.6c-3.4-1.1-7.5-3-9.3-7.9l-0.1-0.4l0.1-4.2c1.3-3.9,3.9-6.4,7.7-7.7c26.3-8.9,52.7-17.9,79-26.9l7.8-2.7
		c6.7-2.3,13.3-4.6,19.9-6.9l8.2-2.8l3.4,0.1l0.6,0.2c0.4,0.2,0.9,0.4,1.3,0.5l20.4,7c30.3,10.3,60.6,20.7,90.9,30.9
		c3.4,1.1,7.5,3.1,9.1,8.3l0.1,0.4l-0.1,4.3c-1.5,4-4.6,6.6-9.4,8c-1.9,0.5-3.8,1.2-5.7,1.9c-1.7,0.6-3.3,1.2-5,1.7
		c-0.9,0.3-1.1,0.5-1.1,1.5c0,3.4,0,6.9,0,10.3c0,3.9,0,7.7,0.1,11.6c0,0.4,0.3,1,0.5,1.6c0.2,0.4,0.4,0.8,0.5,1.2
		c0.2,0.6,0.5,1.3,0.8,1.9c0.7,1.6,1.3,3.2,1.4,4.9c0.2,5.2,0.2,10.5,0.1,15.6l0,4.6c0,6.2-4.1,10.6-9.9,10.7
		c-2.8,0-5.3-0.9-7.2-2.7c-2-1.9-3.1-4.7-3.1-7.9l0-2.6c0-5.8-0.1-11.8,0.1-17.7c0-1.9,0.4-4.6,1.8-6.2c1.5-1.7,1.5-3.3,1.5-5.8
		c0-1.2,0-2.5,0-3.7l0-12.4c-1.1,0.4-2.1,0.7-3.1,1.1c-3.9,1.3-7.5,2.6-11.2,3.8c-1.3,0.4-1.5,0.7-1.5,2.2
		c0.1,8.6,0.1,17.1,0.1,25.7c0,6,0,12,0,18c0,3.3-0.9,5.9-2.9,7.9c-14.5,15.1-31.9,24.6-51.7,28.5c-3.3,0.6-6.6,1-9.9,1.4
		c-1.5,0.2-2.9,0.4-4.4,0.5L369.9,424.1z M252,317.9c1.2,3,3.5,4.9,7.7,6.3c7.5,2.5,15,5,22.5,7.6c5.7,2,11.5,3.9,17.2,5.8
		c2.1,0.7,3,1.9,3,4.2c0,6.7,0,13.3,0,20c0,7.5,0,15-0.1,22.5c0,3,0.9,5.3,3,7.5c17.2,17.7,38.2,27.6,62.5,29.5
		c0.5,0,1.1,0.2,1.6,0.3c0.2,0,0.4,0.1,0.6,0.1l8.4,0c1.3-0.2,2.8-0.4,4.3-0.5c3.2-0.4,6.5-0.8,9.7-1.4
		c19.4-3.7,36.3-13.1,50.4-27.7c1.5-1.5,2.2-3.5,2.2-6.2c0-6,0-12,0-18c0-8.6,0-17.1-0.1-25.7c0-2.5,0.9-3.8,3.3-4.5
		c3.7-1.1,7.3-2.4,11.2-3.7c1.6-0.5,3.2-1.1,4.8-1.6l1.6-0.6l0,15.8c0,1.2,0,2.4,0,3.6c0,2.3,0.1,5-2.1,7.5
		c-0.7,0.8-1.2,2.5-1.2,4.6c-0.2,5.9-0.1,11.8-0.1,17.6l0,2.6c0,2.5,0.9,4.7,2.4,6.2c1.4,1.4,3.3,2.1,5.4,2c4.4-0.1,7.4-3.4,7.5-8.2
		l0-4.6c0-5.1,0.1-10.3-0.1-15.5c-0.1-1.3-0.6-2.6-1.2-4c-0.3-0.7-0.6-1.4-0.8-2c-0.1-0.3-0.3-0.6-0.4-1c-0.4-0.8-0.8-1.6-0.8-2.6
		c-0.1-3.9-0.1-7.7-0.1-11.6c0-3.4,0-6.8,0-10.3c0-2.1,0.8-3.3,2.8-3.9c1.6-0.5,3.3-1.1,4.9-1.6c1.9-0.7,3.9-1.4,5.8-1.9
		c3.9-1.1,6.4-3.1,7.7-6.3v-3.4c-1-3.1-3.3-5.1-7.5-6.5c-30.3-10.3-60.6-20.6-90.9-30.9l-20.4-7c-0.5-0.2-1-0.4-1.5-0.6l-0.3-0.1
		h-2.4l-7.6,2.7c-6.6,2.3-13.3,4.6-19.9,6.9l-7.8,2.7c-26.3,9-52.7,18-79,26.9c-3.1,1-5,3-6.1,6V317.9z M374.3,406.1
		c-20,0-40-7.3-55-21.9c-0.8-0.8-1.7-2.1-1.7-3.5c-0.1-10.2-0.1-20.4,0-30.6l0-3.5c0-0.3,0.1-0.6,0.2-0.9l0.4-1.8l30.7,10.4
		c7.2,2.4,14.4,4.9,21.6,7.4c2.4,0.9,4.8,0.8,7.4-0.1c12-4.1,24-8.2,36-12.3l12.1-4.1c0.5-0.2,0.9-0.3,1.5-0.5l2.6-0.8l0,11.8
		c0,8.3,0,16.7,0,25c0,1.9-0.6,3.3-2,4.6C413,399.3,393.7,406.1,374.3,406.1z M320.1,347.2l-0.1,2.9c0,10.2,0,20.4,0,30.6
		c0,0.4,0.4,1.2,1,1.7c28.6,27.8,75.8,28.4,105.2,1.2c0.9-0.8,1.2-1.6,1.2-2.8c0-8.3,0-16.7,0-25l0-8.5c-0.3,0.1-0.6,0.2-0.8,0.3
		l-12.1,4.1c-12,4.1-24,8.2-36,12.3c-3.1,1.1-6,1.1-9,0.1c-7.2-2.5-14.4-4.9-21.5-7.4L320.1,347.2z M374.1,346.4
		c-1.3,0-2.5-0.3-3.6-0.7c-20-6.8-40-13.6-60-20.4l-21-7.1c-0.6-0.2-1.1-0.4-1.7-0.7l-4.2-1.7l48.8-16.7c13-4.5,26.1-8.9,39.2-13.3
		c1.4-0.5,3-0.5,4.2-0.1c22.5,7.6,44.9,15.3,67.4,22.9l16.1,5.5c0.3,0.1,0.5,0.2,0.8,0.3l3.4,1.5l-3.5,1.4c-0.6,0.2-1,0.4-1.5,0.6
		l-20,6.8c-20.5,7-41,14-61.5,21C376,346.3,375,346.4,374.1,346.4z M290.8,316l20.5,7c20,6.8,40,13.6,60,20.4c2,0.7,3.3,0.7,4.9,0.2
		c20.5-7.1,41-14.1,61.5-21.1l19.1-6.5l-14.4-4.9c-22.5-7.7-44.9-15.3-67.4-22.9c-0.7-0.2-1.8-0.2-2.6,0.1
		c-13.1,4.4-26.1,8.8-39.1,13.3L290.8,316z"/>
</g>
<g>
	<path class="st0" d="M369.9,424.1c-0.5-0.1-0.7-0.1-1-0.2c-0.4-0.1-0.8-0.2-1.2-0.2c-25-1.9-46.5-12.1-64.1-30.3
		c-2.6-2.6-3.7-5.6-3.7-9.2c0.1-7.5,0.1-15,0.1-22.5c0-6.7,0-13.3,0-20c0-1.2-0.2-1.5-1.3-1.9c-5.8-1.9-11.5-3.9-17.3-5.8
		c-7.5-2.5-14.9-5.1-22.4-7.6c-3.4-1.1-7.5-3-9.3-7.9l-0.1-0.4l0.1-4.2c1.3-3.9,3.9-6.4,7.7-7.7c26.3-8.9,52.7-17.9,79-26.9l7.8-2.7
		c6.7-2.3,13.3-4.6,19.9-6.9l8.2-2.8l3.4,0.1l0.6,0.2c0.4,0.2,0.9,0.4,1.3,0.5l20.4,7c30.3,10.3,60.6,20.7,90.9,30.9
		c3.4,1.1,7.5,3.1,9.1,8.3l0.1,0.4l-0.1,4.3c-1.5,4-4.6,6.6-9.4,8c-1.9,0.5-3.8,1.2-5.7,1.9c-1.7,0.6-3.3,1.2-5,1.7
		c-0.9,0.3-1.1,0.5-1.1,1.5c0,3.4,0,6.9,0,10.3c0,3.9,0,7.7,0.1,11.6c0,0.4,0.3,1,0.5,1.6c0.2,0.4,0.4,0.8,0.5,1.2
		c0.2,0.6,0.5,1.3,0.8,1.9c0.7,1.6,1.3,3.2,1.4,4.9c0.2,5.2,0.2,10.5,0.1,15.6l0,4.6c0,6.2-4.1,10.6-9.9,10.7
		c-2.8,0-5.3-0.9-7.2-2.7c-2-1.9-3.1-4.7-3.1-7.9l0-2.6c0-5.8-0.1-11.8,0.1-17.7c0-1.9,0.4-4.6,1.8-6.2c1.5-1.7,1.5-3.3,1.5-5.8
		c0-1.2,0-2.5,0-3.7l0-12.4c-1.1,0.4-2.1,0.7-3.1,1.1c-3.9,1.3-7.5,2.6-11.2,3.8c-1.3,0.4-1.5,0.7-1.5,2.2
		c0.1,8.6,0.1,17.1,0.1,25.7c0,6,0,12,0,18c0,3.3-0.9,5.9-2.9,7.9c-14.5,15.1-31.9,24.6-51.7,28.5c-3.3,0.6-6.6,1-9.9,1.4
		c-1.5,0.2-2.9,0.4-4.4,0.5L369.9,424.1z M252,317.9c1.2,3,3.5,4.9,7.7,6.3c7.5,2.5,15,5,22.5,7.6c5.7,2,11.5,3.9,17.2,5.8
		c2.1,0.7,3,1.9,3,4.2c0,6.7,0,13.3,0,20c0,7.5,0,15-0.1,22.5c0,3,0.9,5.3,3,7.5c17.2,17.7,38.2,27.6,62.5,29.5
		c0.5,0,1.1,0.2,1.6,0.3c0.2,0,0.4,0.1,0.6,0.1l8.4,0c1.3-0.2,2.8-0.4,4.3-0.5c3.2-0.4,6.5-0.8,9.7-1.4
		c19.4-3.7,36.3-13.1,50.4-27.7c1.5-1.5,2.2-3.5,2.2-6.2c0-6,0-12,0-18c0-8.6,0-17.1-0.1-25.7c0-2.5,0.9-3.8,3.3-4.5
		c3.7-1.1,7.3-2.4,11.2-3.7c1.6-0.5,3.2-1.1,4.8-1.6l1.6-0.6l0,15.8c0,1.2,0,2.4,0,3.6c0,2.3,0.1,5-2.1,7.5
		c-0.7,0.8-1.2,2.5-1.2,4.6c-0.2,5.9-0.1,11.8-0.1,17.6l0,2.6c0,2.5,0.9,4.7,2.4,6.2c1.4,1.4,3.3,2.1,5.4,2c4.4-0.1,7.4-3.4,7.5-8.2
		l0-4.6c0-5.1,0.1-10.3-0.1-15.5c-0.1-1.3-0.6-2.6-1.2-4c-0.3-0.7-0.6-1.4-0.8-2c-0.1-0.3-0.3-0.6-0.4-1c-0.4-0.8-0.8-1.6-0.8-2.6
		c-0.1-3.9-0.1-7.7-0.1-11.6c0-3.4,0-6.8,0-10.3c0-2.1,0.8-3.3,2.8-3.9c1.6-0.5,3.3-1.1,4.9-1.6c1.9-0.7,3.9-1.4,5.8-1.9
		c3.9-1.1,6.4-3.1,7.7-6.3v-3.4c-1-3.1-3.3-5.1-7.5-6.5c-30.3-10.3-60.6-20.6-90.9-30.9l-20.4-7c-0.5-0.2-1-0.4-1.5-0.6l-0.3-0.1
		h-2.4l-7.6,2.7c-6.6,2.3-13.3,4.6-19.9,6.9l-7.8,2.7c-26.3,9-52.7,18-79,26.9c-3.1,1-5,3-6.1,6V317.9z M374.3,406.1
		c-20,0-40-7.3-55-21.9c-0.8-0.8-1.7-2.1-1.7-3.5c-0.1-10.2-0.1-20.4,0-30.6l0-3.5c0-0.3,0.1-0.6,0.2-0.9l0.4-1.8l30.7,10.4
		c7.2,2.4,14.4,4.9,21.6,7.4c2.4,0.9,4.8,0.8,7.4-0.1c12-4.1,24-8.2,36-12.3l12.1-4.1c0.5-0.2,0.9-0.3,1.5-0.5l2.6-0.8l0,11.8
		c0,8.3,0,16.7,0,25c0,1.9-0.6,3.3-2,4.6C413,399.3,393.7,406.1,374.3,406.1z M320.1,347.2l-0.1,2.9c0,10.2,0,20.4,0,30.6
		c0,0.4,0.4,1.2,1,1.7c28.6,27.8,75.8,28.4,105.2,1.2c0.9-0.8,1.2-1.6,1.2-2.8c0-8.3,0-16.7,0-25l0-8.5c-0.3,0.1-0.6,0.2-0.8,0.3
		l-12.1,4.1c-12,4.1-24,8.2-36,12.3c-3.1,1.1-6,1.1-9,0.1c-7.2-2.5-14.4-4.9-21.5-7.4L320.1,347.2z M374.1,346.4
		c-1.3,0-2.5-0.3-3.6-0.7c-20-6.8-40-13.6-60-20.4l-21-7.1c-0.6-0.2-1.1-0.4-1.7-0.7l-4.2-1.7l48.8-16.7c13-4.5,26.1-8.9,39.2-13.3
		c1.4-0.5,3-0.5,4.2-0.1c22.5,7.6,44.9,15.3,67.4,22.9l16.1,5.5c0.3,0.1,0.5,0.2,0.8,0.3l3.4,1.5l-3.5,1.4c-0.6,0.2-1,0.4-1.5,0.6
		l-20,6.8c-20.5,7-41,14-61.5,21C376,346.3,375,346.4,374.1,346.4z M290.8,316l20.5,7c20,6.8,40,13.6,60,20.4c2,0.7,3.3,0.7,4.9,0.2
		c20.5-7.1,41-14.1,61.5-21.1l19.1-6.5l-14.4-4.9c-22.5-7.7-44.9-15.3-67.4-22.9c-0.7-0.2-1.8-0.2-2.6,0.1
		c-13.1,4.4-26.1,8.8-39.1,13.3L290.8,316z"/>
</g>
<g>
	<path class="st1" d="M460.3,316c-0.9,0.4-1.5,0.6-2.2,0.9c-27.1,9.3-54.3,18.5-81.4,27.9c-2.1,0.7-3.8,0.5-5.7-0.2
		c-27-9.2-54-18.4-81-27.6c-0.8-0.3-1.6-0.6-2.7-1.1c12.6-4.3,24.9-8.5,37.1-12.7c15.9-5.4,31.8-10.8,47.7-16.2
		c1-0.4,2.4-0.4,3.4-0.1c27.9,9.4,55.7,18.9,83.5,28.4C459.3,315.6,459.6,315.7,460.3,316"/>
	<path class="st0" d="M374.1,346.4c-1.4,0-2.5-0.3-3.6-0.7c-20-6.8-40-13.6-60.1-20.4l-21-7.1c-0.5-0.2-1.1-0.4-1.7-0.7l-4.2-1.7
		l45.3-15.5c14.2-4.9,28.4-9.7,42.7-14.5c1.4-0.5,3-0.5,4.2-0.1c24.6,8.3,49.3,16.7,73.9,25.1l9.7,3.3c0.3,0.1,0.6,0.2,0.9,0.4
		l3.3,1.4l-3.5,1.4c-0.5,0.2-1,0.4-1.5,0.6l-19.8,6.8c-20.5,7-41.1,14-61.6,21.1C376,346.3,375,346.4,374.1,346.4z M290.8,316
		l20.5,7c20,6.8,40.1,13.6,60.1,20.4c1.9,0.7,3.3,0.7,4.9,0.2c20.5-7.1,41.1-14.1,61.6-21.1l19-6.5l-8-2.7
		c-24.6-8.4-49.2-16.8-73.9-25.1c-0.7-0.2-1.8-0.2-2.6,0.1c-14.2,4.8-28.4,9.6-42.7,14.5L290.8,316z"/>
</g>
<g>
	<path class="st1" d="M319.1,345.6c7,2.4,13.8,4.7,20.6,7c10.1,3.4,20.3,6.8,30.4,10.3c2.8,1,5.4,0.9,8.2-0.1
		c16-5.5,32-11,48.1-16.4c0.7-0.2,1.4-0.4,2.5-0.8v2.5c0,10.9,0,21.8,0,32.7c0,1.6-0.5,2.7-1.6,3.7c-30.1,27.8-77.6,27.3-106.9-1.3
		c-0.7-0.7-1.3-1.7-1.3-2.6c-0.1-11.4-0.1-22.7,0-34.1C318.8,346.4,318.9,346.1,319.1,345.6"/>
	<path class="st0" d="M374.3,406.1c-20,0-40-7.3-55-21.9c-0.8-0.8-1.7-2.1-1.7-3.5c-0.1-10.2-0.1-20.4,0-30.6l0-3.5
		c0-0.3,0.1-0.6,0.2-0.9l0.4-1.8l30.7,10.4c7.2,2.4,14.4,4.9,21.6,7.4c2.4,0.9,4.8,0.8,7.4-0.1c12-4.1,24-8.2,36-12.3l12.1-4.1
		c0.5-0.2,0.9-0.3,1.5-0.5l2.6-0.8l0,11.8c0,8.3,0,16.7,0,25c0,1.9-0.6,3.3-2,4.6C413,399.3,393.7,406.1,374.3,406.1z M320.1,347.2
		l-0.1,2.9c0,10.2,0,20.4,0,30.6c0,0.4,0.4,1.2,1,1.7c28.6,27.8,75.8,28.4,105.2,1.2c0.9-0.8,1.2-1.6,1.2-2.8c0-8.3,0-16.7,0-25
		l0-8.5c-0.3,0.1-0.6,0.2-0.8,0.3l-12.1,4.1c-12,4.1-24,8.2-36,12.3c-3.1,1.1-6,1.1-9,0.1c-7.2-2.5-14.4-4.9-21.5-7.4L320.1,347.2z"
		/>
</g>
</svg>
