<?xml version="1.0" encoding="utf-8"?>
<!-- Generator: Adobe Illustrator 22.0.1, SVG Export Plug-In . SVG Version: 6.00 Build 0)  -->
<svg version="1.1" id="Layer_1" xmlns="http://www.w3.org/2000/svg" xmlns:xlink="http://www.w3.org/1999/xlink" x="0px" y="0px"
	 viewBox="0 0 500 500" style="enable-background:new 0 0 500 500;" xml:space="preserve">
<style type="text/css">
	.st0{fill:#231F20;}
	.st1{fill:#FFFFFF;}
</style>
<g>
	<path class="st0" d="M179.6,321.7c-2.5,0-4.9-0.8-7-2.5L88,250.7l-64.9,54.5c-4.7,3.9-11.6,3.3-15.6-1.4
		c-3.9-4.7-3.3-11.6,1.4-15.6l71.9-60.4c4.1-3.4,9.9-3.5,14.1-0.1l84.7,68.6l200.3-165.4c4.1-3.4,10-3.4,14.1,0l48.1,39.7l35.3-29.2
		c4.7-3.9,11.7-3.2,15.6,1.5c3.9,4.7,3.2,11.7-1.5,15.6l-42.3,35.1c-4.1,3.4-10,3.4-14.1,0L387,153.8L186.7,319.1
		C184.6,320.8,182.1,321.7,179.6,321.7z"/>
</g>
<g>
	<path d="M160.6,430.1c-3.4-1.1-7-1.9-10.2-3.3c-11.6-5.1-20.3-13.7-28-23.4c-1.4-1.7-2.4-3.7-3.9-5.2c-1.4-1.5-3.2-3-5-3.6
		c-18.6-5.9-27.9-20.6-24.8-40.1c0.3-2.2,0.1-3.5-2-4.7c-19.4-11.4-27.5-29.2-28.3-51c-0.1-3.5-0.2-7.1,0.4-10.5
		c0.6-3.2-0.7-4.8-3-6.6c-12.6-9.8-21.5-22.2-24.5-38.1c-3.2-16.5-0.3-32.4,7.2-47.4c2.2-4.4,3.1-8.6,3-13.4
		c-0.4-17.1,1.3-34,9-49.7c8.1-16.4,20.8-27.1,38.9-31.2c1.7-0.4,3.6-2.3,4.5-3.9c5-8.7,11.5-15.5,21-19c3.5-1.3,7.2-2.1,10.9-2.2
		c3.4-0.1,5.9-1.1,8.4-3.3c8.1-6.9,17.3-11.8,27.9-13.5c12.4-2,23.6,1.3,34.1,7.7c1.8,1.1,3.1,1.5,5.2,0.3c20.6-12.7,42-11.2,61,4.3
		c3.4,2.8,6.6,4.3,11.2,4.6c12.4,0.8,21.9,7.4,28.3,17.7c2.9,4.8,6.1,7.3,11.5,8.8c19.4,5.6,31.1,19.4,37.6,37.9
		c4.9,13.8,6.2,28.2,5.5,42.8c-0.2,4,0.7,7.5,2.5,11c7.2,13.8,10.2,28.5,8.4,44.1c-2.1,17.4-10.9,30.9-24.3,41.7
		c-3,2.4-4.2,4.7-3.8,8.7c1.5,16.4-1.1,32.2-11.6,45.5c-4.3,5.5-10.2,9.7-15.7,14.2c-2,1.6-3,2.6-2.6,5.4
		c2.3,19.1-5.7,34.5-24.7,39.8c-2,0.6-4,2.2-5.3,3.9c-7.5,10.4-15.8,19.9-27.3,26c-4.8,2.5-10.3,3.9-15.5,5.7c-1.9,0-3.9,0-5.8,0
		c-11.7-1.9-20.7-8.2-27.9-17.3c-1.3-1.6-2.5-3.2-3.8-4.9c-0.6,0.5-1,0.8-1.3,1.2c-7.7,10.8-17.2,18.8-30.8,21
		C164.9,430.1,162.8,430.1,160.6,430.1z M192.6,237.4c0-44.9,0-89.8,0-134.7c0-6.6,0.1-13.3-0.1-19.9c0-1.3-0.9-3.1-1.9-3.8
		c-9.4-6.5-19.7-8.7-30.9-5.6c-8.2,2.3-15.1,7-21.1,12.9c-2.8,2.7-5.7,3.3-9.5,3.2c-3.8,0-8,0.5-11.5,2c-7.4,3.1-11.8,9.4-14.8,16.5
		c-1.5,3.4-3.7,5.1-7.5,5.8c-4.7,0.8-9.5,2-13.8,4.1c-14.9,7.4-21.8,20.8-25.4,36.3c-2.7,11.5-2.5,23.2-2.2,34.9
		c0,2.2-0.5,4.5-1.3,6.6c-2.1,5.2-4.8,10.2-6.8,15.5c-8.4,22.9-1.5,46.3,18,61c10.7,8,8.3,6.2,7.2,17.9
		c-1.4,14.4,0.8,27.9,10.4,39.4c4.4,5.3,10,8.9,16.2,11.9c4.4,2.2,5.2,4.2,4.3,9.1c-0.5,2.6-1,5.2-1.3,7.8
		c-1.4,11.7,4.8,21.3,16.2,23.9c5.5,1.3,9.1,4,12.1,8.7c5.7,8.9,13,16.4,22.1,22.1c10.2,6.4,20.7,5.7,29.3-2.9
		c3.9-3.9,7.2-8.4,10.3-13c1.3-1.8,1.9-4.4,1.9-6.7C192.6,339.5,192.6,288.5,192.6,237.4z M326.7,292.5c-1.7,0.8-3.3,1.5-4.9,2.2
		c-7.4,3.3-15.2,4.9-23.2,3c-17.5-4.2-26.8-16.9-33.1-32.5c-1.2-3,0.4-5.6,3.1-6.9c2.7-1.3,5.5-0.9,7.5,1.6c0.8,1,1.2,2.4,1.9,3.5
		c3.6,5.2,6.7,11,11.1,15.5c6.8,7.1,15.6,9.4,24.9,5.5c5.6-2.3,10.9-5.6,16-9.1c12.3-8.3,21.4-19,24.6-34c2.9-13.8,0.1-27-6.1-39.2
		c-3.4-6.6-4.7-13-4.3-20.4c0.6-14.1-0.8-28-6.7-41c-5.1-11.5-13-20.3-25.1-24.6c-3.5-1.2-7.9-2.5-11.2-1.5
		c-9.2,2.7-16.8,8.2-22.5,16.2c-4.1,5.9-6.3,12.4-7.2,19.4c-0.5,3.7-3,5.6-6.5,5.3c-3.3-0.2-5.5-2.6-5.6-6.3c0-1.2,0-2.4,0.2-3.6
		c2.2-13,8-24,18.4-32.2c4.6-3.6,9.8-6.5,14.7-9.8c-3.4-8.5-13.9-14.9-23.3-14.4c-4.1,0.2-6.9,1.6-9,5.1c-2.4,3.8-5.2,7.3-8,10.7
		c-2.4,2.9-6,3.4-8.7,1.4c-2.7-2.1-3.3-5.5-1.3-8.7c0.8-1.3,1.8-2.5,2.8-3.8c2.9-3.9,5.9-7.9,8.7-11.6c-0.3-0.6-0.3-0.9-0.5-1
		c-13.8-10.9-30.7-12.7-45.9-2.2c-1.2,0.8-2.1,2.9-2.1,4.5c-0.1,102.5-0.1,205,0,307.4c0,1.6,0.3,3.5,1.1,4.8
		c3.6,5,7,10.2,11.3,14.5c8.7,8.7,19.2,9.4,29.6,2.8c8.8-5.6,16-12.9,21.5-21.6c3.1-4.9,6.9-7.7,12.6-9.1c9-2.2,14.8-8.1,15.5-17.7
		c0.3-4.7-0.4-9.6-1-14.3c-0.6-4.4,0-6.4,4-8.6c1.4-0.8,2.8-1.4,4.2-2.1C322,330,328.9,310.4,326.7,292.5z"/>
	<path class="st0" d="M238.4,440.1H230l-0.8-0.1c-11.6-1.9-21.7-7.4-30.3-16.5c-8.7,9.2-18.7,14.6-30.3,16.5l-0.8,0.1H159l-1.5-0.5
		c-1-0.3-2-0.6-3-0.9c-2.5-0.7-5.4-1.5-8.2-2.8c-14.7-6.4-24.7-17.4-31.8-26.4c-0.7-0.9-1.3-1.8-2-2.8c-0.4-0.6-0.9-1.4-1.2-1.7
		c-0.8-0.8-1.2-1.1-1.4-1.3c-22-7.1-33.9-25.1-31.7-47.6c-19-12.5-29-31.7-30-57.1c-0.1-3.1-0.2-6.7,0.3-10.4
		c-14.8-11.9-24-26.5-27.2-43.2c-3.5-18.1-0.7-36.2,8.1-53.7c1.4-2.8,2-5.3,1.9-8.7c-0.3-13.9,0.3-34.6,10-54.3
		c9.4-19,24.2-31.1,44-36.1c6.7-11.5,15.2-19,26-22.9c4.9-1.8,9.6-2.7,14.1-2.8c0.8,0,1.1-0.1,2.1-0.9c10-8.6,21.1-13.9,32.8-15.8
		c13-2.1,25.9,0.5,38.5,7.7c23.5-13.2,48.1-10.8,69.6,6.8c2,1.6,3.3,2.2,5.5,2.3c15.2,1,27.7,8.7,36.1,22.5c1.6,2.7,2.8,3.6,5.8,4.4
		c21.1,6,36,20.9,44.3,44.2c4.9,13.7,6.9,28.9,6.1,46.5c-0.1,2.2,0.3,3.9,1.4,6c8.3,16,11.5,32.8,9.4,49.8
		c-2.3,18.9-11.7,35.2-28,48.2c0,0-0.1,0.1-0.1,0.1c1.9,20.9-2.7,38.6-13.7,52.5c-4.3,5.5-9.6,9.6-14.6,13.6
		c-0.5,0.4-0.9,0.7-1.4,1.1c2,23.9-9.8,41.7-31.8,48c-0.1,0.1-0.2,0.2-0.2,0.2c-7.4,10.2-16.8,21.6-30.7,28.9
		c-4.1,2.1-8.2,3.5-12.1,4.8c-1.5,0.5-3.1,1-4.6,1.5L238.4,440.1z M215.2,390.9c0.4,0.5,0.8,1.1,1.1,1.6c2.8,4,5.4,7.7,8.4,10.7
		c3.5,3.5,8.6,6.9,17.3,1.4c7.4-4.6,13.6-10.9,18.5-18.6c4.6-7.2,10.5-11.4,18.7-13.4c6.5-1.6,7.7-5.3,7.9-8.7
		c0.2-3.5-0.3-7.4-0.9-11.6l-0.1-0.6c-0.8-5.9-0.5-13.3,9-18.6c0.9-0.5,1.8-0.9,2.6-1.4c0.6-0.3,1.1-0.5,1.6-0.8
		c10.2-5.5,15.2-14.5,17-23.7c-6.9,1.7-13.6,1.8-20.2,0.3c-24.2-5.7-34.4-24.7-40-38.5c-3.1-7.6,0.3-15.9,8.1-19.6
		c7-3.4,14.7-1.6,19.5,4.4c1.2,1.5,1.9,3,2.3,3.9c0,0.1,0.1,0.2,0.2,0.3c1.1,1.5,2.1,3.1,3.1,4.7c2.3,3.5,4.4,6.8,6.8,9.4
		c4.2,4.4,8.6,5.4,13.9,3.2c4.9-2.1,9.8-5.1,14.2-8.1c11.6-7.8,18-16.6,20.4-27.8c2.3-10.7,0.5-21.4-5.3-32.6
		c-4.1-8-5.8-16-5.4-25.3c0.6-14.6-1.2-26.2-5.8-36.5c-4.5-9.9-10.8-16.2-19.4-19.2c-3.4-1.2-4.8-1.3-5.2-1.3
		c-7,2.1-12.8,6.3-17,12.3c-2.9,4.2-4.7,8.9-5.5,15c-1.2,8.8-8.1,14.6-17,14c-8.5-0.6-14.6-7.2-14.9-16c0-1.6,0-3.5,0.3-5.5
		c2.7-16.1,10.2-29,22.1-38.3c2-1.5,3.9-2.9,5.9-4.2c-2.5-1.4-5.3-2.3-7.9-2.2c-0.4,0-0.7,0.1-0.9,0.1c-0.1,0.1-0.1,0.2-0.2,0.3
		c-2.5,4.1-5.4,7.6-8.2,11.1l-0.5,0.6c-5.7,7.1-15.5,8.4-22.5,3.1c-6.8-5.2-8.3-14.4-3.6-21.9c0.9-1.4,1.8-2.5,2.5-3.6l3.3-4.4
		c-6.5-2.9-15.1-4.2-24.5,1.3C215.1,177.3,215.1,274.4,215.2,390.9L215.2,390.9z M128.8,99.5c-2.8,0-5.5,0.4-7.4,1.2
		c-3.9,1.6-6.8,5.1-9.5,11.2c-2.8,6.6-7.8,10.5-15,11.7c-4.8,0.8-8.3,1.8-11,3.2c-10.3,5.2-16.6,14.3-20.1,29.7
		c-2.4,10.3-2.2,21.1-2,32.5c0.1,4.2-1.1,8-2.1,10.5c-1,2.5-2.1,4.9-3.2,7.3c-1.3,2.8-2.5,5.4-3.4,8c-6.9,18.6-1.2,37.6,14.6,49.6
		c10,7.5,13.4,10.7,11.7,22.1c-0.2,1.2-0.4,2.8-0.6,4.7c-1.3,13.7,1.3,23.9,8.2,32.1c3,3.6,7,6.5,12.9,9.4
		c8.3,4.1,11.5,10.6,9.6,19.9c-0.6,2.8-0.9,5-1.2,7.1c-0.8,6.9,2.3,11.7,8.5,13.1c7.9,1.8,13.8,6.1,18.3,13c5,7.9,11.4,14.3,19,19
		c6.5,4.1,11.9,3.6,17-1.5c3.4-3.4,6.4-7.6,9.1-11.6c0-0.1,0.2-0.6,0.2-1.1c0.1-42.6,0.1-85.3,0.1-127.9l0-159.9l0-5.2
		c0-3.9,0-7.9,0-11.8c-6.6-3.9-13.1-4.7-20.2-2.7c-5.8,1.7-11.3,5.1-16.8,10.4c-5.6,5.4-11.8,6.1-16.5,6.1
		C129,99.5,128.9,99.5,128.8,99.5z M109.9,403.8L109.9,403.8L109.9,403.8z M348.7,289.3L348.7,289.3L348.7,289.3z M349.1,288.2
		C349.1,288.2,349.1,288.2,349.1,288.2C349.1,288.2,349.1,288.2,349.1,288.2z M286.2,257.7C286.2,257.7,286.2,257.7,286.2,257.7
		C286.2,257.7,286.2,257.7,286.2,257.7z M303.6,124.2C303.6,124.2,303.6,124.2,303.6,124.2C303.6,124.2,303.6,124.2,303.6,124.2z
		 M268.7,99.3L268.7,99.3L268.7,99.3z M269,99.1L269,99.1L269,99.1z M182.6,83.1C182.6,83.1,182.6,83.2,182.6,83.1
		C182.6,83.2,182.6,83.1,182.6,83.1z"/>
</g>
<g>
	<path class="st1" d="M192.6,237.4c0,51,0,102.1-0.1,153.1c0,2.3-0.7,4.9-1.9,6.7c-3.1,4.5-6.4,9.1-10.3,13
		c-8.6,8.5-19.1,9.3-29.3,2.9c-9-5.7-16.4-13.2-22.1-22.1c-3-4.7-6.6-7.4-12.1-8.7c-11.3-2.6-17.5-12.2-16.2-23.9
		c0.3-2.6,0.8-5.2,1.3-7.8c1-4.8,0.2-6.9-4.3-9.1c-6.1-3-11.8-6.6-16.2-11.9c-9.6-11.5-11.8-25.1-10.4-39.4
		c1.1-11.7,3.4-9.9-7.2-17.9c-19.5-14.7-26.4-38.1-18-61c1.9-5.3,4.7-10.3,6.8-15.5c0.8-2,1.4-4.4,1.3-6.6
		c-0.2-11.7-0.4-23.4,2.2-34.9c3.6-15.5,10.5-28.9,25.4-36.3c4.2-2.1,9.1-3.3,13.8-4.1c3.8-0.6,6-2.4,7.5-5.8
		c3.1-7.2,7.4-13.5,14.8-16.5c3.5-1.5,7.7-2,11.5-2c3.7,0,6.7-0.5,9.5-3.2c6-5.9,12.8-10.5,21.1-12.9c11.2-3.2,21.5-0.9,30.9,5.6
		c1,0.7,1.9,2.5,1.9,3.8c0.2,6.6,0.1,13.3,0.1,19.9C192.6,147.6,192.6,192.5,192.6,237.4z"/>
</g>
<g>
	<path class="st1" d="M326.7,292.5c2.2,18-4.7,37.5-22.6,47.1c-1.4,0.7-2.8,1.4-4.2,2.1c-4,2.2-4.6,4.1-4,8.6
		c0.6,4.7,1.4,9.6,1,14.3c-0.7,9.6-6.5,15.5-15.5,17.7c-5.7,1.4-9.5,4.2-12.6,9.1c-5.6,8.7-12.7,16-21.5,21.6
		c-10.4,6.6-21,5.9-29.6-2.8c-4.3-4.3-7.7-9.5-11.3-14.5c-0.9-1.2-1.1-3.2-1.1-4.8c-0.1-102.5-0.1-205,0-307.4
		c0-1.5,0.9-3.6,2.1-4.5c15.1-10.5,32.1-8.6,45.9,2.2c0.2,0.1,0.2,0.4,0.5,1C250.9,86,248,90,245,93.9c-0.9,1.3-1.9,2.5-2.8,3.8
		c-2,3.2-1.5,6.6,1.3,8.7c2.6,2,6.3,1.5,8.7-1.4c2.8-3.5,5.6-7,8-10.7c2.2-3.5,4.9-4.9,9-5.1c9.3-0.5,19.9,5.9,23.3,14.4
		c-5,3.3-10.1,6.2-14.7,9.8c-10.4,8.2-16.2,19.2-18.4,32.2c-0.2,1.2-0.2,2.4-0.2,3.6c0.1,3.7,2.2,6.1,5.6,6.3c3.5,0.2,6-1.6,6.5-5.3
		c0.9-7.1,3.1-13.6,7.2-19.4c5.7-8,13.3-13.4,22.5-16.2c3.3-1,7.7,0.3,11.2,1.5c12.1,4.3,20,13.1,25.1,24.6c5.9,13.1,7.3,27,6.7,41
		c-0.3,7.3,0.9,13.8,4.3,20.4c6.3,12.3,9.1,25.4,6.1,39.2c-3.1,14.9-12.3,25.7-24.6,34c-5.1,3.4-10.4,6.7-16,9.1
		c-9.3,3.9-18.1,1.6-24.9-5.5c-4.4-4.5-7.5-10.3-11.1-15.5c-0.7-1.1-1.1-2.5-1.9-3.5c-2-2.5-4.7-2.9-7.5-1.6
		c-2.8,1.3-4.3,3.9-3.1,6.9c6.3,15.6,15.6,28.4,33.1,32.5c8,1.9,15.8,0.4,23.2-3C323.4,294,325,293.2,326.7,292.5z"/>
	<path class="st0" d="M233.5,419.7c-6.3,0-12.2-2.6-17.4-7.9c-3.7-3.7-6.7-8-9.7-12.2l-1.8-2.6c-1.3-1.8-1.6-4.3-1.6-6.1
		c-0.1-117.5,0-215.2,0-307.4c0-2,1.1-4.9,3.1-6.3c15.2-10.5,33.3-9.7,48.5,2.3c0.6,0.4,0.8,1,0.9,1.4c0,0.1,0.1,0.3,0.2,0.4
		l0.6,1.2L246,96.3c-0.7,0.9-1.3,1.7-1.9,2.6c-1.4,2.2-1.1,4.4,0.7,5.8c1.7,1.3,4,0.9,5.6-1l0.5-0.6c2.6-3.2,5.2-6.5,7.4-9.9
		c2.5-4,5.8-5.9,10.8-6.1c10.3-0.5,21.8,6.6,25.4,15.8l0.7,1.7l-1.5,1c-1.6,1-3.1,2-4.7,3c-3.5,2.2-6.8,4.2-9.9,6.7
		c-9.5,7.4-15.4,17.8-17.6,30.8c-0.2,1-0.2,2.1-0.2,3.2c0,1.5,0.5,4,3.5,4.2c1.7,0.1,3.8-0.4,4.2-3.4c1.1-8,3.5-14.7,7.6-20.4
		c5.9-8.4,13.9-14.1,23.7-17c3.9-1.2,8.8,0.2,12.5,1.5c11.7,4.1,20.6,12.8,26.4,25.7c5.4,11.9,7.6,25.7,6.9,42
		c-0.3,7.2,0.9,13.1,4.1,19.3c7,13.7,9.2,27.4,6.3,40.7c-3,14.3-11.3,25.8-25.5,35.4c-5,3.4-10.4,6.8-16.4,9.3
		c-9.9,4.1-19.6,2-27.3-6c-3.2-3.4-5.8-7.3-8.3-11.2c-1-1.5-2-3.1-3-4.6c-0.5-0.7-0.8-1.3-1-1.9c-0.3-0.5-0.5-1.1-0.8-1.4
		c-1.3-1.6-2.9-1.9-4.8-1c-0.9,0.4-3,1.7-2,4.1c7.4,18.2,17.1,27.8,31.6,31.2c6.8,1.6,13.9,0.7,21.8-2.8l7.7-3.4l0.4,3
		c2.6,20.8-6.7,40.2-23.7,49.3c-0.7,0.4-1.3,0.7-2,1c-0.7,0.4-1.5,0.7-2.2,1.1c-3,1.6-3.4,2.6-2.9,6.3l0.1,0.6
		c0.6,4.6,1.3,9.4,1,14.1c-0.7,10.2-6.8,17.2-17.2,19.7c-5.1,1.2-8.4,3.6-11.3,8.1c-5.9,9.2-13.3,16.7-22.2,22.3
		C243.4,418.1,238.4,419.7,233.5,419.7z M228.6,74.2c-6.8,0-13.6,2.2-20,6.6c-0.5,0.3-1.2,1.7-1.2,2.7c-0.1,92.2-0.1,189.9,0,307.4
		c0,1.6,0.3,2.9,0.7,3.5c0.6,0.9,1.2,1.7,1.8,2.6c2.9,4,5.8,8.2,9.2,11.7c7.8,7.8,17.1,8.7,26.9,2.5c8.3-5.3,15.3-12.3,20.9-20.9
		c3.5-5.5,7.8-8.6,14-10c5.9-1.4,13.1-5.3,13.8-15.7c0.3-4.3-0.3-8.8-0.9-13.2l-0.1-0.6c-0.7-4.8,0-7.9,5.1-10.8
		c0.8-0.4,1.6-0.8,2.3-1.2c0.6-0.3,1.2-0.6,1.9-0.9c14.6-7.8,22.9-24,21.7-41.9l-2.1,0.9c-8.8,3.9-16.9,5-24.7,3.1
		c-20.7-4.9-29.7-21.7-34.6-33.8c-1.6-3.8,0.1-7.7,4.2-9.7c3.8-1.8,7.6-1,10.2,2.2c0.6,0.8,1,1.6,1.3,2.3c0.2,0.5,0.4,0.9,0.7,1.3
		c1.1,1.5,2.1,3.1,3.1,4.7c2.5,3.8,4.8,7.5,7.8,10.5c6.4,6.7,14.2,8.4,22.4,5c5.6-2.3,10.8-5.6,15.6-8.9
		c13.1-8.8,20.9-19.5,23.6-32.6c2.6-12.3,0.6-25-6-37.8c-3.5-6.7-4.9-13.6-4.6-21.5c0.7-15.6-1.4-28.7-6.5-40
		c-5.4-12-13.2-19.6-23.9-23.4c-2.9-1-7.1-2.3-9.8-1.5c-8.8,2.6-16,7.8-21.3,15.3c-3.6,5.1-5.9,11.2-6.8,18.4
		c-0.6,4.7-4.1,7.6-8.9,7.3c-4.5-0.3-7.5-3.6-7.6-8.5c0-1.2,0-2.6,0.2-4c2.4-14.1,8.9-25.4,19.2-33.6c3.3-2.6,6.8-4.8,10.2-6.9
		c1-0.6,2-1.3,3-1.9c-3.6-6.7-12.5-11.8-20.3-11.4c-3.6,0.2-5.5,1.3-7.3,4c-2.3,3.7-5,7.1-7.7,10.4l-0.5,0.6
		c-3.1,3.8-8.1,4.6-11.7,1.8c-3.7-2.8-4.4-7.5-1.8-11.6c0.7-1.1,1.4-2,2.1-3l8.5-11.3C243.8,76.9,236.2,74.2,228.6,74.2z"/>
</g>
<g>
	<path class="st1" d="M238.9,173.7c1.1,2,2.5,4.2,3.6,6.6c3.9,8.4,7.2,17.1,11.6,25.3c9.7,18.1,24.2,29.4,45.6,28.9
		c7.7-0.2,15.5-1.9,23.2-3.3c3.2-0.6,5.2-2.9,5-6.6c-0.2-3.2-2.3-5.1-5.3-5.5c-1.5-0.2-3.1,0.3-4.6,0.6c-4.5,0.8-9,2.1-13.5,2.4
		c-14.9,1-27.1-3.6-35.8-16.5c-6.5-9.7-10.8-20.4-15.1-31.1c-2-4.9-4.5-9.5-9.5-11.8c-2.3-1.1-2.3-2.3-1.9-4.5
		c1.4-9.4,2.8-18.8,3.7-28.3c0.6-6-1.7-9.2-5.9-9.5c-4-0.2-6.4,3-6.6,9c-1.1,22.6-5.7,44.2-19.3,63c-1,1.4-1.8,3.9-1.2,5.3
		c0.7,1.9,2.5,3.9,4.4,4.7c2.9,1.1,5.5-0.5,7.1-3.1C229,191,233.7,182.7,238.9,173.7z"/>
</g>
<g>
	<path class="st0" d="M256.4,304.9c-0.7-3.7-1.3-7.4-2.2-11c-3.1-12-9.7-22-18.5-30.6c-2.5-2.5-6.2-2.4-8.5-0.3
		c-2.4,2.1-2.7,5.7-0.6,8.5c0.9,1.2,1.9,2.1,2.9,3.2c9,10.5,15.1,22.1,14.1,36.4c-0.1,1.6-0.9,3.5-2,4.8c-6.8,7.7-11.8,16.4-15.5,26
		c-1.8,4.6-0.7,7.9,3,9.4c3.5,1.4,6.4-0.2,8.4-4.6c2.3-4.8,4.4-9.7,7.2-14.2c5.5-8.8,12.1-16.3,23.6-17c3.2-0.2,5.5-3.4,5.3-6.3
		c-0.2-3.3-2.8-5.8-6.3-5.7C263.8,303.7,260.2,304.4,256.4,304.9z"/>
	<path class="st0" d="M231.2,263.6c-0.9,0-1.9,0.3-2.6,1c-1.6,1.4-1.7,3.7-0.3,5.6c0.5,0.6,1,1.2,1.6,1.8c0.4,0.4,0.8,0.8,1.2,1.3
		c10.9,12.6,15.5,24.7,14.6,38c-0.1,2.1-1.1,4.4-2.6,6.1c-6.4,7.2-11.3,15.5-15,25.3c-1.9,5,0.8,6.2,1.8,6.6c1,0.4,3.3,1.3,5.6-3.5
		l1.2-2.6c1.8-3.9,3.7-8,6.1-11.8c5.3-8.5,12.4-17.2,25.4-18c0.8,0,1.6-0.5,2.2-1.1c0.7-0.8,1.1-1.9,1-2.8c-0.1-2.2-1.8-3.7-4-3.6
		c-2.4,0.1-4.7,0.4-7.3,0.8c-1.2,0.2-2.3,0.3-3.6,0.5l-2,0.2l-0.4-2c-0.2-1.2-0.5-2.4-0.7-3.5c-0.5-2.5-0.9-4.9-1.5-7.3
		c-2.8-10.8-8.6-20.5-17.9-29.6C233.3,264.1,232.3,263.6,231.2,263.6z"/>
</g>
<g>
	<path class="st1" d="M237.7,226.8c-6.9,0-12.4,5.4-12.5,12.3c-0.1,7.1,5.4,12.7,12.4,12.7c6.8,0,12.5-5.5,12.6-12.3
		C250.3,232.6,244.6,226.8,237.7,226.8z"/>
</g>
<g>
	<path class="st1" d="M308.5,143.4c-7,0-12.3,5.4-12.3,12.3c0,7,5.8,12.7,12.6,12.6c6.9-0.2,12.4-5.7,12.4-12.5
		C321.2,148.7,315.7,143.3,308.5,143.4z"/>
</g>
<g>
	<path d="M238.9,173.7c-5.2,8.9-9.9,17.3-14.8,25.5c-1.5,2.6-4.2,4.2-7.1,3.1c-1.8-0.7-3.7-2.8-4.4-4.7c-0.5-1.4,0.2-3.9,1.2-5.3
		c13.6-18.8,18.2-40.4,19.3-63c0.3-6,2.6-9.2,6.6-9c4.2,0.3,6.5,3.5,5.9,9.5c-1,9.5-2.3,18.9-3.7,28.3c-0.3,2.2-0.4,3.4,1.9,4.5
		c5,2.3,7.5,6.9,9.5,11.8c4.3,10.7,8.6,21.4,15.1,31.1c8.7,13,21,17.5,35.8,16.5c4.5-0.3,9-1.6,13.5-2.4c1.5-0.3,3.1-0.8,4.6-0.6
		c3,0.5,5,2.3,5.3,5.5c0.3,3.6-1.7,6-5,6.6c-7.7,1.4-15.4,3.1-23.2,3.3c-21.4,0.5-35.9-10.7-45.6-28.9c-4.4-8.2-7.7-16.9-11.6-25.3
		C241.4,178,240,175.8,238.9,173.7z"/>
</g>
<g>
	<path d="M237.7,226.8c6.9,0,12.6,5.8,12.5,12.7c-0.1,6.7-5.8,12.3-12.6,12.3c-7,0-12.5-5.6-12.4-12.7
		C225.2,232.2,230.8,226.8,237.7,226.8z"/>
</g>
<g>
	<path d="M308.5,143.4c7.2,0,12.7,5.4,12.7,12.4c0,6.8-5.5,12.3-12.4,12.5c-6.9,0.2-12.6-5.6-12.6-12.6
		C296.2,148.8,301.5,143.4,308.5,143.4z"/>
</g>
<path d="M276.4,358.3c0,7.4-5.7,13.2-13,13.3c-7.3,0.1-13.6-6.2-13.5-13.4c0.1-7.2,6-13,13.4-12.9
	C270.8,345.3,276.4,350.8,276.4,358.3z"/>
</svg>
