<?xml version="1.0" encoding="utf-8"?>
<!-- Generator: Adobe Illustrator 22.0.1, SVG Export Plug-In . SVG Version: 6.00 Build 0)  -->
<svg version="1.1" id="Layer_1" xmlns="http://www.w3.org/2000/svg" xmlns:xlink="http://www.w3.org/1999/xlink" x="0px" y="0px"
	 viewBox="0 0 60 60" style="enable-background:new 0 0 60 60;" xml:space="preserve">
<style type="text/css">
	.st0{fill:#6959D1;}
	.st1{fill:#2E3774;}
	.st2{fill:url(#SVGID_1_);}
</style>
<g>
	<path class="st0" d="M18.1,52.3c0.1,0.3,0.4,0.6,0.9,0.6c0.5,0,0.8-0.2,0.8-0.6c0-0.3-0.2-0.5-0.7-0.6l-0.7-0.2
		c-0.7-0.2-1.1-0.5-1.1-1.2c0-0.8,0.6-1.3,1.6-1.3c1,0,1.5,0.6,1.6,1.2h-0.8c-0.1-0.3-0.3-0.6-0.8-0.6c-0.5,0-0.7,0.2-0.7,0.6
		c0,0.3,0.2,0.4,0.6,0.5l0.7,0.2c0.7,0.2,1.1,0.5,1.1,1.2c0,0.8-0.6,1.4-1.7,1.4c-1.1,0-1.6-0.6-1.6-1.3H18.1z"/>
	<path class="st0" d="M22.8,53.5v-4.4h0.9l1.2,2.9h0l1.2-2.9h0.8v4.4h-0.8v-2.9h0l-1,2.4h-0.5l-1-2.4h0v2.9H22.8z"/>
	<path class="st0" d="M28.8,53.5l1.4-4.4h1l1.4,4.4h-0.9l-0.3-1.1H30l-0.3,1.1H28.8z M30.7,49.9l-0.5,1.8h1.1L30.7,49.9L30.7,49.9z"
		/>
	<path class="st0" d="M37.7,50.5c0,0.6-0.4,1.1-0.8,1.2l0.8,1.8h-0.9l-0.7-1.6h-0.7v1.6h-0.8v-4.4h1.7
		C37.2,49.1,37.7,49.6,37.7,50.5z M36.1,51.2c0.5,0,0.8-0.2,0.8-0.7c0-0.5-0.3-0.7-0.7-0.7h-0.7v1.4H36.1z"/>
	<path class="st0" d="M40.7,53.5v-3.7h-1.2v-0.7h3.2v0.7h-1.2v3.7H40.7z"/>
</g>
<g>
	<g>
		<path class="st1" d="M17.3,54.7h1.8c0.8,0,1.3,0.4,1.3,1.1c0,0.5-0.3,0.9-0.7,1v0c0.5,0.1,1,0.4,1,1.1c0,0.8-0.6,1.3-1.5,1.3h-1.8
			V54.7z M18.2,56.6h0.6c0.6,0,0.8-0.2,0.8-0.6c0-0.4-0.2-0.6-0.6-0.6h-0.8V56.6z M18.2,58.5h0.6c0.7,0,0.9-0.2,0.9-0.6
			c0-0.4-0.3-0.7-0.8-0.7h-0.8V58.5z"/>
		<path class="st1" d="M23.4,59.3c-1.2,0-1.8-0.8-1.8-2v-0.6c0-1.3,0.7-2,1.8-2c1.2,0,1.8,0.8,1.8,2v0.6
			C25.3,58.5,24.6,59.3,23.4,59.3z M23.4,55.4c-0.6,0-1,0.4-1,1.3v0.6c0,0.9,0.4,1.3,1,1.3c0.6,0,1-0.4,1-1.3v-0.6
			C24.4,55.8,24,55.4,23.4,55.4z"/>
		<path class="st1" d="M29.1,57.6v-2.8h0.9v2.9c0,1-0.7,1.6-1.7,1.6c-1.1,0-1.7-0.6-1.7-1.6v-2.9h0.9v2.8c0,0.6,0.4,1,0.9,1
			C28.7,58.5,29.1,58.2,29.1,57.6z"/>
		<path class="st1" d="M34.5,56.1c0,0.7-0.4,1.1-0.8,1.3l0.9,1.8h-1l-0.8-1.7h-0.8v1.7h-0.8v-4.5H33C34,54.7,34.5,55.3,34.5,56.1z
			 M32.9,56.9c0.5,0,0.8-0.2,0.8-0.7c0-0.5-0.3-0.7-0.8-0.7h-0.8v1.4H32.9z"/>
		<path class="st1" d="M36.3,58c0.1,0.3,0.4,0.6,0.9,0.6c0.5,0,0.8-0.3,0.8-0.6c0-0.3-0.2-0.5-0.7-0.6l-0.7-0.2
			c-0.7-0.2-1.1-0.6-1.1-1.2c0-0.8,0.7-1.3,1.6-1.3c1,0,1.6,0.6,1.6,1.3H38c-0.1-0.3-0.3-0.6-0.8-0.6c-0.5,0-0.8,0.3-0.8,0.6
			c0,0.3,0.2,0.4,0.6,0.5l0.7,0.2c0.7,0.2,1.2,0.5,1.2,1.3c0,0.8-0.6,1.4-1.7,1.4c-1.1,0-1.6-0.6-1.7-1.3H36.3z"/>
		<path class="st1" d="M42.8,59.2H40v-4.5h2.8v0.7h-1.9v1.1h1.8v0.7h-1.8v1.2h1.9V59.2z"/>
	</g>
</g>
<g>
	<linearGradient id="SVGID_1_" gradientUnits="userSpaceOnUse" x1="30.0412" y1="33.2357" x2="30.3634" y2="9.2802">
		<stop  offset="0" style="stop-color:#6758CF"/>
		<stop  offset="0.2722" style="stop-color:#6F5CD1"/>
		<stop  offset="0.685" style="stop-color:#8468D7"/>
		<stop  offset="0.9836" style="stop-color:#9773DD"/>
	</linearGradient>
	<path class="st2" d="M43.1,13.7c0-7.1-5.8-12.9-12.9-12.9c-7.1,0-12.9,5.8-12.9,12.9c0,6.8,5.3,12.4,12,12.9c0,0,0,0,0,0s0,0,0.1,0
		c0.1,0,0.1,0,0.2,0c0.1,0,0.2,0,0.3,0c0,0,0,0,0,0c0.8,0.1,2.3,0.2,3.3,0.8c1.4,0.9,2.4,2.4,2.6,4.2c0.3,3-1.8,5.8-4.9,6.3
		c-0.3,0-0.5,0.1-0.8,0.1c0,0,0,0,0,0c-3.2,0-5.7-2.6-5.7-5.7c0,0,0-0.1,0-0.1h0l0.1-2.1L20.8,27l-3,2.8l-0.6,1
		c-0.2,0.7,0.1,2.9,0.1,2.9l0,0c0.7,6.5,6.2,11.5,12.8,11.5c7.1,0,12.9-5.8,12.9-12.9c0-3.6-1.5-6.9-3.9-9.3
		C41.6,20.7,43.1,17.4,43.1,13.7 M30.2,19.5c-3.1,0-5.7-2.6-5.7-5.7c0-3.1,2.6-5.7,5.7-5.7c3.1,0,5.7,2.6,5.7,5.7
		C35.9,17,33.4,19.5,30.2,19.5"/>
	<path class="st1" d="M35.9,14.1c0,0,0,0.1,0,0.1c-0.1,1.3-0.6,2.4-1.4,3.3c-0.7,0.8-1.7,1.5-3.1,1.8c0,0,4.6,0.5,7.7,3.6
		c0,0,0,0,0,0c2.4-2.3,3.9-5.6,3.9-9.3c0-0.2,0-0.4,0-0.6c0-0.2,0-0.3,0-0.5c0,0,0,0,0,0c0-0.4-0.1-0.9-0.2-1.3c0,0-0.1-0.9-0.6-2.1
		c-1.6-4.2-5.3-7.4-9.9-8.1c-0.2,0-0.4-0.1-0.5-0.1c0,0-0.1,0-0.1,0C32,1,37.1,2.5,35.9,14.1"/>
	<path class="st1" d="M24.4,31.1h1.2l-4.8-4.4L16,31.1h1.2C17,33.9,18,36.5,18,36.5c3.3,8.7,11.4,8.7,11.4,8.7
		C24.2,42.6,24.3,33,24.4,31.1z"/>
</g>
</svg>
