<?xml version="1.0" encoding="iso-8859-1"?>
<!-- Generator: Adobe Illustrator 16.0.0, SVG Export Plug-In . SVG Version: 6.00 Build 0)  -->
<!DOCTYPE svg PUBLIC "-//W3C//DTD SVG 1.1//EN" "http://www.w3.org/Graphics/SVG/1.1/DTD/svg11.dtd">
<svg version="1.1" id="Capa_1" xmlns="http://www.w3.org/2000/svg" xmlns:xlink="http://www.w3.org/1999/xlink" x="0px" y="0px"
	 width="113.5px" height="113.5px" viewBox="0 0 113.5 113.5" style="enable-background:new 0 0 113.5 113.5;" xml:space="preserve"
	>
<g>
	<g>
		<path d="M103.75,9.766c0-0.828-0.671-1.5-1.5-1.5H81.916c-0.828,0-1.5,0.672-1.5,1.5v14.634V45.94l23.334-27.355V9.766z"/>
		<path d="M80.416,89.1v14.635c0,0.828,0.672,1.5,1.5,1.5h20.334c0.829,0,1.5-0.672,1.5-1.5V76.053v-4.605V33.995L80.416,61.352
			V89.1z"/>
		<path d="M44.083,83.795v9.459v10.479c0,0.828,0.671,1.5,1.5,1.5h20.334c0.828,0,1.5-0.672,1.5-1.5v-7.301V67.016l-10.062-2.939
			L44.083,83.795z"/>
		<path d="M56.652,53.451l10.765,3.146V40.565v-7.301c0-0.828-0.672-1.5-1.5-1.5H45.583c-0.829,0-1.5,0.672-1.5,1.5v10.48v22.14
			l7.019-10.428C52.317,53.649,54.562,52.839,56.652,53.451z"/>
		<path d="M24.888,64.899l8.196,7.904v-9.712V50.766c0-0.828-0.672-1.5-1.5-1.5H11.25c-0.829,0-1.5,0.672-1.5,1.5v15.67v5.18
			l8.493-6.979C20.203,63.023,23.061,63.139,24.888,64.899z"/>
		<path d="M9.75,84.559v3.506v15.67c0,0.828,0.671,1.5,1.5,1.5h20.334c0.828,0,1.5-0.672,1.5-1.5V86.697L21.15,75.188L9.75,84.559z"
			/>
		<path d="M112.623,16.585c-1.049-0.895-2.628-0.771-3.524,0.28L71.648,60.77l-15.446-4.516c-1.046-0.309-2.168,0.1-2.775,1.004
			L37.589,80.785L23.401,67.104c-0.913-0.881-2.341-0.938-3.323-0.132L0.913,82.723c-1.066,0.877-1.221,2.451-0.344,3.52
			c0.495,0.602,1.211,0.912,1.933,0.912c0.559,0,1.121-0.188,1.586-0.568L21.535,72.25l14.73,14.205
			c0.532,0.512,1.259,0.76,1.999,0.687c0.735-0.078,1.397-0.478,1.81-1.091l16.479-24.483l15.245,4.457
			c0.944,0.272,1.964-0.026,2.604-0.776l38.5-45.137C113.798,19.061,113.673,17.481,112.623,16.585z"/>
	</g>
</g>
<g>
</g>
<g>
</g>
<g>
</g>
<g>
</g>
<g>
</g>
<g>
</g>
<g>
</g>
<g>
</g>
<g>
</g>
<g>
</g>
<g>
</g>
<g>
</g>
<g>
</g>
<g>
</g>
<g>
</g>
</svg>
