<?xml version="1.0" standalone="no"?>
<!DOCTYPE svg PUBLIC "-//W3C//DTD SVG 1.1//EN" "http://www.w3.org/Graphics/SVG/1.1/DTD/svg11.dtd" >
<svg xmlns="http://www.w3.org/2000/svg" xmlns:xlink="http://www.w3.org/1999/xlink" version="1.1">
<metadata>
Created by FontForge 20170924 at Sat Jan  6 08:18:23 2018
 By www-data
Copyright (c) 2015 by 29Letters / 29LT. All rights reserved.
</metadata>
<defs>
<font id="29LTRavi-Medium" horiz-adv-x="0" >
  <font-face 
    font-family="29LT Ravi Medium"
    font-weight="500"
    font-stretch="normal"
    units-per-em="1000"
    panose-1="0 0 5 4 0 0 0 2 0 4"
    ascent="800"
    descent="-200"
    bbox="-2592 -579 2040 975"
    underline-thickness="50"
    underline-position="-100"
    unicode-range="U+000A-FFFC"
  />
<missing-glyph horiz-adv-x="563" 
d="M492 0h-421v662h421v-662zM143 583v-504h278v504h-278z" />
    <glyph glyph-name="la" unicode="&#xfedf;&#xfe8e;" horiz-adv-x="512" arabic-form="isolated" 
d="M440 250q0 -62 -22 -104.5t-66 -72.5t-110.5 -51t-155.5 -39l-20 86l86 21q-4 52 -14.5 121.5t-25 141.5t-32 141t-35.5 121l80 25q19 -61 35.5 -127.5t29 -134.5t21.5 -136.5t13 -132.5q37 12 63 24t42 26t23 32t7 41v455l81 4v-441z" />
    <glyph glyph-name="la.fina" unicode="&#xfee0;&#xfe8e;" horiz-adv-x="559" arabic-form="final" 
d="M559 0q-72 0 -114 22.5t-59 80.5q-35 -38 -106.5 -66.5t-193.5 -53.5l-20 86l86 21q-4 52 -14.5 121.5t-25 141.5t-32 141t-35.5 121l80 25q19 -61 35.5 -127.5t29 -134.5t21.5 -136.5t13 -132.5q37 12 63 24t42 26t23 32t7 41v455l81 4v-445q0 -47 6.5 -75t20.5 -43
t37 -20t55 -5v-103z" />
    <glyph glyph-name="la.aa" unicode="&#xfedf;&#xfe82;" horiz-adv-x="524" arabic-form="isolated" 
d="M158 90q-3 49 -11.5 109.5t-20.5 123.5t-27.5 125t-31.5 115l79 24q32 -115 54 -235t30 -243q37 12 63 24t42 26t23 32t7 41v455l82 4v-441q0 -62 -22 -104.5t-66.5 -72.5t-111 -51t-155.5 -39l-20 86zM282 686q-41 -7 -66 -8t-40 -1q-32 0 -62 4t-56 14l-31 -68l-55 25
l31 65q10 23 22.5 32.5t27.5 9.5q10 0 20.5 -2.5t25 -6t34 -6t47.5 -2.5q12 0 34.5 1t61.5 6z" />
    <glyph glyph-name="la.aa.fina" unicode="&#xfee0;&#xfe82;" horiz-adv-x="565" arabic-form="final" 
d="M158 90q-3 49 -11.5 109.5t-20.5 123.5t-27.5 125t-31.5 115l79 24q32 -115 54 -235t30 -243q37 12 63 24t42 26t23 32t7 41v455l82 4v-445q0 -47 6.5 -75t20.5 -43t36.5 -20t54.5 -5v-103q-72 0 -114 22.5t-59 80.5q-35 -38 -106.5 -66.5t-193.5 -53.5l-20 86zM282 686
q-41 -7 -66 -8t-40 -1q-32 0 -62 4t-56 14l-31 -68l-55 25l31 65q10 23 22.5 32.5t27.5 9.5q10 0 20.5 -2.5t25 -6t34 -6t47.5 -2.5q12 0 34.5 1t61.5 6z" />
    <glyph glyph-name="la.thmz" unicode="&#xfedf;&#xfe84;" horiz-adv-x="524" arabic-form="isolated" 
d="M158 90q-3 39 -9 85t-14.5 96t-19 102t-23.5 102l79 21q23 -99 38 -194.5t21 -192.5q37 12 63 24t42 26t23 32t7 41v455l82 4v-441q0 -62 -22 -104.5t-66.5 -72.5t-111 -51t-155.5 -39l-20 86zM17 662q0 46 31.5 71t76.5 25q23 0 54 -7l-12 -52q-18 5 -36 5
q-20 0 -39 -7.5t-33 -26.5q7 -19 22.5 -36t35.5 -28l105 50l21 -46l-245 -114l-21 46l85 39q-17 14 -31 35t-14 46z" />
    <glyph glyph-name="la.thmz.fina" unicode="&#xfee0;&#xfe84;" horiz-adv-x="565" arabic-form="final" 
d="M158 90q-3 39 -9 85t-14.5 96t-19 102t-23.5 102l79 21q23 -99 38 -194.5t20 -192.5q37 12 63 24t42.5 26t23.5 32t7 41v455l82 4v-445q0 -47 6.5 -75t20.5 -43t36.5 -20t54.5 -5v-103q-72 0 -114 22.5t-59 80.5q-35 -38 -106.5 -66.5t-193.5 -53.5l-20 86zM17 662
q0 46 31.5 71t76.5 25q23 0 54 -7l-12 -52q-18 5 -36 5q-20 0 -39 -7.5t-33 -26.5q7 -19 22.5 -36t35.5 -28l105 50l21 -46l-245 -114l-21 46l85 39q-17 14 -31 35t-14 46z" />
    <glyph glyph-name="la.bhmz" unicode="&#xfedf;&#xfe88;" horiz-adv-x="512" arabic-form="isolated" 
d="M440 250q0 -62 -22 -104.5t-66 -72.5t-110.5 -51t-155.5 -39l-20 86l86 21q-4 52 -14.5 121.5t-25 141.5t-32 141t-35.5 121l80 25q19 -61 35.5 -127.5t29 -134.5t21.5 -136.5t13 -132.5q37 12 63 24t42 26t23 32t7 41v455l81 4v-441zM70 -196q0 46 31.5 71t76.5 25
q23 0 54 -7l-12 -52q-18 5 -36 5q-20 0 -39 -7.5t-33 -26.5q7 -19 22.5 -36t35.5 -28l105 50l21 -46l-245 -114l-21 46l85 39q-17 14 -31 35t-14 46z" />
    <glyph glyph-name="la.bhmz.fina" unicode="&#xfee0;&#xfe88;" horiz-adv-x="559" arabic-form="final" 
d="M559 0q-72 0 -114 22.5t-59 80.5q-35 -38 -106.5 -66.5t-193.5 -53.5l-20 86l86 21q-4 52 -14.5 121.5t-25 141.5t-32 141t-35.5 121l80 25q19 -61 35.5 -127.5t29 -134.5t21.5 -136.5t13 -132.5q37 12 63 24t42 26t23 32t7 41v455l81 4v-445q0 -47 6.5 -75t20.5 -43
t37 -20t55 -5v-103zM70 -196q0 46 31.5 71t76.5 25q23 0 54 -7l-12 -52q-18 5 -36 5q-20 0 -39 -7.5t-33 -26.5q7 -19 22.5 -36t35.5 -28l105 50l21 -46l-245 -114l-21 46l85 39q-17 14 -31 35t-14 46z" />
    <glyph glyph-name="la.tvasla" unicode="&#xfedf;&#xfb51;" horiz-adv-x="524" 
d="M158 90q-3 39 -10 91t-17.5 108.5t-23 114t-25.5 107.5l79 21q12 -49 23.5 -103t20.5 -109t15.5 -109t9.5 -102q37 12 63 24t42 26t23 32t7 41v455l82 4v-441q0 -62 -22 -104.5t-66.5 -72.5t-111 -51t-155.5 -39l-20 86zM-49 618q25 44 42.5 56.5t31.5 12.5q13 0 21.5 -6
t22.5 -17q10 20 22.5 38.5t25.5 33t25.5 23.5t24.5 9q21 0 40 -9.5t34 -25t23.5 -34.5t8.5 -37q0 -14 -8.5 -30t-22.5 -21q-29 -12 -58 -16t-55 -4q-23 0 -40 7.5t-29.5 16.5t-21.5 16.5t-16 7.5q-8 0 -16.5 -9.5t-22.5 -31.5zM166 722q-17 -8 -34.5 -28.5t-31.5 -47.5
q5 -3 13 -5.5t18 -2.5q22 0 50.5 4t52.5 14q-4 21 -21 40t-47 26z" />
    <glyph glyph-name="la.tvasla.fina" unicode="&#xfee0;&#xfb51;" horiz-adv-x="565" 
d="M158 90q-3 39 -10 91t-17 108.5t-22.5 114t-25.5 107.5l78 21q13 -49 24 -103t20 -109t15.5 -109t9.5 -102q37 12 63 24t42 26t23 32t7 41v455l82 4v-445q0 -47 6.5 -75t20.5 -43t36.5 -20t54.5 -5v-103q-72 0 -114 22.5t-59 80.5q-35 -38 -106.5 -66.5t-193.5 -53.5
l-20 86zM-49 618q25 44 42.5 56.5t31.5 12.5q13 0 21.5 -6t22.5 -17q10 20 22.5 38.5t25.5 33t25.5 23.5t24.5 9q21 0 40 -9.5t34 -25t23.5 -34.5t8.5 -37q0 -14 -8.5 -30t-22.5 -21q-29 -12 -58 -16t-55 -4q-23 0 -40 7.5t-29.5 16.5t-21.5 16.5t-16 7.5q-8 0 -16.5 -9.5
t-22.5 -31.5zM166 722q-17 -8 -34.5 -28.5t-31.5 -47.5q5 -3 13 -5.5t18 -2.5q22 0 50.5 4t52.5 14q-4 21 -21 40t-47 26z" />
    <glyph glyph-name="lellah" unicode="&#xfedf;&#x650;&#xfee0;&#xfeea;" horiz-adv-x="1113" 
d="M1003 583q10 -47 19 -99.5t15.5 -104t10.5 -99.5t4 -87q0 -36 -11.5 -75.5t-48.5 -68.5q-26 -22 -62 -35.5t-86 -13.5q-49 0 -88.5 18.5t-57.5 60.5q-1 -2 -4 -7.5t-6.5 -11.5t-6.5 -11t-4 -6q-25 -17 -61.5 -30t-78.5 -13q-21 0 -44 2.5t-45 13.5t-42 33.5t-35 61.5
l-13 -41q-50 -18 -91.5 -25.5t-70.5 -7.5q-12 0 -27 1.5t-30 6t-28.5 12t-21.5 19.5q-15 19 -21.5 46.5t-6.5 50.5q0 47 19 87t49.5 72.5t69.5 56.5t79 38l-19 80l84 25l81 -325q6 -26 14 -45.5t20 -32t31 -19t48 -6.5q34 0 67 9.5t56 28.5q2 19 2 46v59v206h83v-223
q0 -40 7 -65t21.5 -38.5t36.5 -18.5t52 -5q25 0 53.5 9t50.5 29q-1 91 -11.5 198.5t-39.5 226.5zM301 349q-24 -8 -52 -22.5t-53 -35t-42 -47.5t-18 -58q0 -10 1 -21.5t3 -21.5q12 -8 28.5 -11t33.5 -3q27 0 65.5 7.5t83.5 25.5zM702 975q11 -30 17.5 -55.5t10.5 -50
t5 -49.5t1 -55h-44q0 28 -2.5 52.5t-7 47.5t-12 45.5t-16.5 46.5zM832 710q2 -25 4 -45.5t2 -36.5q0 -21 -4.5 -40.5t-19.5 -34.5q-25 -26 -51 -26q-14 0 -33 8t-38 24q-15 -19 -32.5 -25.5t-32.5 -6.5q-34 0 -57.5 23.5t-23.5 80.5q0 19 2 38t5 40l46 -4q-2 -20 -4 -37
t-2 -30q0 -54 35 -54q16 0 25 7.5t15 21.5q8 17 14 43.5t11 52.5l40 -9q-10 -56 -22 -95q9 -9 26.5 -15.5t25.5 -6.5q11 1 18.5 10t7.5 18q0 22 -1.5 46.5t-4.5 48.5z" />
    <glyph glyph-name="falellah" unicode="&#xfed3;&#x64e;&#xfee0;&#xfee0;&#xfeea;" horiz-adv-x="1694" 
d="M844 0q-49 0 -88.5 18.5t-57.5 60.5q-1 -2 -4 -7.5t-6.5 -11.5t-6.5 -11t-4 -6q-25 -17 -61.5 -30t-78.5 -13q-21 0 -44 2.5t-45 13.5t-42 33.5t-35 61.5l-13 -41q-50 -18 -91.5 -25.5t-70.5 -7.5q-12 0 -27 1.5t-30 6t-28.5 12t-21.5 19.5q-15 19 -21.5 46.5t-6.5 50.5
q0 47 19 87t49.5 72.5t69.5 56.5t79 38l-19 80l84 25l81 -325q6 -26 14 -45.5t20 -32t31 -19t48 -6.5q34 0 67 9.5t56 28.5q2 19 2 46v59v206h83v-223q0 -40 7 -65t21.5 -38.5t36.5 -18.5t52 -5q38 0 80 10.5t65 29.5q2 19 2.5 45.5t0.5 58.5v335h82v-346q0 -43 7 -69
t22 -40.5t37.5 -19t52.5 -4.5q44 0 89.5 1.5t89 6t84.5 12t76 20.5q3 37 3 72q-35 -7 -69 -11.5t-75 -4.5q-72 0 -106 32t-34 101q0 39 12 78t34 69.5t52 50t65 19.5q41 0 77.5 -19.5t64 -58.5t43.5 -97.5t16 -135.5q0 -7 -0.5 -19t-1.5 -25.5t-2.5 -26t-2.5 -20.5
q-7 -36 -25 -64t-44 -39q-67 -26 -158 -35t-188 -9q-64 0 -104.5 17t-60.5 62q-2 -3 -5 -8.5t-6.5 -11t-6 -10.5t-3.5 -6q-13 -9 -29 -16.5t-37.5 -13.5t-49.5 -9.5t-65 -3.5zM1428 454q-17 0 -32.5 -9.5t-27.5 -25.5t-19 -37t-7 -45q0 -12 2 -21.5t10.5 -15.5t25.5 -9.5
t47 -3.5q28 0 60.5 4t59.5 10q-3 27 -11.5 54.5t-23.5 49.5t-36 35.5t-48 13.5zM301 349q-24 -8 -52 -22.5t-53 -35t-42 -47.5t-18 -58q0 -10 1 -21.5t3 -21.5q12 -8 28.5 -11t33.5 -3q27 0 65.5 7.5t83.5 25.5zM832 711q2 -26 4 -46.5t2 -36.5q0 -21 -4.5 -40.5
t-19.5 -34.5q-25 -26 -51 -26q-14 0 -33 8t-38 24q-16 -19 -33 -25.5t-32 -6.5q-34 0 -57.5 23.5t-23.5 80.5q0 19 2 38t4 40l47 -4q-2 -20 -4 -36.5t-2 -30.5q0 -54 35 -54q16 0 25 7.5t15 21.5q8 17 14 43.5t11 52.5l40 -9q-10 -58 -22 -94q9 -10 26.5 -16.5t25.5 -6.5
q11 2 18.5 10.5t7.5 17.5q0 22 -1.5 46.5t-4.5 48.5zM702 975q11 -30 18 -55.5t10.5 -50t4.5 -49.5t1 -55h-44q0 28 -2.5 52.5t-7 47.5t-11.5 45.5t-17 46.5zM1488 697l-63 -63l-63 63l63 64z" />
    <glyph glyph-name="fi" unicode="&#xfed3;&#xfbfd;" horiz-adv-x="896" arabic-form="isolated" 
d="M312 -261q-54 0 -98.5 14t-76 42.5t-48.5 71t-17 99.5q0 36 7.5 76.5t20 83.5t29 87.5t33.5 89.5l64 -24q-14 -38 -28.5 -79t-25.5 -80t-18 -73.5t-7 -60.5q0 -38 13.5 -65.5t38 -44.5t57.5 -25t72 -8q24 0 53.5 5t60.5 16t61.5 30t56.5 47q-9 18 -22 29.5t-37 18.5
t-62 10t-98 3l26 101h65q108 1 183.5 8.5t135.5 29.5q2 19 2.5 38t0.5 36q-34 -7 -68.5 -11.5t-74.5 -4.5q-72 0 -106 32t-34 101q0 39 12 78t34 69.5t52 50t65 19.5q41 0 77.5 -19.5t63.5 -58.5t43 -97.5t16 -135.5q0 -71 -16 -112.5t-45 -64.5t-69.5 -33.5t-88.5 -18.5
q17 -28 17 -51q0 -42 -28.5 -81.5t-74 -70t-103 -49t-114.5 -18.5zM630 454q-17 0 -32.5 -9.5t-27.5 -25.5t-19.5 -37t-7.5 -45q0 -12 2.5 -21.5t10.5 -15.5t25 -9.5t47 -3.5q28 0 60.5 4t59.5 10q-3 27 -11.5 54.5t-23 49.5t-35.5 35.5t-48 13.5zM701 697l-63 -63l-63 63
l63 64z" />
    <glyph glyph-name="qi" unicode="&#xfed7;&#xfbfd;" horiz-adv-x="896" arabic-form="isolated" 
d="M312 -261q-54 0 -98.5 14t-76 42.5t-48.5 71t-17 99.5q0 36 7.5 76.5t20 83.5t29 87.5t33.5 89.5l64 -24q-14 -38 -28.5 -79t-25.5 -80t-18 -73.5t-7 -60.5q0 -38 13.5 -65.5t38 -44.5t57.5 -25t72 -8q24 0 53.5 5t60.5 16t61.5 30t56.5 47q-9 18 -22 29.5t-37 18.5
t-62 10t-98 3l26 101h65q108 1 183.5 8.5t135.5 29.5q2 19 2.5 38t0.5 36q-34 -7 -68.5 -11.5t-74.5 -4.5q-72 0 -106 32t-34 101q0 39 12 78t34 69.5t52 50t65 19.5q41 0 77.5 -19.5t63.5 -58.5t43 -97.5t16 -135.5q0 -71 -16 -112.5t-45 -64.5t-69.5 -33.5t-88.5 -18.5
q17 -28 17 -51q0 -42 -28.5 -81.5t-74 -70t-103 -49t-114.5 -18.5zM630 454q-17 0 -32.5 -9.5t-27.5 -25.5t-19.5 -37t-7.5 -45q0 -12 2.5 -21.5t10.5 -15.5t25 -9.5t47 -3.5q28 0 60.5 4t59.5 10q-3 27 -11.5 54.5t-23 49.5t-35.5 35.5t-48 13.5zM766 697l-63 -63l-63 63
l63 64zM630 697l-63 -63l-63 63l63 64z" />
    <glyph glyph-name="vi" unicode="&#xfb6c;&#xfbfd;" horiz-adv-x="896" 
d="M312 -261q-54 0 -98.5 14t-76 42.5t-48.5 71t-17 99.5q0 36 7.5 76.5t20 83.5t29 87.5t33.5 89.5l64 -24q-14 -38 -28.5 -79t-25.5 -80t-18 -73.5t-7 -60.5q0 -38 13.5 -65.5t38 -44.5t57.5 -25t72 -8q24 0 53.5 5t60.5 16t61.5 30t56.5 47q-9 18 -22 29.5t-37 18.5
t-62 10t-98 3l26 101h65q108 1 183.5 8.5t135.5 29.5q2 19 2.5 38t0.5 36q-34 -7 -68.5 -11.5t-74.5 -4.5q-72 0 -106 32t-34 101q0 39 12 78t34 69.5t52 50t65 19.5q41 0 77.5 -19.5t63.5 -58.5t43 -97.5t16 -135.5q0 -71 -16 -112.5t-45 -64.5t-69.5 -33.5t-88.5 -18.5
q17 -28 17 -51q0 -42 -28.5 -81.5t-74 -70t-103 -49t-114.5 -18.5zM630 454q-17 0 -32.5 -9.5t-27.5 -25.5t-19.5 -37t-7.5 -45q0 -12 2.5 -21.5t10.5 -15.5t25 -9.5t47 -3.5q28 0 60.5 4t59.5 10q-3 27 -11.5 54.5t-23 49.5t-35.5 35.5t-48 13.5zM698 830l-63 -63l-63 63
l63 64zM766 697l-63 -63l-63 63l63 64zM630 697l-63 -63l-63 63l63 64z" />
    <glyph glyph-name="fi.arab" unicode="&#xfed3;&#xfef2;" horiz-adv-x="896" arabic-form="isolated" 
d="M312 -261q-54 0 -98.5 14t-76 42.5t-48.5 71t-17 99.5q0 36 7.5 76.5t20 83.5t29 87.5t33.5 89.5l64 -24q-14 -38 -28.5 -79t-25.5 -80t-18 -73.5t-7 -60.5q0 -38 13.5 -65.5t38 -44.5t57.5 -25t72 -8q24 0 53.5 5t60.5 16t61.5 30t56.5 47q-9 18 -22 29.5t-37 18.5
t-62 10t-98 3l26 101h65q108 1 183.5 8.5t135.5 29.5q2 19 2.5 38t0.5 36q-34 -7 -68.5 -11.5t-74.5 -4.5q-72 0 -106 32t-34 101q0 39 12 78t34 69.5t52 50t65 19.5q41 0 77.5 -19.5t63.5 -58.5t43 -97.5t16 -135.5q0 -71 -16 -112.5t-45 -64.5t-69.5 -33.5t-88.5 -18.5
q17 -28 17 -51q0 -42 -28.5 -81.5t-74 -70t-103 -49t-114.5 -18.5zM630 454q-17 0 -32.5 -9.5t-27.5 -25.5t-19.5 -37t-7.5 -45q0 -12 2.5 -21.5t10.5 -15.5t25 -9.5t47 -3.5q28 0 60.5 4t59.5 10q-3 27 -11.5 54.5t-23 49.5t-35.5 35.5t-48 13.5zM433 -372l-63 -64l-63 63
l63 64zM297 -372l-63 -64l-63 63l63 64zM701 697l-63 -63l-63 63l63 64z" />
    <glyph glyph-name="qi.arab" unicode="&#xfed7;&#xfef2;" horiz-adv-x="896" arabic-form="isolated" 
d="M312 -261q-54 0 -98.5 14t-76 42.5t-48.5 71t-17 99.5q0 36 7.5 76.5t20 83.5t29 87.5t33.5 89.5l64 -24q-14 -38 -28.5 -79t-25.5 -80t-18 -73.5t-7 -60.5q0 -38 13.5 -65.5t38 -44.5t57.5 -25t72 -8q24 0 53.5 5t60.5 16t61.5 30t56.5 47q-9 18 -22 29.5t-37 18.5
t-62 10t-98 3l26 101h65q108 1 183.5 8.5t135.5 29.5q2 19 2.5 38t0.5 36q-34 -7 -68.5 -11.5t-74.5 -4.5q-72 0 -106 32t-34 101q0 39 12 78t34 69.5t52 50t65 19.5q41 0 77.5 -19.5t63.5 -58.5t43 -97.5t16 -135.5q0 -71 -16 -112.5t-45 -64.5t-69.5 -33.5t-88.5 -18.5
q17 -28 17 -51q0 -42 -28.5 -81.5t-74 -70t-103 -49t-114.5 -18.5zM630 454q-17 0 -32.5 -9.5t-27.5 -25.5t-19.5 -37t-7.5 -45q0 -12 2.5 -21.5t10.5 -15.5t25 -9.5t47 -3.5q28 0 60.5 4t59.5 10q-3 27 -11.5 54.5t-23 49.5t-35.5 35.5t-48 13.5zM766 697l-63 -63l-63 63
l63 64zM630 697l-63 -63l-63 63l63 64zM433 -372l-63 -64l-63 63l63 64zM297 -372l-63 -64l-63 63l63 64z" />
    <glyph glyph-name="vi.arab" unicode="&#xfb6c;&#xfef2;" horiz-adv-x="896" 
d="M312 -261q-54 0 -98.5 14t-76 42.5t-48.5 71t-17 99.5q0 36 7.5 76.5t20 83.5t29 87.5t33.5 89.5l64 -24q-14 -38 -28.5 -79t-25.5 -80t-18 -73.5t-7 -60.5q0 -38 13.5 -65.5t38 -44.5t57.5 -25t72 -8q24 0 53.5 5t60.5 16t61.5 30t56.5 47q-9 18 -22 29.5t-37 18.5
t-62 10t-98 3l26 101h65q108 1 183.5 8.5t135.5 29.5q2 19 2.5 38t0.5 36q-34 -7 -68.5 -11.5t-74.5 -4.5q-72 0 -106 32t-34 101q0 39 12 78t34 69.5t52 50t65 19.5q41 0 77.5 -19.5t63.5 -58.5t43 -97.5t16 -135.5q0 -71 -16 -112.5t-45 -64.5t-69.5 -33.5t-88.5 -18.5
q17 -28 17 -51q0 -42 -28.5 -81.5t-74 -70t-103 -49t-114.5 -18.5zM630 454q-17 0 -32.5 -9.5t-27.5 -25.5t-19.5 -37t-7.5 -45q0 -12 2.5 -21.5t10.5 -15.5t25 -9.5t47 -3.5q28 0 60.5 4t59.5 10q-3 27 -11.5 54.5t-23 49.5t-35.5 35.5t-48 13.5zM433 -372l-63 -64l-63 63
l63 64zM297 -372l-63 -64l-63 63l63 64zM698 830l-63 -63l-63 63l63 64zM766 697l-63 -63l-63 63l63 64zM630 697l-63 -63l-63 63l63 64z" />
    <glyph glyph-name="fi.thmz" unicode="&#xfed3;&#xfe8a;" horiz-adv-x="896" 
d="M312 -261q-54 0 -98.5 14t-76 42.5t-48.5 71t-17 99.5q0 36 7.5 76.5t20 83.5t29 87.5t33.5 89.5l64 -24q-14 -38 -28.5 -79t-25.5 -80t-18 -73.5t-7 -60.5q0 -38 13.5 -65.5t38 -44.5t57.5 -25t72 -8q24 0 53.5 5t60.5 16t61.5 30t56.5 47q-9 18 -22 29.5t-37 18.5
t-62 10t-98 3l26 101h65q108 1 183.5 8.5t135.5 29.5q2 19 2.5 38t0.5 36q-34 -7 -68.5 -11.5t-74.5 -4.5q-72 0 -106 32t-34 101q0 39 12 78t34 69.5t52 50t65 19.5q41 0 77.5 -19.5t63.5 -58.5t43 -97.5t16 -135.5q0 -71 -16 -112.5t-45 -64.5t-69.5 -33.5t-88.5 -18.5
q17 -28 17 -51q0 -42 -28.5 -81.5t-74 -70t-103 -49t-114.5 -18.5zM630 454q-17 0 -32.5 -9.5t-27.5 -25.5t-19.5 -37t-7.5 -45q0 -12 2.5 -21.5t10.5 -15.5t25 -9.5t47 -3.5q28 0 60.5 4t59.5 10q-3 27 -11.5 54.5t-23 49.5t-35.5 35.5t-48 13.5zM188 521q0 46 31.5 71
t76.5 25q23 0 54 -7l-12 -52q-18 5 -36 5q-20 0 -39 -7.5t-33 -26.5q7 -19 22.5 -36t35.5 -28l105 50l21 -46l-245 -114l-21 46l85 39q-17 14 -31 35t-14 46zM701 697l-63 -63l-63 63l63 64z" />
    <glyph glyph-name="qi.thmz" unicode="&#xfed7;&#xfe8a;" horiz-adv-x="896" 
d="M312 -261q-54 0 -98.5 14t-76 42.5t-48.5 71t-17 99.5q0 36 7.5 76.5t20 83.5t29 87.5t33.5 89.5l64 -24q-14 -38 -28.5 -79t-25.5 -80t-18 -73.5t-7 -60.5q0 -38 13.5 -65.5t38 -44.5t57.5 -25t72 -8q24 0 53.5 5t60.5 16t61.5 30t56.5 47q-9 18 -22 29.5t-37 18.5
t-62 10t-98 3l26 101h65q108 1 183.5 8.5t135.5 29.5q2 19 2.5 38t0.5 36q-34 -7 -68.5 -11.5t-74.5 -4.5q-72 0 -106 32t-34 101q0 39 12 78t34 69.5t52 50t65 19.5q41 0 77.5 -19.5t63.5 -58.5t43 -97.5t16 -135.5q0 -71 -16 -112.5t-45 -64.5t-69.5 -33.5t-88.5 -18.5
q17 -28 17 -51q0 -42 -28.5 -81.5t-74 -70t-103 -49t-114.5 -18.5zM630 454q-17 0 -32.5 -9.5t-27.5 -25.5t-19.5 -37t-7.5 -45q0 -12 2.5 -21.5t10.5 -15.5t25 -9.5t47 -3.5q28 0 60.5 4t59.5 10q-3 27 -11.5 54.5t-23 49.5t-35.5 35.5t-48 13.5zM766 697l-63 -63l-63 63
l63 64zM630 697l-63 -63l-63 63l63 64zM188 521q0 46 31.5 71t76.5 25q23 0 54 -7l-12 -52q-18 5 -36 5q-20 0 -39 -7.5t-33 -26.5q7 -19 22.5 -36t35.5 -28l105 50l21 -46l-245 -114l-21 46l85 39q-17 14 -31 35t-14 46z" />
    <glyph glyph-name="vi.thmz" unicode="&#xfb6c;&#xfe8a;" horiz-adv-x="896" 
d="M312 -261q-54 0 -98.5 14t-76 42.5t-48.5 71t-17 99.5q0 36 7.5 76.5t20 83.5t29 87.5t33.5 89.5l64 -24q-14 -38 -28.5 -79t-25.5 -80t-18 -73.5t-7 -60.5q0 -38 13.5 -65.5t38 -44.5t57.5 -25t72 -8q24 0 53.5 5t60.5 16t61.5 30t56.5 47q-9 18 -22 29.5t-37 18.5
t-62 10t-98 3l26 101h65q108 1 183.5 8.5t135.5 29.5q2 19 2.5 38t0.5 36q-34 -7 -68.5 -11.5t-74.5 -4.5q-72 0 -106 32t-34 101q0 39 12 78t34 69.5t52 50t65 19.5q41 0 77.5 -19.5t63.5 -58.5t43 -97.5t16 -135.5q0 -71 -16 -112.5t-45 -64.5t-69.5 -33.5t-88.5 -18.5
q17 -28 17 -51q0 -42 -28.5 -81.5t-74 -70t-103 -49t-114.5 -18.5zM630 454q-17 0 -32.5 -9.5t-27.5 -25.5t-19.5 -37t-7.5 -45q0 -12 2.5 -21.5t10.5 -15.5t25 -9.5t47 -3.5q28 0 60.5 4t59.5 10q-3 27 -11.5 54.5t-23 49.5t-35.5 35.5t-48 13.5zM188 521q0 46 31.5 71
t76.5 25q23 0 54 -7l-12 -52q-18 5 -36 5q-20 0 -39 -7.5t-33 -26.5q7 -19 22.5 -36t35.5 -28l105 50l21 -46l-245 -114l-21 46l85 39q-17 14 -31 35t-14 46zM698 830l-63 -63l-63 63l63 64zM766 697l-63 -63l-63 63l63 64zM630 697l-63 -63l-63 63l63 64z" />
    <glyph glyph-name="la.arab" unicode="&#xfedf;&#xfe8e;" horiz-adv-x="553" 
d="M472 576q0 -93 -12 -159.5t-38 -115.5q27 -41 43.5 -83t16.5 -84q0 -66 -35.5 -100t-113.5 -34h-251v105q87 55 147.5 100t95.5 90q-49 58 -128 127t-170 140l50 67q88 -70 160.5 -133t126.5 -127q14 38 20 89.5t6 117.5v111l82 4v-115zM409 106q1 6 1.5 13.5t-0.5 13.5
q-1 25 -11 51t-27 51q-32 -38 -84 -73t-118 -73h165q28 0 44 3t30 14z" />
    <glyph glyph-name="la.arab.aa" unicode="&#xfedf;&#xfe82;" horiz-adv-x="553" 
d="M472 576q0 -93 -12 -159.5t-38 -115.5q27 -41 43.5 -83t16.5 -84q0 -66 -35.5 -100t-113.5 -34h-251v105q87 55 147.5 100t95.5 90q-45 53 -109.5 110.5t-146.5 123.5l52 65q31 -25 66 -54.5t67.5 -59.5t61 -59t48.5 -52q14 38 20 89.5t6 117.5v111l82 4v-115zM409 106
q1 6 1.5 13.5t-0.5 13.5q-1 25 -11 51t-27 51q-32 -38 -84 -73t-118 -73h165q28 0 44 3t30 14zM300 688q-41 -7 -66 -8t-40 -1q-32 0 -62 4t-56 14l-31 -68l-55 25l31 65q10 23 22.5 32.5t27.5 9.5q10 0 20.5 -2.5t25 -6t34 -6t47.5 -2.5q12 0 34.5 1t61.5 6z" />
    <glyph glyph-name="la.arab.thmz" unicode="&#xfedf;&#xfe84;" horiz-adv-x="553" 
d="M472 576q0 -93 -12 -159.5t-38 -115.5q27 -41 43.5 -83t16.5 -84q0 -66 -35.5 -100t-113.5 -34h-251v105q87 55 147.5 100t95.5 90q-36 41 -90.5 82.5t-127.5 78.5l41 69q66 -32 119.5 -71.5t96.5 -84.5q14 38 20 89.5t6 117.5v111l82 4v-115zM409 106q1 6 1.5 13.5
t-0.5 13.5q-1 25 -11 51t-27 51q-32 -38 -84 -73t-118 -73h165q28 0 44 3t30 14zM37 662q0 46 31.5 71t76.5 25q23 0 54 -7l-12 -52q-18 5 -36 5q-20 0 -39 -7.5t-33 -26.5q7 -19 22.5 -36t35.5 -28l105 50l21 -46l-245 -114l-21 46l85 39q-17 14 -31 35t-14 46z" />
    <glyph glyph-name="la.arab.bhmz" unicode="&#xfedf;&#xfe88;" horiz-adv-x="553" 
d="M472 576q0 -93 -12 -159.5t-38 -115.5q27 -41 43.5 -83t16.5 -84q0 -66 -35.5 -100t-113.5 -34h-251v105q87 55 147.5 100t95.5 90q-49 58 -128 127t-170 140l50 67q88 -70 160.5 -133t126.5 -127q14 38 20 89.5t6 117.5v111l82 4v-115zM409 106q1 6 1.5 13.5t-0.5 13.5
q-1 25 -11 51t-27 51q-32 -38 -84 -73t-118 -73h165q28 0 44 3t30 14zM70 -196q0 46 31.5 71t76.5 25q23 0 54 -7l-12 -52q-18 5 -36 5q-20 0 -39 -7.5t-33 -26.5q7 -19 22.5 -36t35.5 -28l105 50l21 -46l-245 -114l-21 46l85 39q-17 14 -31 35t-14 46z" />
    <glyph glyph-name="la.arab.tvasla" unicode="&#xfedf;&#xfb51;" horiz-adv-x="553" 
d="M408 106q2 6 2 13.5v13.5q-2 25 -12 51t-27 51q-32 -38 -84 -73t-118 -73h165q28 0 44 3t30 14zM472 576q0 -93 -12 -159.5t-38 -115.5q27 -41 43.5 -83t16.5 -84q0 -66 -35.5 -100t-113.5 -34h-251v105q87 55 147.5 100t95.5 90q-36 42 -91 89.5t-140 90.5l44 68
q75 -37 131.5 -83t94.5 -91q14 38 20 89.5t6 117.5v111l82 4v-115zM-27 619q25 44 42.5 56.5t31.5 12.5q13 0 21.5 -6t22.5 -17q10 20 22.5 38.5t25.5 33t25.5 23.5t24.5 9q21 0 40 -9.5t34 -25t23.5 -34.5t8.5 -37q0 -14 -8.5 -30t-22.5 -21q-29 -12 -58 -16t-55 -4
q-23 0 -40 7.5t-29.5 16.5t-21.5 16.5t-16 7.5q-8 0 -16.5 -9.5t-22.5 -31.5zM188 723q-17 -8 -34.5 -28.5t-31.5 -47.5q5 -3 13 -5.5t18 -2.5q22 0 50.5 4t52.5 14q-4 21 -21 40t-47 26z" />
    <glyph glyph-name="alef" unicode="&#x627;" horiz-adv-x="229" arabic-form="isolated" 
d="M121 699q12 -43 19 -80t11 -72.5t5.5 -73t1.5 -81.5v-392h-82v392q0 40 -1.5 74.5t-5.5 68t-11 68t-18 74.5l81 22v0z" />
    <glyph glyph-name="alef.fina" unicode="&#x627;" horiz-adv-x="279" arabic-form="final" 
d="M279 0q-55 0 -94 12.5t-64.5 40t-37.5 72.5t-12 111v451l82 4v-455q0 -41 7.5 -67t23 -40.5t39 -20t56.5 -5.5v-103z" />
    <glyph glyph-name="alef.aa" unicode="&#x622;" horiz-adv-x="229" arabic-form="isolated" 
d="M121 581q12 -43 19 -80t11 -72.5t5.5 -73t1.5 -81.5v-274h-82v274q0 40 -1.5 74.5t-5.5 68t-11 68t-18 74.5zM255 687q-41 -7 -66 -8t-40 -1q-32 0 -62 4t-56 14l-31 -68l-55 25l31 65q10 23 22.5 32.5t27.5 9.5q10 0 20.5 -2.5t25 -6t34 -6t47.5 -2.5q12 0 34.5 1
t61.5 6z" />
    <glyph glyph-name="alef.aa.fina" unicode="&#x622;" horiz-adv-x="282" arabic-form="final" 
d="M282 0q-56 0 -96 12.5t-65.5 40t-37.5 72.5t-12 111v337l81 4v-341q0 -41 7.5 -66.5t23.5 -40t40.5 -20t58.5 -5.5v-104zM279 687q-41 -7 -66 -8t-40 -1q-32 0 -62 4t-56 14l-31 -68l-55 25l31 65q10 23 22.5 32.5t27.5 9.5q10 0 20.5 -2.5t25 -6t34 -6t47.5 -2.5
q12 0 34.5 1t61.5 6z" />
    <glyph glyph-name="alef.thmz" unicode="&#x623;" horiz-adv-x="229" arabic-form="isolated" 
d="M121 492q12 -43 19 -79.5t11 -72.5t5.5 -73t1.5 -82v-185h-82v185q0 40 -1.5 74.5t-5.5 68t-11 68t-18 74.5zM-12 662q0 46 31.5 71t76.5 25q23 0 54 -7l-12 -52q-18 5 -36 5q-20 0 -39 -7.5t-33 -26.5q7 -19 22.5 -36t35.5 -28l105 50l21 -46l-245 -114l-21 46l85 39
q-17 14 -31 35t-14 46z" />
    <glyph glyph-name="alef.thmz.fina" unicode="&#x623;" horiz-adv-x="282" arabic-form="final" 
d="M152 236q0 -41 7.5 -66.5t23.5 -40t40.5 -20t58.5 -5.5v-104q-56 0 -96 12.5t-65.5 40t-37.5 72.5t-12 111v247l81 4v-251zM33 662q0 46 31.5 71t76.5 25q23 0 54 -7l-12 -52q-18 5 -36 5q-20 0 -39 -7.5t-33 -26.5q7 -19 22.5 -36t35.5 -28l105 50l21 -46l-245 -114
l-21 46l85 39q-17 14 -31 35t-14 46z" />
    <glyph glyph-name="alef.bhmz" unicode="&#x625;" horiz-adv-x="229" arabic-form="isolated" 
d="M121 699q12 -43 19 -80t11 -72.5t5.5 -73t1.5 -81.5v-392h-82v392q0 40 -1.5 74.5t-5.5 68t-11 68t-18 74.5l81 22v0zM24 -196q0 46 31.5 71t76.5 25q23 0 54 -7l-12 -52q-18 5 -36 5q-20 0 -39 -7.5t-33 -26.5q7 -19 22.5 -36t35.5 -28l105 50l21 -46l-245 -114l-21 46
l85 39q-17 14 -31 35t-14 46z" />
    <glyph glyph-name="alef.bhmz.fina" unicode="&#x625;" horiz-adv-x="279" arabic-form="final" 
d="M279 0q-55 0 -94 12.5t-64.5 40t-37.5 72.5t-12 111v451l82 4v-455q0 -41 7.5 -67t23 -40.5t39 -20t56.5 -5.5v-103zM74 -196q0 46 31.5 71t76.5 25q23 0 54 -7l-12 -52q-18 5 -36 5q-20 0 -39 -7.5t-33 -26.5q7 -19 22.5 -36t35.5 -28l105 50l21 -46l-245 -114l-21 46
l85 39q-17 14 -31 35t-14 46z" />
    <glyph glyph-name="alef.vasla" unicode="&#x671;" horiz-adv-x="229" arabic-form="isolated" 
d="M121 532q12 -44 19 -80.5t11 -72.5t5.5 -73t1.5 -82v-224h-82v224q0 40 -1.5 74.5t-5.5 68t-11 68t-18 74.5zM-91 619q25 44 42.5 56.5t31.5 12.5q13 0 21.5 -6t22.5 -17q10 20 22.5 38.5t25.5 33t25.5 23.5t24.5 9q21 0 40 -9.5t34 -25t23.5 -34.5t8.5 -37
q0 -14 -8.5 -30t-22.5 -21q-29 -12 -58 -16t-55 -4q-23 0 -40 7.5t-29.5 16.5t-21.5 16.5t-16 7.5q-8 0 -16.5 -9.5t-22.5 -31.5zM124 723q-17 -8 -34.5 -28.5t-31.5 -47.5q5 -3 13 -5.5t18 -2.5q22 0 50.5 4t52.5 14q-4 21 -21 40t-47 26z" />
    <glyph glyph-name="alef.vasla.fina" unicode="&#x671;" horiz-adv-x="282" arabic-form="final" 
d="M282 0q-56 0 -96 12.5t-65.5 40t-37.5 72.5t-12 111v287l81 4v-291q0 -41 7.5 -66.5t23.5 -40t40.5 -20t58.5 -5.5v-104zM-47 619q25 44 42.5 56.5t31.5 12.5q13 0 21.5 -6t22.5 -17q10 20 22.5 38.5t25.5 33t25.5 23.5t24.5 9q21 0 40 -9.5t34 -25t23.5 -34.5t8.5 -37
q0 -14 -8.5 -30t-22.5 -21q-29 -12 -58 -16t-55 -4q-23 0 -40 7.5t-29.5 16.5t-21.5 16.5t-16 7.5q-8 0 -16.5 -9.5t-22.5 -31.5zM168 723q-17 -8 -34.5 -28.5t-31.5 -47.5q5 -3 13 -5.5t18 -2.5q22 0 50.5 4t52.5 14q-4 21 -21 40t-47 26z" />
    <glyph glyph-name="be" unicode="&#x628;" horiz-adv-x="886" arabic-form="isolated" 
d="M357 -11q-93 0 -151 19.5t-90 50.5t-43.5 68.5t-11.5 72.5q0 29 6 57.5t15.5 55.5t20.5 50.5t21 43.5l60 -31q-19 -38 -31 -78t-12 -72q0 -66 57.5 -99t177.5 -33q53 0 104.5 3t98 9.5t87 15.5t70.5 21q0 43 -2 76.5t-5 64t-7 59.5t-10 63l89 17q11 -55 17.5 -113.5
t6.5 -112.5q0 -11 -0.5 -21.5t-1.5 -19.5q-2 -16 -9 -34t-18.5 -34.5t-25 -29t-26.5 -16.5q-23 -8 -56 -17.5t-80 -17.5t-109 -13t-142 -5zM470 -157l-63 -64l-63 63l63 64z" />
    <glyph glyph-name="be.fina" unicode="&#x628;" horiz-adv-x="888" arabic-form="final" 
d="M357 -11q-93 0 -151 19.5t-90 50.5t-43.5 68.5t-11.5 72.5q0 29 6 57.5t15.5 55.5t20.5 50.5t21 43.5l60 -31q-19 -38 -31 -78t-12 -72q0 -66 57.5 -99t177.5 -33q73 0 136 5.5t107 22.5q22 8 39 20.5t30 37t23.5 65.5t18.5 106l78 -10q-7 -57 -17 -105t-21 -78
q17 -33 46 -44t72 -11v-103q-52 0 -92.5 17t-72.5 61q-26 -27 -65 -44.5t-86.5 -27t-102 -13.5t-112.5 -4zM470 -157l-63 -64l-63 63l63 64z" />
    <glyph glyph-name="be.medi" unicode="&#x628;" horiz-adv-x="350" arabic-form="medial" 
d="M0 103q55 0 88.5 15t53.5 45.5t30.5 77t19.5 110.5l78 -10q-7 -57 -17.5 -105.5t-19.5 -79.5q17 -32 45.5 -42.5t71.5 -10.5v-103q-51 0 -91 16.5t-71 57.5q-29 -35 -73.5 -54.5t-114.5 -19.5q-14 0 -22 13t-8 38t8 38.5t22 13.5zM226 -157l-63 -64l-63 63l63 64z" />
    <glyph glyph-name="be.init" unicode="&#x628;" horiz-adv-x="305" arabic-form="initial" 
d="M0 103q20 0 42.5 2.5t44 7t40 12t30.5 17.5q2 72 -5.5 139t-18.5 125l89 17q11 -55 16.5 -115.5t5.5 -113.5q0 -48 -18 -90t-55 -66q-26 -17 -71 -27.5t-100 -10.5q-14 0 -22 13t-8 38t8 38.5t22 13.5zM167 -157l-63 -64l-63 63l63 64z" />
    <glyph glyph-name="pe" unicode="&#x67e;" horiz-adv-x="886" arabic-form="isolated" 
d="M357 -11q-93 0 -151 19.5t-90 50.5t-43.5 68.5t-11.5 72.5q0 29 6 57.5t15.5 55.5t20.5 50.5t21 43.5l60 -31q-19 -38 -31 -78t-12 -72q0 -66 57.5 -99t177.5 -33q53 0 104.5 3t98 9.5t87 15.5t70.5 21q0 43 -2 76.5t-5 64t-7 59.5t-10 63l89 17q11 -55 17.5 -113.5
t6.5 -112.5q0 -11 -0.5 -21.5t-1.5 -19.5q-2 -16 -9 -34t-18.5 -34.5t-25 -29t-26.5 -16.5q-23 -8 -56 -17.5t-80 -17.5t-109 -13t-142 -5zM472 -291l-63 -64l-63 63l63 64zM540 -157l-63 -64l-63 63l63 64zM404 -157l-63 -64l-63 63l63 64z" />
    <glyph glyph-name="pe.fina" unicode="&#x67e;" horiz-adv-x="888" arabic-form="final" 
d="M357 -11q-93 0 -151 19.5t-90 50.5t-43.5 68.5t-11.5 72.5q0 29 6 57.5t15.5 55.5t20.5 50.5t21 43.5l60 -31q-19 -38 -31 -78t-12 -72q0 -66 57.5 -99t177.5 -33q73 0 136 5.5t107 22.5q22 8 39 20.5t30 37t23.5 65.5t18.5 106l78 -10q-7 -57 -17 -105t-21 -78
q17 -33 46 -44t72 -11v-103q-52 0 -92.5 17t-72.5 61q-26 -27 -65 -44.5t-86.5 -27t-102 -13.5t-112.5 -4zM456 -291l-63 -64l-63 63l63 64zM524 -157l-63 -64l-63 63l63 64zM388 -157l-63 -64l-63 63l63 64z" />
    <glyph glyph-name="pe.medi" unicode="&#x67e;" horiz-adv-x="350" arabic-form="medial" 
d="M0 103q55 0 88.5 15t53.5 45.5t30.5 77t19.5 110.5l78 -10q-7 -57 -17.5 -105.5t-19.5 -79.5q17 -32 45.5 -42.5t71.5 -10.5v-103q-51 0 -91 16.5t-71 57.5q-29 -35 -73.5 -54.5t-114.5 -19.5q-14 0 -22 13t-8 38t8 38.5t22 13.5zM230 -291l-63 -64l-63 63l63 64z
M298 -157l-63 -64l-63 63l63 64zM162 -157l-63 -64l-63 63l63 64z" />
    <glyph glyph-name="pe.init" unicode="&#x67e;" horiz-adv-x="305" arabic-form="initial" 
d="M0 103q20 0 42.5 2.5t44 7t40 12t30.5 17.5q2 72 -5.5 139t-18.5 125l89 17q11 -55 16.5 -115.5t5.5 -113.5q0 -48 -18 -90t-55 -66q-26 -17 -71 -27.5t-100 -10.5q-14 0 -22 13t-8 38t8 38.5t22 13.5zM185 -291l-63 -64l-63 63l63 64zM253 -157l-63 -64l-63 63l63 64z
M117 -157l-63 -64l-63 63l63 64z" />
    <glyph glyph-name="te" unicode="&#x62a;" horiz-adv-x="886" arabic-form="isolated" 
d="M357 -11q-93 0 -151 19.5t-90 50.5t-43.5 68.5t-11.5 72.5q0 29 6 57.5t15.5 55.5t20.5 50.5t21 43.5l60 -31q-19 -38 -31 -78t-12 -72q0 -66 57.5 -99t177.5 -33q53 0 104.5 3t98 9.5t87 15.5t70.5 21q0 43 -2 76.5t-5 64t-7 59.5t-10 63l89 17q11 -55 17.5 -113.5
t6.5 -112.5q0 -11 -0.5 -21.5t-1.5 -19.5q-2 -16 -9 -34t-18.5 -34.5t-25 -29t-26.5 -16.5q-23 -8 -56 -17.5t-80 -17.5t-109 -13t-142 -5zM568 439l-63 -63l-63 63l63 64zM432 439l-63 -63l-63 63l63 64z" />
    <glyph glyph-name="te.fina" unicode="&#x62a;" horiz-adv-x="888" arabic-form="final" 
d="M357 -11q-93 0 -151 19.5t-90 50.5t-43.5 68.5t-11.5 72.5q0 29 6 57.5t15.5 55.5t20.5 50.5t21 43.5l60 -31q-19 -38 -31 -78t-12 -72q0 -66 57.5 -99t177.5 -33q73 0 136 5.5t107 22.5q22 8 39 20.5t30 37t23.5 65.5t18.5 106l78 -10q-7 -57 -17 -105t-21 -78
q17 -33 46 -44t72 -11v-103q-52 0 -92.5 17t-72.5 61q-26 -27 -65 -44.5t-86.5 -27t-102 -13.5t-112.5 -4zM572 439l-63 -63l-63 63l63 64zM436 439l-63 -63l-63 63l63 64z" />
    <glyph glyph-name="te.medi" unicode="&#x62a;" horiz-adv-x="350" arabic-form="medial" 
d="M0 103q55 0 88.5 15t53.5 45.5t30.5 77t19.5 110.5l78 -10q-7 -57 -17.5 -105.5t-19.5 -79.5q17 -32 45.5 -42.5t71.5 -10.5v-103q-51 0 -91 16.5t-71 57.5q-29 -35 -73.5 -54.5t-114.5 -19.5q-14 0 -22 13t-8 38t8 38.5t22 13.5zM300 489l-63 -63l-63 63l63 64zM164 489
l-63 -63l-63 63l63 64z" />
    <glyph glyph-name="te.init" unicode="&#x62a;" horiz-adv-x="305" arabic-form="initial" 
d="M0 103q20 0 42.5 2.5t44 7t40 12t30.5 17.5q2 72 -5.5 139t-18.5 125l89 17q11 -55 16.5 -115.5t5.5 -113.5q0 -48 -18 -90t-55 -66q-26 -17 -71 -27.5t-100 -10.5q-14 0 -22 13t-8 38t8 38.5t22 13.5zM274 576l-63 -63l-63 63l63 64zM138 576l-63 -63l-63 63l63 64z" />
    <glyph glyph-name="the" unicode="&#x62b;" horiz-adv-x="886" arabic-form="isolated" 
d="M357 -11q-93 0 -151 19.5t-90 50.5t-43.5 68.5t-11.5 72.5q0 29 6 57.5t15.5 55.5t20.5 50.5t21 43.5l60 -31q-19 -38 -31 -78t-12 -72q0 -66 57.5 -99t177.5 -33q53 0 104.5 3t98 9.5t87 15.5t70.5 21q0 43 -2 76.5t-5 64t-7 59.5t-10 63l89 17q11 -55 17.5 -113.5
t6.5 -112.5q0 -11 -0.5 -21.5t-1.5 -19.5q-2 -16 -9 -34t-18.5 -34.5t-25 -29t-26.5 -16.5q-23 -8 -56 -17.5t-80 -17.5t-109 -13t-142 -5zM500 572l-63 -63l-63 63l63 64zM568 439l-63 -63l-63 63l63 64zM432 439l-63 -63l-63 63l63 64z" />
    <glyph glyph-name="the.fina" unicode="&#x62b;" horiz-adv-x="888" arabic-form="final" 
d="M357 -11q-93 0 -151 19.5t-90 50.5t-43.5 68.5t-11.5 72.5q0 29 6 57.5t15.5 55.5t20.5 50.5t21 43.5l60 -31q-19 -38 -31 -78t-12 -72q0 -66 57.5 -99t177.5 -33q73 0 136 5.5t107 22.5q22 8 39 20.5t30 37t23.5 65.5t18.5 106l78 -10q-7 -57 -17 -105t-21 -78
q17 -33 46 -44t72 -11v-103q-52 0 -92.5 17t-72.5 61q-26 -27 -65 -44.5t-86.5 -27t-102 -13.5t-112.5 -4zM504 572l-63 -63l-63 63l63 64zM572 439l-63 -63l-63 63l63 64zM436 439l-63 -63l-63 63l63 64z" />
    <glyph glyph-name="the.medi" unicode="&#x62b;" horiz-adv-x="350" arabic-form="medial" 
d="M0 103q55 0 88.5 15t53.5 45.5t30.5 77t19.5 110.5l78 -10q-7 -57 -17.5 -105.5t-19.5 -79.5q17 -32 45.5 -42.5t71.5 -10.5v-103q-51 0 -91 16.5t-71 57.5q-29 -35 -73.5 -54.5t-114.5 -19.5q-14 0 -22 13t-8 38t8 38.5t22 13.5zM232 622l-63 -63l-63 63l63 64zM300 489
l-63 -63l-63 63l63 64zM164 489l-63 -63l-63 63l63 64z" />
    <glyph glyph-name="the.init" unicode="&#x62b;" horiz-adv-x="305" arabic-form="initial" 
d="M0 103q20 0 42.5 2.5t44 7t40 12t30.5 17.5q2 72 -5.5 139t-18.5 125l89 17q11 -55 16.5 -115.5t5.5 -113.5q0 -48 -18 -90t-55 -66q-26 -17 -71 -27.5t-100 -10.5q-14 0 -22 13t-8 38t8 38.5t22 13.5zM206 709l-63 -63l-63 63l63 64zM274 576l-63 -63l-63 63l63 64z
M138 576l-63 -63l-63 63l63 64z" />
    <glyph glyph-name="tteh.fina" unicode="&#x679;" horiz-adv-x="888" arabic-form="final" 
d="M357 -11q-93 0 -151 19.5t-90 50.5t-43.5 68.5t-11.5 72.5q0 29 6 57.5t15.5 55.5t20.5 50.5t21 43.5l60 -31q-19 -38 -31 -78t-12 -72q0 -66 57.5 -99t177.5 -33q73 0 136 5.5t107 22.5q22 8 39 20.5t30 37t23.5 65.5t18.5 106l78 -10q-7 -57 -17 -105t-21 -78
q17 -33 46 -44t72 -11v-103q-52 0 -92.5 17t-72.5 61q-26 -27 -65 -44.5t-86.5 -27t-102 -13.5t-112.5 -4zM375 437q5 11 8 20.5t4.5 22t2 29t0.5 41.5v104l47 1v-85q0 -12 -1 -24.5t-3 -24.5q14 18 28.5 29t28.5 11q19 0 36.5 -9.5t31.5 -25t22.5 -35t8.5 -38.5
q0 -13 -9 -29t-22 -23q-23 -14 -59 -17t-67 -3h-98v56h41zM442 437q30 0 58 3t45 11q-5 16 -19 34t-40 25q-17 -8 -33 -27t-32 -46h21z" />
    <glyph glyph-name="tteh.medi" unicode="&#x679;" horiz-adv-x="350" arabic-form="medial" 
d="M0 103q55 0 88.5 15t53.5 45.5t30.5 77t19.5 110.5l78 -10q-7 -57 -17.5 -105.5t-19.5 -79.5q17 -32 45.5 -42.5t71.5 -10.5v-103q-51 0 -91 16.5t-71 57.5q-29 -35 -73.5 -54.5t-114.5 -19.5q-14 0 -22 13t-8 38t8 38.5t22 13.5zM82 487q5 11 8 20.5t4.5 22t2 29
t0.5 41.5v104l47 1v-85q0 -12 -1 -24.5t-3 -24.5q14 18 28.5 29t28.5 11q19 0 36.5 -9.5t31.5 -25t22.5 -35t8.5 -38.5q0 -13 -9 -29t-22 -23q-23 -14 -59 -17t-67 -3h-98v56h41zM149 487q30 0 58 3t45 11q-5 16 -19 34t-40 25q-17 -8 -33 -27t-32 -46h21z" />
    <glyph glyph-name="tteh.init" unicode="&#x679;" horiz-adv-x="305" arabic-form="initial" 
d="M0 103q20 0 42.5 2.5t44 7t40 12t30.5 17.5q2 72 -5.5 139t-18.5 125l89 17q11 -55 16.5 -115.5t5.5 -113.5q0 -48 -18 -90t-55 -66q-26 -17 -71 -27.5t-100 -10.5q-14 0 -22 13t-8 38t8 38.5t22 13.5zM58 570q5 11 8 20.5t4.5 22t2 29t0.5 41.5v104l47 1v-85
q0 -12 -1 -24.5t-3 -24.5q14 18 28.5 29t28.5 11q19 0 36.5 -9.5t31.5 -25t22.5 -35t8.5 -38.5q0 -13 -9 -29t-22 -23q-23 -14 -59 -17t-67 -3h-98v56h41zM125 570q30 0 58 3t45 11q-5 16 -19 34t-40 25q-17 -8 -33 -27t-32 -46h21z" />
    <glyph glyph-name="jim" unicode="&#x62c;" horiz-adv-x="661" arabic-form="isolated" 
d="M229 337q-17 0 -44 -24.5t-65 -93.5l-58 34q21 39 43 72.5t44 59t44.5 40t44.5 14.5t56.5 -18.5t80 -44t101.5 -53t121 -46.5l-19 -87q-16 2 -28 2h-27q-66 0 -134.5 -27t-124.5 -74.5t-92 -111t-36 -135.5v-21t2 -19q22 -45 74.5 -65.5t124.5 -20.5q58 0 124 6t129 16
l9 -95q-78 -11 -141 -17t-127 -6q-51 0 -99 10.5t-85.5 35.5t-60 66.5t-22.5 103.5q0 76 28 143t76 120.5t112 92t136 58.5q-33 14 -61 29t-52 27.5t-42.5 20.5t-31.5 8zM435 -84l-63 -64l-63 63l63 64z" />
    <glyph glyph-name="jim.fina" unicode="&#x62c;" horiz-adv-x="649" arabic-form="final" 
d="M227 337q-9 0 -20 -5.5t-24 -19t-29 -36.5t-34 -58l-59 33q21 40 42.5 74t43 59.5t43.5 40t44 14.5q24 0 60.5 -18t83.5 -42t104.5 -48.5t123.5 -37.5l-19 -87q-63 6 -129 -10q10 -29 19.5 -47.5t24.5 -28.5t36.5 -13.5t55.5 -3.5h55v-103h-68q-46 0 -76.5 9.5
t-50.5 30.5t-33.5 54t-26.5 79q-56 -21 -103 -55.5t-81.5 -77.5t-54 -93t-19.5 -103v-21t2 -19q22 -45 74.5 -65.5t124.5 -20.5q58 0 124 6t129 16l9 -95q-78 -11 -141 -17t-127 -6q-51 0 -99 10.5t-85.5 35.5t-60 66.5t-22.5 103.5q0 76 28 143t76 121t112 94t136 62
q-34 13 -63 27.5t-52.5 25.5t-42 18.5t-31.5 7.5zM383 -101l-63 -64l-63 63l63 64z" />
    <glyph glyph-name="jim.medi" unicode="&#x62c;" horiz-adv-x="652" arabic-form="medial" 
d="M78 103q55 0 100 15t85 37t78 47.5t80 45.5q-36 14 -67 30t-57.5 29t-47 21.5t-33.5 8.5q-9 0 -20 -5.5t-24 -19t-28.5 -36.5t-33.5 -58l-59 33q21 40 42 74t43 59.5t44 40t44 14.5q23 0 57 -16.5t79 -39.5t101.5 -48t125.5 -41l-19 -87q-8 0 -13.5 0.5t-14.5 -0.5
q-22 -1 -43 -6.5t-40 -14.5q9 -26 18.5 -42.5t24.5 -25.5t38.5 -12t59.5 -3h54v-103h-78q-43 0 -71.5 9t-47.5 27t-31.5 44.5t-23.5 62.5q-35 -24 -69.5 -49.5t-71 -46t-75.5 -34t-83 -13.5h-101q-14 0 -22 13t-8 38t8 38.5t22 13.5h78zM283 -157l-63 -64l-63 63l63 64z" />
    <glyph glyph-name="jim.init" unicode="&#x62c;" horiz-adv-x="644" arabic-form="initial" 
d="M78 103q57 0 104 16t87.5 38.5t77 46t72.5 39.5q-36 15 -66.5 32t-56 30.5t-46 22.5t-34.5 9q-17 0 -43.5 -24.5t-64.5 -93.5l-59 34q21 39 43 72.5t44.5 59t44.5 40t44 14.5t57 -18.5t80.5 -44t101 -53t120.5 -46.5l-18 -87q-8 1 -16 1.5t-16 0.5q-35 0 -68.5 -14
t-66.5 -35.5t-66.5 -46.5t-69.5 -46.5t-76 -35.5t-86 -14h-101q-14 0 -22 13t-8 38t8 38.5t22 13.5h78zM283 -157l-63 -64l-63 63l63 64z" />
    <glyph glyph-name="che" unicode="&#x686;" horiz-adv-x="661" arabic-form="isolated" 
d="M229 337q-17 0 -44 -24.5t-65 -93.5l-58 34q21 39 43 72.5t44 59t44.5 40t44.5 14.5t56.5 -18.5t80 -44t101.5 -53t121 -46.5l-19 -87q-16 2 -28 2h-27q-66 0 -134.5 -27t-124.5 -74.5t-92 -111t-36 -135.5v-21t2 -19q22 -45 74.5 -65.5t124.5 -20.5q58 0 124 6t129 16
l9 -95q-78 -11 -141 -17t-127 -6q-51 0 -99 10.5t-85.5 35.5t-60 66.5t-22.5 103.5q0 76 28 143t76 120.5t112 92t136 58.5q-33 14 -61 29t-52 27.5t-42.5 20.5t-31.5 8zM442.913 -155.84l-55.9131 -56.8008l-55.9131 55.9131l55.9131 56.8008zM503.264 -36.9131
l-55.9131 -56.8008l-55.9131 55.9131l55.9131 56.8008zM382.562 -36.9131l-55.9131 -56.8008l-55.9131 55.9131l55.9131 56.8008z" />
    <glyph glyph-name="che.fina" unicode="&#x686;" horiz-adv-x="649" arabic-form="final" 
d="M227 337q-9 0 -20 -5.5t-24 -19t-29 -36.5t-34 -58l-59 33q21 40 42.5 74t43 59.5t43.5 40t44 14.5q24 0 60.5 -18t83.5 -42t104.5 -48.5t123.5 -37.5l-19 -87q-63 6 -129 -10q10 -29 19.5 -47.5t24.5 -28.5t36.5 -13.5t55.5 -3.5h55v-103h-68q-46 0 -76.5 9.5
t-50.5 30.5t-33.5 54t-26.5 79q-56 -21 -103 -55.5t-81.5 -77.5t-54 -93t-19.5 -103v-21t2 -19q22 -45 74.5 -65.5t124.5 -20.5q58 0 124 6t129 16l9 -95q-78 -11 -141 -17t-127 -6q-51 0 -99 10.5t-85.5 35.5t-60 66.5t-22.5 103.5q0 76 28 143t76 121t112 94t136 62
q-34 13 -63 27.5t-52.5 25.5t-42 18.5t-31.5 7.5zM381.732 -178.148l-54.7324 -55.6016l-54.7324 54.7324l54.7324 55.6016zM440.81 -61.7324l-54.7334 -55.6016l-54.7324 54.7324l54.7324 55.6016zM322.656 -61.7324l-54.7324 -55.6016l-54.7334 54.7324l54.7334 55.6016z
" />
    <glyph glyph-name="che.medi" unicode="&#x686;" horiz-adv-x="652" arabic-form="medial" 
d="M78 103q55 0 100 15t85 37t78 47.5t80 45.5q-36 14 -67 30t-57.5 29t-47 21.5t-33.5 8.5q-9 0 -20 -5.5t-24 -19t-28.5 -36.5t-33.5 -58l-59 33q21 40 42 74t43 59.5t44 40t44 14.5q23 0 57 -16.5t79 -39.5t101.5 -48t125.5 -41l-19 -87q-8 0 -13.5 0.5t-14.5 -0.5
q-22 -1 -43 -6.5t-40 -14.5q9 -26 18.5 -42.5t24.5 -25.5t38.5 -12t59.5 -3h54v-103h-78q-43 0 -71.5 9t-47.5 27t-31.5 44.5t-23.5 62.5q-35 -24 -69.5 -49.5t-71 -46t-75.5 -34t-83 -13.5h-101q-14 0 -22 13t-8 38t8 38.5t22 13.5h78zM278 -287l-63 -64l-63 63l63 64z
M346 -153l-63 -64l-63 63l63 64zM210 -153l-63 -64l-63 63l63 64z" />
    <glyph glyph-name="che.init" unicode="&#x686;" horiz-adv-x="644" arabic-form="initial" 
d="M78 103q57 0 104 16t87.5 38.5t77 46t72.5 39.5q-36 15 -66.5 32t-56 30.5t-46 22.5t-34.5 9q-17 0 -43.5 -24.5t-64.5 -93.5l-59 34q21 39 43 72.5t44.5 59t44.5 40t44 14.5t57 -18.5t80.5 -44t101 -53t120.5 -46.5l-18 -87q-8 1 -16 1.5t-16 0.5q-35 0 -68.5 -14
t-66.5 -35.5t-66.5 -46.5t-69.5 -46.5t-76 -35.5t-86 -14h-101q-14 0 -22 13t-8 38t8 38.5t22 13.5h78zM278 -287l-63 -64l-63 63l63 64zM346 -153l-63 -64l-63 63l63 64zM210 -153l-63 -64l-63 63l63 64z" />
    <glyph glyph-name="him" unicode="&#x62d;" horiz-adv-x="661" arabic-form="isolated" 
d="M229 337q-17 0 -44 -24.5t-65 -93.5l-58 34q21 39 43 72.5t44 59t44.5 40t44.5 14.5t56.5 -18.5t80 -44t101.5 -53t121 -46.5l-19 -87q-16 2 -28 2h-27q-66 0 -134.5 -27t-124.5 -74.5t-92 -111t-36 -135.5v-21t2 -19q22 -45 74.5 -65.5t124.5 -20.5q58 0 124 6t129 16
l9 -95q-78 -11 -141 -17t-127 -6q-51 0 -99 10.5t-85.5 35.5t-60 66.5t-22.5 103.5q0 76 28 143t76 120.5t112 92t136 58.5q-33 14 -61 29t-52 27.5t-42.5 20.5t-31.5 8z" />
    <glyph glyph-name="him.fina" unicode="&#x62d;" horiz-adv-x="649" arabic-form="final" 
d="M227 337q-9 0 -20 -5.5t-24 -19t-29 -36.5t-34 -58l-59 33q21 40 42.5 74t43 59.5t43.5 40t44 14.5q24 0 60.5 -18t83.5 -42t104.5 -48.5t123.5 -37.5l-19 -87q-63 6 -129 -10q10 -29 19.5 -47.5t24.5 -28.5t36.5 -13.5t55.5 -3.5h55v-103h-68q-46 0 -76.5 9.5
t-50.5 30.5t-33.5 54t-26.5 79q-56 -21 -103 -55.5t-81.5 -77.5t-54 -93t-19.5 -103v-21t2 -19q22 -45 74.5 -65.5t124.5 -20.5q58 0 124 6t129 16l9 -95q-78 -11 -141 -17t-127 -6q-51 0 -99 10.5t-85.5 35.5t-60 66.5t-22.5 103.5q0 76 28 143t76 121t112 94t136 62
q-34 13 -63 27.5t-52.5 25.5t-42 18.5t-31.5 7.5z" />
    <glyph glyph-name="him.medi" unicode="&#x62d;" horiz-adv-x="652" arabic-form="medial" 
d="M78 103q55 0 100 15t85 37t78 47.5t80 45.5q-36 14 -67 30t-57.5 29t-47 21.5t-33.5 8.5q-9 0 -20 -5.5t-24 -19t-28.5 -36.5t-33.5 -58l-59 33q21 40 42 74t43 59.5t44 40t44 14.5q23 0 57 -16.5t79 -39.5t101.5 -48t125.5 -41l-19 -87q-8 0 -13.5 0.5t-14.5 -0.5
q-22 -1 -43 -6.5t-40 -14.5q9 -26 18.5 -42.5t24.5 -25.5t38.5 -12t59.5 -3h54v-103h-78q-43 0 -71.5 9t-47.5 27t-31.5 44.5t-23.5 62.5q-35 -24 -69.5 -49.5t-71 -46t-75.5 -34t-83 -13.5h-101q-14 0 -22 13t-8 38t8 38.5t22 13.5h78z" />
    <glyph glyph-name="him.init" unicode="&#x62d;" horiz-adv-x="644" arabic-form="initial" 
d="M78 103q57 0 104 16t87.5 38.5t77 46t72.5 39.5q-36 15 -66.5 32t-56 30.5t-46 22.5t-34.5 9q-17 0 -43.5 -24.5t-64.5 -93.5l-59 34q21 39 43 72.5t44.5 59t44.5 40t44 14.5t57 -18.5t80.5 -44t101 -53t120.5 -46.5l-18 -87q-8 1 -16 1.5t-16 0.5q-35 0 -68.5 -14
t-66.5 -35.5t-66.5 -46.5t-69.5 -46.5t-76 -35.5t-86 -14h-101q-14 0 -22 13t-8 38t8 38.5t22 13.5h78z" />
    <glyph glyph-name="khe" unicode="&#x62e;" horiz-adv-x="661" arabic-form="isolated" 
d="M229 337q-17 0 -44 -24.5t-65 -93.5l-58 34q21 39 43 72.5t44 59t44.5 40t44.5 14.5t56.5 -18.5t80 -44t101.5 -53t121 -46.5l-19 -87q-16 2 -28 2h-27q-66 0 -134.5 -27t-124.5 -74.5t-92 -111t-36 -135.5v-21t2 -19q22 -45 74.5 -65.5t124.5 -20.5q58 0 124 6t129 16
l9 -95q-78 -11 -141 -17t-127 -6q-51 0 -99 10.5t-85.5 35.5t-60 66.5t-22.5 103.5q0 76 28 143t76 120.5t112 92t136 58.5q-33 14 -61 29t-52 27.5t-42.5 20.5t-31.5 8zM305 597l-63 -63l-63 63l63 64z" />
    <glyph glyph-name="khe.fina" unicode="&#x62e;" horiz-adv-x="649" arabic-form="final" 
d="M227 337q-9 0 -20 -5.5t-24 -19t-29 -36.5t-34 -58l-59 33q21 40 42.5 74t43 59.5t43.5 40t44 14.5q24 0 60.5 -18t83.5 -42t104.5 -48.5t123.5 -37.5l-19 -87q-63 6 -129 -10q10 -29 19.5 -47.5t24.5 -28.5t36.5 -13.5t55.5 -3.5h55v-103h-68q-46 0 -76.5 9.5
t-50.5 30.5t-33.5 54t-26.5 79q-56 -21 -103 -55.5t-81.5 -77.5t-54 -93t-19.5 -103v-21t2 -19q22 -45 74.5 -65.5t124.5 -20.5q58 0 124 6t129 16l9 -95q-78 -11 -141 -17t-127 -6q-51 0 -99 10.5t-85.5 35.5t-60 66.5t-22.5 103.5q0 76 28 143t76 121t112 94t136 62
q-34 13 -63 27.5t-52.5 25.5t-42 18.5t-31.5 7.5zM305 597l-63 -63l-63 63l63 64z" />
    <glyph glyph-name="khe.medi" unicode="&#x62e;" horiz-adv-x="652" arabic-form="medial" 
d="M78 103q55 0 100 15t85 37t78 47.5t80 45.5q-36 14 -67 30t-57.5 29t-47 21.5t-33.5 8.5q-9 0 -20 -5.5t-24 -19t-28.5 -36.5t-33.5 -58l-59 33q21 40 42 74t43 59.5t44 40t44 14.5q23 0 57 -16.5t79 -39.5t101.5 -48t125.5 -41l-19 -87q-8 0 -13.5 0.5t-14.5 -0.5
q-22 -1 -43 -6.5t-40 -14.5q9 -26 18.5 -42.5t24.5 -25.5t38.5 -12t59.5 -3h54v-103h-78q-43 0 -71.5 9t-47.5 27t-31.5 44.5t-23.5 62.5q-35 -24 -69.5 -49.5t-71 -46t-75.5 -34t-83 -13.5h-101q-14 0 -22 13t-8 38t8 38.5t22 13.5h78zM286 597l-63 -63l-63 63l63 64z" />
    <glyph glyph-name="khe.init" unicode="&#x62e;" horiz-adv-x="644" arabic-form="initial" 
d="M78 103q57 0 104 16t87.5 38.5t77 46t72.5 39.5q-36 15 -66.5 32t-56 30.5t-46 22.5t-34.5 9q-17 0 -43.5 -24.5t-64.5 -93.5l-59 34q21 39 43 72.5t44.5 59t44.5 40t44 14.5t57 -18.5t80.5 -44t101 -53t120.5 -46.5l-18 -87q-8 1 -16 1.5t-16 0.5q-35 0 -68.5 -14
t-66.5 -35.5t-66.5 -46.5t-69.5 -46.5t-76 -35.5t-86 -14h-101q-14 0 -22 13t-8 38t8 38.5t22 13.5h78zM286 597l-63 -63l-63 63l63 64z" />
    <glyph glyph-name="dal" unicode="&#x62f;" horiz-adv-x="515" arabic-form="isolated" 
d="M225 495q57 -29 99.5 -68.5t71.5 -86t43.5 -97.5t14.5 -103q0 -15 -6 -32t-15.5 -33t-22 -29t-25.5 -18q-33 -14 -86.5 -25.5t-123.5 -11.5q-48 0 -75 14t-40 36.5t-16 52t-3 61.5v67h65v-56q0 -41 16 -57.5t54 -16.5q63 0 114.5 10t87.5 24q-4 40 -16.5 79.5t-36.5 75.5
t-59.5 68t-85.5 58l45 88v0z" />
    <glyph glyph-name="dal.fina" unicode="&#x62f;" horiz-adv-x="537" arabic-form="final" 
d="M537 0q-20 0 -41.5 2t-42 11t-39.5 27t-34 49l-25 -44q-15 -9 -35.5 -18.5t-44.5 -17.5t-50 -13t-51 -5q-48 0 -75 14t-39.5 37t-15.5 52.5t-3 60.5v67h65v-56q0 -41 16 -57.5t54 -16.5q42 0 91 15.5t87 41.5l-85 321l85 24l70 -288q6 -25 13.5 -44.5t20 -32.5
t31.5 -19.5t48 -6.5v-103z" />
    <glyph glyph-name="zal" unicode="&#x630;" horiz-adv-x="515" arabic-form="isolated" 
d="M225 495q57 -29 99.5 -68.5t71.5 -86t43.5 -97.5t14.5 -103q0 -15 -6 -32t-15.5 -33t-22 -29t-25.5 -18q-33 -14 -86.5 -25.5t-123.5 -11.5q-48 0 -75 14t-40 36.5t-16 52t-3 61.5v67h65v-56q0 -41 16 -57.5t54 -16.5q63 0 114.5 10t87.5 24q-4 40 -16.5 79.5t-36.5 75.5
t-59.5 68t-85.5 58l45 88v0zM285 632l-63 -63l-63 63l63 64z" />
    <glyph glyph-name="zal.fina" unicode="&#x630;" horiz-adv-x="537" arabic-form="final" 
d="M537 0q-20 0 -41.5 2t-42 11t-39.5 27t-34 49l-25 -44q-15 -9 -35.5 -18.5t-44.5 -17.5t-50 -13t-51 -5q-48 0 -75 14t-39.5 37t-15.5 52.5t-3 60.5v67h65v-56q0 -41 16 -57.5t54 -16.5q42 0 91 15.5t87 41.5l-85 321l85 24l70 -288q6 -25 13.5 -44.5t20 -32.5
t31.5 -19.5t48 -6.5v-103zM371 632l-63 -63l-63 63l63 64z" />
    <glyph glyph-name="ddal.fina" unicode="&#x688;" horiz-adv-x="537" arabic-form="final" 
d="M537 0q-20 0 -41.5 2t-42 11t-39.5 27t-34 49l-25 -44q-15 -9 -35.5 -18.5t-44.5 -17.5t-50 -13t-51 -5q-48 0 -75 14t-39.5 37t-15.5 52.5t-3 60.5v67h65v-56q0 -41 16 -57.5t54 -16.5q42 0 91 15.5t87 41.5l-85 321l85 24l70 -288q6 -25 13.5 -44.5t20 -32.5
t31.5 -19.5t48 -6.5v-103zM195 627q5 11 8 20.5t4.5 22t2 29t0.5 41.5v104l47 1v-85q0 -12 -1 -24.5t-3 -24.5q14 18 28.5 29t28.5 11q19 0 36.5 -9.5t31.5 -25t22.5 -35t8.5 -38.5q0 -13 -9 -29t-22 -23q-23 -14 -59 -17t-67 -3h-98v56h41zM262 627q30 0 58 3t45 11
q-5 16 -19 34t-40 25q-17 -8 -33 -27t-32 -46h21z" />
    <glyph glyph-name="re" unicode="&#x631;" horiz-adv-x="294" arabic-form="isolated" 
d="M186 367q8 -37 16.5 -78t15 -83t11 -84.5t4.5 -82.5q0 -45 -20.5 -93.5t-51.5 -88t-67 -65t-67 -25.5q-41 0 -131 37l23 63q25 -8 44.5 -10.5t30.5 -2.5q22 0 49 17t50.5 43t39.5 57.5t16 61.5q0 28 -4.5 65t-11.5 78.5t-15.5 86t-17.5 86.5l86 18v0z" />
    <glyph glyph-name="re.fina" unicode="&#x631;" horiz-adv-x="330" arabic-form="final" 
d="M330 0q-34 0 -58 12t-42 37v-14.5t-1 -14.5q-2 -41 -22.5 -86t-50.5 -82t-64.5 -61t-64.5 -24q-41 0 -131 37l23 63q25 -8 44.5 -10.5t30.5 -2.5q21 0 48 17t51 43t40 57.5t16 61.5t-4 66.5t-10 75t-14 78t-16 76.5l84 17l24 -127q4 -24 13 -45t23 -36.5t34 -25t47 -9.5
v-103z" />
    <glyph glyph-name="ze" unicode="&#x632;" horiz-adv-x="294" arabic-form="isolated" 
d="M186 367q8 -37 16.5 -78t15 -83t11 -84.5t4.5 -82.5q0 -45 -20.5 -93.5t-51.5 -88t-67 -65t-67 -25.5q-41 0 -131 37l23 63q25 -8 44.5 -10.5t30.5 -2.5q22 0 49 17t50.5 43t39.5 57.5t16 61.5q0 28 -4.5 65t-11.5 78.5t-15.5 86t-17.5 86.5l86 18v0zM194 518l-63 -63
l-63 63l63 64z" />
    <glyph glyph-name="ze.fina" unicode="&#x632;" horiz-adv-x="330" arabic-form="final" 
d="M330 0q-34 0 -58 12t-42 37v-14.5t-1 -14.5q-2 -41 -22.5 -86t-50.5 -82t-64.5 -61t-64.5 -24q-41 0 -131 37l23 63q25 -8 44.5 -10.5t30.5 -2.5q21 0 48 17t51 43t40 57.5t16 61.5t-4 66.5t-10 75t-14 78t-16 76.5l84 17l24 -127q4 -24 13 -45t23 -36.5t34 -25t47 -9.5
v-103zM194 518l-63 -63l-63 63l63 64z" />
    <glyph glyph-name="je" unicode="&#x698;" horiz-adv-x="294" arabic-form="isolated" 
d="M186 367q8 -37 16.5 -78t15 -83t11 -84.5t4.5 -82.5q0 -45 -20.5 -93.5t-51.5 -88t-67 -65t-67 -25.5q-41 0 -131 37l23 63q25 -8 44.5 -10.5t30.5 -2.5q22 0 49 17t50.5 43t39.5 57.5t16 61.5q0 28 -4.5 65t-11.5 78.5t-15.5 86t-17.5 86.5l86 18v0zM197 651l-63 -63
l-63 63l63 64zM265 518l-63 -63l-63 63l63 64zM129 518l-63 -63l-63 63l63 64z" />
    <glyph glyph-name="je.fina" unicode="&#x698;" horiz-adv-x="330" arabic-form="final" 
d="M330 0q-34 0 -58 12t-42 37v-14.5t-1 -14.5q-2 -41 -22.5 -86t-50.5 -82t-64.5 -61t-64.5 -24q-41 0 -131 37l23 63q25 -8 44.5 -10.5t30.5 -2.5q21 0 48 17t51 43t40 57.5t16 61.5t-4 66.5t-10 75t-14 78t-16 76.5l84 17l24 -127q4 -24 13 -45t23 -36.5t34 -25t47 -9.5
v-103zM209 651l-63 -63l-63 63l63 64zM277 518l-63 -63l-63 63l63 64zM141 518l-63 -63l-63 63l63 64z" />
    <glyph glyph-name="rreh.fina" unicode="&#x691;" horiz-adv-x="330" arabic-form="final" 
d="M330 0q-34 0 -58 12t-42 37v-14.5t-1 -14.5q-2 -41 -22.5 -86t-50.5 -82t-64.5 -61t-64.5 -24q-41 0 -131 37l23 63q25 -8 44.5 -10.5t30.5 -2.5q21 0 48 17t51 43t40 57.5t16 61.5t-4 66.5t-10 75t-14 78t-16 76.5l84 17l24 -127q4 -24 13 -45t23 -36.5t34 -25t47 -9.5
v-103zM51 507q5 11 8 20.5t4.5 22t2 29t0.5 41.5v104l47 1v-85q0 -12 -1 -24.5t-3 -24.5q14 18 28.5 29t28.5 11q19 0 36.5 -9.5t31.5 -25t22.5 -35t8.5 -38.5q0 -13 -9 -29t-22 -23q-23 -14 -59 -17t-67 -3h-98v56h41zM118 507q30 0 58 3t45 11q-5 16 -19 34t-40 25
q-17 -8 -33 -27t-32 -46h21z" />
    <glyph glyph-name="sin" unicode="&#x633;" horiz-adv-x="1233" arabic-form="isolated" 
d="M1145 423q5 -27 9.5 -59.5t7.5 -64t4.5 -59.5t1.5 -47q0 -20 -1.5 -43.5t-8.5 -43.5q-6 -20 -21.5 -40t-36 -37t-43 -27.5t-42.5 -10.5q-38 0 -79.5 22t-83.5 57q-26 -38 -59 -57.5t-80 -19.5q-63 0 -99 49q2 -18 1.5 -36t-0.5 -34q-2 -48 -17 -93.5t-51 -69.5
q-20 -14 -47 -26.5t-59 -22t-68 -15.5t-73 -6q-54 0 -98 14t-75.5 42.5t-48.5 71t-17 99.5q0 36 7.5 76.5t20 83.5t29 87.5t33.5 89.5l64 -24q-15 -38 -29 -79t-25 -80t-18 -73.5t-7 -60.5q0 -38 13.5 -65.5t37.5 -44.5t57 -25t72 -8q25 0 54.5 4.5t58 12.5t54.5 19t46 25
q5 17 6.5 35.5t1.5 43.5q0 39 -5 86t-12 94t-15 90t-15 76l84 17l20 -118q5 -26 13.5 -49.5t22 -41.5t32.5 -29t45 -11q33 0 56 13.5t39 42.5t26 76t18 115l76 -8q-5 -50 -14 -99.5t-18 -81.5q29 -26 61.5 -44t56.5 -18q12 0 24.5 5t23 13.5t17 18t7.5 18.5q0 67 -6.5 132.5
t-17.5 125.5l89 17v0z" />
    <glyph glyph-name="sin.fina" unicode="&#x633;" horiz-adv-x="1254" arabic-form="final" 
d="M614 42q2 -18 1.5 -36t-0.5 -34q-2 -48 -17 -93.5t-51 -69.5q-20 -14 -47 -26.5t-59 -22t-68 -15.5t-73 -6q-54 0 -98 14t-75.5 42.5t-48.5 71t-17 99.5q0 36 7.5 76.5t20 83.5t29 87.5t33.5 89.5l64 -24q-15 -38 -29 -79t-25 -80t-18 -73.5t-7 -60.5q0 -38 13.5 -65.5
t37.5 -44.5t57 -25t72 -8q25 0 54.5 4.5t58 12.5t54.5 19t46 25q5 17 6.5 35.5t1.5 43.5q0 39 -5 86t-12 94t-15 90t-15 76l84 17l20 -118q5 -26 13.5 -49.5t22 -41.5t32.5 -29t45 -11q33 0 56 13.5t39 42.5t26 76t18 115l76 -8q-5 -50 -14 -99.5t-18 -81.5q30 -27 64 -45.5
t60 -18.5q8 0 22.5 12.5t23.5 24.5q3 3 4.5 7t2.5 13t1.5 25t0.5 43v163h80v-170q0 -51 23 -78.5t82 -27.5v-103q-107 0 -148 64q-8 -13 -19.5 -26t-25 -23.5t-28 -17t-27.5 -6.5q-31 0 -72 22t-82 57q-26 -38 -59 -57.5t-80 -19.5q-63 0 -99 49z" />
    <glyph glyph-name="sin.medi" unicode="&#x633;" horiz-adv-x="938" arabic-form="medial" 
d="M0 103q59 0 106 9.5t75 41.5q10 11 17.5 24.5t14.5 35t12.5 53t10.5 77.5l75 -8q-5 -48 -13.5 -97t-20.5 -83q22 -31 52.5 -45t61.5 -14q33 0 56 13.5t39 42.5t26 76t18 115l76 -8q-5 -50 -14 -99.5t-17 -81.5q29 -27 63 -45.5t60 -18.5q8 0 22.5 12.5t23.5 24.5
q3 3 4.5 7t2.5 13t1.5 25t0.5 43v163h80v-170q0 -51 23 -78.5t82 -27.5v-103q-107 0 -148 64q-8 -13 -19.5 -26t-25 -23.5t-28 -17t-27.5 -6.5q-31 0 -72 22t-82 57q-25 -35 -61 -56t-84 -21q-44 0 -86 20t-77 58q-33 -36 -86 -53.5t-142 -17.5q-14 0 -22 13t-8 38t8 38.5
t22 13.5z" />
    <glyph glyph-name="sin.init" unicode="&#x633;" horiz-adv-x="914" arabic-form="initial" 
d="M0 0q-14 0 -22 13t-8 38t8 38.5t22 13.5q59 0 106 9.5t75 41.5q10 11 17.5 24.5t14.5 35t12.5 53t10.5 77.5l75 -8q-5 -48 -13.5 -97t-20.5 -83q22 -31 52.5 -45t61.5 -14q33 0 56 13.5t39 42.5t26 76t18 115l76 -8q-5 -50 -14 -99.5t-17 -81.5q28 -26 60.5 -44t56.5 -18
q12 0 24.5 5t23 13.5t17 18t7.5 18.5q0 67 -6.5 132.5t-17.5 125.5l89 17q5 -27 9.5 -59.5t7.5 -64t5 -59.5t2 -47q0 -20 -2 -43.5t-9 -43.5q-6 -20 -21.5 -40t-35.5 -37t-42.5 -27.5t-42.5 -10.5q-38 0 -80 22t-84 57q-25 -35 -61 -56t-84 -21q-44 0 -86 20t-77 58
q-33 -36 -86 -53.5t-142 -17.5z" />
    <glyph glyph-name="shin" unicode="&#x634;" horiz-adv-x="1233" arabic-form="isolated" 
d="M1145 423q5 -27 9.5 -59.5t7.5 -64t4.5 -59.5t1.5 -47q0 -20 -1.5 -43.5t-8.5 -43.5q-6 -20 -21.5 -40t-36 -37t-43 -27.5t-42.5 -10.5q-38 0 -79.5 22t-83.5 57q-26 -38 -59 -57.5t-80 -19.5q-63 0 -99 49q2 -18 1.5 -36t-0.5 -34q-2 -48 -17 -93.5t-51 -69.5
q-20 -14 -47 -26.5t-59 -22t-68 -15.5t-73 -6q-54 0 -98 14t-75.5 42.5t-48.5 71t-17 99.5q0 36 7.5 76.5t20 83.5t29 87.5t33.5 89.5l64 -24q-15 -38 -29 -79t-25 -80t-18 -73.5t-7 -60.5q0 -38 13.5 -65.5t37.5 -44.5t57 -25t72 -8q25 0 54.5 4.5t58 12.5t54.5 19t46 25
q5 17 6.5 35.5t1.5 43.5q0 39 -5 86t-12 94t-15 90t-15 76l84 17l20 -118q5 -26 13.5 -49.5t22 -41.5t32.5 -29t45 -11q33 0 56 13.5t39 42.5t26 76t18 115l76 -8q-5 -50 -14 -99.5t-18 -81.5q29 -26 61.5 -44t56.5 -18q12 0 24.5 5t23 13.5t17 18t7.5 18.5q0 67 -6.5 132.5
t-17.5 125.5l89 17v0zM908 654l-63 -63l-63 63l63 64zM976 521l-63 -63l-63 63l63 64zM840 521l-63 -63l-63 63l63 64z" />
    <glyph glyph-name="shin.fina" unicode="&#x634;" horiz-adv-x="1254" arabic-form="final" 
d="M614 42q2 -18 1.5 -36t-0.5 -34q-2 -48 -17 -93.5t-51 -69.5q-20 -14 -47 -26.5t-59 -22t-68 -15.5t-73 -6q-54 0 -98 14t-75.5 42.5t-48.5 71t-17 99.5q0 36 7.5 76.5t20 83.5t29 87.5t33.5 89.5l64 -24q-15 -38 -29 -79t-25 -80t-18 -73.5t-7 -60.5q0 -38 13.5 -65.5
t37.5 -44.5t57 -25t72 -8q25 0 54.5 4.5t58 12.5t54.5 19t46 25q5 17 6.5 35.5t1.5 43.5q0 39 -5 86t-12 94t-15 90t-15 76l84 17l20 -118q5 -26 13.5 -49.5t22 -41.5t32.5 -29t45 -11q33 0 56 13.5t39 42.5t26 76t18 115l76 -8q-5 -50 -14 -99.5t-18 -81.5q30 -27 64 -45.5
t60 -18.5q8 0 22.5 12.5t23.5 24.5q3 3 4.5 7t2.5 13t1.5 25t0.5 43v163h80v-170q0 -51 23 -78.5t82 -27.5v-103q-107 0 -148 64q-8 -13 -19.5 -26t-25 -23.5t-28 -17t-27.5 -6.5q-31 0 -72 22t-82 57q-26 -38 -59 -57.5t-80 -19.5q-63 0 -99 49zM933 654l-63 -63l-63 63
l63 64zM1001 521l-63 -63l-63 63l63 64zM865 521l-63 -63l-63 63l63 64z" />
    <glyph glyph-name="shin.medi" unicode="&#x634;" horiz-adv-x="938" arabic-form="medial" 
d="M0 103q59 0 106 9.5t75 41.5q10 11 17.5 24.5t14.5 35t12.5 53t10.5 77.5l75 -8q-5 -48 -13.5 -97t-20.5 -83q22 -31 52.5 -45t61.5 -14q33 0 56 13.5t39 42.5t26 76t18 115l76 -8q-5 -50 -14 -99.5t-17 -81.5q29 -27 63 -45.5t60 -18.5q8 0 22.5 12.5t23.5 24.5
q3 3 4.5 7t2.5 13t1.5 25t0.5 43v163h80v-170q0 -51 23 -78.5t82 -27.5v-103q-107 0 -148 64q-8 -13 -19.5 -26t-25 -23.5t-28 -17t-27.5 -6.5q-31 0 -72 22t-82 57q-25 -35 -61 -56t-84 -21q-44 0 -86 20t-77 58q-33 -36 -86 -53.5t-142 -17.5q-14 0 -22 13t-8 38t8 38.5
t22 13.5zM615 654l-63 -63l-63 63l63 64zM683 521l-63 -63l-63 63l63 64zM547 521l-63 -63l-63 63l63 64z" />
    <glyph glyph-name="shin.init" unicode="&#x634;" horiz-adv-x="914" arabic-form="initial" 
d="M0 0q-14 0 -22 13t-8 38t8 38.5t22 13.5q59 0 106 9.5t75 41.5q10 11 17.5 24.5t14.5 35t12.5 53t10.5 77.5l75 -8q-5 -48 -13.5 -97t-20.5 -83q22 -31 52.5 -45t61.5 -14q33 0 56 13.5t39 42.5t26 76t18 115l76 -8q-5 -50 -14 -99.5t-17 -81.5q28 -26 60.5 -44t56.5 -18
q12 0 24.5 5t23 13.5t17 18t7.5 18.5q0 67 -6.5 132.5t-17.5 125.5l89 17q5 -27 9.5 -59.5t7.5 -64t5 -59.5t2 -47q0 -20 -2 -43.5t-9 -43.5q-6 -20 -21.5 -40t-35.5 -37t-42.5 -27.5t-42.5 -10.5q-38 0 -80 22t-84 57q-25 -35 -61 -56t-84 -21q-44 0 -86 20t-77 58
q-33 -36 -86 -53.5t-142 -17.5zM590 654l-63 -63l-63 63l63 64zM658 521l-63 -63l-63 63l63 64zM522 521l-63 -63l-63 63l63 64z" />
    <glyph glyph-name="sad" unicode="&#x635;" horiz-adv-x="1220" arabic-form="isolated" 
d="M907 324q-26 -7 -52.5 -28t-52 -51t-49 -66t-43.5 -72q16 -5 32.5 -7.5t38.5 -2.5q31 1 69.5 3.5t79 7.5t79.5 14t71 22q-4 25 -16 53.5t-33 54t-52 45t-72 27.5zM614 48q2 -23 1.5 -41.5t-0.5 -34.5q-2 -48 -17 -93.5t-51 -69.5q-20 -14 -47 -26.5t-59 -22t-68 -15.5
t-73 -6q-54 0 -98 14t-75.5 42.5t-48.5 71t-17 99.5q0 36 7.5 76.5t20 83.5t29 87.5t33.5 89.5l64 -24q-15 -38 -29 -79t-25 -80t-18 -73.5t-7 -60.5q0 -38 13.5 -65.5t37.5 -44.5t57 -25t72 -8q25 0 54.5 4.5t58 12.5t54.5 19t46 25q5 17 6.5 35.5t1.5 43.5q0 39 -5 86
t-12 94t-15 90t-15 76l84 17l20 -118q5 -25 15.5 -53t33.5 -48q31 60 66.5 113t72 93t72 63t65.5 23q48 0 91.5 -24.5t76.5 -63t52 -84t19 -87.5q0 -15 -5 -32.5t-13 -33t-20 -28.5t-25 -19q-40 -17 -85.5 -27.5t-90 -16.5t-86 -8t-74.5 -2q-52 0 -86.5 14t-58.5 41z" />
    <glyph glyph-name="sad.fina" unicode="&#x635;" horiz-adv-x="1230" arabic-form="final" 
d="M759 -7q-52 0 -86.5 14t-58.5 41q2 -23 1.5 -41.5t-0.5 -34.5q-2 -48 -17 -93.5t-51 -69.5q-20 -14 -47 -26.5t-59 -22t-68 -15.5t-73 -6q-54 0 -98 14t-75.5 42.5t-48.5 71t-17 99.5q0 36 7.5 76.5t20 83.5t29 87.5t33.5 89.5l64 -24q-15 -38 -29 -79t-25 -80t-18 -73.5
t-7 -60.5q0 -38 13.5 -65.5t37.5 -44.5t57 -25t72 -8q25 0 54.5 4.5t58 12.5t54.5 19t46 25q5 17 6.5 35.5t1.5 43.5q0 39 -5 86t-12 94t-15 90t-15 76l84 17l20 -118q5 -25 15.5 -53t33.5 -48q31 60 66.5 113t72 93t72 63t65.5 23q48 0 91.5 -24.5t76.5 -63t52 -84
t19 -87.5q0 -21 -11 -40q16 -11 40 -14t43 -3v-103q-32 0 -65.5 8.5t-65.5 40.5q-39 -18 -86 -29t-94.5 -17t-89.5 -8t-70 -2zM907 324q-26 -7 -52.5 -28t-52 -51t-49 -66t-43.5 -72q16 -5 32.5 -7.5t38.5 -2.5q31 1 69.5 3.5t79 7.5t79.5 14t71 22q-4 25 -16 53.5t-33 54
t-52 45t-72 27.5z" />
    <glyph glyph-name="sad.medi" unicode="&#x635;" horiz-adv-x="944" arabic-form="medial" 
d="M0 103q59 0 106 9.5t75 41.5q10 10 18 24t14 35.5t11.5 53t11.5 77.5l75 -8q-12 -111 -32 -177q13 -20 30.5 -32.5t39.5 -19.5q31 64 67.5 120.5t74 99t74 67.5t68.5 25q48 0 91.5 -24.5t76.5 -63t52 -84t19 -87.5q0 -21 -11 -40q16 -11 40 -14t43 -3v-103
q-32 0 -65.5 8.5t-65.5 40.5q-39 -18 -85 -29t-94.5 -17t-96.5 -8t-89 -2q-40 0 -71.5 4.5t-58 14t-47.5 25t-40 36.5q-35 -38 -88 -55.5t-143 -17.5q-14 0 -22 13t-8 38t8 38.5t22 13.5zM621 324q-26 -7 -53.5 -29t-53.5 -53.5t-50.5 -69t-44.5 -74.5q13 -1 24.5 -1h26.5
q42 0 85.5 2.5t86 8t81.5 14.5t71 22q-4 25 -16 53.5t-33 54t-52 45t-72 27.5z" />
    <glyph glyph-name="sad.init" unicode="&#x635;" horiz-adv-x="934" arabic-form="initial" 
d="M0 103q59 0 106 9.5t75 41.5q10 11 17.5 24.5t14 35t12 53t11.5 77.5l75 -8q-12 -111 -32 -177q13 -20 30.5 -32.5t39.5 -19.5q31 64 67.5 120.5t74 99t74 67.5t68.5 25q48 0 91.5 -24.5t76.5 -63t52 -84t19 -87.5q0 -15 -4.5 -32.5t-13 -33t-20 -28.5t-25.5 -19
q-40 -17 -85.5 -27.5t-93 -16.5t-94 -8t-88.5 -2q-40 0 -71.5 4.5t-58 14t-47.5 25t-40 36.5q-35 -38 -88 -55.5t-143 -17.5q-14 0 -22 13t-8 38t8 38.5t22 13.5zM621 324q-26 -7 -53.5 -29t-53.5 -53.5t-50.5 -69t-44.5 -74.5q13 -1 24.5 -1h26.5q42 0 85.5 2.5t86 8
t81.5 14.5t71 22q-4 25 -16 53.5t-33 54t-52 45t-72 27.5z" />
    <glyph glyph-name="zad" unicode="&#x636;" horiz-adv-x="1220" arabic-form="isolated" 
d="M907 324q-26 -7 -52.5 -28t-52 -51t-49 -66t-43.5 -72q16 -5 32.5 -7.5t38.5 -2.5q31 1 69.5 3.5t79 7.5t79.5 14t71 22q-4 25 -16 53.5t-33 54t-52 45t-72 27.5zM614 48q2 -23 1.5 -41.5t-0.5 -34.5q-2 -48 -17 -93.5t-51 -69.5q-20 -14 -47 -26.5t-59 -22t-68 -15.5
t-73 -6q-54 0 -98 14t-75.5 42.5t-48.5 71t-17 99.5q0 36 7.5 76.5t20 83.5t29 87.5t33.5 89.5l64 -24q-15 -38 -29 -79t-25 -80t-18 -73.5t-7 -60.5q0 -38 13.5 -65.5t37.5 -44.5t57 -25t72 -8q25 0 54.5 4.5t58 12.5t54.5 19t46 25q5 17 6.5 35.5t1.5 43.5q0 39 -5 86
t-12 94t-15 90t-15 76l84 17l20 -118q5 -25 15.5 -53t33.5 -48q31 60 66.5 113t72 93t72 63t65.5 23q48 0 91.5 -24.5t76.5 -63t52 -84t19 -87.5q0 -15 -5 -32.5t-13 -33t-20 -28.5t-25 -19q-40 -17 -85.5 -27.5t-90 -16.5t-86 -8t-74.5 -2q-52 0 -86.5 14t-58.5 41z
M958 587l-63 -63l-63 63l63 64z" />
    <glyph glyph-name="zad.fina" unicode="&#x636;" horiz-adv-x="1230" arabic-form="final" 
d="M759 -7q-52 0 -86.5 14t-58.5 41q2 -23 1.5 -41.5t-0.5 -34.5q-2 -48 -17 -93.5t-51 -69.5q-20 -14 -47 -26.5t-59 -22t-68 -15.5t-73 -6q-54 0 -98 14t-75.5 42.5t-48.5 71t-17 99.5q0 36 7.5 76.5t20 83.5t29 87.5t33.5 89.5l64 -24q-15 -38 -29 -79t-25 -80t-18 -73.5
t-7 -60.5q0 -38 13.5 -65.5t37.5 -44.5t57 -25t72 -8q25 0 54.5 4.5t58 12.5t54.5 19t46 25q5 17 6.5 35.5t1.5 43.5q0 39 -5 86t-12 94t-15 90t-15 76l84 17l20 -118q5 -25 15.5 -53t33.5 -48q31 60 66.5 113t72 93t72 63t65.5 23q48 0 91.5 -24.5t76.5 -63t52 -84
t19 -87.5q0 -21 -11 -40q16 -11 40 -14t43 -3v-103q-32 0 -65.5 8.5t-65.5 40.5q-39 -18 -86 -29t-94.5 -17t-89.5 -8t-70 -2zM907 324q-26 -7 -52.5 -28t-52 -51t-49 -66t-43.5 -72q16 -5 32.5 -7.5t38.5 -2.5q31 1 69.5 3.5t79 7.5t79.5 14t71 22q-4 25 -16 53.5t-33 54
t-52 45t-72 27.5zM958 587l-63 -63l-63 63l63 64z" />
    <glyph glyph-name="zad.medi" unicode="&#x636;" horiz-adv-x="944" arabic-form="medial" 
d="M0 103q59 0 106 9.5t75 41.5q10 10 18 24t14 35.5t11.5 53t11.5 77.5l75 -8q-12 -111 -32 -177q13 -20 30.5 -32.5t39.5 -19.5q31 64 67.5 120.5t74 99t74 67.5t68.5 25q48 0 91.5 -24.5t76.5 -63t52 -84t19 -87.5q0 -21 -11 -40q16 -11 40 -14t43 -3v-103
q-32 0 -65.5 8.5t-65.5 40.5q-39 -18 -85 -29t-94.5 -17t-96.5 -8t-89 -2q-40 0 -71.5 4.5t-58 14t-47.5 25t-40 36.5q-35 -38 -88 -55.5t-143 -17.5q-14 0 -22 13t-8 38t8 38.5t22 13.5zM621 324q-26 -7 -53.5 -29t-53.5 -53.5t-50.5 -69t-44.5 -74.5q13 -1 24.5 -1h26.5
q42 0 85.5 2.5t86 8t81.5 14.5t71 22q-4 25 -16 53.5t-33 54t-52 45t-72 27.5zM674 587l-63 -63l-63 63l63 64z" />
    <glyph glyph-name="zad.init" unicode="&#x636;" horiz-adv-x="934" arabic-form="initial" 
d="M0 103q59 0 106 9.5t75 41.5q10 11 17.5 24.5t14 35t12 53t11.5 77.5l75 -8q-12 -111 -32 -177q13 -20 30.5 -32.5t39.5 -19.5q31 64 67.5 120.5t74 99t74 67.5t68.5 25q48 0 91.5 -24.5t76.5 -63t52 -84t19 -87.5q0 -15 -4.5 -32.5t-13 -33t-20 -28.5t-25.5 -19
q-40 -17 -85.5 -27.5t-93 -16.5t-94 -8t-88.5 -2q-40 0 -71.5 4.5t-58 14t-47.5 25t-40 36.5q-35 -38 -88 -55.5t-143 -17.5q-14 0 -22 13t-8 38t8 38.5t22 13.5zM621 324q-26 -7 -53.5 -29t-53.5 -53.5t-50.5 -69t-44.5 -74.5q13 -1 24.5 -1h26.5q42 0 85.5 2.5t86 8
t81.5 14.5t71 22q-4 25 -16 53.5t-33 54t-52 45t-72 27.5zM674 587l-63 -63l-63 63l63 64z" />
    <glyph glyph-name="ta" unicode="&#x637;" horiz-adv-x="761" arabic-form="isolated" 
d="M178 103l17.5 38.5t12.5 34t8.5 38.5t5.5 50.5t2.5 70.5t0.5 100v252l82 4v-248q0 -39 -3.5 -78.5t-11.5 -73.5q41 58 86 93t82 35q48 0 91.5 -24.5t76.5 -63t52 -84t19 -87.5q0 -15 -4.5 -32t-12.5 -32.5t-19 -27.5t-23 -18q-34 -15 -80 -25t-98 -15.5t-106.5 -7.5
t-104.5 -2h-209v103h136zM448 324q-29 -8 -56.5 -30.5t-53 -53t-48.5 -66.5t-43 -72q50 0 101 1.5t99.5 6.5t92.5 13.5t81 22.5q-4 24 -16 52t-33 53.5t-52 45t-72 27.5z" />
    <glyph glyph-name="ta.fina" unicode="&#x637;" horiz-adv-x="771" arabic-form="final" 
d="M307 443q0 -39 -3.5 -78.5t-11.5 -73.5q41 58 86 93t82 35q48 0 91.5 -24.5t76.5 -63t52 -84t19 -87.5q0 -21 -11 -40q16 -11 40 -14t43 -3v-103q-32 0 -65.5 8.5t-65.5 40.5q-36 -16 -84 -25.5t-98.5 -15t-98 -7t-82.5 -1.5h-235v103h136l17.5 38.5t12.5 34t8.5 38.5
t5.5 50.5t2.5 70.5t0.5 100v252l82 4v-248zM448 324q-29 -8 -56.5 -30.5t-53 -53t-48.5 -66.5t-43 -72q50 0 101 1.5t99.5 6.5t92.5 13.5t81 22.5q-4 24 -16 52t-33 53.5t-52 45t-72 27.5z" />
    <glyph glyph-name="ta.medi" unicode="&#x637;" horiz-adv-x="684" arabic-form="medial" 
d="M91 103l17.5 38.5t13 34t9 38.5t5.5 50.5t2.5 70.5t0.5 100v252l81 4v-248q0 -39 -3 -78.5t-11 -73.5q40 58 85.5 93t81.5 35q48 0 91.5 -24.5t76.5 -63t52.5 -84t19.5 -87.5q0 -11 -3.5 -21t-8.5 -19q17 -11 40.5 -14t42.5 -3v-103q-31 0 -65 8.5t-66 40.5
q-36 -16 -84 -25.5t-98.5 -15t-97.5 -7t-82 -1.5h-191q-14 0 -22 13t-8 38t8 38.5t22 13.5h91zM362 324q-29 -8 -57 -30.5t-53.5 -53t-48.5 -66.5t-43 -72q51 0 102 1.5t99 6.5t92 13.5t81 22.5q-4 24 -16 52t-33 53.5t-51.5 45t-71.5 27.5z" />
    <glyph glyph-name="ta.init" unicode="&#x637;" horiz-adv-x="674" arabic-form="initial" 
d="M91 103l17.5 38.5t13 34t9 38.5t5.5 50.5t2.5 70.5t0.5 100v252l81 4v-248q0 -39 -3 -78.5t-11 -73.5q40 58 85.5 93t81.5 35q48 0 91.5 -24.5t76.5 -63t52.5 -84t19.5 -87.5q0 -15 -4.5 -32t-13 -32.5t-19.5 -27.5t-23 -18q-34 -15 -80 -25t-98 -15.5t-106.5 -7.5
t-104.5 -2h-164q-14 0 -22 13t-8 38t8 38.5t22 13.5h91zM362 324q-29 -8 -57 -30.5t-53.5 -53t-48.5 -66.5t-43 -72q51 0 102 1.5t99 6.5t92 13.5t81 22.5q-4 24 -16 52t-33 53.5t-51.5 45t-71.5 27.5z" />
    <glyph glyph-name="za" unicode="&#x638;" horiz-adv-x="761" arabic-form="isolated" 
d="M178 103l17.5 38.5t12.5 34t8.5 38.5t5.5 50.5t2.5 70.5t0.5 100v252l82 4v-248q0 -39 -3.5 -78.5t-11.5 -73.5q41 58 86 93t82 35q48 0 91.5 -24.5t76.5 -63t52 -84t19 -87.5q0 -15 -4.5 -32t-12.5 -32.5t-19 -27.5t-23 -18q-34 -15 -80 -25t-98 -15.5t-106.5 -7.5
t-104.5 -2h-209v103h136zM448 324q-29 -8 -56.5 -30.5t-53 -53t-48.5 -66.5t-43 -72q50 0 101 1.5t99.5 6.5t92.5 13.5t81 22.5q-4 24 -16 52t-33 53.5t-52 45t-72 27.5zM534 587l-63 -63l-63 63l63 64z" />
    <glyph glyph-name="za.fina" unicode="&#x638;" horiz-adv-x="771" arabic-form="final" 
d="M307 443q0 -39 -3.5 -78.5t-11.5 -73.5q41 58 86 93t82 35q48 0 91.5 -24.5t76.5 -63t52 -84t19 -87.5q0 -21 -11 -40q16 -11 40 -14t43 -3v-103q-32 0 -65.5 8.5t-65.5 40.5q-36 -16 -84 -25.5t-98.5 -15t-98 -7t-82.5 -1.5h-235v103h136l17.5 38.5t12.5 34t8.5 38.5
t5.5 50.5t2.5 70.5t0.5 100v252l82 4v-248zM448 324q-29 -8 -56.5 -30.5t-53 -53t-48.5 -66.5t-43 -72q50 0 101 1.5t99.5 6.5t92.5 13.5t81 22.5q-4 24 -16 52t-33 53.5t-52 45t-72 27.5zM534 587l-63 -63l-63 63l63 64z" />
    <glyph glyph-name="za.medi" unicode="&#x638;" horiz-adv-x="684" arabic-form="medial" 
d="M91 103l17.5 38.5t13 34t9 38.5t5.5 50.5t2.5 70.5t0.5 100v252l81 4v-248q0 -39 -3 -78.5t-11 -73.5q40 58 85.5 93t81.5 35q48 0 91.5 -24.5t76.5 -63t52.5 -84t19.5 -87.5q0 -11 -3.5 -21t-8.5 -19q17 -11 40.5 -14t42.5 -3v-103q-31 0 -65 8.5t-66 40.5
q-36 -16 -84 -25.5t-98.5 -15t-97.5 -7t-82 -1.5h-191q-14 0 -22 13t-8 38t8 38.5t22 13.5h91zM362 324q-29 -8 -57 -30.5t-53.5 -53t-48.5 -66.5t-43 -72q51 0 102 1.5t99 6.5t92 13.5t81 22.5q-4 24 -16 52t-33 53.5t-51.5 45t-71.5 27.5zM446 587l-63 -63l-63 63l63 64z
" />
    <glyph glyph-name="za.init" unicode="&#x638;" horiz-adv-x="674" arabic-form="initial" 
d="M91 103l17.5 38.5t13 34t9 38.5t5.5 50.5t2.5 70.5t0.5 100v252l81 4v-248q0 -39 -3 -78.5t-11 -73.5q40 58 85.5 93t81.5 35q48 0 91.5 -24.5t76.5 -63t52.5 -84t19.5 -87.5q0 -15 -4.5 -32t-13 -32.5t-19.5 -27.5t-23 -18q-34 -15 -80 -25t-98 -15.5t-106.5 -7.5
t-104.5 -2h-164q-14 0 -22 13t-8 38t8 38.5t22 13.5h91zM362 324q-29 -8 -57 -30.5t-53.5 -53t-48.5 -66.5t-43 -72q51 0 102 1.5t99 6.5t92 13.5t81 22.5q-4 24 -16 52t-33 53.5t-51.5 45t-71.5 27.5zM446 587l-63 -63l-63 63l63 64z" />
    <glyph glyph-name="ein" unicode="&#x639;" horiz-adv-x="552" arabic-form="isolated" 
d="M469 81q-78 -21 -139 -42.5t-103 -49.5t-64 -64t-22 -86q0 -24 4 -40q26 -45 79 -63t116 -18q48 0 103.5 4.5t106.5 11.5l9 -95q-59 -8 -115 -12.5t-110 -4.5q-48 0 -95 10.5t-85 35t-61.5 64.5t-23.5 99q0 71 22.5 121t69.5 96q-30 24 -49.5 51t-30.5 53t-15.5 49.5
t-4.5 41.5q0 31 9 62.5t28 57.5q12 17 31 30.5t40 23t42 14.5t38 5q66 0 146 -59l-38 -64q-22 13 -46 21.5t-45 8.5q-20 0 -47.5 -7t-55.5 -29q-8 -10 -12.5 -27t-4.5 -34q0 -21 10 -45t24 -44t30 -33t28 -13q8 0 23 4.5t40.5 12.5t62 19.5t86.5 25.5z" />
    <glyph glyph-name="ein.fina" unicode="&#x639;" horiz-adv-x="562" arabic-form="final" 
d="M360 114q18 -4 36 -6t41.5 -3t53.5 -1.5t71 -0.5v-103q-49 0 -88.5 1.5t-73 7t-63.5 15t-60 25.5q-61 -47 -101 -100t-40 -115q0 -11 0.5 -18.5t2.5 -16.5q26 -45 79.5 -63t116.5 -18q48 0 105 4.5t109 12.5l8 -95q-58 -8 -114.5 -13t-110.5 -5q-47 0 -94.5 10.5
t-86 34.5t-63 64t-24.5 99q0 82 38 147t107 122q-23 21 -48 46t-46 49t-35.5 44.5t-18.5 31.5q0 9 2.5 22t5.5 25t6.5 22.5t7.5 15.5q28 13 59 24.5t62.5 19.5t61.5 12.5t54 4.5q38 0 72 -9.5t59.5 -27t40 -41.5t14.5 -52q0 -8 -1.5 -21t-5.5 -26q-7 -19 -39 -49.5
t-100 -75.5zM280 147q19 13 40.5 28.5t42 31.5t38.5 31.5t30 29.5q-14 32 -48 46t-74 14q-37 0 -81 -11.5t-82 -27.5q16 -21 34.5 -42.5t36.5 -40.5t34.5 -34.5t28.5 -24.5z" />
    <glyph glyph-name="ein.medi" unicode="&#x639;" horiz-adv-x="562" arabic-form="medial" 
d="M0 103q57 0 104.5 3t85.5 11q-15 13 -35.5 34.5t-40 44t-34.5 43t-18 31.5q0 9 2 22t5 25t7 22.5t8 15.5q27 13 58.5 24.5t63 19.5t61 12.5t53.5 4.5q39 0 73 -9.5t59.5 -27t40 -41.5t14.5 -52q0 -8 -2 -21t-5 -26q-7 -19 -39 -49t-100 -76q29 -7 74.5 -9t126.5 -2v-103
q-48 0 -88 2t-74 8t-65 16.5t-61 27.5q-40 -18 -73 -28.5t-65 -16t-64.5 -7.5t-71.5 -2q-14 0 -22 13t-8 38t8 38.5t22 13.5zM280 147q19 13 40.5 28.5t42.5 31.5t39 31.5t30 29.5q-15 32 -49 46t-73 14q-37 0 -81.5 -11.5t-82.5 -27.5q16 -21 34.5 -42.5t36.5 -40.5
t34.5 -34.5t28.5 -24.5z" />
    <glyph glyph-name="ein.init" unicode="&#x639;" horiz-adv-x="539" arabic-form="initial" 
d="M0 103h59t55 2q-26 32 -35 67.5t-9 62.5q0 43 16 78t42 60t60 39t70 14q64 0 145 -58l-37 -64q-23 13 -46.5 21.5t-45.5 8.5q-11 0 -31 -2.5t-39.5 -12.5t-34 -29t-14.5 -53q0 -19 7 -40t18 -39t24 -30t25 -12q21 0 81 10.5t148 34.5l20 -96q-72 -20 -129 -33t-111 -20
t-110.5 -9.5t-127.5 -2.5q-14 0 -22 13t-8 38t8 38.5t22 13.5z" />
    <glyph glyph-name="qein" unicode="&#x63a;" horiz-adv-x="552" arabic-form="isolated" 
d="M469 81q-78 -21 -139 -42.5t-103 -49.5t-64 -64t-22 -86q0 -24 4 -40q26 -45 79 -63t116 -18q48 0 103.5 4.5t106.5 11.5l9 -95q-59 -8 -115 -12.5t-110 -4.5q-48 0 -95 10.5t-85 35t-61.5 64.5t-23.5 99q0 71 22.5 121t69.5 96q-30 24 -49.5 51t-30.5 53t-15.5 49.5
t-4.5 41.5q0 31 9 62.5t28 57.5q12 17 31 30.5t40 23t42 14.5t38 5q66 0 146 -59l-38 -64q-22 13 -46 21.5t-45 8.5q-20 0 -47.5 -7t-55.5 -29q-8 -10 -12.5 -27t-4.5 -34q0 -21 10 -45t24 -44t30 -33t28 -13q8 0 23 4.5t40.5 12.5t62 19.5t86.5 25.5zM292 574l-63 -63
l-63 63l63 64z" />
    <glyph glyph-name="qein.fina" unicode="&#x63a;" horiz-adv-x="562" arabic-form="final" 
d="M360 114q18 -4 36 -6t41.5 -3t53.5 -1.5t71 -0.5v-103q-49 0 -88.5 1.5t-73 7t-63.5 15t-60 25.5q-61 -47 -101 -100t-40 -115q0 -11 0.5 -18.5t2.5 -16.5q26 -45 79.5 -63t116.5 -18q48 0 105 4.5t109 12.5l8 -95q-58 -8 -114.5 -13t-110.5 -5q-47 0 -94.5 10.5
t-86 34.5t-63 64t-24.5 99q0 82 38 147t107 122q-23 21 -48 46t-46 49t-35.5 44.5t-18.5 31.5q0 9 2.5 22t5.5 25t6.5 22.5t7.5 15.5q28 13 59 24.5t62.5 19.5t61.5 12.5t54 4.5q38 0 72 -9.5t59.5 -27t40 -41.5t14.5 -52q0 -8 -1.5 -21t-5.5 -26q-7 -19 -39 -49.5
t-100 -75.5zM280 147q19 13 40.5 28.5t42 31.5t38.5 31.5t30 29.5q-14 32 -48 46t-74 14q-37 0 -81 -11.5t-82 -27.5q16 -21 34.5 -42.5t36.5 -40.5t34.5 -34.5t28.5 -24.5zM357 565l-63 -63l-63 63l63 64z" />
    <glyph glyph-name="qein.medi" unicode="&#x63a;" horiz-adv-x="562" arabic-form="medial" 
d="M0 103q57 0 104.5 3t85.5 11q-15 13 -35.5 34.5t-40 44t-34.5 43t-18 31.5q0 9 2 22t5 25t7 22.5t8 15.5q27 13 58.5 24.5t63 19.5t61 12.5t53.5 4.5q39 0 73 -9.5t59.5 -27t40 -41.5t14.5 -52q0 -8 -2 -21t-5 -26q-7 -19 -39 -49t-100 -76q29 -7 74.5 -9t126.5 -2v-103
q-48 0 -88 2t-74 8t-65 16.5t-61 27.5q-40 -18 -73 -28.5t-65 -16t-64.5 -7.5t-71.5 -2q-14 0 -22 13t-8 38t8 38.5t22 13.5zM280 147q19 13 40.5 28.5t42.5 31.5t39 31.5t30 29.5q-15 32 -49 46t-73 14q-37 0 -81.5 -11.5t-82.5 -27.5q16 -21 34.5 -42.5t36.5 -40.5
t34.5 -34.5t28.5 -24.5zM358 565l-63 -63l-63 63l63 64z" />
    <glyph glyph-name="qein.init" unicode="&#x63a;" horiz-adv-x="539" arabic-form="initial" 
d="M0 103h59t55 2q-26 32 -35 67.5t-9 62.5q0 43 16 78t42 60t60 39t70 14q64 0 145 -58l-37 -64q-23 13 -46.5 21.5t-45.5 8.5q-11 0 -31 -2.5t-39.5 -12.5t-34 -29t-14.5 -53q0 -19 7 -40t18 -39t24 -30t25 -12q21 0 81 10.5t148 34.5l20 -96q-72 -20 -129 -33t-111 -20
t-110.5 -9.5t-127.5 -2.5q-14 0 -22 13t-8 38t8 38.5t22 13.5zM301 574l-63 -63l-63 63l63 64z" />
    <glyph glyph-name="fe" unicode="&#x641;" horiz-adv-x="854" arabic-form="isolated" 
d="M589 447q-17 0 -32.5 -9.5t-27.5 -25.5t-19.5 -37t-7.5 -44q0 -12 2 -21.5t10.5 -16t25 -10t46.5 -3.5q28 0 61 4t60 11q-3 27 -11.5 54.5t-23 49t-35.5 35t-48 13.5zM376 94q43 0 90 2.5t91.5 8t84 13.5t68.5 19q2 19 2.5 37t0.5 35q-34 -7 -68.5 -12t-74.5 -5
q-72 0 -106 32t-34 101q0 39 12 78t34 69.5t51.5 50t64.5 19.5q41 0 77.5 -19.5t64 -58.5t43.5 -97t16 -135q0 -6 -0.5 -18.5t-1.5 -26.5t-2.5 -27t-2.5 -20q-3 -13 -8.5 -28.5t-15 -30t-22.5 -26.5t-30 -18q-45 -16 -132 -32t-221 -16q-93 0 -151 19.5t-90 50.5t-43.5 68.5
t-11.5 72.5q0 29 6 57.5t15.5 55.5t20.5 50.5t21 43.5l60 -31q-19 -38 -31 -78t-12 -72q0 -66 57.5 -99t177.5 -33zM659 697l-63 -63l-63 63l63 64z" />
    <glyph glyph-name="fe.fina" unicode="&#x641;" horiz-adv-x="890" arabic-form="final" 
d="M890 0h-66q-57 0 -102 8t-88 28q-57 -26 -127.5 -36.5t-149.5 -10.5q-93 0 -151 19.5t-90 50t-43.5 67.5t-11.5 73q0 32 6.5 62t16 57t21 50.5t22.5 41.5l59 -34q-8 -14 -16.5 -33t-15 -39t-11 -40.5t-4.5 -38.5q0 -32 13.5 -56t42 -41t73.5 -25.5t109 -8.5q42 0 80 1.5
t71 6.5q-60 54 -60 127q0 58 24 101.5t56.5 72.5t66 44t53.5 15q25 0 54 -17t53.5 -47.5t40.5 -72.5t16 -91q0 -30 -20.5 -65t-58.5 -61q13 -2 24.5 -3t26 -1.5t35 -0.5h51.5v-103zM638 125q38 15 66 37.5t48 56.5q-1 20 -7 41.5t-17.5 41.5t-28.5 36t-40 25q-24 -6 -45 -19
t-36.5 -30.5t-24.5 -38t-9 -40.5q0 -33 24.5 -62.5t69.5 -47.5zM732 617l-63 -63l-63 63l63 64z" />
    <glyph glyph-name="fe.medi" unicode="&#x641;" horiz-adv-x="497" arabic-form="medial" 
d="M0 0q-14 0 -22 13t-8 38t8 38.5t22 13.5q37 0 69.5 1t63.5 5q-57 51 -57 120q0 58 23.5 101.5t56 72.5t66.5 44t54 15q25 0 53.5 -17.5t53 -48t40.5 -72.5t16 -91q0 -11 -3.5 -26t-12 -32t-23.5 -34.5t-37 -32.5q12 -2 23 -2.5t25.5 -1.5t35 -1h50.5v-103h-65
q-59 0 -104.5 8.5t-87.5 29.5q-25 -11 -49.5 -18t-52.5 -11.5t-61.5 -6.5t-76.5 -2zM246 125q76 30 114 94q-1 21 -7.5 43t-18 41.5t-28.5 35t-39 24.5q-25 -6 -46 -19t-36.5 -30.5t-24 -38t-8.5 -40.5q0 -34 24.5 -63t69.5 -47zM342 618l-63 -63l-63 63l63 64z" />
    <glyph glyph-name="fe.init" unicode="&#x641;" horiz-adv-x="528" arabic-form="initial" 
d="M0 103q66 0 121.5 1.5t102.5 5.5t86.5 11.5t73.5 19.5q2 19 2.5 38t0.5 36q-34 -7 -68.5 -11.5t-74.5 -4.5q-72 0 -106 32t-34 101q0 39 12 78t34 69.5t52 50t65 19.5q41 0 77.5 -19.5t63.5 -58.5t43 -97.5t16 -135.5q0 -7 -0.5 -19t-1.5 -25.5t-2 -26t-2 -20.5
q-7 -36 -26 -64t-45 -38q-32 -13 -70 -21.5t-85 -14t-105 -7.5t-130 -2q-14 0 -22 13t-8 38t8 38.5t22 13.5zM263 454q-17 0 -32.5 -9.5t-27.5 -25.5t-19.5 -37t-7.5 -45q0 -12 2.5 -21.5t10.5 -15.5t25 -9.5t47 -3.5q29 0 61 4t59 10q-3 27 -11.5 54.5t-23 49.5t-35.5 35.5
t-48 13.5zM334 697l-63 -63l-63 63l63 64z" />
    <glyph glyph-name="veh.fina" unicode="&#x6a4;" horiz-adv-x="896" arabic-form="final" 
d="M896 0h-66q-57 0 -102 8t-88 28q-57 -26 -127 -36.5t-149 -10.5q-93 0 -151.5 19.5t-90.5 50t-43.5 67.5t-11.5 73q0 32 6.5 62t16 57t21 50.5t22.5 41.5l60 -34q-8 -14 -16.5 -33t-15.5 -39t-11.5 -40.5t-4.5 -38.5q0 -63 55.5 -97t182.5 -34q42 0 80.5 1.5t70.5 6.5
q-60 54 -60 127q0 58 24 101.5t56.5 72.5t66.5 44t54 15q25 0 53.5 -17t53 -47.5t40.5 -72.5t16 -91q0 -30 -20.5 -65t-58.5 -61q13 -2 25 -3t26.5 -1.5t34.5 -0.5h51v-103zM645 125q38 15 65.5 37.5t47.5 56.5q-1 20 -7 41.5t-17.5 41.5t-28.5 36t-39 25q-25 -6 -46 -19
t-36.5 -30.5t-24.5 -38t-9 -40.5q0 -33 24.5 -62.5t70.5 -47.5zM736 748l-63 -63l-63 63l63 64zM804 615l-63 -63l-63 63l63 64zM668 615l-63 -63l-63 63l63 64z" />
    <glyph glyph-name="veh.medi" unicode="&#x6a4;" horiz-adv-x="497" arabic-form="medial" 
d="M0 0q-14 0 -22 13t-8 38t8 38.5t22 13.5q37 0 69.5 1t63.5 5q-57 51 -57 120q0 58 23.5 101.5t56 72.5t66.5 44t54 15q25 0 53.5 -17.5t53 -48t40.5 -72.5t16 -91q0 -11 -3.5 -26t-12 -32t-23.5 -34.5t-37 -32.5q12 -2 23 -2.5t25.5 -1.5t35 -1h50.5v-103h-65
q-59 0 -104.5 8.5t-87.5 29.5q-25 -11 -49.5 -18t-52.5 -11.5t-61.5 -6.5t-76.5 -2zM246 125q76 30 114 94q-1 21 -7.5 43t-18 41.5t-28.5 35t-39 24.5q-25 -6 -46 -19t-36.5 -30.5t-24 -38t-8.5 -40.5q0 -34 24.5 -63t69.5 -47zM339 750l-63 -63l-63 63l63 64zM407 617
l-63 -63l-63 63l63 64zM271 617l-63 -63l-63 63l63 64z" />
    <glyph glyph-name="veh.init" unicode="&#x6a4;" horiz-adv-x="528" arabic-form="initial" 
d="M0 103q66 0 121.5 1.5t102.5 5.5t86.5 11.5t73.5 19.5q2 19 2.5 38t0.5 36q-34 -7 -68.5 -11.5t-74.5 -4.5q-72 0 -106 32t-34 101q0 39 12 78t34 69.5t52 50t65 19.5q41 0 77.5 -19.5t63.5 -58.5t43 -97.5t16 -135.5q0 -7 -0.5 -19t-1.5 -25.5t-2 -26t-2 -20.5
q-7 -36 -26 -64t-45 -38q-32 -13 -70 -21.5t-85 -14t-105 -7.5t-130 -2q-14 0 -22 13t-8 38t8 38.5t22 13.5zM263 454q-17 0 -32.5 -9.5t-27.5 -25.5t-19.5 -37t-7.5 -45q0 -12 2.5 -21.5t10.5 -15.5t25 -9.5t47 -3.5q29 0 61 4t59 10q-3 27 -11.5 54.5t-23 49.5t-35.5 35.5
t-48 13.5zM331 830l-63 -63l-63 63l63 64zM399 697l-63 -63l-63 63l63 64zM263 697l-63 -63l-63 63l63 64z" />
    <glyph glyph-name="qaf" unicode="&#x642;" horiz-adv-x="743" arabic-form="isolated" 
d="M309 -211q-114 0 -181 57t-67 170q0 36 7.5 76.5t20 83.5t29 87.5t33.5 89.5l64 -24q-15 -38 -29 -79t-25 -80t-18 -73.5t-7 -60.5q0 -38 13.5 -65.5t38.5 -44.5t59.5 -25t76.5 -8q28 0 63 3t71 10t71 19t64 30q5 17 6 44t1 55q-33 -2 -69.5 -3t-68.5 -1q-35 0 -65 5.5
t-51.5 21t-34 44t-12.5 73.5q0 48 15.5 91t40.5 75t57 50.5t65 18.5q46 0 83.5 -24t64.5 -69t41.5 -109.5t14.5 -146.5q0 -18 -0.5 -43t-2.5 -40q-5 -45 -24.5 -82.5t-53.5 -59.5q-20 -13 -51 -25t-69 -21t-81.5 -14.5t-89.5 -5.5zM468 146q34 0 65.5 1t59.5 2
q-2 36 -10.5 69.5t-24 59t-37 41t-48.5 15.5q-19 0 -37 -11.5t-32 -30t-22.5 -41t-8.5 -44.5q1 -16 4.5 -27.5t13.5 -19t28.5 -11t48.5 -3.5zM608 578l-63 -63l-63 63l63 64zM472 578l-63 -63l-63 63l63 64z" />
    <glyph glyph-name="qaf.fina" unicode="&#x642;" horiz-adv-x="733" arabic-form="final" 
d="M468 96q42 0 74.5 1t50.5 2q-2 36 -10.5 69.5t-24 59t-37 41t-48.5 15.5q-19 0 -37 -11.5t-32 -30t-22.5 -41t-8.5 -44.5q1 -16 4.5 -27.5t13.5 -19t28.5 -11t48.5 -3.5zM324 -157q28 0 63 3t71 10t71 19t64 30q5 17 6 44t1 55q-15 -1 -33.5 -2t-37.5 -1.5t-36.5 -0.5
h-30.5q-35 0 -65 5.5t-51.5 21t-34 44t-12.5 73.5q0 48 15.5 91t40.5 75t57 50.5t65 18.5q42 0 76 -19.5t59.5 -55.5t41.5 -87t22 -114h57v-103h-52q0 -14 -0.5 -28.5t-2.5 -24.5q-5 -45 -24.5 -82.5t-53.5 -59.5q-20 -13 -51 -25t-69 -21t-81.5 -14.5t-89.5 -5.5
q-114 0 -181 57t-67 170q0 36 7.5 76.5t20 83.5t29 87.5t33.5 89.5l64 -24q-15 -38 -29 -79t-25 -80t-18 -73.5t-7 -60.5q0 -38 13.5 -65.5t38.5 -44.5t59.5 -25t76.5 -8zM608 528l-63 -63l-63 63l63 64zM472 528l-63 -63l-63 63l63 64z" />
    <glyph glyph-name="qaf.medi" unicode="&#x642;" horiz-adv-x="497" arabic-form="medial" 
d="M0 0q-14 0 -22 13t-8 38t8 38.5t22 13.5q37 0 69.5 1t63.5 5q-57 51 -57 120q0 58 23.5 101.5t56 72.5t66.5 44t54 15q25 0 53.5 -17.5t53 -48t40.5 -72.5t16 -91q0 -11 -3.5 -26t-12 -32t-23.5 -34.5t-37 -32.5q12 -2 23 -2.5t25.5 -1.5t35 -1h50.5v-103h-65
q-59 0 -104.5 8.5t-87.5 29.5q-25 -11 -49.5 -18t-52.5 -11.5t-61.5 -6.5t-76.5 -2zM246 125q76 30 114 94q-1 21 -7.5 43t-18 41.5t-28.5 35t-39 24.5q-25 -6 -46 -19t-36.5 -30.5t-24 -38t-8.5 -40.5q0 -34 24.5 -63t69.5 -47zM391 617l-63 -63l-63 63l63 64zM255 617
l-63 -63l-63 63l63 64z" />
    <glyph glyph-name="qaf.init" unicode="&#x642;" horiz-adv-x="528" arabic-form="initial" 
d="M0 103q66 0 121.5 1.5t102.5 5.5t86.5 11.5t73.5 19.5q2 19 2.5 38t0.5 36q-34 -7 -68.5 -11.5t-74.5 -4.5q-72 0 -106 32t-34 101q0 39 12 78t34 69.5t52 50t65 19.5q41 0 77.5 -19.5t63.5 -58.5t43 -97.5t16 -135.5q0 -7 -0.5 -19t-1.5 -25.5t-2 -26t-2 -20.5
q-7 -36 -26 -64t-45 -38q-32 -13 -70 -21.5t-85 -14t-105 -7.5t-130 -2q-14 0 -22 13t-8 38t8 38.5t22 13.5zM263 454q-17 0 -32.5 -9.5t-27.5 -25.5t-19.5 -37t-7.5 -45q0 -12 2.5 -21.5t10.5 -15.5t25 -9.5t47 -3.5q29 0 61 4t59 10q-3 27 -11.5 54.5t-23 49.5t-35.5 35.5
t-48 13.5zM399 697l-63 -63l-63 63l63 64zM263 697l-63 -63l-63 63l63 64z" />
    <glyph glyph-name="kaf" unicode="&#x6a9;" horiz-adv-x="855" arabic-form="isolated" 
d="M376 94q95 0 181 15.5t143 46.5q-12 43 -42.5 80.5t-71 68.5t-85.5 56.5t-85 44.5l14 94q88 69 184 110.5t193 65.5l23 -89q-79 -20 -162 -50.5t-158 -77.5q49 -26 96 -58t84 -68t59.5 -75t22.5 -81q0 -18 -4.5 -37t-13.5 -36t-21 -31t-27 -22q-52 -28 -141 -45t-208 -17
q-93 0 -151 19.5t-90 50.5t-43.5 68.5t-11.5 72.5q0 29 6 57.5t15.5 55.5t20.5 50.5t21 43.5l60 -31q-19 -38 -31 -78t-12 -72q0 -66 57.5 -99t177.5 -33z" />
    <glyph glyph-name="kaf.fina" unicode="&#x6a9;" horiz-adv-x="912" arabic-form="final" 
d="M694 170q-19 33 -41 64t-51 60t-66.5 57t-85.5 55l15 94q87 69 183.5 110.5t193.5 65.5l22 -89q-79 -20 -162 -50.5t-158 -77.5q49 -32 87.5 -68.5t69 -75t53.5 -77.5t43 -76q10 -20 20.5 -31.5t24 -17.5t30.5 -8t40 -2v-103q-32 0 -58 3t-47.5 14t-40.5 34t-38 64
l-20 -41q-60 -42 -150 -63.5t-201 -21.5q-93 0 -151 19.5t-90 50.5t-43.5 68.5t-11.5 72.5q0 29 6 57.5t15.5 55.5t20.5 50.5t21 43.5l60 -31q-19 -38 -31 -78t-12 -72q0 -66 57.5 -99t177.5 -33q87 0 171 18t147 58z" />
    <glyph glyph-name="kaf.medi" unicode="&#x6a9;" horiz-adv-x="480" arabic-form="medial" 
d="M113 459q49 -32 87.5 -68.5t68.5 -75t53.5 -77.5t43.5 -76q10 -20 20.5 -31.5t23.5 -17.5t30 -8t40 -2v-103q-32 0 -58 3t-47.5 14t-40.5 34t-38 64l-23 -49q-62 -42 -128 -54t-145 -12q-14 0 -22 13t-8 38t8 38.5t22 13.5q41 0 75 2t65 9t60.5 20t61.5 35
q-19 33 -41 64.5t-51 60.5t-66 57t-86 55l15 94q88 69 184 110.5t193 65.5l23 -89q-79 -20 -162 -50.5t-158 -77.5z" />
    <glyph glyph-name="kaf.init" unicode="&#x6a9;" horiz-adv-x="458" arabic-form="initial" 
d="M0 103q37 0 76.5 2t79 8t77 16.5t69.5 26.5q-11 43 -42 80.5t-71.5 68.5t-85.5 56.5t-85 44.5l15 94q88 69 184 110.5t193 65.5l23 -89q-79 -20 -162 -50.5t-158 -77.5q49 -26 96 -58t84 -68t59.5 -75t22.5 -81q0 -36 -18 -71.5t-44 -51.5q-35 -21 -110 -37.5t-203 -16.5
q-14 0 -22 13t-8 38t8 38.5t22 13.5z" />
    <glyph glyph-name="kaf.arab" unicode="&#x643;" horiz-adv-x="806" arabic-form="isolated" 
d="M357 -11q-93 0 -151 19.5t-90 50.5t-43.5 68.5t-11.5 72.5q0 29 6 57.5t15.5 55.5t20.5 50.5t21 43.5l60 -31q-19 -38 -31 -78t-12 -72q0 -66 57.5 -99t176.5 -33q81 0 151.5 12.5t122.5 37.5q2 17 3 43t1 58v442l82 4v-493q0 -52 -23.5 -94.5t-59.5 -61.5
q-40 -20 -111 -36.5t-184 -16.5zM488 457q-17 10 -32.5 15.5t-29.5 5.5q-9 0 -18.5 -6t-17 -14.5t-12.5 -17.5t-5 -14q0 -9 16 -14l56 -17q26 -8 37 -21t11 -29q0 -27 -12 -47.5t-33.5 -36.5t-52 -28.5t-67.5 -22.5l-17 52q51 16 81 31t42 32q-8 8 -30.5 14t-53.5 17
q-23 8 -29.5 20t-6.5 25q0 17 7.5 41.5t22 46.5t35 37.5t46.5 15.5q22 0 45 -10t48 -25z" />
    <glyph glyph-name="kaf.arab.fina" unicode="&#x643;" horiz-adv-x="853" arabic-form="final" 
d="M488 457q-17 10 -32.5 15.5t-29.5 5.5q-9 0 -18.5 -6t-17 -14.5t-12.5 -17.5t-5 -14q0 -9 16 -14l56 -17q26 -8 37 -21t11 -29q0 -27 -12 -47.5t-33.5 -36.5t-52 -28.5t-67.5 -22.5l-17 52q51 16 81 31t42 32q-8 8 -30.5 14t-53.5 17q-23 8 -29.5 20t-6.5 25
q0 17 7.5 41.5t22 46.5t35 37.5t46.5 15.5q22 0 45 -10t48 -25zM357 -11q-93 0 -151 19.5t-90 50.5t-43.5 68.5t-11.5 72.5q0 29 6 57.5t15.5 55.5t20.5 50.5t21 43.5l60 -31q-19 -38 -31 -78t-12 -72q0 -66 57.5 -99t176.5 -33q81 0 151.5 12.5t122.5 37.5q2 17 3 43t1 58
v442l81 4v-455q0 -42 7 -68t21.5 -40.5t37 -19.5t53.5 -5v-103q-66 0 -107.5 19t-61.5 67l-21 -39q-43 -22 -119 -40t-187 -18z" />
    <glyph glyph-name="gaf" unicode="&#x6af;" horiz-adv-x="855" arabic-form="isolated" 
d="M461 646q19 15 51 33.5t68.5 36t74 33t68.5 24.5l14 -58q-26 -8 -60.5 -21.5t-70 -30t-68 -33.5t-54.5 -31zM376 94q95 0 181 15.5t143 46.5q-12 43 -42.5 80.5t-71 68.5t-85.5 56.5t-85 44.5l14 94q88 69 184 110.5t193 65.5l23 -89q-79 -20 -162 -50.5t-158 -77.5
q49 -26 96 -58t84 -68t59.5 -75t22.5 -81q0 -18 -4.5 -37t-13.5 -36t-21 -31t-27 -22q-52 -28 -141 -45t-208 -17q-93 0 -151 19.5t-90 50.5t-43.5 68.5t-11.5 72.5q0 29 6 57.5t15.5 55.5t20.5 50.5t21 43.5l60 -31q-19 -38 -31 -78t-12 -72q0 -66 57.5 -99t177.5 -33z" />
    <glyph glyph-name="gaf.fina" unicode="&#x6af;" horiz-adv-x="912" arabic-form="final" 
d="M495 646q20 15 52 33.5t68.5 36t73.5 33t68 24.5l15 -58q-26 -8 -60.5 -21.5t-70.5 -30t-68.5 -33.5t-54.5 -31zM694 170q-19 33 -41 64t-51 60t-66.5 57t-85.5 55l15 94q87 69 183.5 110.5t193.5 65.5l22 -89q-79 -20 -162 -50.5t-158 -77.5q49 -32 87.5 -68.5t69 -75
t53.5 -77.5t43 -76q10 -20 20.5 -31.5t24 -17.5t30.5 -8t40 -2v-103q-32 0 -58 3t-47.5 14t-40.5 34t-38 64l-20 -41q-60 -42 -150 -63.5t-201 -21.5q-93 0 -151 19.5t-90 50.5t-43.5 68.5t-11.5 72.5q0 29 6 57.5t15.5 55.5t20.5 50.5t21 43.5l60 -31q-19 -38 -31 -78
t-12 -72q0 -66 57.5 -99t177.5 -33q87 0 171 18t147 58z" />
    <glyph glyph-name="gaf.medi" unicode="&#x6af;" horiz-adv-x="470" arabic-form="medial" 
d="M63 646q20 15 52 33.5t68.5 36t74 33t68.5 24.5l14 -58q-26 -8 -60.5 -21.5t-70 -30t-68.5 -33.5t-54 -31zM113 459q49 -32 87.5 -68.5t68.5 -75t53.5 -77.5t43.5 -76q10 -20 20.5 -31.5t23.5 -17.5t30 -8t40 -2v-103q-32 0 -58 3t-47.5 14t-40.5 34t-38 64l-23 -49
q-62 -42 -128 -54t-145 -12q-14 0 -22 13t-8 38t8 38.5t22 13.5q41 0 75 2t65 9t60.5 20t61.5 35q-19 33 -41 64.5t-51 60.5t-66 57t-86 55l15 94q88 69 184 110.5t193 65.5l23 -89q-79 -20 -162 -50.5t-158 -77.5z" />
    <glyph glyph-name="gaf.init" unicode="&#x6af;" horiz-adv-x="448" arabic-form="initial" 
d="M63 646q20 15 52 33.5t68.5 36t74 33t68.5 24.5l14 -58q-26 -8 -60.5 -21.5t-70 -30t-68.5 -33.5t-54 -31zM0 103q37 0 76.5 2t79 8t77 16.5t69.5 26.5q-11 43 -42 80.5t-71.5 68.5t-85.5 56.5t-85 44.5l15 94q88 69 184 110.5t193 65.5l23 -89q-79 -20 -162 -50.5
t-158 -77.5q49 -26 96 -58t84 -68t59.5 -75t22.5 -81q0 -36 -18 -71.5t-44 -51.5q-35 -21 -110 -37.5t-203 -16.5q-14 0 -22 13t-8 38t8 38.5t22 13.5z" />
    <glyph glyph-name="lam" unicode="&#x644;" horiz-adv-x="653" arabic-form="isolated" 
d="M307 -108q51 0 99.5 14t85.5 44q5 16 7 39t2 48v650l81 4v-648q0 -23 -2 -47.5t-9.5 -49t-21.5 -48t-38 -42.5q-38 -31 -92.5 -49t-124.5 -18q-51 0 -94 14.5t-73.5 43t-48 71t-17.5 98.5q0 36 8 77t21 85t30 89.5t35 90.5l64 -26q-15 -37 -29.5 -78.5t-26.5 -81.5
t-19 -76t-7 -61q0 -39 13.5 -66t36.5 -44t54 -25t66 -8z" />
    <glyph glyph-name="lam.fina" unicode="&#x644;" horiz-adv-x="701" arabic-form="final" 
d="M136 -14q0 -39 13.5 -66t36.5 -44t54.5 -25t66.5 -8q51 0 99.5 14t85.5 43q5 17 7 40t2 48v699l81 4v-456q0 -42 6.5 -67.5t20.5 -40t37 -19.5t55 -5v-103q-39 0 -69 7.5t-51 28.5q-1 -39 -3 -73t-9 -62.5t-20.5 -52t-37.5 -42.5q-38 -30 -92.5 -48.5t-124.5 -18.5
q-51 0 -94 14.5t-73.5 43t-48 71t-17.5 98.5q0 36 7.5 76.5t20 83.5t29 87.5t33.5 89.5l64 -24q-15 -38 -29 -79t-25 -80t-18 -73.5t-7 -60.5z" />
    <glyph glyph-name="lam.medi" unicode="&#x644;" horiz-adv-x="346" arabic-form="medial" 
d="M0 0q-14 0 -22 13t-8 38t8 38.5t22 13.5q18 0 38 2.5t39.5 7.5t36.5 12.5t28 16.5q3 21 3.5 49.5t0.5 63.5v432l81 4v-455q0 -43 7 -69t22 -40.5t37.5 -19t52.5 -4.5v-103q-64 0 -104.5 17t-61.5 62q-1 -3 -4 -8.5t-6.5 -11.5t-6 -11t-3.5 -6q-26 -17 -66 -29.5
t-94 -12.5z" />
    <glyph glyph-name="lam.init" unicode="&#x644;" horiz-adv-x="299" arabic-form="initial" 
d="M0 0q-14 0 -22 13t-8 38t8 38.5t22 13.5q18 0 38 2.5t39.5 7.5t36.5 12.5t29 16.5q2 21 2.5 49.5t0.5 63.5v432l81 4v-512q0 -45 -21.5 -85t-53.5 -58q-27 -16 -65.5 -26t-86.5 -10z" />
    <glyph glyph-name="mim" unicode="&#x645;" horiz-adv-x="591" arabic-form="isolated" 
d="M346 278q-31 0 -60 -39t-55 -100q49 -21 101.5 -42.5t103.5 -32.5q10 20 13 38.5t3 41.5q0 30 -9.5 54.5t-24.5 42.5t-34 27.5t-38 9.5zM77 -335q-3 46 -6 89.5t-5.5 81t-3.5 67.5t-1 49q0 24 2 51.5t7 53t15 47.5t26 35q8 7 18.5 11.5t28.5 6.5q14 36 33 74.5t43 69.5
t52.5 51t61.5 20q41 0 74.5 -18.5t57 -49.5t37 -70t13.5 -80q0 -36 -5.5 -67.5t-17.5 -54.5q-4 -7 -11.5 -17.5t-18 -20t-22 -16.5t-22.5 -7q-24 0 -61 12t-77 28t-77.5 30t-62.5 19q-8 -17 -11.5 -48t-3.5 -64q0 -12 0.5 -32.5t2.5 -53.5t5 -79.5t8 -109.5z" />
    <glyph glyph-name="mim.fina" unicode="&#x645;" horiz-adv-x="709" arabic-form="final" 
d="M709 0q-52 0 -101 23.5t-86 77.5q-3 -24 -10.5 -47.5t-19.5 -42t-27 -29.5t-32 -11q-24 0 -61 12t-77 28t-77.5 30t-62.5 19q-8 -17 -11.5 -48t-3.5 -64q0 -12 0.5 -32.5t2.5 -53.5t5 -79.5t8 -109.5l-79 -8q-3 46 -6 89.5t-5.5 81t-3.5 67.5t-1 49q0 24 2 51.5t7 53
t15 47.5t26 35q8 7 18.5 11.5t28.5 6.5q14 36 33 74.5t43 69.5t52.5 51t61.5 20q53 0 90 -29t64 -74q19 -33 38 -63t42 -53t53.5 -36.5t73.5 -13.5v-103zM346 278q-31 0 -60 -39t-55 -100q49 -21 101.5 -42.5t103.5 -32.5q10 20 13 38.5t3 41.5q0 30 -9.5 54.5t-24.5 42.5
t-34 27.5t-38 9.5z" />
    <glyph glyph-name="mim.medi" unicode="&#x645;" horiz-adv-x="706" arabic-form="medial" 
d="M0 0q-14 0 -22 13t-8 38t8 38.5t22 13.5q42 0 75 20t60 50t51 64.5t48 64.5t50.5 50t59.5 20q53 0 90.5 -29t64.5 -74q19 -32 38 -62t42.5 -53t54 -37t72.5 -14v-103q-52 0 -101 23.5t-86 77.5q-3 -27 -11 -51t-20.5 -42t-29 -28.5t-35.5 -10.5q-21 0 -53.5 8t-69 22
t-73.5 34t-67 43q-32 -35 -70.5 -55.5t-89.5 -20.5zM342 278q-17 0 -32.5 -11.5t-30.5 -30t-30.5 -42t-32.5 -47.5q42 -31 101 -54t116 -31q8 17 11.5 36t3.5 46q0 30 -9.5 54.5t-24.5 42.5t-34 27.5t-38 9.5z" />
    <glyph glyph-name="mim.init" unicode="&#x645;" horiz-adv-x="588" arabic-form="initial" 
d="M0 103q42 0 75 20t60 50t51 64.5t48 64.5t50.5 50t59.5 20q41 0 74.5 -18t57.5 -48.5t37 -70t13 -81.5q0 -27 -2.5 -52t-9.5 -44q-3 -13 -11 -28.5t-20 -29t-27 -22.5t-33 -9q-21 0 -53.5 8t-69 22t-73.5 34t-67 43q-32 -35 -70.5 -55.5t-89.5 -20.5q-14 0 -22 13t-8 38
t8 38.5t22 13.5zM342 278q-17 0 -32.5 -11.5t-30.5 -30t-30.5 -42t-32.5 -47.5q42 -31 101 -54t116 -31q8 17 11.5 36t3.5 46q0 30 -9.5 54.5t-24.5 42.5t-34 27.5t-38 9.5z" />
    <glyph glyph-name="nun" unicode="&#x646;" horiz-adv-x="684" arabic-form="isolated" 
d="M623 46q0 -27 -3.5 -54t-12.5 -51.5t-23.5 -45.5t-36.5 -36q-20 -14 -47 -26.5t-59 -22t-68 -15.5t-73 -6q-54 0 -98 14t-75.5 42.5t-48.5 71t-17 99.5q0 36 7.5 76.5t20 83.5t29 87.5t33.5 89.5l64 -24q-15 -38 -29 -79t-25 -80t-18 -73.5t-7 -60.5q0 -38 13.5 -65.5
t37.5 -44.5t57 -25t72 -8q25 0 54.5 4.5t58 12.5t54.5 19t46 25q5 17 6.5 35.5t1.5 44.5q0 41 -5.5 91t-13.5 99.5t-17 95t-16 78.5l87 19q8 -38 17 -84t16.5 -94.5t12.5 -98t5 -94.5zM396 482l-63 -63l-63 63l63 64z" />
    <glyph glyph-name="nun.fina" unicode="&#x646;" horiz-adv-x="712" arabic-form="final" 
d="M713 0q-32 0 -56.5 10.5t-42.5 35.5q2 -18 1.5 -38t-0.5 -36q-2 -48 -17 -93.5t-51 -69.5q-20 -14 -47 -26.5t-59 -22t-68 -15.5t-73 -6q-54 0 -98 14t-75.5 42.5t-48.5 71t-17 99.5q0 36 7.5 76.5t20 83.5t29 87.5t33.5 89.5l64 -24q-15 -38 -29 -79t-25 -80t-18 -73.5
t-7 -60.5q0 -38 13.5 -65.5t37.5 -44.5t57 -25t72 -8q25 0 54.5 4.5t58 12.5t54.5 19t46 25q5 17 6.5 35.5t1.5 43.5q0 39 -5 86t-12 94t-15 90t-15 76l84 17l20 -118q5 -26 14 -48.5t23.5 -39t34.5 -26.5t47 -10v-104zM398 430l-63 -63l-63 63l63 64z" />
    <glyph glyph-name="nun.medi" unicode="&#x646;" horiz-adv-x="350" arabic-form="medial" 
d="M0 103q55 0 88.5 15t53.5 45.5t30.5 77t19.5 110.5l78 -10q-7 -57 -17.5 -105.5t-19.5 -79.5q17 -32 45.5 -42.5t71.5 -10.5v-103q-51 0 -91 16.5t-71 57.5q-29 -35 -73.5 -54.5t-114.5 -19.5q-14 0 -22 13t-8 38t8 38.5t22 13.5zM251 500l-63 -63l-63 63l63 64z" />
    <glyph glyph-name="nun.init" unicode="&#x646;" horiz-adv-x="305" arabic-form="initial" 
d="M0 103q20 0 42.5 2.5t44 7t40 12t30.5 17.5q2 72 -5.5 139t-18.5 125l89 17q11 -55 16.5 -115.5t5.5 -113.5q0 -48 -18 -90t-55 -66q-26 -17 -71 -27.5t-100 -10.5q-14 0 -22 13t-8 38t8 38.5t22 13.5zM223 576l-63 -63l-63 63l63 64z" />
    <glyph glyph-name="vav" unicode="&#x648;" horiz-adv-x="494" arabic-form="isolated" 
d="M232 96q34 0 64 1t57 2q-2 48 -13 82.5t-28 57.5t-37.5 34t-40.5 11q-18 0 -35 -11.5t-30.5 -30t-22 -41t-8.5 -44.5q0 -15 3.5 -26.5t13.5 -19t28.5 -11.5t48.5 -4zM46 -123q44 -16 69 -19.5t42 -3.5q18 0 43 9.5t51.5 26t51 39.5t42.5 50q2 5 2.5 13t1.5 13
q-32 -3 -62.5 -4t-58.5 -1q-34 0 -64 5.5t-52 21t-35 43.5t-13 74q0 48 15.5 91t40 75t55 50.5t61.5 18.5q46 0 82.5 -22.5t62 -63t39 -98t13.5 -127.5q0 -52 -14 -94.5t-35.5 -75.5t-49 -58t-54.5 -41t-51.5 -24t-39.5 -8q-27 0 -66 11t-102 40z" />
    <glyph glyph-name="vav.fina" unicode="&#x648;" horiz-adv-x="503" arabic-form="final" 
d="M46 -123q44 -16 69 -19.5t42 -3.5q18 0 43 9.5t51.5 26t51 39.5t42.5 50q2 5 2.5 13t1.5 13q-35 -3 -66.5 -4t-54.5 -1q-34 0 -64 5.5t-52 21t-35 43.5t-13 74q0 48 15.5 91t40 75t55 50.5t61.5 18.5q43 0 77.5 -19.5t59.5 -55.5t39.5 -87t17.5 -114h73v-103h-77
q-13 -60 -44 -103.5t-67 -72.5t-70.5 -43t-55.5 -14q-27 0 -66 11t-102 40zM232 96q41 0 72.5 1t48.5 2q-2 48 -13 82.5t-28 57.5t-37.5 34t-40.5 11q-18 0 -35 -11.5t-30.5 -30t-22 -41t-8.5 -44.5q0 -15 3.5 -26.5t13.5 -19t28.5 -11.5t48.5 -4z" />
    <glyph glyph-name="vav.thmz" unicode="&#x624;" horiz-adv-x="494" arabic-form="isolated" 
d="M232 96q34 0 64 1t57 2q-2 48 -13 82.5t-28 57.5t-37.5 34t-40.5 11q-18 0 -35 -11.5t-30.5 -30t-22 -41t-8.5 -44.5q0 -15 3.5 -26.5t13.5 -19t28.5 -11.5t48.5 -4zM46 -123q44 -16 69 -19.5t42 -3.5q18 0 43 9.5t51.5 26t51 39.5t42.5 50q2 5 2.5 13t1.5 13
q-32 -3 -62.5 -4t-58.5 -1q-34 0 -64 5.5t-52 21t-35 43.5t-13 74q0 48 15.5 91t40 75t55 50.5t61.5 18.5q46 0 82.5 -22.5t62 -63t39 -98t13.5 -127.5q0 -52 -14 -94.5t-35.5 -75.5t-49 -58t-54.5 -41t-51.5 -24t-39.5 -8q-27 0 -66 11t-102 40zM128 578q0 46 31.5 71
t76.5 25q23 0 54 -7l-12 -52q-18 5 -36 5q-20 0 -39 -7.5t-33 -26.5q7 -19 22.5 -36t35.5 -28l105 50l21 -46l-245 -114l-21 46l85 39q-17 14 -31 35t-14 46z" />
    <glyph glyph-name="vav.thmz.fina" unicode="&#x624;" horiz-adv-x="503" arabic-form="final" 
d="M46 -123q44 -16 69 -19.5t42 -3.5q18 0 43 9.5t51.5 26t51 39.5t42.5 50q2 5 2.5 13t1.5 13q-35 -3 -66.5 -4t-54.5 -1q-34 0 -64 5.5t-52 21t-35 43.5t-13 74q0 48 15.5 91t40 75t55 50.5t61.5 18.5q43 0 77.5 -19.5t59.5 -55.5t39.5 -87t17.5 -114h73v-103h-77
q-13 -60 -44 -103.5t-67 -72.5t-70.5 -43t-55.5 -14q-27 0 -66 11t-102 40zM232 96q41 0 72.5 1t48.5 2q-2 48 -13 82.5t-28 57.5t-37.5 34t-40.5 11q-18 0 -35 -11.5t-30.5 -30t-22 -41t-8.5 -44.5q0 -15 3.5 -26.5t13.5 -19t28.5 -11.5t48.5 -4zM128 578q0 46 31.5 71
t76.5 25q23 0 54 -7l-12 -52q-18 5 -36 5q-20 0 -39 -7.5t-33 -26.5q7 -19 22.5 -36t35.5 -28l105 50l21 -46l-245 -114l-21 46l85 39q-17 14 -31 35t-14 46z" />
    <glyph glyph-name="he.fina" unicode="&#x647;" horiz-adv-x="524" arabic-form="final" 
d="M524 0q-22 0 -45 2.5t-45 13.5t-42 33.5t-35 61.5l-13 -41q-46 -17 -85.5 -24t-68.5 -7q-11 0 -25.5 1.5t-29 5.5t-27.5 11.5t-20 18.5q-7 8 -12 20.5t-8 26t-4 26.5t-1 24q0 43 16 80t43.5 67.5t65 53.5t80.5 40l-23 93l84 25l81 -325q7 -26 14.5 -45.5t20 -32.5
t31.5 -19.5t48 -6.5v-103zM138 142q11 -7 25.5 -9.5t31.5 -2.5q26 0 63.5 7.5t79.5 24.5l-48 174q-35 -12 -65.5 -29.5t-52 -40.5t-31 -54t-3.5 -70z" />
    <glyph glyph-name="he.medi" unicode="&#x647;" horiz-adv-x="469" arabic-form="medial" 
d="M79 103q6 72 32 136t57 113t59.5 77.5t39.5 28.5q13 0 31.5 -27t34.5 -66.5t27.5 -85.5t11.5 -84q0 -26 -23.5 -50.5t-58.5 -47.5q28 4 73.5 5t105.5 1v-103h-14.5t-20.5 1l-22 2t-20 3q18 -15 25 -36.5t7 -42.5q0 -35 -14 -73.5t-35 -68.5q-13 -10 -38.5 -13.5
t-44.5 -3.5q-38 0 -74 14.5t-65 44t-48.5 73t-25.5 101.5q-14 -1 -30 -1h-49q-14 0 -22 13t-8 38t8 38.5t22 13.5h79zM150 7q5 -30 15.5 -57t28 -47.5t43 -32t59.5 -11.5q8 0 20 0.5t24 2.5q11 30 11 64q-2 35 -20 58t-47 23h-134zM144 96q17 1 38 7.5t42 17.5t41 27t35 38
q-4 47 -19 92.5t-34 72.5q-16 -19 -33.5 -47.5t-32.5 -62t-25.5 -71t-11.5 -74.5z" />
    <glyph glyph-name="he.init" unicode="&#x647;" horiz-adv-x="692" arabic-form="initial" 
d="M0 0q-14 0 -22 13t-8 38t8 38.5t22 13.5q42 0 82.5 2.5t75.5 10.5q-27 22 -44 52t-17 56q0 23 9 48.5t24 50t35.5 47t43.5 40.5l-59 30l39 77q95 -50 165 -89.5t119 -73t79.5 -62t48 -56t23.5 -56.5t6 -62q0 -20 -5.5 -43t-17.5 -42.5t-30 -32.5t-42 -13q-14 0 -45 4.5
t-70 12.5t-82 19.5t-83 26.5q-59 -31 -122 -40.5t-133 -9.5zM163 235q8 -26 34 -52.5t64 -43.5q27 12 53.5 36t39.5 48q-2 45 -19.5 82t-58.5 60q-17 -8 -34.5 -20.5t-33 -29t-27.5 -37t-18 -43.5zM352 111q42 -13 90.5 -23.5t99.5 -16.5q12 24 12 47q0 49 -32 90.5
t-113 88.5q5 -17 6 -33.5t0 -36.5q-3 -68 -63 -116z" />
    <glyph glyph-name="he.arab" unicode="&#x647;" horiz-adv-x="706" arabic-form="isolated" 
d="M47 33q39 8 80 22.5t69 31.5q-45 26 -68 63.5t-23 72.5q0 24 9 49t24 50t35.5 47.5t43.5 40.5l-59 30l40 77q95 -50 165 -89.5t119 -73t79.5 -62t48 -56t23.5 -56.5t6 -62q0 -20 -5.5 -43t-17.5 -42.5t-30 -32.5t-42 -13q-14 0 -42 4t-64 11t-76.5 17.5t-77.5 23.5
q-24 -16 -53 -29t-58.5 -23t-58 -16t-51.5 -7zM172 235q8 -26 34.5 -53t65.5 -44q26 13 51.5 37t39.5 48q-2 45 -19.5 82t-58.5 60q-17 -8 -34.5 -20.5t-33 -29t-27.5 -37t-18 -43.5zM361 111q42 -13 90.5 -23.5t99.5 -16.5q12 24 12 47q0 49 -32 90.5t-113 88.5
q5 -17 6 -33.5t0 -36.5q-3 -68 -63 -116z" />
    <glyph glyph-name="he.thmz.goal.fina" unicode="&#x6c2;" horiz-adv-x="524" 
d="M524 0q-22 0 -45 2.5t-45 13.5t-42 33.5t-35 61.5l-13 -41q-46 -17 -85.5 -24t-68.5 -7q-11 0 -25.5 1.5t-29 5.5t-27.5 11.5t-20 18.5q-7 8 -12 20.5t-8 26t-4 26.5t-1 24q0 43 16 80t43.5 67.5t65 53.5t80.5 40l-23 93l84 25l81 -325q7 -26 14.5 -45.5t20 -32.5
t31.5 -19.5t48 -6.5v-103zM138 142q11 -7 25.5 -9.5t31.5 -2.5q26 0 63.5 7.5t79.5 24.5l-48 174q-35 -12 -65.5 -29.5t-52 -40.5t-31 -54t-3.5 -70zM164 692q0 46 31.5 71t76.5 25q23 0 54 -7l-12 -52q-18 5 -36 5q-20 0 -39 -7.5t-33 -26.5q7 -19 22.5 -36t35.5 -28
l105 50l21 -46l-245 -114l-21 46l85 39q-17 14 -31 35t-14 46z" />
    <glyph glyph-name="te.marbuta" unicode="&#x629;" horiz-adv-x="488" arabic-form="isolated" 
d="M152 471q78 -41 130 -79.5t83.5 -78t45 -81.5t13.5 -88q0 -12 -4 -28.5t-11.5 -33t-17.5 -30.5t-23 -21q-36 -20 -78.5 -27.5t-77.5 -7.5q-42 0 -71 11.5t-47 30.5t-25.5 43t-7.5 50q0 27 8 55.5t20.5 58t29 59.5t34.5 59l-45 26zM216 96q28 0 65 5.5t69 22.5
q-5 67 -38.5 116t-99.5 88q-12 -19 -26 -42t-25 -46.5t-18.5 -45.5t-7.5 -39q0 -10 4 -20.5t13 -19t24.5 -14t39.5 -5.5zM358 606l-63 -63l-63 63l63 64zM222 606l-63 -63l-63 63l63 64z" />
    <glyph glyph-name="te.marbuta.fina" unicode="&#x629;" horiz-adv-x="524" arabic-form="final" 
d="M524 0q-22 0 -45 2.5t-45 13.5t-42 33.5t-35 61.5l-13 -41q-46 -17 -85.5 -24t-68.5 -7q-11 0 -25.5 1.5t-29 5.5t-27.5 11.5t-20 18.5q-7 8 -12 20.5t-8 26t-4 26.5t-1 24q0 43 16 80t43.5 67.5t65 53.5t80.5 40l-23 93l84 25l81 -325q7 -26 14.5 -45.5t20 -32.5
t31.5 -19.5t48 -6.5v-103zM138 142q11 -7 25.5 -9.5t31.5 -2.5q26 0 63.5 7.5t79.5 24.5l-48 174q-35 -12 -65.5 -29.5t-52 -40.5t-31 -54t-3.5 -70zM415 651l-63 -63l-63 63l63 64zM279 651l-63 -63l-63 63l63 64z" />
    <glyph glyph-name="he.thmz" unicode="&#x6c0;" horiz-adv-x="488" arabic-form="isolated" 
d="M298 772q-37 20 -60 20q-9 0 -18.5 -6t-17 -14.5t-12.5 -17.5t-5 -14q2 -11 16 -14l56 -17q27 -8 38 -21t11 -30q0 -53 -46.5 -83t-123.5 -50l-17 52q52 16 83.5 30.5t44.5 31.5q-8 8 -31 14t-54 16q-23 8 -29 20.5t-6 25.5q0 17 8 41t22.5 46.5t35 38t45.5 15.5
q20 0 42 -9.5t47 -24.5zM152 471q78 -41 130 -79.5t83.5 -78t45 -81.5t13.5 -88q0 -12 -4 -28.5t-11.5 -33t-17.5 -30.5t-23 -21q-36 -20 -78.5 -27.5t-77.5 -7.5q-42 0 -71 11.5t-47 30.5t-25.5 43t-7.5 50q0 27 8 55.5t20.5 58t29 59.5t34.5 59l-45 26zM216 96
q28 0 65 5.5t69 22.5q-5 67 -38.5 116t-99.5 88q-12 -19 -26 -42t-25 -46.5t-18.5 -45.5t-7.5 -39q0 -10 4 -20.5t13 -19t24.5 -14t39.5 -5.5z" />
    <glyph glyph-name="he.thmz.fina" unicode="&#x6c0;" horiz-adv-x="524" arabic-form="final" 
d="M320 790q-37 20 -60 20q-9 0 -18.5 -6t-17 -14.5t-12.5 -17.5t-5 -14q2 -11 16 -14l56 -17q27 -8 38 -21t11 -30q0 -53 -46.5 -83t-123.5 -50l-17 52q52 16 83.5 30.5t44.5 31.5q-8 8 -31 14t-54 16q-23 8 -29 20.5t-6 25.5q0 17 8 41t22.5 46.5t35 38t45.5 15.5
q20 0 42 -9.5t47 -24.5zM524 0q-22 0 -45 2.5t-45 13.5t-42 33.5t-35 61.5l-13 -41q-46 -17 -85.5 -24t-68.5 -7q-11 0 -25.5 1.5t-29 5.5t-27.5 11.5t-20 18.5q-7 8 -12 20.5t-8 26t-4 26.5t-1 24q0 43 16 80t43.5 67.5t65 53.5t80.5 40l-23 93l84 25l81 -325
q7 -26 14.5 -45.5t20 -32.5t31.5 -19.5t48 -6.5v-103zM138 142q11 -7 25.5 -9.5t31.5 -2.5q26 0 63.5 7.5t79.5 24.5l-48 174q-35 -12 -65.5 -29.5t-52 -40.5t-31 -54t-3.5 -70z" />
    <glyph glyph-name="he.goal.fina" unicode="&#x6c1;" horiz-adv-x="512" arabic-form="final" 
d="M49 123q20 37 39 61.5t50 47t81 47t131 61.5l33 -129q7 -27 15 -47.5t22 -34t35.5 -20t56.5 -6.5v-103q-27 0 -54.5 2.5t-53 16t-46.5 41t-36 77.5l-24 85q-49 -23 -79.5 -38t-50.5 -29t-34 -29.5t-30 -38.5z" />
    <glyph glyph-name="he.goal.medi" unicode="&#x6c1;" horiz-adv-x="495" arabic-form="medial" 
d="M51 103q24 0 45 5.5t41.5 20.5t41.5 41.5t45 68.5l66 -40q-22 -38 -40.5 -67.5t-36.5 -51.5q0 -41 4 -71t13.5 -54t25.5 -43.5t41 -38.5q-6 36 -6 67q0 86 38.5 124.5t107.5 38.5h58v-103h-64q-32 0 -49.5 -17t-17.5 -65q0 -17 2.5 -39.5t7.5 -49.5l-45 -75
q-44 24 -77.5 48.5t-56.5 55.5t-35.5 71t-14.5 94q-22 -14 -45 -18.5t-51 -4.5h-49q-14 0 -22 13t-8 38t8 38.5t22 13.5h51z" />
    <glyph glyph-name="he.goal.init" unicode="&#x6c1;" horiz-adv-x="305" arabic-form="initial" 
d="M0 103q20 0 42.5 2.5t44 7t40 12t30.5 17.5q2 72 -5.5 139t-18.5 125l89 17q11 -55 16.5 -115.5t5.5 -113.5q0 -48 -18 -90t-55 -66q-26 -17 -71 -27.5t-100 -10.5q-14 0 -22 13t-8 38t8 38.5t22 13.5zM112 -409l-32 32t-25.5 30.5t-16.5 33t-6 39.5q0 46 26.5 91.5
t73.5 90.5l50 -50q-38 -38 -53.5 -63t-15.5 -42q0 -8 2.5 -15.5t10 -17t21.5 -23.5t36 -34z" />
    <glyph glyph-name="he.dochashmi.fina" unicode="&#x6be;" horiz-adv-x="563" arabic-form="final" 
d="M518 -73q0 -35 -14 -73.5t-35 -68.5q-13 -10 -38.5 -13.5t-44.5 -3.5q-33 0 -66 12t-61.5 37t-50 63.5t-31.5 91.5q-32 -8 -61.5 -13t-54.5 -7l-14 71q26 5 59 13t64 18q0 85 25.5 158.5t58.5 128t64 86t43 31.5q13 0 31.5 -27t34.5 -66.5t27.5 -85.5t11.5 -84
q0 -20 -16.5 -44t-42.5 -47q35 -1 71.5 -1h84.5v-103q-11 0 -35 1t-42 5q18 -15 25 -36.5t7 -42.5zM445 -74q-1 26 -10.5 43t-26 27.5t-39 17t-50.5 12.5q-41 -21 -73 -31q6 -29 17.5 -53.5t29 -43t41.5 -29t56 -10.5q8 0 20 0.5t24 2.5q11 30 11 64zM341 351
q-16 -19 -33.5 -47.5t-32.5 -63.5t-25 -76t-11 -84q48 20 89.5 47t65.5 60q-4 46 -19 91.5t-34 72.5z" />
    <glyph glyph-name="he.dochashmi.medi" unicode="&#x6be;" horiz-adv-x="469" arabic-form="medial" 
d="M79 103q6 72 32 136t57 113t59.5 77.5t39.5 28.5q13 0 31.5 -27t34.5 -66.5t27.5 -85.5t11.5 -84q0 -26 -23.5 -50.5t-58.5 -47.5q28 4 73.5 5t105.5 1v-103h-14.5t-20.5 1l-22 2t-20 3q18 -15 25 -36.5t7 -42.5q0 -35 -14 -73.5t-35 -68.5q-13 -10 -38.5 -13.5
t-44.5 -3.5q-38 0 -74 14.5t-65 44t-48.5 73t-25.5 101.5q-14 -1 -30 -1h-49q-14 0 -22 13t-8 38t8 38.5t22 13.5h79zM150 7q5 -30 15.5 -57t28 -47.5t43 -32t59.5 -11.5q8 0 20 0.5t24 2.5q11 30 11 64q-2 35 -20 58t-47 23h-134zM144 96q17 1 38 7.5t42 17.5t41 27t35 38
q-4 47 -19 92.5t-34 72.5q-16 -19 -33.5 -47.5t-32.5 -62t-25.5 -71t-11.5 -74.5z" />
    <glyph glyph-name="he.dochashmi.init" unicode="&#x6be;" horiz-adv-x="692" arabic-form="initial" 
d="M0 0q-14 0 -22 13t-8 38t8 38.5t22 13.5q42 0 82.5 2.5t75.5 10.5q-27 22 -44 52t-17 56q0 23 9 48.5t24 50t35.5 47t43.5 40.5l-59 30l39 77q95 -50 165 -89.5t119 -73t79.5 -62t48 -56t23.5 -56.5t6 -62q0 -20 -5.5 -43t-17.5 -42.5t-30 -32.5t-42 -13q-14 0 -45 4.5
t-70 12.5t-82 19.5t-83 26.5q-59 -31 -122 -40.5t-133 -9.5zM163 235q8 -26 34 -52.5t64 -43.5q27 12 53.5 36t39.5 48q-2 45 -19.5 82t-58.5 60q-17 -8 -34.5 -20.5t-33 -29t-27.5 -37t-18 -43.5zM352 111q42 -13 90.5 -23.5t99.5 -16.5q12 24 12 47q0 49 -32 90.5
t-113 88.5q5 -17 6 -33.5t0 -36.5q-3 -68 -63 -116z" />
    <glyph glyph-name="te.marbuta.goal.fina" unicode="&#x6c3;" horiz-adv-x="512" 
d="M49 123q20 37 39 61.5t50 47t81 47t131 61.5l33 -129q7 -27 15 -47.5t22 -34t35.5 -20t56.5 -6.5v-103q-27 0 -54.5 2.5t-53 16t-46.5 41t-36 77.5l-24 85q-49 -23 -79.5 -38t-50.5 -29t-34 -29.5t-30 -38.5zM389 489l-63 -63l-63 63l63 64zM253 489l-63 -63l-63 63
l63 64z" />
    </font>
</defs>
</svg>
