<?xml version="1.0" encoding="utf-8"?>
<!-- Generator: Adobe Illustrator 22.0.1, SVG Export Plug-In . SVG Version: 6.00 Build 0)  -->
<svg version="1.1" id="Layer_1" xmlns="http://www.w3.org/2000/svg" xmlns:xlink="http://www.w3.org/1999/xlink" x="0px" y="0px"
	 viewBox="0 0 60 60" style="enable-background:new 0 0 60 60;" xml:space="preserve">
<style type="text/css">
	.st0{fill:url(#SVGID_1_);}
	.st1{fill:#2E3774;}
</style>
<g>
	
		<linearGradient id="SVGID_1_" gradientUnits="userSpaceOnUse" x1="29.7123" y1="23.5647" x2="30.0345" y2="47.5202" gradientTransform="matrix(1 0 0 -1 0 62)">
		<stop  offset="0" style="stop-color:#6758CF"/>
		<stop  offset="0.2722" style="stop-color:#6F5CD1"/>
		<stop  offset="0.685" style="stop-color:#8468D7"/>
		<stop  offset="0.9836" style="stop-color:#9773DD"/>
	</linearGradient>
	<path class="st0" d="M42.8,18.9C42.8,11.8,37,6,29.9,6S17,11.8,17,18.9c0,6.8,5.3,12.4,12,12.9l0,0c0,0,0,0,0.1,0s0.1,0,0.2,0
		s0.2,0,0.3,0l0,0c0.8,0.1,2.3,0.2,3.3,0.8c1.4,0.9,2.4,2.4,2.6,4.2c0.3,3-1.8,5.8-4.9,6.3c-0.3,0-0.5,0.1-0.8,0.1l0,0
		c-3.2,0-5.7-2.6-5.7-5.7v-0.1l0,0l0.1-2.1l-3.7-3.1l-3,2.8l-0.6,1c-0.2,0.7,0.1,2.9,0.1,2.9l0,0c0.7,6.5,6.2,11.5,12.8,11.5
		c7.1,0,12.9-5.8,12.9-12.9c0-3.6-1.5-6.9-3.9-9.3C41.3,25.9,42.8,22.6,42.8,18.9 M29.9,24.7c-3.1,0-5.7-2.6-5.7-5.7
		s2.6-5.7,5.7-5.7s5.7,2.6,5.7,5.7C35.6,22.2,33.1,24.7,29.9,24.7"/>
	<path class="st1" d="M35.6,19.3v0.1c-0.1,1.3-0.6,2.4-1.4,3.3c-0.7,0.8-1.7,1.5-3.1,1.8c0,0,4.6,0.5,7.7,3.6l0,0
		c2.4-2.3,3.9-5.6,3.9-9.3c0-0.2,0-0.4,0-0.6c0-0.2,0-0.3,0-0.5l0,0c0-0.4-0.1-0.9-0.2-1.3c0,0-0.1-0.9-0.6-2.1
		c-1.6-4.2-5.3-7.4-9.9-8.1c-0.2,0-0.4-0.1-0.5-0.1h-0.1C31.7,6.2,36.8,7.7,35.6,19.3"/>
	<path class="st1" d="M24.2,35.9c0,0-0.9,11.6,4.9,14.5c0,0-8.2-0.1-11.4-8.7c0,0-1-3-0.7-5.9L24.2,35.9z"/>
	<polygon class="st1" points="15.7,36.3 18.6,36.3 22.4,36.3 25.3,36.3 20.5,31.9 	"/>
</g>
</svg>
